<svg width="340" height="330" viewBox="0 0 340 330" fill="none" xmlns="http://www.w3.org/2000/svg">
<path opacity="0.09" d="M192.667 271.547C266.437 271.547 326.239 220.2 326.239 156.861C326.239 93.5215 266.437 42.1748 192.667 42.1748C118.898 42.1748 59.0957 93.5215 59.0957 156.861C59.0957 220.2 118.898 271.547 192.667 271.547Z" fill="#397D4F"/>
<path opacity="0.06" d="M306.001 153.902C323.81 128.745 328.667 94.7087 314.096 65.1123C299.524 35.5159 275.239 20.7177 246.096 25.1572C216.953 29.5966 195.905 50.3141 186.191 81.3903C176.477 112.467 181.334 146.502 200.763 171.659C220.191 196.816 252.572 204.215 276.858 193.857C301.144 183.498 312.477 171.659 306.001 153.902Z" fill="#397D4F"/>
<path opacity="0.24" d="M268.762 45.874H77.7146C75.032 45.874 72.8574 47.8616 72.8574 50.3135V163.52C72.8574 165.972 75.032 167.959 77.7146 167.959H268.762C271.445 167.959 273.619 165.972 273.619 163.52V50.3135C273.619 47.8616 271.445 45.874 268.762 45.874Z" fill="#397D4F"/>
<path opacity="0.44" d="M268.762 45.874H77.7146C75.032 45.874 72.8574 47.8616 72.8574 50.3135V60.6722C72.8574 63.1241 75.032 65.1117 77.7146 65.1117H268.762C271.445 65.1117 273.619 63.1241 273.619 60.6722V50.3135C273.619 47.8616 271.445 45.874 268.762 45.874Z" fill="#397D4F"/>
<path opacity="0.65" d="M85.8093 59.193C88.0448 59.193 89.857 57.5367 89.857 55.4935C89.857 53.4503 88.0448 51.7939 85.8093 51.7939C83.5739 51.7939 81.7617 53.4503 81.7617 55.4935C81.7617 57.5367 83.5739 59.193 85.8093 59.193Z" fill="#397D4F"/>
<path opacity="0.45" d="M97.1433 59.193C99.3788 59.193 101.191 57.5367 101.191 55.4935C101.191 53.4503 99.3788 51.7939 97.1433 51.7939C94.9079 51.7939 93.0957 53.4503 93.0957 55.4935C93.0957 57.5367 94.9079 59.193 97.1433 59.193Z" fill="#397D4F"/>
<path opacity="0.28" d="M108.475 59.193C110.711 59.193 112.523 57.5367 112.523 55.4935C112.523 53.4503 110.711 51.7939 108.475 51.7939C106.24 51.7939 104.428 53.4503 104.428 55.4935C104.428 57.5367 106.24 59.193 108.475 59.193Z" fill="#397D4F"/>
<path opacity="0.28" d="M201.571 51.0537H125.475C124.134 51.0537 123.047 52.0475 123.047 53.2734V57.7129C123.047 58.9388 124.134 59.9326 125.475 59.9326H201.571C202.912 59.9326 203.999 58.9388 203.999 57.7129V53.2734C203.999 52.0475 202.912 51.0537 201.571 51.0537Z" fill="#397D4F"/>
<path opacity="0.2" d="M254.191 73.9912H84.1913C83.2971 73.9912 82.5723 74.6537 82.5723 75.471V82.8701C82.5723 83.6874 83.2971 84.35 84.1913 84.35H254.191C255.085 84.35 255.81 83.6874 255.81 82.8701V75.471C255.81 74.6537 255.085 73.9912 254.191 73.9912Z" fill="#397D4F"/>
<path opacity="0.35" d="M254.191 73.9912H84.1913C83.2971 73.9912 82.5723 74.6537 82.5723 75.471V82.8701C82.5723 83.6874 83.2971 84.35 84.1913 84.35H254.191C255.085 84.35 255.81 83.6874 255.81 82.8701V75.471C255.81 74.6537 255.085 73.9912 254.191 73.9912Z" fill="#397D4F"/>
<path opacity="0.3" d="M250.143 76.2109H240.429C239.982 76.2109 239.619 76.5422 239.619 76.9508V81.3903C239.619 81.799 239.982 82.1302 240.429 82.1302H250.143C250.59 82.1302 250.952 81.799 250.952 81.3903V76.9508C250.952 76.5422 250.59 76.2109 250.143 76.2109Z" fill="#397D4F"/>
<path opacity="0.28" d="M129.523 76.2109H86.6181C86.171 76.2109 85.8086 76.5422 85.8086 76.9508V81.3903C85.8086 81.799 86.171 82.1302 86.6181 82.1302H129.523C129.97 82.1302 130.332 81.799 130.332 81.3903V76.9508C130.332 76.5422 129.97 76.2109 129.523 76.2109Z" fill="#397D4F"/>
<path opacity="0.15" d="M254.191 88.7891H84.1913C83.2971 88.7891 82.5723 89.4516 82.5723 90.2689V97.668C82.5723 98.4853 83.2971 99.1478 84.1913 99.1478H254.191C255.085 99.1478 255.81 98.4853 255.81 97.668V90.2689C255.81 89.4516 255.085 88.7891 254.191 88.7891Z" fill="#397D4F"/>
<path opacity="0.32" d="M212.096 88.7891H84.1913C83.2971 88.7891 82.5723 89.4516 82.5723 90.2689V97.668C82.5723 98.4853 83.2971 99.1478 84.1913 99.1478H212.096C212.99 99.1478 213.715 98.4853 213.715 97.668V90.2689C213.715 89.4516 212.99 88.7891 212.096 88.7891Z" fill="#397D4F"/>
<path opacity="0.26" d="M120.618 91.0088H86.6181C86.171 91.0088 85.8086 91.3401 85.8086 91.7487V96.1882C85.8086 96.5968 86.171 96.9281 86.6181 96.9281H120.618C121.065 96.9281 121.428 96.5968 121.428 96.1882V91.7487C121.428 91.3401 121.065 91.0088 120.618 91.0088Z" fill="#397D4F"/>
<path opacity="0.13" d="M254.191 103.588H84.1913C83.2971 103.588 82.5723 104.25 82.5723 105.068V112.467C82.5723 113.284 83.2971 113.947 84.1913 113.947H254.191C255.085 113.947 255.81 113.284 255.81 112.467V105.068C255.81 104.25 255.085 103.588 254.191 103.588Z" fill="#397D4F"/>
<path opacity="0.3" d="M170.001 103.588H84.1913C83.2971 103.588 82.5723 104.25 82.5723 105.068V112.467C82.5723 113.284 83.2971 113.947 84.1913 113.947H170.001C170.895 113.947 171.62 113.284 171.62 112.467V105.068C171.62 104.25 170.895 103.588 170.001 103.588Z" fill="#397D4F"/>
<path opacity="0.24" d="M114.142 105.808H86.6181C86.171 105.808 85.8086 106.139 85.8086 106.548V110.987C85.8086 111.396 86.171 111.727 86.6181 111.727H114.142C114.589 111.727 114.951 111.396 114.951 110.987V106.548C114.951 106.139 114.589 105.808 114.142 105.808Z" fill="#397D4F"/>
<path opacity="0.12" d="M254.191 118.386H84.1913C83.2971 118.386 82.5723 119.048 82.5723 119.866V127.265C82.5723 128.082 83.2971 128.744 84.1913 128.744H254.191C255.085 128.744 255.81 128.082 255.81 127.265V119.866C255.81 119.048 255.085 118.386 254.191 118.386Z" fill="#397D4F"/>
<path opacity="0.6" d="M136.001 118.386H84.1913C83.2971 118.386 82.5723 119.048 82.5723 119.866V127.265C82.5723 128.082 83.2971 128.744 84.1913 128.744H136.001C136.895 128.744 137.62 128.082 137.62 127.265V119.866C137.62 119.048 136.895 118.386 136.001 118.386Z" fill="#95DE64"/>
<path opacity="0.3" d="M107.666 120.605H86.6181C86.171 120.605 85.8086 120.937 85.8086 121.345V125.785C85.8086 126.193 86.171 126.525 86.6181 126.525H107.666C108.113 126.525 108.475 126.193 108.475 125.785V121.345C108.475 120.937 108.113 120.605 107.666 120.605Z" fill="#397D4F"/>
<path opacity="0.1" d="M254.191 133.184H84.1913C83.2971 133.184 82.5723 133.846 82.5723 134.663V142.063C82.5723 142.88 83.2971 143.542 84.1913 143.542H254.191C255.085 143.542 255.81 142.88 255.81 142.063V134.663C255.81 133.846 255.085 133.184 254.191 133.184Z" fill="#397D4F"/>
<path opacity="0.5" d="M113.334 133.184H84.1913C83.2971 133.184 82.5723 133.846 82.5723 134.663V142.063C82.5723 142.88 83.2971 143.542 84.1913 143.542H113.334C114.228 143.542 114.953 142.88 114.953 142.063V134.663C114.953 133.846 114.228 133.184 113.334 133.184Z" fill="#95DE64"/>
<path opacity="0.28" d="M102.809 135.403H86.6181C86.171 135.403 85.8086 135.735 85.8086 136.143V140.583C85.8086 140.991 86.171 141.323 86.6181 141.323H102.809C103.256 141.323 103.618 140.991 103.618 140.583V136.143C103.618 135.735 103.256 135.403 102.809 135.403Z" fill="#397D4F"/>
<path opacity="0.2" d="M267.951 66.5918H258.237C256.896 66.5918 255.809 67.5856 255.809 68.8115V160.56C255.809 161.786 256.896 162.78 258.237 162.78H267.951C269.293 162.78 270.38 161.786 270.38 160.56V68.8115C270.38 67.5856 269.293 66.5918 267.951 66.5918Z" fill="#397D4F"/>
<path opacity="0.55" d="M267.951 128.744H258.237C256.896 128.744 255.809 129.738 255.809 130.964V160.56C255.809 161.786 256.896 162.78 258.237 162.78H267.951C269.293 162.78 270.38 161.786 270.38 160.56V130.964C270.38 129.738 269.293 128.744 267.951 128.744Z" fill="#95DE64"/>
<path opacity="0.22" d="M62.334 85.0898H15.3816C13.1462 85.0898 11.334 86.7462 11.334 88.7894V188.677C11.334 190.72 13.1462 192.377 15.3816 192.377H62.334C64.5694 192.377 66.3816 190.72 66.3816 188.677V88.7894C66.3816 86.7462 64.5694 85.0898 62.334 85.0898Z" fill="#397D4F"/>
<path opacity="0.38" d="M62.334 85.0898H15.3816C13.1462 85.0898 11.334 86.7462 11.334 88.7894V96.1885C11.334 98.2317 13.1462 99.8881 15.3816 99.8881H62.334C64.5694 99.8881 66.3816 98.2317 66.3816 96.1885V88.7894C66.3816 86.7462 64.5694 85.0898 62.334 85.0898Z" fill="#397D4F"/>
<path opacity="0.35" d="M24.2857 121.346C28.3095 121.346 31.5714 118.364 31.5714 114.687C31.5714 111.009 28.3095 108.027 24.2857 108.027C20.2619 108.027 17 111.009 17 114.687C17 118.364 20.2619 121.346 24.2857 121.346Z" fill="#397D4F"/>
<path opacity="0.28" d="M14.5723 127.264C14.5723 119.865 34.0008 119.865 34.0008 127.264" stroke="#397D4F" stroke-width="1.4"/>
<path opacity="0.3" d="M43.7134 119.865C47.7372 119.865 50.9992 116.884 50.9992 113.206C50.9992 109.528 47.7372 106.547 43.7134 106.547C39.6897 106.547 36.4277 109.528 36.4277 113.206C36.4277 116.884 39.6897 119.865 43.7134 119.865Z" fill="#397D4F"/>
<path opacity="0.24" d="M34 125.785C34 118.386 53.4286 118.386 53.4286 125.785" stroke="#397D4F" stroke-width="1.4"/>
<path opacity="0.45" d="M24.2865 125.045C30.5457 125.045 35.6198 120.407 35.6198 114.686C35.6198 108.965 30.5457 104.327 24.2865 104.327C18.0272 104.327 12.9531 108.965 12.9531 114.686C12.9531 120.407 18.0272 125.045 24.2865 125.045Z" stroke="#95DE64" stroke-width="1.5" stroke-dasharray="4 3"/>
<path opacity="0.28" d="M60.7152 134.664H17.0009C16.5538 134.664 16.1914 134.995 16.1914 135.404V137.624C16.1914 138.032 16.5538 138.364 17.0009 138.364H60.7152C61.1623 138.364 61.5247 138.032 61.5247 137.624V135.404C61.5247 134.995 61.1623 134.664 60.7152 134.664Z" fill="#397D4F"/>
<path opacity="0.22" d="M51.0009 142.062H17.0009C16.5538 142.062 16.1914 142.394 16.1914 142.802V145.022C16.1914 145.431 16.5538 145.762 17.0009 145.762H51.0009C51.448 145.762 51.8105 145.431 51.8105 145.022V142.802C51.8105 142.394 51.448 142.062 51.0009 142.062Z" fill="#397D4F"/>
<path opacity="0.2" d="M55.8581 149.462H17.0009C16.5538 149.462 16.1914 149.793 16.1914 150.202V152.422C16.1914 152.83 16.5538 153.161 17.0009 153.161H55.8581C56.3052 153.161 56.6676 152.83 56.6676 152.422V150.202C56.6676 149.793 56.3052 149.462 55.8581 149.462Z" fill="#397D4F"/>
<path opacity="0.18" d="M44.5247 156.861H17.0009C16.5538 156.861 16.1914 157.193 16.1914 157.601V159.821C16.1914 160.23 16.5538 160.561 17.0009 160.561H44.5247C44.9718 160.561 45.3343 160.23 45.3343 159.821V157.601C45.3343 157.193 44.9718 156.861 44.5247 156.861Z" fill="#397D4F"/>
<path opacity="0.16" d="M54.239 164.26H17.0009C16.5538 164.26 16.1914 164.591 16.1914 165V167.219C16.1914 167.628 16.5538 167.959 17.0009 167.959H54.239C54.6861 167.959 55.0485 167.628 55.0485 167.219V165C55.0485 164.591 54.6861 164.26 54.239 164.26Z" fill="#397D4F"/>
<path opacity="0.14" d="M47.7628 171.659H17.0009C16.5538 171.659 16.1914 171.99 16.1914 172.399V174.619C16.1914 175.027 16.5538 175.359 17.0009 175.359H47.7628C48.2099 175.359 48.5724 175.027 48.5724 174.619V172.399C48.5724 171.99 48.2099 171.659 47.7628 171.659Z" fill="#397D4F"/>
<path opacity="0.5" d="M57.4771 180.538H20.239C18.0036 180.538 16.1914 182.194 16.1914 184.238C16.1914 186.281 18.0036 187.937 20.239 187.937H57.4771C59.7126 187.937 61.5247 186.281 61.5247 184.238C61.5247 182.194 59.7126 180.538 57.4771 180.538Z" fill="#95DE64"/>
<path opacity="0.38" d="M66.3809 140.583C69.619 140.583 71.238 140.583 72.857 140.583" stroke="#397D4F" stroke-width="1.8"/>
<path opacity="0.5" d="M69.62 142.803C70.9612 142.803 72.0485 141.809 72.0485 140.583C72.0485 139.357 70.9612 138.363 69.62 138.363C68.2787 138.363 67.1914 139.357 67.1914 140.583C67.1914 141.809 68.2787 142.803 69.62 142.803Z" fill="#397D4F"/>
<path opacity="0.2" d="M324.62 45.874H285.762C283.527 45.874 281.715 47.5304 281.715 49.5736V129.484C281.715 131.527 283.527 133.183 285.762 133.183H324.62C326.855 133.183 328.667 131.527 328.667 129.484V49.5736C328.667 47.5304 326.855 45.874 324.62 45.874Z" fill="#397D4F"/>
<path opacity="0.35" d="M324.62 45.874H285.762C283.527 45.874 281.715 47.5304 281.715 49.5736V55.4929C281.715 57.5361 283.527 59.1924 285.762 59.1924H324.62C326.855 59.1924 328.667 57.5361 328.667 55.4929V49.5736C328.667 47.5304 326.855 45.874 324.62 45.874Z" fill="#397D4F"/>
<path opacity="0.18" d="M322.191 66.5918H288.191C287.297 66.5918 286.572 67.2543 286.572 68.0716V70.2913C286.572 71.1086 287.297 71.7712 288.191 71.7712H322.191C323.085 71.7712 323.81 71.1086 323.81 70.2913V68.0716C323.81 67.2543 323.085 66.5918 322.191 66.5918Z" fill="#397D4F"/>
<path opacity="0.4" d="M315.715 66.5918H288.191C287.297 66.5918 286.572 67.2543 286.572 68.0716V70.2913C286.572 71.1086 287.297 71.7712 288.191 71.7712H315.715C316.609 71.7712 317.334 71.1086 317.334 70.2913V68.0716C317.334 67.2543 316.609 66.5918 315.715 66.5918Z" fill="#397D4F"/>
<path opacity="0.16" d="M322.191 76.2109H288.191C287.297 76.2109 286.572 76.8735 286.572 77.6908V79.9105C286.572 80.7278 287.297 81.3903 288.191 81.3903H322.191C323.085 81.3903 323.81 80.7278 323.81 79.9105V77.6908C323.81 76.8735 323.085 76.2109 322.191 76.2109Z" fill="#397D4F"/>
<path opacity="0.36" d="M307.62 76.2109H288.191C287.297 76.2109 286.572 76.8735 286.572 77.6908V79.9105C286.572 80.7278 287.297 81.3903 288.191 81.3903H307.62C308.514 81.3903 309.239 80.7278 309.239 79.9105V77.6908C309.239 76.8735 308.514 76.2109 307.62 76.2109Z" fill="#397D4F"/>
<path opacity="0.14" d="M322.191 85.8301H288.191C287.297 85.8301 286.572 86.4926 286.572 87.3099V89.5296C286.572 90.3469 287.297 91.0094 288.191 91.0094H322.191C323.085 91.0094 323.81 90.3469 323.81 89.5296V87.3099C323.81 86.4926 323.085 85.8301 322.191 85.8301Z" fill="#397D4F"/>
<path opacity="0.52" d="M318.953 85.8301H288.191C287.297 85.8301 286.572 86.4926 286.572 87.3099V89.5296C286.572 90.3469 287.297 91.0094 288.191 91.0094H318.953C319.847 91.0094 320.572 90.3469 320.572 89.5296V87.3099C320.572 86.4926 319.847 85.8301 318.953 85.8301Z" fill="#95DE64"/>
<path opacity="0.14" d="M322.191 95.4482H288.191C287.297 95.4482 286.572 96.1108 286.572 96.9281V99.1478C286.572 99.9651 287.297 100.628 288.191 100.628H322.191C323.085 100.628 323.81 99.9651 323.81 99.1478V96.9281C323.81 96.1108 323.085 95.4482 322.191 95.4482Z" fill="#397D4F"/>
<path opacity="0.32" d="M301.144 95.4482H288.191C287.297 95.4482 286.572 96.1108 286.572 96.9281V99.1478C286.572 99.9651 287.297 100.628 288.191 100.628H301.144C302.038 100.628 302.763 99.9651 302.763 99.1478V96.9281C302.763 96.1108 302.038 95.4482 301.144 95.4482Z" fill="#397D4F"/>
<path opacity="0.12" d="M322.191 105.067H288.191C287.297 105.067 286.572 105.73 286.572 106.547V108.767C286.572 109.584 287.297 110.247 288.191 110.247H322.191C323.085 110.247 323.81 109.584 323.81 108.767V106.547C323.81 105.73 323.085 105.067 322.191 105.067Z" fill="#397D4F"/>
<path opacity="0.3" d="M312.477 105.067H288.191C287.297 105.067 286.572 105.73 286.572 106.547V108.767C286.572 109.584 287.297 110.247 288.191 110.247H312.477C313.371 110.247 314.096 109.584 314.096 108.767V106.547C314.096 105.73 313.371 105.067 312.477 105.067Z" fill="#397D4F"/>
<path opacity="0.72" d="M295.476 128.005C299.053 128.005 301.952 125.354 301.952 122.085C301.952 118.816 299.053 116.166 295.476 116.166C291.899 116.166 289 118.816 289 122.085C289 125.354 291.899 128.005 295.476 128.005Z" fill="#95DE64"/>
<path d="M293.047 122.085L295.071 123.935L298.714 120.235" stroke="white" stroke-width="1.4" stroke-linecap="round" stroke-linejoin="round"/>
<path opacity="0.28" d="M323 119.126H305.19C304.743 119.126 304.381 119.457 304.381 119.866V121.346C304.381 121.754 304.743 122.086 305.19 122.086H323C323.447 122.086 323.809 121.754 323.809 121.346V119.866C323.809 119.457 323.447 119.126 323 119.126Z" fill="#397D4F"/>
<path opacity="0.2" d="M318.143 124.305H305.19C304.743 124.305 304.381 124.636 304.381 125.045V126.524C304.381 126.933 304.743 127.264 305.19 127.264H318.143C318.59 127.264 318.952 126.933 318.952 126.524V125.045C318.952 124.636 318.59 124.305 318.143 124.305Z" fill="#397D4F"/>
<path opacity="0.22" d="M169.191 210.135H15.3816C13.1462 210.135 11.334 211.791 11.334 213.834V304.103C11.334 306.147 13.1462 307.803 15.3816 307.803H169.191C171.427 307.803 173.239 306.147 173.239 304.103V213.834C173.239 211.791 171.427 210.135 169.191 210.135Z" fill="#397D4F"/>
<path opacity="0.38" d="M169.191 210.135H15.3816C13.1462 210.135 11.334 211.791 11.334 213.834V222.713C11.334 224.756 13.1462 226.413 15.3816 226.413H169.191C171.427 226.413 173.239 224.756 173.239 222.713V213.834C173.239 211.791 171.427 210.135 169.191 210.135Z" fill="#397D4F"/>
<path opacity="0.58" d="M21.8572 221.233C23.6456 221.233 25.0953 219.908 25.0953 218.273C25.0953 216.639 23.6456 215.313 21.8572 215.313C20.0689 215.313 18.6191 216.639 18.6191 218.273C18.6191 219.908 20.0689 221.233 21.8572 221.233Z" fill="#397D4F"/>
<path opacity="0.4" d="M32.3807 221.233C34.169 221.233 35.6188 219.908 35.6188 218.273C35.6188 216.639 34.169 215.313 32.3807 215.313C30.5923 215.313 29.1426 216.639 29.1426 218.273C29.1426 219.908 30.5923 221.233 32.3807 221.233Z" fill="#397D4F"/>
<path opacity="0.25" d="M42.9041 221.233C44.6925 221.233 46.1422 219.908 46.1422 218.273C46.1422 216.639 44.6925 215.313 42.9041 215.313C41.1158 215.313 39.666 216.639 39.666 218.273C39.666 219.908 41.1158 221.233 42.9041 221.233Z" fill="#397D4F"/>
<path opacity="0.58" d="M19.4277 287.085L37.2373 275.247L55.0468 266.368L72.8563 257.489L90.6658 244.171L108.475 235.292L126.285 227.893" stroke="#397D4F" stroke-width="2"/>
<path opacity="0.45" d="M126.285 227.892L137.618 220.493" stroke="#397D4F" stroke-width="2" stroke-dasharray="5 3"/>
<path opacity="0.38" d="M137.619 220.494L148.952 214.574" stroke="#397D4F" stroke-width="2" stroke-dasharray="5 3"/>
<path opacity="0.32" d="M148.953 214.574L165.144 207.175" stroke="#397D4F" stroke-width="2" stroke-dasharray="5 3"/>
<path opacity="0.09" d="M19.4277 293.005V287.085L37.2373 275.247L55.0468 266.368L72.8563 257.489L90.6658 244.171L108.475 235.292L126.285 227.893V293.005H19.4277Z" fill="#397D4F"/>
<path opacity="0.62" d="M126.286 231.591C128.521 231.591 130.334 229.935 130.334 227.892C130.334 225.849 128.521 224.192 126.286 224.192C124.05 224.192 122.238 225.849 122.238 227.892C122.238 229.935 124.05 231.591 126.286 231.591Z" fill="#397D4F"/>
<path opacity="0.8" d="M165.143 210.875C167.379 210.875 169.191 209.218 169.191 207.175C169.191 205.132 167.379 203.476 165.143 203.476C162.908 203.476 161.096 205.132 161.096 207.175C161.096 209.218 162.908 210.875 165.143 210.875Z" fill="#95DE64"/>
<path opacity="0.1" d="M19.4277 258.969H165.142" stroke="#397D4F" stroke-dasharray="4 4"/>
<path opacity="0.08" d="M19.4277 236.771H165.142" stroke="#397D4F" stroke-dasharray="4 4"/>
<path opacity="0.1" d="M19.4277 281.166H165.142" stroke="#397D4F" stroke-dasharray="4 4"/>
<path opacity="0.26" d="M325.429 210.135H187.81C186.022 210.135 184.572 211.46 184.572 213.094V236.772C184.572 238.406 186.022 239.731 187.81 239.731H325.429C327.218 239.731 328.668 238.406 328.668 236.772V213.094C328.668 211.46 327.218 210.135 325.429 210.135Z" fill="#397D4F"/>
<path opacity="0.8" d="M187.001 210.135H186.191C185.297 210.135 184.572 210.797 184.572 211.615V238.251C184.572 239.069 185.297 239.731 186.191 239.731H187.001C187.895 239.731 188.62 239.069 188.62 238.251V211.615C188.62 210.797 187.895 210.135 187.001 210.135Z" fill="#95DE64"/>
<path opacity="0.3" d="M258.238 216.054H195.095C194.648 216.054 194.285 216.385 194.285 216.794V219.753C194.285 220.162 194.648 220.493 195.095 220.493H258.238C258.685 220.493 259.047 220.162 259.047 219.753V216.794C259.047 216.385 258.685 216.054 258.238 216.054Z" fill="#397D4F"/>
<path opacity="0.2" d="M240.428 224.192H195.095C194.648 224.192 194.285 224.524 194.285 224.932V227.152C194.285 227.561 194.648 227.892 195.095 227.892H240.428C240.875 227.892 241.238 227.561 241.238 227.152V224.932C241.238 224.524 240.875 224.192 240.428 224.192Z" fill="#397D4F"/>
<path opacity="0.45" d="M259.047 233.072L267.142 227.892L275.237 230.112L284.952 223.453L293.047 226.412L302.761 220.493L315.714 221.973" stroke="#397D4F" stroke-width="1.5"/>
<path opacity="0.78" d="M302.763 222.713C304.104 222.713 305.191 221.719 305.191 220.493C305.191 219.267 304.104 218.273 302.763 218.273C301.421 218.273 300.334 219.267 300.334 220.493C300.334 221.719 301.421 222.713 302.763 222.713Z" fill="#95DE64"/>
<path opacity="0.22" d="M325.429 245.65H187.81C186.022 245.65 184.572 246.975 184.572 248.61V272.287C184.572 273.922 186.022 275.247 187.81 275.247H325.429C327.218 275.247 328.668 273.922 328.668 272.287V248.61C328.668 246.975 327.218 245.65 325.429 245.65Z" fill="#397D4F"/>
<path opacity="0.62" d="M187.001 245.65H186.191C185.297 245.65 184.572 246.313 184.572 247.13V273.767C184.572 274.584 185.297 275.247 186.191 275.247H187.001C187.895 275.247 188.62 274.584 188.62 273.767V247.13C188.62 246.313 187.895 245.65 187.001 245.65Z" fill="#397D4F"/>
<path opacity="0.26" d="M251.761 251.569H195.095C194.648 251.569 194.285 251.901 194.285 252.309V255.269C194.285 255.678 194.648 256.009 195.095 256.009H251.761C252.208 256.009 252.571 255.678 252.571 255.269V252.309C252.571 251.901 252.208 251.569 251.761 251.569Z" fill="#397D4F"/>
<path opacity="0.18" d="M237.19 259.709H195.095C194.648 259.709 194.285 260.04 194.285 260.449V262.669C194.285 263.077 194.648 263.409 195.095 263.409H237.19C237.637 263.409 237.999 263.077 237.999 262.669V260.449C237.999 260.04 237.637 259.709 237.19 259.709Z" fill="#397D4F"/>
<path opacity="0.38" d="M259.047 268.588L268.761 264.888L278.475 267.108L288.19 261.928L297.904 264.148L307.618 258.969L317.333 260.449" stroke="#397D4F" stroke-width="1.5"/>
<path opacity="0.65" d="M307.62 261.188C308.961 261.188 310.049 260.195 310.049 258.969C310.049 257.743 308.961 256.749 307.62 256.749C306.279 256.749 305.191 257.743 305.191 258.969C305.191 260.195 306.279 261.188 307.62 261.188Z" fill="#397D4F"/>
<path opacity="0.18" d="M325.429 281.166H187.81C186.022 281.166 184.572 282.491 184.572 284.126V304.843C184.572 306.478 186.022 307.803 187.81 307.803H325.429C327.218 307.803 328.668 306.478 328.668 304.843V284.126C328.668 282.491 327.218 281.166 325.429 281.166Z" fill="#397D4F"/>
<path opacity="0.48" d="M187.001 281.166H186.191C185.297 281.166 184.572 281.829 184.572 282.646V306.323C184.572 307.14 185.297 307.803 186.191 307.803H187.001C187.895 307.803 188.62 307.14 188.62 306.323V282.646C188.62 281.829 187.895 281.166 187.001 281.166Z" fill="#397D4F"/>
<path opacity="0.22" d="M245.285 287.085H195.095C194.648 287.085 194.285 287.416 194.285 287.825V290.785C194.285 291.193 194.648 291.524 195.095 291.524H245.285C245.732 291.524 246.095 291.193 246.095 290.785V287.825C246.095 287.416 245.732 287.085 245.285 287.085Z" fill="#397D4F"/>
<path opacity="0.15" d="M232.333 295.225H195.095C194.648 295.225 194.285 295.556 194.285 295.965V298.184C194.285 298.593 194.648 298.924 195.095 298.924H232.333C232.78 298.924 233.142 298.593 233.142 298.184V295.965C233.142 295.556 232.78 295.225 232.333 295.225Z" fill="#397D4F"/>
<path opacity="0.3" d="M259.047 301.884L270.38 298.924L281.714 300.404L291.428 295.965L302.761 298.184L315.714 293.005" stroke="#397D4F" stroke-width="1.5"/>
<path opacity="0.55" d="M302.763 295.225C304.104 295.225 305.191 294.231 305.191 293.005C305.191 291.779 304.104 290.785 302.763 290.785C301.421 290.785 300.334 291.779 300.334 293.005C300.334 294.231 301.421 295.225 302.763 295.225Z" fill="#397D4F"/>
<path opacity="0.32" d="M129.524 167.96C113.333 186.458 80.9522 193.857 64.7617 210.135" stroke="#397D4F" stroke-width="1.8"/>
<path opacity="0.44" d="M97.1424 192.376C98.9307 192.376 100.38 191.051 100.38 189.417C100.38 187.782 98.9307 186.457 97.1424 186.457C95.354 186.457 93.9043 187.782 93.9043 189.417C93.9043 191.051 95.354 192.376 97.1424 192.376Z" fill="#397D4F"/>
<path opacity="0.28" d="M226.666 167.96C234.761 186.458 242.856 193.857 252.571 210.135" stroke="#397D4F" stroke-width="1.8"/>
<path opacity="0.38" d="M239.619 192.376C241.407 192.376 242.857 191.051 242.857 189.417C242.857 187.782 241.407 186.457 239.619 186.457C237.831 186.457 236.381 187.782 236.381 189.417C236.381 191.051 237.831 192.376 239.619 192.376Z" fill="#397D4F"/>
<path opacity="0.18" d="M269.572 20.7178H76.905C74.6696 20.7178 72.8574 22.3741 72.8574 24.4173V36.2559C72.8574 38.2991 74.6696 39.9554 76.905 39.9554H269.572C271.807 39.9554 273.619 38.2991 273.619 36.2559V24.4173C273.619 22.3741 271.807 20.7178 269.572 20.7178Z" fill="#397D4F"/>
<path opacity="0.52" d="M79.334 31.0759H90.6673L95.5245 23.6768L100.382 38.475L105.239 31.0759H114.953L119.81 25.1566L124.667 36.9951L129.524 31.0759H140.858L145.715 26.6364L150.572 35.5153L155.429 31.0759H166.763L171.62 25.8965L176.477 36.2552L181.334 31.0759H192.667L197.524 27.3763L202.382 34.7754L207.239 31.0759H218.572L223.429 28.1162L228.286 34.0355L233.144 31.0759H244.477L249.334 26.6364L254.191 35.5153L259.048 31.0759H267.144" stroke="#397D4F" stroke-width="1.5"/>
<path opacity="0.82" d="M176.475 28.1162C177.817 28.1162 178.904 27.1224 178.904 25.8965C178.904 24.6706 177.817 23.6768 176.475 23.6768C175.134 23.6768 174.047 24.6706 174.047 25.8965C174.047 27.1224 175.134 28.1162 176.475 28.1162Z" fill="#95DE64"/>
<path opacity="0.34" d="M35.6184 38.1058C38.0774 38.1058 40.0708 36.2838 40.0708 34.0363C40.0708 31.7888 38.0774 29.9668 35.6184 29.9668C33.1594 29.9668 31.166 31.7888 31.166 34.0363C31.166 36.2838 33.1594 38.1058 35.6184 38.1058Z" fill="#397D4F"/>
<path opacity="0.22" d="M46.9525 29.2262C48.5173 29.2262 49.7858 28.0668 49.7858 26.6366C49.7858 25.2063 48.5173 24.0469 46.9525 24.0469C45.3877 24.0469 44.1191 25.2063 44.1191 26.6366C44.1191 28.0668 45.3877 29.2262 46.9525 29.2262Z" fill="#397D4F"/>
<path opacity="0.18" d="M25.9051 45.1348C27.2464 45.1348 28.3337 44.141 28.3337 42.915C28.3337 41.6891 27.2464 40.6953 25.9051 40.6953C24.5639 40.6953 23.4766 41.6891 23.4766 42.915C23.4766 44.141 24.5639 45.1348 25.9051 45.1348Z" fill="#397D4F"/>
<path opacity="0.26" d="M302.762 159.821C304.55 159.821 306 158.496 306 156.861C306 155.226 304.55 153.901 302.762 153.901C300.973 153.901 299.523 155.226 299.523 156.861C299.523 158.496 300.973 159.821 302.762 159.821Z" fill="#397D4F"/>
<path opacity="0.16" d="M312.477 167.59C313.595 167.59 314.501 166.762 314.501 165.74C314.501 164.719 313.595 163.891 312.477 163.891C311.359 163.891 310.453 164.719 310.453 165.74C310.453 166.762 311.359 167.59 312.477 167.59Z" fill="#397D4F"/>
<path opacity="0.22" d="M307.618 190.527C309.183 190.527 310.452 189.368 310.452 187.937C310.452 186.507 309.183 185.348 307.618 185.348C306.054 185.348 304.785 186.507 304.785 187.937C304.785 189.368 306.054 190.527 307.618 190.527Z" fill="#397D4F"/>
</svg>
