<svg width="340" height="341" viewBox="0 0 340 341" fill="none" xmlns="http://www.w3.org/2000/svg">
<path opacity="0.08" d="M170 288.227C241.534 288.227 299.524 230.066 299.524 158.322C299.524 86.5773 241.534 28.417 170 28.417C98.4663 28.417 40.4766 86.5773 40.4766 158.322C40.4766 230.066 98.4663 288.227 170 288.227Z" stroke="#397D4F"/>
<path opacity="0.11" d="M170 255.75C223.651 255.75 267.143 212.129 267.143 158.321C267.143 104.513 223.651 60.8926 170 60.8926C116.35 60.8926 72.8574 104.513 72.8574 158.321C72.8574 212.129 116.35 255.75 170 255.75Z" stroke="#397D4F"/>
<path opacity="0.15" d="M170 223.274C205.767 223.274 234.762 194.194 234.762 158.322C234.762 122.449 205.767 93.3691 170 93.3691C134.233 93.3691 105.238 122.449 105.238 158.322C105.238 194.194 134.233 223.274 170 223.274Z" stroke="#397D4F"/>
<path opacity="0.2" d="M170 192.422C188.778 192.422 204 177.155 204 158.322C204 139.489 188.778 124.222 170 124.222C151.222 124.222 136 139.489 136 158.322C136 177.155 151.222 192.422 170 192.422Z" stroke="#397D4F" stroke-width="1.5"/>
<path opacity="0.06" d="M170 286.602C240.64 286.602 297.905 229.169 297.905 158.321C297.905 87.4734 240.64 30.04 170 30.04C99.3606 30.04 42.0957 87.4734 42.0957 158.321C42.0957 229.169 99.3606 286.602 170 286.602Z" fill="#397D4F"/>
<path opacity="0.07" d="M170 28.417V288.227" stroke="#397D4F"/>
<path opacity="0.07" d="M40.4766 158.321H299.524" stroke="#397D4F"/>
<path opacity="0.05" d="M77.7139 65.7646L262.285 250.879" stroke="#397D4F"/>
<path opacity="0.05" d="M262.285 65.7646L77.7139 250.879" stroke="#397D4F"/>
<path opacity="0.06" d="M170 158.321V30.04C203.922 30.04 236.456 43.5553 260.442 67.6127C284.429 91.67 297.905 124.299 297.905 158.321H170Z" fill="#397D4F"/>
<path opacity="0.3" d="M170 158.321H297.905" stroke="#397D4F" stroke-width="1.5"/>
<path opacity="0.55" d="M170 179.431C181.624 179.431 191.047 169.98 191.047 158.321C191.047 146.663 181.624 137.212 170 137.212C158.375 137.212 148.952 146.663 148.952 158.321C148.952 169.98 158.375 179.431 170 179.431Z" fill="#397D4F"/>
<path opacity="0.4" d="M170 171.312C177.154 171.312 182.953 165.496 182.953 158.322C182.953 151.147 177.154 145.331 170 145.331C162.847 145.331 157.048 151.147 157.048 158.322C157.048 165.496 162.847 171.312 170 171.312Z" fill="#397D4F"/>
<path opacity="0.75" d="M170 164.817C173.576 164.817 176.476 161.909 176.476 158.321C176.476 154.734 173.576 151.826 170 151.826C166.423 151.826 163.523 154.734 163.523 158.321C163.523 161.909 166.423 164.817 170 164.817Z" fill="#397D4F"/>
<path opacity="0.25" d="M225.048 132.341C233.096 132.341 239.619 125.798 239.619 117.727C239.619 109.655 233.096 103.112 225.048 103.112C217 103.112 210.477 109.655 210.477 117.727C210.477 125.798 217 132.341 225.048 132.341Z" fill="#397D4F"/>
<path opacity="0.42" d="M225.047 126.657C229.965 126.657 233.952 122.658 233.952 117.726C233.952 112.793 229.965 108.795 225.047 108.795C220.129 108.795 216.143 112.793 216.143 117.726C216.143 122.658 220.129 126.657 225.047 126.657Z" fill="#397D4F"/>
<path opacity="0.7" d="M225.048 121.786C227.283 121.786 229.095 119.969 229.095 117.727C229.095 115.485 227.283 113.667 225.048 113.667C222.812 113.667 221 115.485 221 117.727C221 119.969 222.812 121.786 225.048 121.786Z" fill="#397D4F"/>
<path opacity="0.3" d="M225.048 135.588C234.884 135.588 242.857 127.591 242.857 117.726C242.857 107.861 234.884 99.8643 225.048 99.8643C215.212 99.8643 207.238 107.861 207.238 117.726C207.238 127.591 215.212 135.588 225.048 135.588Z" stroke="#397D4F" stroke-width="1.2"/>
<path opacity="0.15" d="M225.047 142.083C238.46 142.083 249.333 131.178 249.333 117.726C249.333 104.274 238.46 93.3691 225.047 93.3691C211.635 93.3691 200.762 104.274 200.762 117.726C200.762 131.178 211.635 142.083 225.047 142.083Z" stroke="#397D4F" stroke-width="0.8"/>
<path opacity="0.2" d="M250.952 206.224C257.212 206.224 262.286 201.135 262.286 194.857C262.286 188.579 257.212 183.49 250.952 183.49C244.693 183.49 239.619 188.579 239.619 194.857C239.619 201.135 244.693 206.224 250.952 206.224Z" fill="#397D4F"/>
<path opacity="0.38" d="M250.953 201.353C254.529 201.353 257.429 198.445 257.429 194.858C257.429 191.27 254.529 188.362 250.953 188.362C247.376 188.362 244.477 191.27 244.477 194.858C244.477 198.445 247.376 201.353 250.953 201.353Z" fill="#397D4F"/>
<path opacity="0.65" d="M250.953 198.105C252.741 198.105 254.191 196.651 254.191 194.857C254.191 193.063 252.741 191.609 250.953 191.609C249.165 191.609 247.715 193.063 247.715 194.857C247.715 196.651 249.165 198.105 250.953 198.105Z" fill="#397D4F"/>
<path opacity="0.22" d="M250.952 209.472C259 209.472 265.524 202.929 265.524 194.857C265.524 186.786 259 180.243 250.952 180.243C242.905 180.243 236.381 186.786 236.381 194.857C236.381 202.929 242.905 209.472 250.952 209.472Z" stroke="#397D4F"/>
<path opacity="0.35" d="M200.762 248.443C207.915 248.443 213.714 242.627 213.714 235.452C213.714 228.278 207.915 222.462 200.762 222.462C193.609 222.462 187.81 228.278 187.81 235.452C187.81 242.627 193.609 248.443 200.762 248.443Z" stroke="#397D4F" stroke-width="1.5" stroke-dasharray="5 3"/>
<path opacity="0.35" d="M200.762 241.136C203.892 241.136 206.429 238.592 206.429 235.453C206.429 232.314 203.892 229.77 200.762 229.77C197.633 229.77 195.096 232.314 195.096 235.453C195.096 238.592 197.633 241.136 200.762 241.136Z" fill="#397D4F"/>
<path opacity="0.6" d="M200.762 237.888C202.103 237.888 203.19 236.798 203.19 235.452C203.19 234.107 202.103 233.017 200.762 233.017C199.42 233.017 198.333 234.107 198.333 235.452C198.333 236.798 199.42 237.888 200.762 237.888Z" fill="#397D4F"/>
<path opacity="0.14" d="M114.953 95.8045C119.424 95.8045 123.048 92.1695 123.048 87.6855C123.048 83.2014 119.424 79.5664 114.953 79.5664C110.482 79.5664 106.857 83.2014 106.857 87.6855C106.857 92.1695 110.482 95.8045 114.953 95.8045Z" fill="#397D4F"/>
<path opacity="0.22" d="M114.952 91.745C117.187 91.745 119 89.9275 119 87.6855C119 85.4435 117.187 83.626 114.952 83.626C112.716 83.626 110.904 85.4435 110.904 87.6855C110.904 89.9275 112.716 91.745 114.952 91.745Z" fill="#397D4F"/>
<path opacity="0.3" d="M110.904 83.626L119 91.745" stroke="#397D4F" stroke-width="1.5" stroke-linecap="round"/>
<path opacity="0.3" d="M119 83.626L110.904 91.745" stroke="#397D4F" stroke-width="1.5" stroke-linecap="round"/>
<path opacity="0.35" d="M178.096 152.639L216.953 121.786" stroke="#397D4F" stroke-width="1.2" stroke-dasharray="3 3"/>
<path opacity="0.28" d="M181.333 162.381L244.476 193.233" stroke="#397D4F" stroke-width="1.2" stroke-dasharray="3 3"/>
<path opacity="0.25" d="M176.477 170.5L198.334 228.957" stroke="#397D4F" stroke-width="1.2" stroke-dasharray="3 3"/>
<path opacity="0.28" d="M93.9044 125.846H16.1902C13.5076 125.846 11.333 128.027 11.333 130.717V218.403C11.333 221.093 13.5076 223.274 16.1902 223.274H93.9044C96.587 223.274 98.7616 221.093 98.7616 218.403V130.717C98.7616 128.027 96.587 125.846 93.9044 125.846Z" fill="#397D4F"/>
<path opacity="0.5" d="M93.9044 125.846H16.1902C13.5076 125.846 11.333 128.027 11.333 130.717V133.965C11.333 136.655 13.5076 138.836 16.1902 138.836H93.9044C96.587 138.836 98.7616 136.655 98.7616 133.965V130.717C98.7616 128.027 96.587 125.846 93.9044 125.846Z" fill="#397D4F"/>
<path opacity="0.6" d="M19.4287 152.638L27.5239 147.766L35.6192 151.014L43.7144 141.271L51.8097 145.331L59.9049 139.647L68.0001 142.895L76.0954 136.4L84.1906 139.647L92.2858 133.964" stroke="#397D4F" stroke-width="1.8" stroke-linecap="round" stroke-linejoin="round"/>
<path opacity="0.7" d="M92.2859 137.212C94.0743 137.212 95.524 135.758 95.524 133.964C95.524 132.171 94.0743 130.717 92.2859 130.717C90.4976 130.717 89.0479 132.171 89.0479 133.964C89.0479 135.758 90.4976 137.212 92.2859 137.212Z" fill="#397D4F"/>
<path opacity="0.45" d="M19.4287 170.5L27.5239 173.747L35.6192 168.876L43.7144 174.559L51.8097 167.252L59.9049 172.124L68.0001 165.628L76.0954 168.876L84.1906 164.004L92.2858 160.757" stroke="#397D4F" stroke-width="1.8" stroke-linecap="round" stroke-linejoin="round"/>
<path opacity="0.3" d="M19.4287 188.362L27.5239 190.798L35.6192 186.738L43.7144 191.61L51.8097 185.926L59.9049 189.174L68.0001 184.303L76.0954 188.362L84.1906 182.679L92.2858 185.114" stroke="#397D4F" stroke-width="1.5" stroke-linecap="round" stroke-linejoin="round"/>
<path opacity="0.18" d="M19.4287 160.757H92.2858" stroke="#397D4F" stroke-width="0.8"/>
<path opacity="0.18" d="M19.4287 178.619H92.2858" stroke="#397D4F" stroke-width="0.8"/>
<path opacity="0.18" d="M83.3811 201.353H20.2382C19.7911 201.353 19.4287 201.716 19.4287 202.164V204.6C19.4287 205.049 19.7911 205.412 20.2382 205.412H83.3811C83.8282 205.412 84.1906 205.049 84.1906 204.6V202.164C84.1906 201.716 83.8282 201.353 83.3811 201.353Z" fill="#397D4F"/>
<path opacity="0.12" d="M67.1906 209.472H20.2382C19.7911 209.472 19.4287 209.835 19.4287 210.284V212.719C19.4287 213.168 19.7911 213.531 20.2382 213.531H67.1906C67.6377 213.531 68.0001 213.168 68.0001 212.719V210.284C68.0001 209.835 67.6377 209.472 67.1906 209.472Z" fill="#397D4F"/>
<path opacity="0.3" d="M98.7617 170.5C113.333 170.5 125.476 166.44 136 166.44" stroke="#397D4F" stroke-width="1.5"/>
<path opacity="0.38" d="M110.095 172.53C111.66 172.53 112.928 171.258 112.928 169.688C112.928 168.119 111.66 166.847 110.095 166.847C108.53 166.847 107.262 168.119 107.262 169.688C107.262 171.258 108.53 172.53 110.095 172.53Z" fill="#397D4F"/>
<path opacity="0.28" d="M325.429 38.9717H246.095C243.413 38.9717 241.238 41.1527 241.238 43.8431V115.291C241.238 117.981 243.413 120.162 246.095 120.162H325.429C328.111 120.162 330.286 117.981 330.286 115.291V43.8431C330.286 41.1527 328.111 38.9717 325.429 38.9717Z" fill="#397D4F"/>
<path opacity="0.5" d="M325.429 38.9717H246.095C243.413 38.9717 241.238 41.1527 241.238 43.8431V47.0907C241.238 49.7811 243.413 51.9622 246.095 51.9622H325.429C328.111 51.9622 330.286 49.7811 330.286 47.0907V43.8431C330.286 41.1527 328.111 38.9717 325.429 38.9717Z" fill="#397D4F"/>
<path opacity="0.65" d="M295.476 32.4766H277.667C274.537 32.4766 272 35.0211 272 38.1599C272 41.2987 274.537 43.8432 277.667 43.8432H295.476C298.606 43.8432 301.143 41.2987 301.143 38.1599C301.143 35.0211 298.606 32.4766 295.476 32.4766Z" fill="#397D4F"/>
<path opacity="0.35" d="M318.953 60.0811H251.763C251.316 60.0811 250.953 60.4446 250.953 60.893V64.1406C250.953 64.589 251.316 64.9525 251.763 64.9525H318.953C319.4 64.9525 319.763 64.589 319.763 64.1406V60.893C319.763 60.4446 319.4 60.0811 318.953 60.0811Z" fill="#397D4F"/>
<path opacity="0.22" d="M302.763 69.0117H251.763C251.316 69.0117 250.953 69.3752 250.953 69.8236V73.0712C250.953 73.5196 251.316 73.8831 251.763 73.8831H302.763C303.21 73.8831 303.572 73.5196 303.572 73.0712V69.8236C303.572 69.3752 303.21 69.0117 302.763 69.0117Z" fill="#397D4F"/>
<path opacity="0.35" d="M308.429 77.9424H251.763C251.316 77.9424 250.953 78.3059 250.953 78.7543V82.0019C250.953 82.4503 251.316 82.8138 251.763 82.8138H308.429C308.876 82.8138 309.239 82.4503 309.239 82.0019V78.7543C309.239 78.3059 308.876 77.9424 308.429 77.9424Z" fill="#397D4F"/>
<path opacity="0.22" d="M314.906 86.874H251.763C251.316 86.874 250.953 87.2375 250.953 87.6859V90.9335C250.953 91.3819 251.316 91.7455 251.763 91.7455H314.906C315.353 91.7455 315.715 91.3819 315.715 90.9335V87.6859C315.715 87.2375 315.353 86.874 314.906 86.874Z" fill="#397D4F"/>
<path opacity="0.65" d="M307.619 112.043C312.09 112.043 315.714 108.408 315.714 103.924C315.714 99.4397 312.09 95.8047 307.619 95.8047C303.148 95.8047 299.523 99.4397 299.523 103.924C299.523 108.408 303.148 112.043 307.619 112.043Z" fill="#397D4F"/>
<path d="M303.572 103.924L306.81 107.171L312.477 99.8643" stroke="white" stroke-width="1.6" stroke-linecap="round" stroke-linejoin="round"/>
<path opacity="0.3" d="M241.237 87.6855C234.761 97.4284 231.523 107.171 225.047 109.607" stroke="#397D4F" stroke-width="1.5" stroke-dasharray="3 3"/>
<path opacity="0.22" d="M294.667 282.543H45.3337C42.6512 282.543 40.4766 284.724 40.4766 287.414V323.138C40.4766 325.829 42.6512 328.01 45.3337 328.01H294.667C297.35 328.01 299.524 325.829 299.524 323.138V287.414C299.524 284.724 297.35 282.543 294.667 282.543Z" fill="#397D4F"/>
<path opacity="0.22" d="M156.238 293.909H54.2382C53.344 293.909 52.6191 294.636 52.6191 295.533V302.028C52.6191 302.925 53.344 303.652 54.2382 303.652H156.238C157.132 303.652 157.857 302.925 157.857 302.028V295.533C157.857 294.636 157.132 293.909 156.238 293.909Z" fill="#397D4F"/>
<path opacity="0.48" d="M156.238 293.909H54.2382C53.344 293.909 52.6191 294.636 52.6191 295.533V302.028C52.6191 302.925 53.344 303.652 54.2382 303.652H156.238C157.132 303.652 157.857 302.925 157.857 302.028V295.533C157.857 294.636 157.132 293.909 156.238 293.909Z" fill="#397D4F"/>
<path opacity="0.22" d="M156.238 293.909H127.096C126.201 293.909 125.477 294.636 125.477 295.533V302.028C125.477 302.925 126.201 303.652 127.096 303.652H156.238C157.133 303.652 157.858 302.925 157.858 302.028V295.533C157.858 294.636 157.133 293.909 156.238 293.909Z" fill="#397D4F"/>
<path opacity="0.15" d="M288.19 293.909H186.19C185.296 293.909 184.571 294.636 184.571 295.533V302.028C184.571 302.925 185.296 303.652 186.19 303.652H288.19C289.085 303.652 289.809 302.925 289.809 302.028V295.533C289.809 294.636 289.085 293.909 288.19 293.909Z" fill="#397D4F"/>
<path opacity="0.58" d="M255.809 293.909H186.19C185.296 293.909 184.571 294.636 184.571 295.533V302.028C184.571 302.925 185.296 303.652 186.19 303.652H255.809C256.704 303.652 257.428 302.925 257.428 302.028V295.533C257.428 294.636 256.704 293.909 255.809 293.909Z" fill="#397D4F"/>
<path opacity="0.5" d="M176.477 295.533L182.953 298.781L176.477 302.028V295.533Z" fill="#397D4F"/>
<path opacity="0.2" d="M100.381 306.9H53.4287C52.9816 306.9 52.6191 307.264 52.6191 307.712V309.336C52.6191 309.785 52.9816 310.148 53.4287 310.148H100.381C100.828 310.148 101.191 309.785 101.191 309.336V307.712C101.191 307.264 100.828 306.9 100.381 306.9Z" fill="#397D4F"/>
<path opacity="0.2" d="M228.286 306.9H185.381C184.934 306.9 184.571 307.264 184.571 307.712V309.336C184.571 309.785 184.934 310.148 185.381 310.148H228.286C228.733 310.148 229.095 309.785 229.095 309.336V307.712C229.095 307.264 228.733 306.9 228.286 306.9Z" fill="#397D4F"/>
<path opacity="0.55" d="M281.714 323.138C285.291 323.138 288.191 320.23 288.191 316.643C288.191 313.055 285.291 310.147 281.714 310.147C278.138 310.147 275.238 313.055 275.238 316.643C275.238 320.23 278.138 323.138 281.714 323.138Z" fill="#397D4F"/>
<path d="M278.477 316.643L281.31 319.484L285.762 314.207" stroke="white" stroke-width="1.4" stroke-linecap="round" stroke-linejoin="round"/>
<path opacity="0.3" d="M141.667 283.355C143.455 283.355 144.905 281.901 144.905 280.107C144.905 278.313 143.455 276.859 141.667 276.859C139.878 276.859 138.429 278.313 138.429 280.107C138.429 281.901 139.878 283.355 141.667 283.355Z" fill="#397D4F"/>
<path opacity="0.2" d="M131.142 290.661C132.484 290.661 133.571 289.571 133.571 288.226C133.571 286.881 132.484 285.79 131.142 285.79C129.801 285.79 128.714 286.881 128.714 288.226C128.714 289.571 129.801 290.661 131.142 290.661Z" fill="#397D4F"/>
<path opacity="0.18" d="M149.762 292.691C150.88 292.691 151.786 291.783 151.786 290.662C151.786 289.541 150.88 288.632 149.762 288.632C148.644 288.632 147.738 289.541 147.738 290.662C147.738 291.783 148.644 292.691 149.762 292.691Z" fill="#397D4F"/>
</svg>
