<svg width="356" height="362" viewBox="0 0 356 362" fill="none" xmlns="http://www.w3.org/2000/svg">
<path opacity="0.08" d="M177.999 312.009C261.326 312.009 328.875 249.495 328.875 172.381C328.875 95.2658 261.326 32.752 177.999 32.752C94.6726 32.752 27.123 95.2658 27.123 172.381C27.123 249.495 94.6726 312.009 177.999 312.009Z" fill="#397D4F"/>
<path opacity="0.22" d="M111.886 25.8574H20.3435C17.5348 25.8574 15.2578 28.1727 15.2578 31.0289V85.3289C15.2578 88.185 17.5348 90.5003 20.3435 90.5003H111.886C114.695 90.5003 116.972 88.185 116.972 85.3289V31.0289C116.972 28.1727 114.695 25.8574 111.886 25.8574Z" fill="#397D4F"/>
<path opacity="0.45" d="M111.886 25.8574H20.3435C17.5348 25.8574 15.2578 28.1727 15.2578 31.0289V34.4765C15.2578 37.3326 17.5348 39.6479 20.3435 39.6479H111.886C114.695 39.6479 116.972 37.3326 116.972 34.4765V31.0289C116.972 28.1727 114.695 25.8574 111.886 25.8574Z" fill="#397D4F"/>
<path opacity="0.35" d="M72.8943 48.2666H25.4277C24.4914 48.2666 23.7324 49.0384 23.7324 49.9904V52.5761C23.7324 53.5282 24.4914 54.2999 25.4277 54.2999H72.8943C73.8306 54.2999 74.5896 53.5282 74.5896 52.5761V49.9904C74.5896 49.0384 73.8306 48.2666 72.8943 48.2666Z" fill="#397D4F"/>
<path opacity="0.22" d="M107.647 48.2666H81.371C80.4348 48.2666 79.6758 49.0384 79.6758 49.9904V52.5761C79.6758 53.5282 80.4348 54.2999 81.371 54.2999H107.647C108.583 54.2999 109.342 53.5282 109.342 52.5761V49.9904C109.342 49.0384 108.583 48.2666 107.647 48.2666Z" fill="#397D4F"/>
<path opacity="0.28" d="M60.18 59.4717H25.4277C24.4914 59.4717 23.7324 60.2435 23.7324 61.1955V63.7812C23.7324 64.7332 24.4914 65.505 25.4277 65.505H60.18C61.1163 65.505 61.8753 64.7332 61.8753 63.7812V61.1955C61.8753 60.2435 61.1163 59.4717 60.18 59.4717Z" fill="#397D4F"/>
<path opacity="0.18" d="M106.801 59.4717H67.8105C66.8742 59.4717 66.1152 60.2435 66.1152 61.1955V63.7812C66.1152 64.7332 66.8742 65.505 67.8105 65.505H106.801C107.737 65.505 108.496 64.7332 108.496 63.7812V61.1955C108.496 60.2435 107.737 59.4717 106.801 59.4717Z" fill="#397D4F"/>
<path opacity="0.28" d="M81.3705 70.6758H25.4277C24.4914 70.6758 23.7324 71.4476 23.7324 72.3996V74.9853C23.7324 75.9373 24.4914 76.7091 25.4277 76.7091H81.3705C82.3068 76.7091 83.0658 75.9373 83.0658 74.9853V72.3996C83.0658 71.4476 82.3068 70.6758 81.3705 70.6758Z" fill="#397D4F"/>
<path opacity="0.18" d="M106.8 70.6758H88.9999C88.0637 70.6758 87.3047 71.4476 87.3047 72.3996V74.9853C87.3047 75.9373 88.0637 76.7091 88.9999 76.7091H106.8C107.736 76.7091 108.495 75.9373 108.495 74.9853V72.3996C108.495 71.4476 107.736 70.6758 106.8 70.6758Z" fill="#397D4F"/>
<path opacity="0.45" d="M116.971 57.748H139.856" stroke="#397D4F" stroke-width="2"/>
<path opacity="0.5" d="M137.314 53.4385L144.095 57.748L137.314 62.0575V53.4385Z" fill="#397D4F"/>
<path opacity="0.42" d="M222.077 32.752H150.877C147.132 32.752 144.096 35.8391 144.096 39.6472V120.666C144.096 124.474 147.132 127.561 150.877 127.561H222.077C225.822 127.561 228.858 124.474 228.858 120.666V39.6472C228.858 35.8391 225.822 32.752 222.077 32.752Z" fill="#397D4F"/>
<path opacity="0.4" d="M186.476 95.671C199.583 95.671 210.209 84.8661 210.209 71.5376C210.209 58.2092 199.583 47.4043 186.476 47.4043C173.368 47.4043 162.742 58.2092 162.742 71.5376C162.742 84.8661 173.368 95.671 186.476 95.671Z" stroke="#397D4F" stroke-width="3"/>
<path opacity="0.55" d="M186.476 87.052C194.902 87.052 201.733 80.106 201.733 71.5377C201.733 62.9694 194.902 56.0234 186.476 56.0234C178.05 56.0234 171.219 62.9694 171.219 71.5377C171.219 80.106 178.05 87.052 186.476 87.052Z" fill="#397D4F"/>
<path opacity="0.4" d="M186.476 80.157C191.157 80.157 194.952 76.2982 194.952 71.538C194.952 66.7778 191.157 62.9189 186.476 62.9189C181.795 62.9189 178 66.7778 178 71.538C178 76.2982 181.795 80.157 186.476 80.157Z" fill="#397D4F"/>
<path opacity="0.55" d="M188.172 44.8193H184.781C183.845 44.8193 183.086 45.5911 183.086 46.5431V49.1289C183.086 50.0809 183.845 50.8527 184.781 50.8527H188.172C189.108 50.8527 189.867 50.0809 189.867 49.1289V46.5431C189.867 45.5911 189.108 44.8193 188.172 44.8193Z" fill="#397D4F"/>
<path opacity="0.55" d="M188.172 92.2236H184.781C183.845 92.2236 183.086 92.9954 183.086 93.9474V96.5332C183.086 97.4852 183.845 98.257 184.781 98.257H188.172C189.108 98.257 189.867 97.4852 189.867 96.5332V93.9474C189.867 92.9954 189.108 92.2236 188.172 92.2236Z" fill="#397D4F"/>
<path opacity="0.55" d="M164.437 68.0908H161.894C160.958 68.0908 160.199 68.8626 160.199 69.8146V73.2622C160.199 74.2143 160.958 74.9861 161.894 74.9861H164.437C165.374 74.9861 166.133 74.2143 166.133 73.2622V69.8146C166.133 68.8626 165.374 68.0908 164.437 68.0908Z" fill="#397D4F"/>
<path opacity="0.55" d="M211.056 68.0908H208.514C207.577 68.0908 206.818 68.8626 206.818 69.8146V73.2622C206.818 74.2143 207.577 74.9861 208.514 74.9861H211.056C211.993 74.9861 212.752 74.2143 212.752 73.2622V69.8146C212.752 68.8626 211.993 68.0908 211.056 68.0908Z" fill="#397D4F"/>
<path opacity="0.45" d="M168.325 49.7818L166.527 51.6102C165.865 52.2834 165.865 53.3748 166.527 54.048L168.325 55.8764C168.987 56.5496 170.06 56.5496 170.722 55.8764L172.52 54.048C173.182 53.3748 173.182 52.2834 172.52 51.6102L170.722 49.7818C170.06 49.1086 168.987 49.1086 168.325 49.7818Z" fill="#397D4F"/>
<path opacity="0.45" d="M204.729 51.6098L202.931 49.7814C202.269 49.1082 201.196 49.1082 200.534 49.7814L198.736 51.6098C198.074 52.283 198.074 53.3744 198.736 54.0476L200.534 55.876C201.196 56.5492 202.269 56.5492 202.931 55.876L204.729 54.0476C205.391 53.3744 205.391 52.283 204.729 51.6098Z" fill="#397D4F"/>
<path opacity="0.45" d="M173.12 90.143L171.322 88.3146C170.66 87.6414 169.586 87.6414 168.924 88.3146L167.126 90.143C166.464 90.8162 166.464 91.9076 167.126 92.5808L168.924 94.4092C169.586 95.0824 170.66 95.0824 171.322 94.4092L173.12 92.5808C173.782 91.9076 173.782 90.8162 173.12 90.143Z" fill="#397D4F"/>
<path opacity="0.45" d="M199.934 88.315L198.136 90.1434C197.474 90.8166 197.474 91.908 198.136 92.5812L199.934 94.4096C200.596 95.0828 201.67 95.0828 202.332 94.4096L204.13 92.5812C204.792 91.908 204.792 90.8166 204.13 90.1434L202.332 88.315C201.67 87.6418 200.596 87.6418 199.934 88.315Z" fill="#397D4F"/>
<path opacity="0.5" d="M186.476 66.3662L188.172 71.5376L186.476 76.7091L184.781 71.5376L186.476 66.3662Z" fill="white"/>
<path opacity="0.3" d="M219.534 110.324H153.42C152.952 110.324 152.572 110.71 152.572 111.186V113.772C152.572 114.248 152.952 114.634 153.42 114.634H219.534C220.002 114.634 220.382 114.248 220.382 113.772V111.186C220.382 110.71 220.002 110.324 219.534 110.324Z" fill="#397D4F"/>
<path opacity="0.18" d="M206.818 117.219H157.656C157.188 117.219 156.809 117.605 156.809 118.081V120.666C156.809 121.142 157.188 121.528 157.656 121.528H206.818C207.286 121.528 207.666 121.142 207.666 120.666V118.081C207.666 117.605 207.286 117.219 206.818 117.219Z" fill="#397D4F"/>
<path opacity="0.4" d="M228.857 58.6098L262.762 44.8193" stroke="#397D4F" stroke-width="1.8"/>
<path opacity="0.35" d="M336.505 31.0283H267C264.659 31.0283 262.762 32.9578 262.762 35.3378V59.4712C262.762 61.8513 264.659 63.7807 267 63.7807H336.505C338.845 63.7807 340.743 61.8513 340.743 59.4712V35.3378C340.743 32.9578 338.845 31.0283 336.505 31.0283Z" fill="#397D4F"/>
<path opacity="0.55" d="M336.505 31.0283H267C264.659 31.0283 262.762 32.9578 262.762 35.3378V37.0617C262.762 39.4417 264.659 41.3712 267 41.3712H336.505C338.845 41.3712 340.743 39.4417 340.743 37.0617V35.3378C340.743 32.9578 338.845 31.0283 336.505 31.0283Z" fill="#397D4F"/>
<path opacity="0.6" d="M286.495 47.4043H272.934C271.997 47.4043 271.238 48.1761 271.238 49.1281V57.7472C271.238 58.6992 271.997 59.471 272.934 59.471H286.495C287.432 59.471 288.191 58.6992 288.191 57.7472V49.1281C288.191 48.1761 287.432 47.4043 286.495 47.4043Z" stroke="#397D4F" stroke-width="1.5"/>
<path opacity="0.55" d="M271.238 47.4043L279.714 54.2995L288.191 47.4043" stroke="#397D4F" stroke-width="1.2"/>
<path opacity="0.25" d="M333.113 46.543H294.123C293.655 46.543 293.275 46.9289 293.275 47.4049V49.9906C293.275 50.4666 293.655 50.8525 294.123 50.8525H333.113C333.582 50.8525 333.961 50.4666 333.961 49.9906V47.4049C333.961 46.9289 333.582 46.543 333.113 46.543Z" fill="#397D4F"/>
<path opacity="0.18" d="M322.942 53.4385H294.123C293.655 53.4385 293.275 53.8244 293.275 54.3004V56.8861C293.275 57.3621 293.655 57.748 294.123 57.748H322.942C323.41 57.748 323.79 57.3621 323.79 56.8861V54.3004C323.79 53.8244 323.41 53.4385 322.942 53.4385Z" fill="#397D4F"/>
<path opacity="0.4" d="M228.857 71.5381H262.762" stroke="#397D4F" stroke-width="1.8"/>
<path opacity="0.35" d="M336.505 60.333H267C264.659 60.333 262.762 62.2624 262.762 64.6425V88.7759C262.762 91.1559 264.659 93.0854 267 93.0854H336.505C338.845 93.0854 340.743 91.1559 340.743 88.7759V64.6425C340.743 62.2624 338.845 60.333 336.505 60.333Z" fill="#397D4F"/>
<path opacity="0.55" d="M336.505 60.333H267C264.659 60.333 262.762 62.2624 262.762 64.6425V66.3663C262.762 68.7464 264.659 70.6759 267 70.6759H336.505C338.845 70.6759 340.743 68.7464 340.743 66.3663V64.6425C340.743 62.2624 338.845 60.333 336.505 60.333Z" fill="#397D4F"/>
<path opacity="0.6" d="M278.019 82.7424C281.296 82.7424 283.953 80.0412 283.953 76.7091C283.953 73.377 281.296 70.6758 278.019 70.6758C274.742 70.6758 272.086 73.377 272.086 76.7091C272.086 80.0412 274.742 82.7424 278.019 82.7424Z" stroke="#397D4F" stroke-width="1.5"/>
<path opacity="0.45" d="M286.496 77.5712C288.837 77.5712 290.734 75.6418 290.734 73.2617C290.734 70.8816 288.837 68.9521 286.496 68.9521C284.155 68.9521 282.258 70.8816 282.258 73.2617C282.258 75.6418 284.155 77.5712 286.496 77.5712Z" stroke="#397D4F" stroke-width="1.2"/>
<path opacity="0.25" d="M333.113 75.8477H294.123C293.655 75.8477 293.275 76.2335 293.275 76.7096V79.2953C293.275 79.7713 293.655 80.1572 294.123 80.1572H333.113C333.582 80.1572 333.961 79.7713 333.961 79.2953V76.7096C333.961 76.2335 333.582 75.8477 333.113 75.8477Z" fill="#397D4F"/>
<path opacity="0.18" d="M322.942 82.7432H294.123C293.655 82.7432 293.275 83.1291 293.275 83.6051V86.1908C293.275 86.6668 293.655 87.0527 294.123 87.0527H322.942C323.41 87.0527 323.79 86.6668 323.79 86.1908V83.6051C323.79 83.1291 323.41 82.7432 322.942 82.7432Z" fill="#397D4F"/>
<path opacity="0.4" d="M228.857 86.1904L262.762 101.705" stroke="#397D4F" stroke-width="1.8"/>
<path opacity="0.35" d="M336.505 91.3623H267C264.659 91.3623 262.762 93.2917 262.762 95.6718V119.805C262.762 122.185 264.659 124.115 267 124.115H336.505C338.845 124.115 340.743 122.185 340.743 119.805V95.6718C340.743 93.2917 338.845 91.3623 336.505 91.3623Z" fill="#397D4F"/>
<path opacity="0.55" d="M336.505 91.3623H267C264.659 91.3623 262.762 93.2917 262.762 95.6718V97.3956C262.762 99.7757 264.659 101.705 267 101.705H336.505C338.845 101.705 340.743 99.7757 340.743 97.3956V95.6718C340.743 93.2917 338.845 91.3623 336.505 91.3623Z" fill="#397D4F"/>
<path opacity="0.4" d="M286.495 106.876H272.934C271.997 106.876 271.238 107.648 271.238 108.6V117.219C271.238 118.171 271.997 118.943 272.934 118.943H286.495C287.432 118.943 288.191 118.171 288.191 117.219V108.6C288.191 107.648 287.432 106.876 286.495 106.876Z" fill="#397D4F"/>
<path opacity="0.5" d="M278.019 108.6H273.781C273.313 108.6 272.934 108.985 272.934 109.462V116.357C272.934 116.833 273.313 117.219 273.781 117.219H278.019C278.487 117.219 278.867 116.833 278.867 116.357V109.462C278.867 108.985 278.487 108.6 278.019 108.6Z" fill="#397D4F"/>
<path opacity="0.25" d="M333.113 105.152H294.123C293.655 105.152 293.275 105.538 293.275 106.014V108.6C293.275 109.076 293.655 109.462 294.123 109.462H333.113C333.582 109.462 333.961 109.076 333.961 108.6V106.014C333.961 105.538 333.582 105.152 333.113 105.152Z" fill="#397D4F"/>
<path opacity="0.18" d="M322.942 112.048H294.123C293.655 112.048 293.275 112.434 293.275 112.91V115.495C293.275 115.971 293.655 116.357 294.123 116.357H322.942C323.41 116.357 323.79 115.971 323.79 115.495V112.91C323.79 112.434 323.41 112.048 322.942 112.048Z" fill="#397D4F"/>
<path opacity="0.18" d="M337.353 136.181H147.486C145.614 136.181 144.096 137.724 144.096 139.628V149.971C144.096 151.875 145.614 153.419 147.486 153.419H337.353C339.225 153.419 340.743 151.875 340.743 149.971V139.628C340.743 137.724 339.225 136.181 337.353 136.181Z" fill="#397D4F"/>
<path opacity="0.42" d="M337.353 136.181H147.486C145.614 136.181 144.096 136.952 144.096 137.904C144.096 138.857 145.614 139.628 147.486 139.628H337.353C339.225 139.628 340.743 138.857 340.743 137.904C340.743 136.952 339.225 136.181 337.353 136.181Z" fill="#397D4F"/>
<path opacity="0.65" d="M289.039 136.181H147.486C145.614 136.181 144.096 136.952 144.096 137.904C144.096 138.857 145.614 139.628 147.486 139.628H289.039C290.911 139.628 292.429 138.857 292.429 137.904C292.429 136.952 290.911 136.181 289.039 136.181Z" fill="#397D4F"/>
<path opacity="0.2" d="M219.534 142.214H153.42C152.952 142.214 152.572 142.6 152.572 143.076V145.661C152.572 146.138 152.952 146.523 153.42 146.523H219.534C220.002 146.523 220.382 146.138 220.382 145.661V143.076C220.382 142.6 220.002 142.214 219.534 142.214Z" fill="#397D4F"/>
<path opacity="0.14" d="M277.172 142.214H228.01C227.542 142.214 227.162 142.6 227.162 143.076V145.661C227.162 146.138 227.542 146.523 228.01 146.523H277.172C277.64 146.523 278.019 146.138 278.019 145.661V143.076C278.019 142.6 277.64 142.214 277.172 142.214Z" fill="#397D4F"/>
<path opacity="0.55" d="M333.963 151.695C337.708 151.695 340.744 148.608 340.744 144.8C340.744 140.991 337.708 137.904 333.963 137.904C330.218 137.904 327.182 140.991 327.182 144.8C327.182 148.608 330.218 151.695 333.963 151.695Z" fill="#397D4F"/>
<path d="M330.572 144.8L333.115 147.386L338.201 141.353" stroke="white" stroke-width="1.5" stroke-linecap="round" stroke-linejoin="round"/>
<path opacity="0.22" d="M333.963 168.071H22.0388C18.2937 168.071 15.2578 171.158 15.2578 174.967V337.867C15.2578 341.675 18.2937 344.762 22.0388 344.762H333.963C337.708 344.762 340.744 341.675 340.744 337.867V174.967C340.744 171.158 337.708 168.071 333.963 168.071Z" fill="#397D4F"/>
<path opacity="0.45" d="M333.963 168.071H22.0388C18.2937 168.071 15.2578 171.158 15.2578 174.967V176.69C15.2578 180.498 18.2937 183.586 22.0388 183.586H333.963C337.708 183.586 340.744 180.498 340.744 176.69V174.967C340.744 171.158 337.708 168.071 333.963 168.071Z" fill="#397D4F"/>
<path opacity="0.6" d="M27.1229 179.276C28.9954 179.276 30.5134 177.733 30.5134 175.828C30.5134 173.924 28.9954 172.381 27.1229 172.381C25.2504 172.381 23.7324 173.924 23.7324 175.828C23.7324 177.733 25.2504 179.276 27.1229 179.276Z" fill="#397D4F"/>
<path opacity="0.45" d="M37.2948 179.276C39.1673 179.276 40.6852 177.733 40.6852 175.828C40.6852 173.924 39.1673 172.381 37.2948 172.381C35.4223 172.381 33.9043 173.924 33.9043 175.828C33.9043 177.733 35.4223 179.276 37.2948 179.276Z" fill="#397D4F"/>
<path opacity="0.3" d="M47.4666 179.276C49.3392 179.276 50.8571 177.733 50.8571 175.828C50.8571 173.924 49.3392 172.381 47.4666 172.381C45.5941 172.381 44.0762 173.924 44.0762 175.828C44.0762 177.733 45.5941 179.276 47.4666 179.276Z" fill="#397D4F"/>
<path opacity="0.28" d="M90.6944 193.066H29.6658C27.3252 193.066 25.4277 194.996 25.4277 197.376V233.576C25.4277 235.956 27.3252 237.885 29.6658 237.885H90.6944C93.035 237.885 94.9325 235.956 94.9325 233.576V197.376C94.9325 194.996 93.035 193.066 90.6944 193.066Z" fill="#397D4F"/>
<path opacity="0.18" d="M71.1995 199.962H34.7519C34.2838 199.962 33.9043 200.348 33.9043 200.824V203.41C33.9043 203.886 34.2838 204.271 34.7519 204.271H71.1995C71.6677 204.271 72.0472 203.886 72.0472 203.41V200.824C72.0472 200.348 71.6677 199.962 71.1995 199.962Z" fill="#397D4F"/>
<path opacity="0.48" d="M76.2852 208.581H35.5995C34.6633 208.581 33.9043 209.353 33.9043 210.305V217.2C33.9043 218.152 34.6633 218.924 35.5995 218.924H76.2852C77.2215 218.924 77.9805 218.152 77.9805 217.2V210.305C77.9805 209.353 77.2215 208.581 76.2852 208.581Z" fill="#397D4F"/>
<path opacity="0.22" d="M62.7233 224.096H34.7519C34.2838 224.096 33.9043 224.482 33.9043 224.958V226.681C33.9043 227.157 34.2838 227.543 34.7519 227.543H62.7233C63.1915 227.543 63.571 227.157 63.571 226.681V224.958C63.571 224.482 63.1915 224.096 62.7233 224.096Z" fill="#397D4F"/>
<path opacity="0.55" d="M76.2852 194.791L81.3709 189.619L86.4566 194.791H76.2852Z" fill="#397D4F"/>
<path opacity="0.4" d="M81.3711 189.619V199.962" stroke="#397D4F" stroke-width="1.5"/>
<path opacity="0.28" d="M170.372 193.066H109.344C107.003 193.066 105.105 194.996 105.105 197.376V233.576C105.105 235.956 107.003 237.885 109.344 237.885H170.372C172.713 237.885 174.61 235.956 174.61 233.576V197.376C174.61 194.996 172.713 193.066 170.372 193.066Z" fill="#397D4F"/>
<path opacity="0.18" d="M146.637 199.962H114.428C113.96 199.962 113.58 200.348 113.58 200.824V203.41C113.58 203.886 113.96 204.271 114.428 204.271H146.637C147.105 204.271 147.485 203.886 147.485 203.41V200.824C147.485 200.348 147.105 199.962 146.637 199.962Z" fill="#397D4F"/>
<path opacity="0.48" d="M152.571 208.581H115.275C114.339 208.581 113.58 209.353 113.58 210.305V217.2C113.58 218.152 114.339 218.924 115.275 218.924H152.571C153.507 218.924 154.266 218.152 154.266 217.2V210.305C154.266 209.353 153.507 208.581 152.571 208.581Z" fill="#397D4F"/>
<path opacity="0.22" d="M155.113 224.096H114.428C113.96 224.096 113.58 224.482 113.58 224.958V226.681C113.58 227.157 113.96 227.543 114.428 227.543H155.113C155.582 227.543 155.961 227.157 155.961 226.681V224.958C155.961 224.482 155.582 224.096 155.113 224.096Z" fill="#397D4F"/>
<path opacity="0.45" d="M155.961 229.267L161.047 234.438L166.132 229.267H155.961Z" fill="#397D4F"/>
<path opacity="0.35" d="M161.047 234.438V241.334" stroke="#397D4F" stroke-width="1.5"/>
<path opacity="0.28" d="M250.048 193.066H189.019C186.679 193.066 184.781 194.996 184.781 197.376V233.576C184.781 235.956 186.679 237.885 189.019 237.885H250.048C252.389 237.885 254.286 235.956 254.286 233.576V197.376C254.286 194.996 252.389 193.066 250.048 193.066Z" fill="#397D4F"/>
<path opacity="0.18" d="M224.62 199.962H194.105C193.637 199.962 193.258 200.348 193.258 200.824V203.41C193.258 203.886 193.637 204.271 194.105 204.271H224.62C225.088 204.271 225.467 203.886 225.467 203.41V200.824C225.467 200.348 225.088 199.962 224.62 199.962Z" fill="#397D4F"/>
<path opacity="0.48" d="M238.182 208.581H194.953C194.017 208.581 193.258 209.353 193.258 210.305V217.2C193.258 218.152 194.017 218.924 194.953 218.924H238.182C239.118 218.924 239.877 218.152 239.877 217.2V210.305C239.877 209.353 239.118 208.581 238.182 208.581Z" fill="#397D4F"/>
<path opacity="0.22" d="M228.01 224.096H194.105C193.637 224.096 193.258 224.482 193.258 224.958V226.681C193.258 227.157 193.637 227.543 194.105 227.543H228.01C228.478 227.543 228.858 227.157 228.858 226.681V224.958C228.858 224.482 228.478 224.096 228.01 224.096Z" fill="#397D4F"/>
<path opacity="0.55" d="M235.639 193.067L240.724 187.896L245.81 193.067H235.639Z" fill="#397D4F"/>
<path opacity="0.28" d="M329.724 193.066H268.695C266.354 193.066 264.457 194.996 264.457 197.376V233.576C264.457 235.956 266.354 237.885 268.695 237.885H329.724C332.064 237.885 333.962 235.956 333.962 233.576V197.376C333.962 194.996 332.064 193.066 329.724 193.066Z" fill="#397D4F"/>
<path opacity="0.18" d="M307.686 199.962H273.781C273.313 199.962 272.934 200.348 272.934 200.824V203.41C272.934 203.886 273.313 204.271 273.781 204.271H307.686C308.154 204.271 308.534 203.886 308.534 203.41V200.824C308.534 200.348 308.154 199.962 307.686 199.962Z" fill="#397D4F"/>
<path opacity="0.48" d="M313.619 208.581H274.629C273.693 208.581 272.934 209.353 272.934 210.305V217.2C272.934 218.152 273.693 218.924 274.629 218.924H313.619C314.556 218.924 315.315 218.152 315.315 217.2V210.305C315.315 209.353 314.556 208.581 313.619 208.581Z" fill="#397D4F"/>
<path opacity="0.22" d="M304.295 224.096H273.781C273.313 224.096 272.934 224.482 272.934 224.958V226.681C272.934 227.157 273.313 227.543 273.781 227.543H304.295C304.764 227.543 305.143 227.157 305.143 226.681V224.958C305.143 224.482 304.764 224.096 304.295 224.096Z" fill="#397D4F"/>
<path opacity="0.55" d="M315.314 194.791L320.4 189.619L325.486 194.791H315.314Z" fill="#397D4F"/>
<path opacity="0.3" d="M32.209 301.666V249.952" stroke="#397D4F" stroke-width="1.2" stroke-linecap="round"/>
<path opacity="0.3" d="M32.209 301.667H211.904" stroke="#397D4F" stroke-width="1.2" stroke-linecap="round"/>
<path opacity="0.55" d="M64.419 274.086H44.0761C43.1398 274.086 42.3809 274.858 42.3809 275.81V299.943C42.3809 300.895 43.1398 301.667 44.0761 301.667H64.419C65.3552 301.667 66.1142 300.895 66.1142 299.943V275.81C66.1142 274.858 65.3552 274.086 64.419 274.086Z" fill="#397D4F"/>
<path opacity="0.38" d="M64.419 263.743H44.0761C43.1398 263.743 42.3809 264.515 42.3809 265.467V272.362C42.3809 273.314 43.1398 274.086 44.0761 274.086H64.419C65.3552 274.086 66.1142 273.314 66.1142 272.362V265.467C66.1142 264.515 65.3552 263.743 64.419 263.743Z" fill="#397D4F"/>
<path opacity="0.22" d="M64.419 256.848H44.0761C43.1398 256.848 42.3809 257.619 42.3809 258.571V262.019C42.3809 262.971 43.1398 263.743 44.0761 263.743H64.419C65.3552 263.743 66.1142 262.971 66.1142 262.019V258.571C66.1142 257.619 65.3552 256.848 64.419 256.848Z" fill="#397D4F"/>
<path opacity="0.55" d="M96.6279 267.19H76.2851C75.3488 267.19 74.5898 267.962 74.5898 268.914V299.943C74.5898 300.895 75.3488 301.667 76.2851 301.667H96.6279C97.5642 301.667 98.3232 300.895 98.3232 299.943V268.914C98.3232 267.962 97.5642 267.19 96.6279 267.19Z" fill="#397D4F"/>
<path opacity="0.38" d="M96.6279 258.571H76.2851C75.3488 258.571 74.5898 259.343 74.5898 260.295V265.467C74.5898 266.419 75.3488 267.19 76.2851 267.19H96.6279C97.5642 267.19 98.3232 266.419 98.3232 265.467V260.295C98.3232 259.343 97.5642 258.571 96.6279 258.571Z" fill="#397D4F"/>
<path opacity="0.22" d="M96.6279 253.4H76.2851C75.3488 253.4 74.5898 254.172 74.5898 255.124V256.848C74.5898 257.8 75.3488 258.572 76.2851 258.572H96.6279C97.5642 258.572 98.3232 257.8 98.3232 256.848V255.124C98.3232 254.172 97.5642 253.4 96.6279 253.4Z" fill="#397D4F"/>
<path opacity="0.6" d="M128.839 255.124H108.496C107.56 255.124 106.801 255.896 106.801 256.848V299.943C106.801 300.895 107.56 301.667 108.496 301.667H128.839C129.775 301.667 130.534 300.895 130.534 299.943V256.848C130.534 255.896 129.775 255.124 128.839 255.124Z" fill="#397D4F"/>
<path opacity="0.42" d="M128.839 244.781H108.496C107.56 244.781 106.801 245.553 106.801 246.505V253.4C106.801 254.352 107.56 255.124 108.496 255.124H128.839C129.775 255.124 130.534 254.352 130.534 253.4V246.505C130.534 245.553 129.775 244.781 128.839 244.781Z" fill="#397D4F"/>
<path opacity="0.25" d="M128.839 239.609H108.496C107.56 239.609 106.801 240.381 106.801 241.333V243.057C106.801 244.009 107.56 244.781 108.496 244.781H128.839C129.775 244.781 130.534 244.009 130.534 243.057V241.333C130.534 240.381 129.775 239.609 128.839 239.609Z" fill="#397D4F"/>
<path opacity="0.55" d="M161.048 265.467H140.705C139.769 265.467 139.01 266.239 139.01 267.191V299.943C139.01 300.895 139.769 301.667 140.705 301.667H161.048C161.984 301.667 162.743 300.895 162.743 299.943V267.191C162.743 266.239 161.984 265.467 161.048 265.467Z" fill="#397D4F"/>
<path opacity="0.38" d="M161.048 256.848H140.705C139.769 256.848 139.01 257.619 139.01 258.571V263.743C139.01 264.695 139.769 265.467 140.705 265.467H161.048C161.984 265.467 162.743 264.695 162.743 263.743V258.571C162.743 257.619 161.984 256.848 161.048 256.848Z" fill="#397D4F"/>
<path opacity="0.45" d="M193.257 275.81H172.914C171.978 275.81 171.219 276.581 171.219 277.533V299.943C171.219 300.895 171.978 301.667 172.914 301.667H193.257C194.193 301.667 194.952 300.895 194.952 299.943V277.533C194.952 276.581 194.193 275.81 193.257 275.81Z" fill="#397D4F"/>
<path opacity="0.3" d="M193.257 268.914H172.914C171.978 268.914 171.219 269.686 171.219 270.638V274.085C171.219 275.038 171.978 275.809 172.914 275.809H193.257C194.193 275.809 194.952 275.038 194.952 274.085V270.638C194.952 269.686 194.193 268.914 193.257 268.914Z" fill="#397D4F"/>
<path opacity="0.32" d="M328.876 244.781H233.943C231.134 244.781 228.857 247.097 228.857 249.953V317.181C228.857 320.037 231.134 322.353 233.943 322.353H328.876C331.685 322.353 333.962 320.037 333.962 317.181V249.953C333.962 247.097 331.685 244.781 328.876 244.781Z" fill="#397D4F"/>
<path opacity="0.52" d="M328.876 244.781H233.943C231.134 244.781 228.857 247.097 228.857 249.953V251.676C228.857 254.533 231.134 256.848 233.943 256.848H328.876C331.685 256.848 333.962 254.533 333.962 251.676V249.953C333.962 247.097 331.685 244.781 328.876 244.781Z" fill="#397D4F"/>
<path opacity="0.3" d="M321.248 265.467H239.877C239.409 265.467 239.029 265.853 239.029 266.329V269.776C239.029 270.252 239.409 270.638 239.877 270.638H321.248C321.716 270.638 322.096 270.252 322.096 269.776V266.329C322.096 265.853 321.716 265.467 321.248 265.467Z" fill="#397D4F"/>
<path opacity="0.2" d="M301.753 275.81H239.877C239.409 275.81 239.029 276.195 239.029 276.671V280.119C239.029 280.595 239.409 280.981 239.877 280.981H301.753C302.221 280.981 302.601 280.595 302.601 280.119V276.671C302.601 276.195 302.221 275.81 301.753 275.81Z" fill="#397D4F"/>
<path opacity="0.3" d="M312.772 286.152H239.877C239.409 286.152 239.029 286.538 239.029 287.014V290.462C239.029 290.938 239.409 291.324 239.877 291.324H312.772C313.24 291.324 313.62 290.938 313.62 290.462V287.014C313.62 286.538 313.24 286.152 312.772 286.152Z" fill="#397D4F"/>
<path opacity="0.2" d="M289.039 296.495H239.877C239.409 296.495 239.029 296.881 239.029 297.357V300.805C239.029 301.281 239.409 301.667 239.877 301.667H289.039C289.507 301.667 289.886 301.281 289.886 300.805V297.357C289.886 296.881 289.507 296.495 289.039 296.495Z" fill="#397D4F"/>
<path opacity="0.65" d="M311.923 317.181C316.605 317.181 320.4 313.323 320.4 308.562C320.4 303.802 316.605 299.943 311.923 299.943C307.242 299.943 303.447 303.802 303.447 308.562C303.447 313.323 307.242 317.181 311.923 317.181Z" fill="#397D4F"/>
<path d="M308.533 308.562L311.5 312.009L317.009 305.114" stroke="white" stroke-width="1.6" stroke-linecap="round" stroke-linejoin="round"/>
<path opacity="0.4" d="M54.248 272.362L86.4576 262.881L118.667 246.505L150.877 258.572L183.086 274.086" stroke="#397D4F" stroke-width="2" stroke-linecap="round" stroke-linejoin="round" stroke-dasharray="5 2"/>
<path opacity="0.25" d="M301.752 124.114C301.752 142.214 301.752 156.867 301.752 168.071" stroke="#397D4F" stroke-width="1.5" stroke-dasharray="3 3"/>
<path opacity="0.25" d="M186.477 127.562V168.071" stroke="#397D4F" stroke-width="1.5" stroke-dasharray="3 3"/>
</svg>
