<svg width="420" height="446" viewBox="0 0 420 446" fill="none" xmlns="http://www.w3.org/2000/svg">
<path opacity="0.08" d="M210 375C301.127 375 375 305.604 375 220C375 134.396 301.127 65 210 65C118.873 65 45 134.396 45 220C45 305.604 118.873 375 210 375Z" fill="#397D4F"/>
<path opacity="0.18" d="M210 60L290 92V198C290 250 255 288 210 305C165 288 130 250 130 198V92L210 60Z" fill="#397D4F"/>
<path opacity="0.14" d="M210 80L274 107V196C274 238 246 270 210 285C174 270 146 238 146 196V107L210 80Z" fill="#397D4F"/>
<path opacity="0.2" d="M210 100L258 122V194C258 226 238 252 210 264C182 252 162 226 162 194V122L210 100Z" fill="#397D4F"/>
<path opacity="0.32" d="M210 120L242 137V192C242 214 230 234 210 244C190 234 178 214 178 192V137L210 120Z" fill="#397D4F"/>
<path opacity="0.58" d="M210 210C222.15 210 232 200.15 232 188C232 175.85 222.15 166 210 166C197.85 166 188 175.85 188 188C188 200.15 197.85 210 210 210Z" fill="#397D4F"/>
<path d="M200 188L207 196L222 177" stroke="white" stroke-width="2.5" stroke-linecap="round" stroke-linejoin="round"/>
<path opacity="0.28" d="M109 108H47C44.2386 108 42 110.239 42 113V139C42 141.761 44.2386 144 47 144H109C111.761 144 114 141.761 114 139V113C114 110.239 111.761 108 109 108Z" fill="#397D4F"/>
<path opacity="0.48" d="M109 108H47C44.2386 108 42 110.239 42 113V117C42 119.761 44.2386 122 47 122H109C111.761 122 114 119.761 114 117V113C114 110.239 111.761 108 109 108Z" fill="#397D4F"/>
<path opacity="0.3" d="M93 130H51C50.4477 130 50 130.448 50 131V134C50 134.552 50.4477 135 51 135H93C93.5523 135 94 134.552 94 134V131C94 130.448 93.5523 130 93 130Z" fill="#397D4F"/>
<path opacity="0.8" d="M104 120C106.761 120 109 117.761 109 115C109 112.239 106.761 110 104 110C101.239 110 99 112.239 99 115C99 117.761 101.239 120 104 120Z" fill="#95DE64"/>
<path opacity="0.42" d="M114 128C122 132 128 136 130 140" stroke="#397D4F" stroke-width="1.6"/>
<path opacity="0.5" d="M120 135.5C121.933 135.5 123.5 133.933 123.5 132C123.5 130.067 121.933 128.5 120 128.5C118.067 128.5 116.5 130.067 116.5 132C116.5 133.933 118.067 135.5 120 135.5Z" fill="#397D4F"/>
<path opacity="0.26" d="M381 108H311C308.239 108 306 110.239 306 113V139C306 141.761 308.239 144 311 144H381C383.761 144 386 141.761 386 139V113C386 110.239 383.761 108 381 108Z" fill="#397D4F"/>
<path opacity="0.46" d="M381 108H311C308.239 108 306 110.239 306 113V117C306 119.761 308.239 122 311 122H381C383.761 122 386 119.761 386 117V113C386 110.239 383.761 108 381 108Z" fill="#397D4F"/>
<path opacity="0.28" d="M367 130H315C314.448 130 314 130.448 314 131V134C314 134.552 314.448 135 315 135H367C367.552 135 368 134.552 368 134V131C368 130.448 367.552 130 367 130Z" fill="#397D4F"/>
<path opacity="0.72" d="M316 120C318.761 120 321 117.761 321 115C321 112.239 318.761 110 316 110C313.239 110 311 112.239 311 115C311 117.761 313.239 120 316 120Z" fill="#95DE64"/>
<path opacity="0.4" d="M306 128C298 132 292 136 290 140" stroke="#397D4F" stroke-width="1.6"/>
<path opacity="0.46" d="M300 135.5C301.933 135.5 303.5 133.933 303.5 132C303.5 130.067 301.933 128.5 300 128.5C298.067 128.5 296.5 130.067 296.5 132C296.5 133.933 298.067 135.5 300 135.5Z" fill="#397D4F"/>
<path opacity="0.26" d="M103 202H33C30.2386 202 28 204.239 28 207V233C28 235.761 30.2386 238 33 238H103C105.761 238 108 235.761 108 233V207C108 204.239 105.761 202 103 202Z" fill="#397D4F"/>
<path opacity="0.44" d="M103 202H33C30.2386 202 28 204.239 28 207V211C28 213.761 30.2386 216 33 216H103C105.761 216 108 213.761 108 211V207C108 204.239 105.761 202 103 202Z" fill="#397D4F"/>
<path opacity="0.26" d="M91 224H37C36.4477 224 36 224.448 36 225V228C36 228.552 36.4477 229 37 229H91C91.5523 229 92 228.552 92 228V225C92 224.448 91.5523 224 91 224Z" fill="#397D4F"/>
<path opacity="0.36" d="M108 220C118 214 124 208 130 204" stroke="#397D4F" stroke-width="1.6"/>
<path opacity="0.26" d="M393 202H317C314.239 202 312 204.239 312 207V233C312 235.761 314.239 238 317 238H393C395.761 238 398 235.761 398 233V207C398 204.239 395.761 202 393 202Z" fill="#397D4F"/>
<path opacity="0.44" d="M393 202H317C314.239 202 312 204.239 312 207V211C312 213.761 314.239 216 317 216H393C395.761 216 398 213.761 398 211V207C398 204.239 395.761 202 393 202Z" fill="#397D4F"/>
<path opacity="0.26" d="M381 224H321C320.448 224 320 224.448 320 225V228C320 228.552 320.448 229 321 229H381C381.552 229 382 228.552 382 228V225C382 224.448 381.552 224 381 224Z" fill="#397D4F"/>
<path opacity="0.66" d="M322 214C324.761 214 327 211.761 327 209C327 206.239 324.761 204 322 204C319.239 204 317 206.239 317 209C317 211.761 319.239 214 322 214Z" fill="#397D4F"/>
<path d="M319 209L321.5 211.5L326 206.5" stroke="white" stroke-width="1.4" stroke-linecap="round" stroke-linejoin="round"/>
<path opacity="0.34" d="M312 220C302 214 296 208 290 204" stroke="#397D4F" stroke-width="1.6"/>
<path opacity="0.24" d="M118 370C145.614 370 168 360.15 168 348C168 335.85 145.614 326 118 326C90.3858 326 68 335.85 68 348C68 360.15 90.3858 370 118 370Z" fill="#397D4F"/>
<path opacity="0.38" d="M140 340H96C93.7909 340 92 341.791 92 344V352C92 354.209 93.7909 356 96 356H140C142.209 356 144 354.209 144 352V344C144 341.791 142.209 340 140 340Z" fill="#397D4F"/>
<path opacity="0.45" d="M123 344H97C96.4477 344 96 344.448 96 345V348C96 348.552 96.4477 349 97 349H123C123.552 349 124 348.552 124 348V345C124 344.448 123.552 344 123 344Z" fill="#397D4F"/>
<path opacity="0.22" d="M135 353H97C96.4477 353 96 353.448 96 354V356C96 356.552 96.4477 357 97 357H135C135.552 357 136 356.552 136 356V354C136 353.448 135.552 353 135 353Z" fill="#397D4F"/>
<path opacity="0.26" d="M210 378C239.823 378 264 368.15 264 356C264 343.85 239.823 334 210 334C180.177 334 156 343.85 156 356C156 368.15 180.177 378 210 378Z" fill="#397D4F"/>
<path opacity="0.42" d="M234 348H186C183.791 348 182 349.791 182 352V360C182 362.209 183.791 364 186 364H234C236.209 364 238 362.209 238 360V352C238 349.791 236.209 348 234 348Z" fill="#397D4F"/>
<path opacity="0.78" d="M194 361C196.761 361 199 358.761 199 356C199 353.239 196.761 351 194 351C191.239 351 189 353.239 189 356C189 358.761 191.239 361 194 361Z" fill="#95DE64"/>
<path opacity="0.4" d="M229 352H203C202.448 352 202 352.448 202 353V356C202 356.552 202.448 357 203 357H229C229.552 357 230 356.552 230 356V353C230 352.448 229.552 352 229 352Z" fill="#397D4F"/>
<path opacity="0.22" d="M223 361H203C202.448 361 202 361.448 202 362V364C202 364.552 202.448 365 203 365H223C223.552 365 224 364.552 224 364V362C224 361.448 223.552 361 223 361Z" fill="#397D4F"/>
<path opacity="0.24" d="M302 370C329.614 370 352 360.15 352 348C352 335.85 329.614 326 302 326C274.386 326 252 335.85 252 348C252 360.15 274.386 370 302 370Z" fill="#397D4F"/>
<path opacity="0.36" d="M324 340H280C277.791 340 276 341.791 276 344V352C276 354.209 277.791 356 280 356H324C326.209 356 328 354.209 328 352V344C328 341.791 326.209 340 324 340Z" fill="#397D4F"/>
<path opacity="0.4" d="M315 344H281C280.448 344 280 344.448 280 345V348C280 348.552 280.448 349 281 349H315C315.552 349 316 348.552 316 348V345C316 344.448 315.552 344 315 344Z" fill="#397D4F"/>
<path opacity="0.2" d="M307 353H281C280.448 353 280 353.448 280 354V356C280 356.552 280.448 357 281 357H307C307.552 357 308 356.552 308 356V354C308 353.448 307.552 353 307 353Z" fill="#397D4F"/>
<path opacity="0.32" d="M156 340C176 320 194 305 210 305" stroke="#397D4F" stroke-width="1.5"/>
<path opacity="0.28" d="M210 348C210 330 210 315 210 305" stroke="#397D4F" stroke-width="1.5"/>
<path opacity="0.3" d="M264 340C244 320 226 305 210 305" stroke="#397D4F" stroke-width="1.5"/>
<path opacity="0.18" d="M358 390H62C60.8954 390 60 390.895 60 392V393C60 394.105 60.8954 395 62 395H358C359.105 395 360 394.105 360 393V392C360 390.895 359.105 390 358 390Z" fill="#397D4F"/>
<path opacity="0.28" d="M268 390H62C60.8954 390 60 390.895 60 392V393C60 394.105 60.8954 395 62 395H268C269.105 395 270 394.105 270 393V392C270 390.895 269.105 390 268 390Z" fill="#397D4F"/>
<path opacity="0.3" d="M56 67C58.7614 67 61 64.7614 61 62C61 59.2386 58.7614 57 56 57C53.2386 57 51 59.2386 51 62C51 64.7614 53.2386 67 56 67Z" fill="#397D4F"/>
<path opacity="0.2" d="M68 55C69.6569 55 71 53.6569 71 52C71 50.3431 69.6569 49 68 49C66.3431 49 65 50.3431 65 52C65 53.6569 66.3431 55 68 55Z" fill="#397D4F"/>
<path opacity="0.46" d="M364 66.5C366.485 66.5 368.5 64.4853 368.5 62C368.5 59.5147 366.485 57.5 364 57.5C361.515 57.5 359.5 59.5147 359.5 62C359.5 64.4853 361.515 66.5 364 66.5Z" fill="#95DE64"/>
<path opacity="0.22" d="M378 55C379.657 55 381 53.6569 381 52C381 50.3431 379.657 49 378 49C376.343 49 375 50.3431 375 52C375 53.6569 376.343 55 378 55Z" fill="#397D4F"/>
<path opacity="0.28" d="M44 314C46.2091 314 48 312.209 48 310C48 307.791 46.2091 306 44 306C41.7909 306 40 307.791 40 310C40 312.209 41.7909 314 44 314Z" fill="#397D4F"/>
<path opacity="0.28" d="M376 314C378.209 314 380 312.209 380 310C380 307.791 378.209 306 376 306C373.791 306 372 307.791 372 310C372 312.209 373.791 314 376 314Z" fill="#397D4F"/>
<path opacity="0.4" d="M210 421C212.761 421 215 418.761 215 416C215 413.239 212.761 411 210 411C207.239 411 205 413.239 205 416C205 418.761 207.239 421 210 421Z" fill="#95DE64"/>
<path opacity="0.18" d="M222 429C223.657 429 225 427.657 225 426C225 424.343 223.657 423 222 423C220.343 423 219 424.343 219 426C219 427.657 220.343 429 222 429Z" fill="#397D4F"/>
</svg>
