<svg width="420" height="446" viewBox="0 0 420 446" fill="none" xmlns="http://www.w3.org/2000/svg">
<path opacity="0.09" d="M210 390C306.65 390 385 318.366 385 230C385 141.634 306.65 70 210 70C113.35 70 35 141.634 35 230C35 318.366 113.35 390 210 390Z" fill="#397D4F"/>
<path opacity="0.1" d="M30 390C80 350 130 300 180 250C230 200 270 160 360 80" stroke="#397D4F" stroke-width="10" stroke-linecap="round"/>
<path opacity="0.38" d="M30 390C80 350 130 300 180 250C230 200 270 160 360 80" stroke="#397D4F" stroke-width="3" stroke-linecap="round"/>
<path opacity="0.55" d="M30 390C80 350 130 300 180 250C230 200 270 160 360 80" stroke="#397D4F" stroke-width="1.5" stroke-linecap="round" stroke-dasharray="10 8"/>
<path opacity="0.3" d="M58 386C67.9411 386 76 377.941 76 368C76 358.059 67.9411 350 58 350C48.0589 350 40 358.059 40 368C40 377.941 48.0589 386 58 386Z" fill="#397D4F"/>
<path opacity="0.5" d="M58 379C64.0751 379 69 374.075 69 368C69 361.925 64.0751 357 58 357C51.9249 357 47 361.925 47 368C47 374.075 51.9249 379 58 379Z" fill="#397D4F"/>
<path opacity="0.8" d="M58 373C60.7614 373 63 370.761 63 368C63 365.239 60.7614 363 58 363C55.2386 363 53 365.239 53 368C53 370.761 55.2386 373 58 373Z" fill="#397D4F"/>
<path opacity="0.24" d="M165 356H79C76.2386 356 74 358.239 74 361V391C74 393.761 76.2386 396 79 396H165C167.761 396 170 393.761 170 391V361C170 358.239 167.761 356 165 356Z" fill="#397D4F"/>
<path opacity="0.44" d="M165 356H79C76.2386 356 74 358.239 74 361V365C74 367.761 76.2386 370 79 370H165C167.761 370 170 367.761 170 365V361C170 358.239 167.761 356 165 356Z" fill="#397D4F"/>
<path opacity="0.28" d="M141 378H83C82.4477 378 82 378.448 82 379V382C82 382.552 82.4477 383 83 383H141C141.552 383 142 382.552 142 382V379C142 378.448 141.552 378 141 378Z" fill="#397D4F"/>
<path opacity="0.18" d="M159 387H83C82.4477 387 82 387.448 82 388V391C82 391.552 82.4477 392 83 392H159C159.552 392 160 391.552 160 391V388C160 387.448 159.552 387 159 387Z" fill="#397D4F"/>
<path opacity="0.28" d="M145 306C154.941 306 163 297.941 163 288C163 278.059 154.941 270 145 270C135.059 270 127 278.059 127 288C127 297.941 135.059 306 145 306Z" fill="#397D4F"/>
<path opacity="0.46" d="M145 299C151.075 299 156 294.075 156 288C156 281.925 151.075 277 145 277C138.925 277 134 281.925 134 288C134 294.075 138.925 299 145 299Z" fill="#397D4F"/>
<path opacity="0.82" d="M145 293C147.761 293 150 290.761 150 288C150 285.239 147.761 283 145 283C142.239 283 140 285.239 140 288C140 290.761 142.239 293 145 293Z" fill="#95DE64"/>
<path opacity="0.24" d="M119 270H31C28.2386 270 26 272.239 26 275V307C26 309.761 28.2386 312 31 312H119C121.761 312 124 309.761 124 307V275C124 272.239 121.761 270 119 270Z" fill="#397D4F"/>
<path opacity="0.42" d="M119 270H31C28.2386 270 26 272.239 26 275V279C26 281.761 28.2386 284 31 284H119C121.761 284 124 281.761 124 279V275C124 272.239 121.761 270 119 270Z" fill="#397D4F"/>
<path opacity="0.8" d="M38 281C40.2091 281 42 279.209 42 277C42 274.791 40.2091 273 38 273C35.7909 273 34 274.791 34 277C34 279.209 35.7909 281 38 281Z" fill="#95DE64"/>
<path opacity="0.36" d="M97 273H47C46.4477 273 46 273.448 46 274V277C46 277.552 46.4477 278 47 278H97C97.5523 278 98 277.552 98 277V274C98 273.448 97.5523 273 97 273Z" fill="#397D4F"/>
<path opacity="0.22" d="M111 292H35C34.4477 292 34 292.448 34 293V296C34 296.552 34.4477 297 35 297H111C111.552 297 112 296.552 112 296V293C112 292.448 111.552 292 111 292Z" fill="#397D4F"/>
<path opacity="0.16" d="M93 301H35C34.4477 301 34 301.448 34 302V305C34 305.552 34.4477 306 35 306H93C93.5523 306 94 305.552 94 305V302C94 301.448 93.5523 301 93 301Z" fill="#397D4F"/>
<path opacity="0.28" d="M218 240C229.046 240 238 231.046 238 220C238 208.954 229.046 200 218 200C206.954 200 198 208.954 198 220C198 231.046 206.954 240 218 240Z" fill="#397D4F"/>
<path opacity="0.48" d="M218 232C224.627 232 230 226.627 230 220C230 213.373 224.627 208 218 208C211.373 208 206 213.373 206 220C206 226.627 211.373 232 218 232Z" fill="#397D4F"/>
<path opacity="0.78" d="M218 226C221.314 226 224 223.314 224 220C224 216.686 221.314 214 218 214C214.686 214 212 216.686 212 220C212 223.314 214.686 226 218 226Z" fill="#397D4F"/>
<path opacity="0.26" d="M351 198H249C246.239 198 244 200.239 244 203V247C244 249.761 246.239 252 249 252H351C353.761 252 356 249.761 356 247V203C356 200.239 353.761 198 351 198Z" fill="#397D4F"/>
<path opacity="0.46" d="M351 198H249C246.239 198 244 200.239 244 203V209C244 211.761 246.239 214 249 214H351C353.761 214 356 211.761 356 209V203C356 200.239 353.761 198 351 198Z" fill="#397D4F"/>
<path opacity="0.15" d="M344 222H254C252.895 222 252 222.895 252 224V226C252 227.105 252.895 228 254 228H344C345.105 228 346 227.105 346 226V224C346 222.895 345.105 222 344 222Z" fill="#397D4F"/>
<path opacity="0.42" d="M328 222H254C252.895 222 252 222.895 252 224V226C252 227.105 252.895 228 254 228H328C329.105 228 330 227.105 330 226V224C330 222.895 329.105 222 328 222Z" fill="#397D4F"/>
<path opacity="0.13" d="M344 234H254C252.895 234 252 234.895 252 236V238C252 239.105 252.895 240 254 240H344C345.105 240 346 239.105 346 238V236C346 234.895 345.105 234 344 234Z" fill="#397D4F"/>
<path opacity="0.35" d="M305 234H254C252.895 234 252 234.895 252 236V238C252 239.105 252.895 240 254 240H305C306.105 240 307 239.105 307 238V236C307 234.895 306.105 234 305 234Z" fill="#397D4F"/>
<path opacity="0.11" d="M344 246H254C252.895 246 252 246.895 252 248V250C252 251.105 252.895 252 254 252H344C345.105 252 346 251.105 346 250V248C346 246.895 345.105 246 344 246Z" fill="#397D4F"/>
<path opacity="0.5" d="M340 246H254C252.895 246 252 246.895 252 248V250C252 251.105 252.895 252 254 252H340C341.105 252 342 251.105 342 250V248C342 246.895 341.105 246 340 246Z" fill="#397D4F"/>
<path opacity="0.38" d="M238 214C240 210 244 208 244 208" stroke="#397D4F" stroke-width="1.5"/>
<path opacity="0.26" d="M332 148C343.046 148 352 139.046 352 128C352 116.954 343.046 108 332 108C320.954 108 312 116.954 312 128C312 139.046 320.954 148 332 148Z" fill="#397D4F"/>
<path opacity="0.44" d="M332 140C338.627 140 344 134.627 344 128C344 121.373 338.627 116 332 116C325.373 116 320 121.373 320 128C320 134.627 325.373 140 332 140Z" fill="#397D4F"/>
<path opacity="0.85" d="M332 134C335.314 134 338 131.314 338 128C338 124.686 335.314 122 332 122C328.686 122 326 124.686 326 128C326 131.314 328.686 134 332 134Z" fill="#95DE64"/>
<path opacity="0.26" d="M385 68H285C282.239 68 280 70.2386 280 73V113C280 115.761 282.239 118 285 118H385C387.761 118 390 115.761 390 113V73C390 70.2386 387.761 68 385 68Z" fill="#397D4F"/>
<path opacity="0.46" d="M385 68H285C282.239 68 280 70.2386 280 73V79C280 81.7614 282.239 84 285 84H385C387.761 84 390 81.7614 390 79V73C390 70.2386 387.761 68 385 68Z" fill="#397D4F"/>
<path opacity="0.72" d="M295 82C298.314 82 301 79.3137 301 76C301 72.6863 298.314 70 295 70C291.686 70 289 72.6863 289 76C289 79.3137 291.686 82 295 82Z" fill="#397D4F"/>
<path d="M292 76L294.5 78.5L299 73.5" stroke="white" stroke-width="1.4" stroke-linecap="round" stroke-linejoin="round"/>
<path opacity="0.32" d="M377 72H307C306.448 72 306 72.4477 306 73V76C306 76.5523 306.448 77 307 77H377C377.552 77 378 76.5523 378 76V73C378 72.4477 377.552 72 377 72Z" fill="#397D4F"/>
<path opacity="0.26" d="M377 92H289C288.448 92 288 92.4477 288 93V96C288 96.5523 288.448 97 289 97H377C377.552 97 378 96.5523 378 96V93C378 92.4477 377.552 92 377 92Z" fill="#397D4F"/>
<path opacity="0.18" d="M355 103H289C288.448 103 288 103.448 288 104V107C288 107.552 288.448 108 289 108H355C355.552 108 356 107.552 356 107V104C356 103.448 355.552 103 355 103Z" fill="#397D4F"/>
<path opacity="0.22" d="M150 88H32C28.6863 88 26 90.6863 26 94V172C26 175.314 28.6863 178 32 178H150C153.314 178 156 175.314 156 172V94C156 90.6863 153.314 88 150 88Z" fill="#397D4F"/>
<path opacity="0.4" d="M150 88H32C28.6863 88 26 90.6863 26 94V100C26 103.314 28.6863 106 32 106H150C153.314 106 156 103.314 156 100V94C156 90.6863 153.314 88 150 88Z" fill="#397D4F"/>
<path opacity="0.55" d="M40 158C60 155 80 148 100 135C120 120 135 100 150 92" stroke="#397D4F" stroke-width="2" stroke-linecap="round"/>
<path opacity="0.1" d="M40 158C60 155 80 148 100 135C120 120 135 100 150 92V165H40V158Z" fill="#397D4F"/>
<path opacity="0.82" d="M150 97C152.761 97 155 94.7614 155 92C155 89.2386 152.761 87 150 87C147.239 87 145 89.2386 145 92C145 94.7614 147.239 97 150 97Z" fill="#95DE64"/>
<path opacity="0.45" d="M40 162C42.2091 162 44 160.209 44 158C44 155.791 42.2091 154 40 154C37.7909 154 36 155.791 36 158C36 160.209 37.7909 162 40 162Z" fill="#397D4F"/>
<path opacity="0.48" d="M92 334C94.2091 334 96 332.209 96 330C96 327.791 94.2091 326 92 326C89.7909 326 88 327.791 88 330C88 332.209 89.7909 334 92 334Z" fill="#397D4F"/>
<path opacity="0.4" d="M170 257.5C171.933 257.5 173.5 255.933 173.5 254C173.5 252.067 171.933 250.5 170 250.5C168.067 250.5 166.5 252.067 166.5 254C166.5 255.933 168.067 257.5 170 257.5Z" fill="#397D4F"/>
<path opacity="0.42" d="M280 174C282.209 174 284 172.209 284 170C284 167.791 282.209 166 280 166C277.791 166 276 167.791 276 170C276 172.209 277.791 174 280 174Z" fill="#397D4F"/>
<path opacity="0.16" d="M388 408H32C30.8954 408 30 408.895 30 410C30 411.105 30.8954 412 32 412H388C389.105 412 390 411.105 390 410C390 408.895 389.105 408 388 408Z" fill="#397D4F"/>
<path opacity="0.26" d="M258 408H32C30.8954 408 30 408.895 30 410C30 411.105 30.8954 412 32 412H258C259.105 412 260 411.105 260 410C260 408.895 259.105 408 258 408Z" fill="#397D4F"/>
<path opacity="0.3" d="M378 163C380.761 163 383 160.761 383 158C383 155.239 380.761 153 378 153C375.239 153 373 155.239 373 158C373 160.761 375.239 163 378 163Z" fill="#397D4F"/>
<path opacity="0.18" d="M390 173C391.657 173 393 171.657 393 170C393 168.343 391.657 167 390 167C388.343 167 387 168.343 387 170C387 171.657 388.343 173 390 173Z" fill="#397D4F"/>
<path opacity="0.44" d="M386 54C388.209 54 390 52.2091 390 50C390 47.7909 388.209 46 386 46C383.791 46 382 47.7909 382 50C382 52.2091 383.791 54 386 54Z" fill="#95DE64"/>
<path opacity="0.22" d="M374 60.5C375.381 60.5 376.5 59.3807 376.5 58C376.5 56.6193 375.381 55.5 374 55.5C372.619 55.5 371.5 56.6193 371.5 58C371.5 59.3807 372.619 60.5 374 60.5Z" fill="#397D4F"/>
<path opacity="0.26" d="M22 204C24.2091 204 26 202.209 26 200C26 197.791 24.2091 196 22 196C19.7909 196 18 197.791 18 200C18 202.209 19.7909 204 22 204Z" fill="#397D4F"/>
<path opacity="0.16" d="M10 214.5C11.3807 214.5 12.5 213.381 12.5 212C12.5 210.619 11.3807 209.5 10 209.5C8.61929 209.5 7.5 210.619 7.5 212C7.5 213.381 8.61929 214.5 10 214.5Z" fill="#397D4F"/>
</svg>
