<svg width="420" height="446" viewBox="0 0 420 446" fill="none" xmlns="http://www.w3.org/2000/svg">
<path opacity="0.08" d="M250 350C338.366 350 410 282.843 410 200C410 117.157 338.366 50 250 50C161.634 50 90 117.157 90 200C90 282.843 161.634 350 250 350Z" fill="#397D4F"/>
<path opacity="0.06" d="M130 400C190.751 400 240 355.228 240 300C240 244.772 190.751 200 130 200C69.2487 200 20 244.772 20 300C20 355.228 69.2487 400 130 400Z" fill="#397D4F"/>
<path opacity="0.14" d="M210 310C265.228 310 310 265.228 310 210C310 154.772 265.228 110 210 110C154.772 110 110 154.772 110 210C110 265.228 154.772 310 210 310Z" stroke="#397D4F" stroke-width="1.2"/>
<path opacity="0.2" d="M210 284C250.869 284 284 250.869 284 210C284 169.131 250.869 136 210 136C169.131 136 136 169.131 136 210C136 250.869 169.131 284 210 284Z" stroke="#397D4F" stroke-width="1.5"/>
<path opacity="0.18" d="M210 258C236.51 258 258 236.51 258 210C258 183.49 236.51 162 210 162C183.49 162 162 183.49 162 210C162 236.51 183.49 258 210 258Z" fill="#397D4F"/>
<path opacity="0.28" d="M210 240C226.569 240 240 226.569 240 210C240 193.431 226.569 180 210 180C193.431 180 180 193.431 180 210C180 226.569 193.431 240 210 240Z" fill="#397D4F"/>
<path opacity="0.62" d="M210 224C217.732 224 224 217.732 224 210C224 202.268 217.732 196 210 196C202.268 196 196 202.268 196 210C196 217.732 202.268 224 210 224Z" fill="#397D4F"/>
<path opacity="0.18" d="M210 110V310" stroke="#397D4F"/>
<path opacity="0.18" d="M110 210H310" stroke="#397D4F"/>
<path opacity="0.12" d="M139 139L281 281" stroke="#397D4F"/>
<path opacity="0.12" d="M281 139L139 281" stroke="#397D4F"/>
<path opacity="0.26" d="M169 98H91C88.2386 98 86 100.239 86 103V145C86 147.761 88.2386 150 91 150H169C171.761 150 174 147.761 174 145V103C174 100.239 171.761 98 169 98Z" fill="#397D4F"/>
<path opacity="0.46" d="M169 98H91C88.2386 98 86 100.239 86 103V109C86 111.761 88.2386 114 91 114H169C171.761 114 174 111.761 174 109V103C174 100.239 171.761 98 169 98Z" fill="#397D4F"/>
<path opacity="0.36" d="M147 122H97C96.4477 122 96 122.448 96 123V126C96 126.552 96.4477 127 97 127H147C147.552 127 148 126.552 148 126V123C148 122.448 147.552 122 147 122Z" fill="#397D4F"/>
<path opacity="0.24" d="M133 133H97C96.4477 133 96 133.448 96 134V137C96 137.552 96.4477 138 97 138H133C133.552 138 134 137.552 134 137V134C134 133.448 133.552 133 133 133Z" fill="#397D4F"/>
<path opacity="0.72" d="M165 112C168.314 112 171 109.314 171 106C171 102.686 168.314 100 165 100C161.686 100 159 102.686 159 106C159 109.314 161.686 112 165 112Z" fill="#397D4F"/>
<path d="M162 106L164.5 108.5L169 103.5" stroke="white" stroke-width="1.4" stroke-linecap="round" stroke-linejoin="round"/>
<path opacity="0.38" d="M174 150C190 168 198 180 196 182" stroke="#397D4F" stroke-width="1.6"/>
<path opacity="0.26" d="M327 98H249C246.239 98 244 100.239 244 103V145C244 147.761 246.239 150 249 150H327C329.761 150 332 147.761 332 145V103C332 100.239 329.761 98 327 98Z" fill="#397D4F"/>
<path opacity="0.44" d="M327 98H249C246.239 98 244 100.239 244 103V109C244 111.761 246.239 114 249 114H327C329.761 114 332 111.761 332 109V103C332 100.239 329.761 98 327 98Z" fill="#397D4F"/>
<path opacity="0.34" d="M311 122H255C254.448 122 254 122.448 254 123V126C254 126.552 254.448 127 255 127H311C311.552 127 312 126.552 312 126V123C312 122.448 311.552 122 311 122Z" fill="#397D4F"/>
<path opacity="0.22" d="M297 133H255C254.448 133 254 133.448 254 134V137C254 137.552 254.448 138 255 138H297C297.552 138 298 137.552 298 137V134C298 133.448 297.552 133 297 133Z" fill="#397D4F"/>
<path opacity="0.68" d="M253 112C256.314 112 259 109.314 259 106C259 102.686 256.314 100 253 100C249.686 100 247 102.686 247 106C247 109.314 249.686 112 253 112Z" fill="#397D4F"/>
<path d="M250 106L252.5 108.5L257 103.5" stroke="white" stroke-width="1.4" stroke-linecap="round" stroke-linejoin="round"/>
<path opacity="0.36" d="M244 150C230 168 222 180 224 182" stroke="#397D4F" stroke-width="1.6"/>
<path opacity="0.26" d="M169 298H91C88.2386 298 86 300.239 86 303V345C86 347.761 88.2386 350 91 350H169C171.761 350 174 347.761 174 345V303C174 300.239 171.761 298 169 298Z" fill="#397D4F"/>
<path opacity="0.42" d="M169 298H91C88.2386 298 86 300.239 86 303V309C86 311.761 88.2386 314 91 314H169C171.761 314 174 311.761 174 309V303C174 300.239 171.761 298 169 298Z" fill="#397D4F"/>
<path opacity="0.34" d="M143 322H97C96.4477 322 96 322.448 96 323V326C96 326.552 96.4477 327 97 327H143C143.552 327 144 326.552 144 326V323C144 322.448 143.552 322 143 322Z" fill="#397D4F"/>
<path opacity="0.22" d="M157 333H97C96.4477 333 96 333.448 96 334V337C96 337.552 96.4477 338 97 338H157C157.552 338 158 337.552 158 337V334C158 333.448 157.552 333 157 333Z" fill="#397D4F"/>
<path opacity="0.34" d="M174 298C190 282 198 260 196 240" stroke="#397D4F" stroke-width="1.6"/>
<path opacity="0.26" d="M327 298H249C246.239 298 244 300.239 244 303V345C244 347.761 246.239 350 249 350H327C329.761 350 332 347.761 332 345V303C332 300.239 329.761 298 327 298Z" fill="#397D4F"/>
<path opacity="0.4" d="M327 298H249C246.239 298 244 300.239 244 303V309C244 311.761 246.239 314 249 314H327C329.761 314 332 311.761 332 309V303C332 300.239 329.761 298 327 298Z" fill="#397D4F"/>
<path opacity="0.3" d="M307 322H255C254.448 322 254 322.448 254 323V326C254 326.552 254.448 327 255 327H307C307.552 327 308 326.552 308 326V323C308 322.448 307.552 322 307 322Z" fill="#397D4F"/>
<path opacity="0.2" d="M293 333H255C254.448 333 254 333.448 254 334V337C254 337.552 254.448 338 255 338H293C293.552 338 294 337.552 294 337V334C294 333.448 293.552 333 293 333Z" fill="#397D4F"/>
<path opacity="0.78" d="M322 311C324.761 311 327 308.761 327 306C327 303.239 324.761 301 322 301C319.239 301 317 303.239 317 306C317 308.761 319.239 311 322 311Z" fill="#95DE64"/>
<path opacity="0.32" d="M244 298C230 282 222 260 224 240" stroke="#397D4F" stroke-width="1.6"/>
<path opacity="0.38" d="M44 199C51.732 199 58 192.732 58 185C58 177.268 51.732 171 44 171C36.268 171 30 177.268 30 185C30 192.732 36.268 199 44 199Z" fill="#397D4F"/>
<path opacity="0.28" d="M28 230C28 210 60 210 60 230H28Z" fill="#397D4F"/>
<path opacity="0.36" d="M53 240H35C33.3431 240 32 241.343 32 243V255C32 256.657 33.3431 258 35 258H53C54.6569 258 56 256.657 56 255V243C56 241.343 54.6569 240 53 240Z" fill="#397D4F"/>
<path opacity="0.45" d="M38 240V236H50V240" stroke="#397D4F" stroke-width="1.5"/>
<path opacity="0.36" d="M62 195C90 195 115 200 136 200" stroke="#397D4F" stroke-width="1.8" stroke-dasharray="4 3"/>
<path opacity="0.42" d="M80 198C81.6569 198 83 196.657 83 195C83 193.343 81.6569 192 80 192C78.3431 192 77 193.343 77 195C77 196.657 78.3431 198 80 198Z" fill="#397D4F"/>
<path opacity="0.32" d="M376 199C383.732 199 390 192.732 390 185C390 177.268 383.732 171 376 171C368.268 171 362 177.268 362 185C362 192.732 368.268 199 376 199Z" fill="#397D4F"/>
<path opacity="0.22" d="M362 230C362 210 390 210 390 230H362Z" fill="#397D4F"/>
<path opacity="0.6" d="M372 215L376 200L380 215" fill="#397D4F"/>
<path opacity="0.4" d="M376 202V232" stroke="#397D4F" stroke-width="2"/>
<path opacity="0.3" d="M358 195C330 195 305 200 284 200" stroke="#397D4F" stroke-width="1.8" stroke-dasharray="4 3"/>
<path opacity="0.38" d="M340 198C341.657 198 343 196.657 343 195C343 193.343 341.657 192 340 192C338.343 192 337 193.343 337 195C337 196.657 338.343 198 340 198Z" fill="#397D4F"/>
<path opacity="0.24" d="M296 380H124C120.686 380 118 382.686 118 386V426C118 429.314 120.686 432 124 432H296C299.314 432 302 429.314 302 426V386C302 382.686 299.314 380 296 380Z" fill="#397D4F"/>
<path opacity="0.42" d="M296 380H124C120.686 380 118 382.686 118 386V392C118 395.314 120.686 398 124 398H296C299.314 398 302 395.314 302 392V386C302 382.686 299.314 380 296 380Z" fill="#397D4F"/>
<path opacity="0.68" d="M134 394C136.761 394 139 391.761 139 389C139 386.239 136.761 384 134 384C131.239 384 129 386.239 129 389C129 391.761 131.239 394 134 394Z" fill="#397D4F"/>
<path d="M131 389L133.5 391.5L138 386.5" stroke="white" stroke-width="1.4" stroke-linecap="round" stroke-linejoin="round"/>
<path opacity="0.3" d="M235 385H147C146.448 385 146 385.448 146 386V389C146 389.552 146.448 390 147 390H235C235.552 390 236 389.552 236 389V386C236 385.448 235.552 385 235 385Z" fill="#397D4F"/>
<path opacity="0.22" d="M285 408H131C130.448 408 130 408.448 130 409V412C130 412.552 130.448 413 131 413H285C285.552 413 286 412.552 286 412V409C286 408.448 285.552 408 285 408Z" fill="#397D4F"/>
<path opacity="0.16" d="M239 420H131C130.448 420 130 420.448 130 421V424C130 424.552 130.448 425 131 425H239C239.552 425 240 424.552 240 424V421C240 420.448 239.552 420 239 420Z" fill="#397D4F"/>
<path opacity="0.52" d="M60 365C62.7614 365 65 362.761 65 360C65 357.239 62.7614 355 60 355C57.2386 355 55 357.239 55 360C55 362.761 57.2386 365 60 365Z" fill="#95DE64"/>
<path opacity="0.28" d="M50 375C51.6569 375 53 373.657 53 372C53 370.343 51.6569 369 50 369C48.3431 369 47 370.343 47 372C47 373.657 48.3431 375 50 375Z" fill="#397D4F"/>
<path opacity="0.3" d="M360 84C362.209 84 364 82.2091 364 80C364 77.7909 362.209 76 360 76C357.791 76 356 77.7909 356 80C356 82.2091 357.791 84 360 84Z" fill="#397D4F"/>
<path opacity="0.2" d="M372 72.5C373.381 72.5 374.5 71.3807 374.5 70C374.5 68.6193 373.381 67.5 372 67.5C370.619 67.5 369.5 68.6193 369.5 70C369.5 71.3807 370.619 72.5 372 72.5Z" fill="#397D4F"/>
<path opacity="0.24" d="M50 83.5C51.933 83.5 53.5 81.933 53.5 80C53.5 78.067 51.933 76.5 50 76.5C48.067 76.5 46.5 78.067 46.5 80C46.5 81.933 48.067 83.5 50 83.5Z" fill="#397D4F"/>
<path opacity="0.44" d="M370 364.5C372.485 364.5 374.5 362.485 374.5 360C374.5 357.515 372.485 355.5 370 355.5C367.515 355.5 365.5 357.515 365.5 360C365.5 362.485 367.515 364.5 370 364.5Z" fill="#95DE64"/>
</svg>
