<svg width="420" height="400" viewBox="0 0 420 400" fill="none" xmlns="http://www.w3.org/2000/svg">
<path opacity="0.07" d="M210 353C301.127 353 375 279.127 375 188C375 96.873 301.127 23 210 23C118.873 23 45 96.873 45 188C45 279.127 118.873 353 210 353Z" stroke="#397D4F" stroke-width="1.5"/>
<path opacity="0.1" d="M210 318C281.797 318 340 259.797 340 188C340 116.203 281.797 58 210 58C138.203 58 80 116.203 80 188C80 259.797 138.203 318 210 318Z" stroke="#397D4F" stroke-width="1.5"/>
<path opacity="0.13" d="M210 283C262.467 283 305 240.467 305 188C305 135.533 262.467 93 210 93C157.533 93 115 135.533 115 188C115 240.467 157.533 283 210 283Z" stroke="#397D4F" stroke-width="1.5"/>
<path opacity="0.08" d="M210 338C298.366 338 370 270.843 370 188C370 105.157 298.366 38 210 38C121.634 38 50 105.157 50 188C50 270.843 121.634 338 210 338Z" fill="#397D4F"/>
<path opacity="0.65" d="M234 168H186C181.582 168 178 171.582 178 176V212C178 216.418 181.582 220 186 220H234C238.418 220 242 216.418 242 212V176C242 171.582 238.418 168 234 168Z" fill="#397D4F"/>
<path opacity="0.75" d="M193 168V150C193 134 227 134 227 150V168" stroke="#397D4F" stroke-width="7" stroke-linecap="round"/>
<path opacity="0.35" d="M210 199C214.971 199 219 194.971 219 190C219 185.029 214.971 181 210 181C205.029 181 201 185.029 201 190C201 194.971 205.029 199 210 199Z" fill="white"/>
<path opacity="0.35" d="M212 190H208C206.895 190 206 190.895 206 192V204C206 205.105 206.895 206 208 206H212C213.105 206 214 205.105 214 204V192C214 190.895 213.105 190 212 190Z" fill="white"/>
<path opacity="0.3" d="M210 168V100" stroke="#397D4F" stroke-width="1.5" stroke-dasharray="4 3"/>
<path opacity="0.28" d="M238 175C265 150 290 130 320 115" stroke="#397D4F" stroke-width="1.5" stroke-dasharray="4 3"/>
<path opacity="0.28" d="M242 192H320" stroke="#397D4F" stroke-width="1.5" stroke-dasharray="4 3"/>
<path opacity="0.28" d="M234 216C258 238 285 255 315 268" stroke="#397D4F" stroke-width="1.5" stroke-dasharray="4 3"/>
<path opacity="0.3" d="M210 220V290" stroke="#397D4F" stroke-width="1.5" stroke-dasharray="4 3"/>
<path opacity="0.28" d="M186 216C162 238 135 255 105 268" stroke="#397D4F" stroke-width="1.5" stroke-dasharray="4 3"/>
<path opacity="0.28" d="M178 192H100" stroke="#397D4F" stroke-width="1.5" stroke-dasharray="4 3"/>
<path opacity="0.28" d="M183 175C155 150 130 130 100 115" stroke="#397D4F" stroke-width="1.5" stroke-dasharray="4 3"/>
<path opacity="0.32" d="M246 52H174C170.686 52 168 54.6863 168 58V88C168 91.3137 170.686 94 174 94H246C249.314 94 252 91.3137 252 88V58C252 54.6863 249.314 52 246 52Z" fill="#397D4F"/>
<path opacity="0.5" d="M246 52H174C170.686 52 168 54.6863 168 58C168 61.3137 170.686 64 174 64H246C249.314 64 252 61.3137 252 58C252 54.6863 249.314 52 246 52Z" fill="#397D4F"/>
<path opacity="0.55" d="M191 71H181C179.895 71 179 71.8954 179 73V80C179 81.1046 179.895 82 181 82H191C192.105 82 193 81.1046 193 80V73C193 71.8954 192.105 71 191 71Z" fill="#397D4F"/>
<path opacity="0.65" d="M182 71V67C182 63 193 63 193 67V71" stroke="#397D4F" stroke-width="2" stroke-linecap="round"/>
<path opacity="0.3" d="M239 69H199C198.448 69 198 69.4477 198 70V73C198 73.5523 198.448 74 199 74H239C239.552 74 240 73.5523 240 73V70C240 69.4477 239.552 69 239 69Z" fill="#397D4F"/>
<path opacity="0.2" d="M227 78H199C198.448 78 198 78.4477 198 79V82C198 82.5523 198.448 83 199 83H227C227.552 83 228 82.5523 228 82V79C228 78.4477 227.552 78 227 78Z" fill="#397D4F"/>
<path opacity="0.28" d="M398 90H314C310.686 90 308 92.6863 308 96V126C308 129.314 310.686 132 314 132H398C401.314 132 404 129.314 404 126V96C404 92.6863 401.314 90 398 90Z" fill="#397D4F"/>
<path opacity="0.45" d="M398 90H314C310.686 90 308 92.6863 308 96C308 99.3137 310.686 102 314 102H398C401.314 102 404 99.3137 404 96C404 92.6863 401.314 90 398 90Z" fill="#397D4F"/>
<path opacity="0.55" d="M334 108H320C318.895 108 318 108.895 318 110V116C318 117.105 318.895 118 320 118H334C335.105 118 336 117.105 336 116V110C336 108.895 335.105 108 334 108Z" fill="#397D4F"/>
<path opacity="0.45" d="M345 110H337C336.448 110 336 110.448 336 111V115C336 115.552 336.448 116 337 116H345C345.552 116 346 115.552 346 115V111C346 110.448 345.552 110 345 110Z" fill="#397D4F"/>
<path opacity="0.4" d="M321 115C322.105 115 323 114.105 323 113C323 111.895 322.105 111 321 111C319.895 111 319 111.895 319 113C319 114.105 319.895 115 321 115Z" fill="white"/>
<path opacity="0.3" d="M395 107H351C350.448 107 350 107.448 350 108V111C350 111.552 350.448 112 351 112H395C395.552 112 396 111.552 396 111V108C396 107.448 395.552 107 395 107Z" fill="#397D4F"/>
<path opacity="0.2" d="M385 116H351C350.448 116 350 116.448 350 117V120C350 120.552 350.448 121 351 121H385C385.552 121 386 120.552 386 120V117C386 116.448 385.552 116 385 116Z" fill="#397D4F"/>
<path opacity="0.28" d="M408 168H338C334.686 168 332 170.686 332 174V210C332 213.314 334.686 216 338 216H408C411.314 216 414 213.314 414 210V174C414 170.686 411.314 168 408 168Z" fill="#397D4F"/>
<path opacity="0.45" d="M408 168H338C334.686 168 332 170.686 332 174C332 177.314 334.686 180 338 180H408C411.314 180 414 177.314 414 174C414 170.686 411.314 168 408 168Z" fill="#397D4F"/>
<path opacity="0.4" d="M346 190H343C342.448 190 342 190.448 342 191V205C342 205.552 342.448 206 343 206H346C346.552 206 347 205.552 347 205V191C347 190.448 346.552 190 346 190Z" fill="#397D4F"/>
<path opacity="0.55" d="M355 184H352C351.448 184 351 184.448 351 185V205C351 205.552 351.448 206 352 206H355C355.552 206 356 205.552 356 205V185C356 184.448 355.552 184 355 184Z" fill="#397D4F"/>
<path opacity="0.45" d="M364 188H361C360.448 188 360 188.448 360 189V205C360 205.552 360.448 206 361 206H364C364.552 206 365 205.552 365 205V189C365 188.448 364.552 188 364 188Z" fill="#397D4F"/>
<path opacity="0.65" d="M373 180H370C369.448 180 369 180.448 369 181V205C369 205.552 369.448 206 370 206H373C373.552 206 374 205.552 374 205V181C374 180.448 373.552 180 373 180Z" fill="#397D4F"/>
<path opacity="0.5" d="M382 186H379C378.448 186 378 186.448 378 187V205C378 205.552 378.448 206 379 206H382C382.552 206 383 205.552 383 205V187C383 186.448 382.552 186 382 186Z" fill="#397D4F"/>
<path opacity="0.35" d="M391 192H388C387.448 192 387 192.448 387 193V205C387 205.552 387.448 206 388 206H391C391.552 206 392 205.552 392 205V193C392 192.448 391.552 192 391 192Z" fill="#397D4F"/>
<path opacity="0.4" d="M407 185C409.761 185 412 182.761 412 180C412 177.239 409.761 175 407 175C404.239 175 402 177.239 402 180C402 182.761 404.239 185 407 185Z" fill="#397D4F"/>
<path opacity="0.28" d="M399 252H311C307.686 252 305 254.686 305 258V294C305 297.314 307.686 300 311 300H399C402.314 300 405 297.314 405 294V258C405 254.686 402.314 252 399 252Z" fill="#397D4F"/>
<path opacity="0.45" d="M399 252H311C307.686 252 305 254.686 305 258C305 261.314 307.686 264 311 264H399C402.314 264 405 261.314 405 258C405 254.686 402.314 252 399 252Z" fill="#397D4F"/>
<path opacity="0.65" d="M318 278C320.761 278 323 275.761 323 273C323 270.239 320.761 268 318 268C315.239 268 313 270.239 313 273C313 275.761 315.239 278 318 278Z" fill="#397D4F"/>
<path d="M315.5 273L317.5 275L321 271" stroke="white" stroke-width="1.2" stroke-linecap="round" stroke-linejoin="round"/>
<path opacity="0.28" d="M395 270H329C328.448 270 328 270.448 328 271V274C328 274.552 328.448 275 329 275H395C395.552 275 396 274.552 396 274V271C396 270.448 395.552 270 395 270Z" fill="#397D4F"/>
<path opacity="0.65" d="M318 291C320.761 291 323 288.761 323 286C323 283.239 320.761 281 318 281C315.239 281 313 283.239 313 286C313 288.761 315.239 291 318 291Z" fill="#397D4F"/>
<path d="M315.5 286L317.5 288L321 284" stroke="white" stroke-width="1.2" stroke-linecap="round" stroke-linejoin="round"/>
<path opacity="0.22" d="M382 283H329C328.448 283 328 283.448 328 284V287C328 287.552 328.448 288 329 288H382C382.552 288 383 287.552 383 287V284C383 283.448 382.552 283 382 283Z" fill="#397D4F"/>
<path opacity="0.4" d="M318 304C320.761 304 323 301.761 323 299C323 296.239 320.761 294 318 294C315.239 294 313 296.239 313 299C313 301.761 315.239 304 318 304Z" fill="#397D4F"/>
<path opacity="0.2" d="M389 296H329C328.448 296 328 296.448 328 297V300C328 300.552 328.448 301 329 301H389C389.552 301 390 300.552 390 300V297C390 296.448 389.552 296 389 296Z" fill="#397D4F"/>
<path opacity="0.32" d="M262 302H158C154.686 302 152 304.686 152 308V338C152 341.314 154.686 344 158 344H262C265.314 344 268 341.314 268 338V308C268 304.686 265.314 302 262 302Z" fill="#397D4F"/>
<path opacity="0.5" d="M262 302H158C154.686 302 152 304.686 152 308C152 311.314 154.686 314 158 314H262C265.314 314 268 311.314 268 308C268 304.686 265.314 302 262 302Z" fill="#397D4F"/>
<path opacity="0.3" d="M254 322H164C162.895 322 162 322.895 162 324V326C162 327.105 162.895 328 164 328H254C255.105 328 256 327.105 256 326V324C256 322.895 255.105 322 254 322Z" fill="#397D4F"/>
<path opacity="0.2" d="M232 332H164C162.895 332 162 332.895 162 334V336C162 337.105 162.895 338 164 338H232C233.105 338 234 337.105 234 336V334C234 332.895 233.105 332 232 332Z" fill="#397D4F"/>
<path opacity="0.28" d="M100 252H22C18.6863 252 16 254.686 16 258V294C16 297.314 18.6863 300 22 300H100C103.314 300 106 297.314 106 294V258C106 254.686 103.314 252 100 252Z" fill="#397D4F"/>
<path opacity="0.45" d="M100 252H22C18.6863 252 16 254.686 16 258C16 261.314 18.6863 264 22 264H100C103.314 264 106 261.314 106 258C106 254.686 103.314 252 100 252Z" fill="#397D4F"/>
<path opacity="0.4" d="M54 270H28C26.8954 270 26 270.895 26 272V288C26 289.105 26.8954 290 28 290H54C55.1046 290 56 289.105 56 288V272C56 270.895 55.1046 270 54 270Z" fill="#397D4F"/>
<path opacity="0.3" d="M52 274H30C29.4477 274 29 274.448 29 275V277C29 277.552 29.4477 278 30 278H52C52.5523 278 53 277.552 53 277V275C53 274.448 52.5523 274 52 274Z" fill="#397D4F"/>
<path opacity="0.25" d="M46 281H30C29.4477 281 29 281.448 29 282V284C29 284.552 29.4477 285 30 285H46C46.5523 285 47 284.552 47 284V282C47 281.448 46.5523 281 46 281Z" fill="#397D4F"/>
<path opacity="0.3" d="M90 270H64C62.8954 270 62 270.895 62 272V288C62 289.105 62.8954 290 64 290H90C91.1046 290 92 289.105 92 288V272C92 270.895 91.1046 270 90 270Z" fill="#397D4F"/>
<path opacity="0.3" d="M86 274H66C65.4477 274 65 274.448 65 275V277C65 277.552 65.4477 278 66 278H86C86.5523 278 87 277.552 87 277V275C87 274.448 86.5523 274 86 274Z" fill="#397D4F"/>
<path opacity="0.2" d="M80 281H66C65.4477 281 65 281.448 65 282V284C65 284.552 65.4477 285 66 285H80C80.5523 285 81 284.552 81 284V282C81 281.448 80.5523 281 80 281Z" fill="#397D4F"/>
<path opacity="0.55" d="M55 276H49C47.8954 276 47 276.895 47 278V282C47 283.105 47.8954 284 49 284H55C56.1046 284 57 283.105 57 282V278C57 276.895 56.1046 276 55 276Z" fill="#397D4F"/>
<path opacity="0.6" d="M49 276V273C49 271 57 271 57 273V276" stroke="#397D4F" stroke-width="1.5" stroke-linecap="round"/>
<path opacity="0.28" d="M86 168H12C8.68629 168 6 170.686 6 174V210C6 213.314 8.68629 216 12 216H86C89.3137 216 92 213.314 92 210V174C92 170.686 89.3137 168 86 168Z" fill="#397D4F"/>
<path opacity="0.45" d="M86 168H12C8.68629 168 6 170.686 6 174C6 177.314 8.68629 180 12 180H86C89.3137 180 92 177.314 92 174C92 170.686 89.3137 168 86 168Z" fill="#397D4F"/>
<path opacity="0.35" d="M65 188H17C16.4477 188 16 188.448 16 189V192C16 192.552 16.4477 193 17 193H65C65.5523 193 66 192.552 66 192V189C66 188.448 65.5523 188 65 188Z" fill="#397D4F"/>
<path opacity="0.22" d="M81 198H17C16.4477 198 16 198.448 16 199V202C16 202.552 16.4477 203 17 203H81C81.5523 203 82 202.552 82 202V199C82 198.448 81.5523 198 81 198Z" fill="#397D4F"/>
<path opacity="0.35" d="M55 208H17C16.4477 208 16 208.448 16 209V212C16 212.552 16.4477 213 17 213H55C55.5523 213 56 212.552 56 212V209C56 208.448 55.5523 208 55 208Z" fill="#397D4F"/>
<path opacity="0.65" d="M80 209C83.3137 209 86 206.314 86 203C86 199.686 83.3137 197 80 197C76.6863 197 74 199.686 74 203C74 206.314 76.6863 209 80 209Z" fill="#397D4F"/>
<path d="M77 203L79.5 205.5L84 200" stroke="white" stroke-width="1.3" stroke-linecap="round" stroke-linejoin="round"/>
<path opacity="0.28" d="M100 90H22C18.6863 90 16 92.6863 16 96V126C16 129.314 18.6863 132 22 132H100C103.314 132 106 129.314 106 126V96C106 92.6863 103.314 90 100 90Z" fill="#397D4F"/>
<path opacity="0.45" d="M100 90H22C18.6863 90 16 92.6863 16 96C16 99.3137 18.6863 102 22 102H100C103.314 102 106 99.3137 106 96C106 92.6863 103.314 90 100 90Z" fill="#397D4F"/>
<path opacity="0.4" d="M38 123C44.6274 123 50 117.627 50 111C50 104.373 44.6274 99 38 99C31.3726 99 26 104.373 26 111C26 117.627 31.3726 123 38 123Z" stroke="#397D4F" stroke-width="1.5"/>
<path opacity="0.35" d="M38 118C41.866 118 45 114.866 45 111C45 107.134 41.866 104 38 104C34.134 104 31 107.134 31 111C31 114.866 34.134 118 38 118Z" stroke="#397D4F" stroke-width="1.5"/>
<path opacity="0.6" d="M38 114C39.6569 114 41 112.657 41 111C41 109.343 39.6569 108 38 108C36.3431 108 35 109.343 35 111C35 112.657 36.3431 114 38 114Z" fill="#397D4F"/>
<path opacity="0.3" d="M95 107H59C58.4477 107 58 107.448 58 108V111C58 111.552 58.4477 112 59 112H95C95.5523 112 96 111.552 96 111V108C96 107.448 95.5523 107 95 107Z" fill="#397D4F"/>
<path opacity="0.2" d="M85 116H59C58.4477 116 58 116.448 58 117V120C58 120.552 58.4477 121 59 121H85C85.5523 121 86 120.552 86 120V117C86 116.448 85.5523 116 85 116Z" fill="#397D4F"/>
<path opacity="0.5" d="M210 104C212.209 104 214 102.209 214 100C214 97.7909 212.209 96 210 96C207.791 96 206 97.7909 206 100C206 102.209 207.791 104 210 104Z" fill="#397D4F"/>
<path opacity="0.5" d="M100 196C102.209 196 104 194.209 104 192C104 189.791 102.209 188 100 188C97.7909 188 96 189.791 96 192C96 194.209 97.7909 196 100 196Z" fill="#397D4F"/>
<path opacity="0.5" d="M320 196C322.209 196 324 194.209 324 192C324 189.791 322.209 188 320 188C317.791 188 316 189.791 316 192C316 194.209 317.791 196 320 196Z" fill="#397D4F"/>
<path opacity="0.5" d="M210 294C212.209 294 214 292.209 214 290C214 287.791 212.209 286 210 286C207.791 286 206 287.791 206 290C206 292.209 207.791 294 210 294Z" fill="#397D4F"/>
</svg>
