<svg width="420" height="420" viewBox="0 0 420 420" fill="none" xmlns="http://www.w3.org/2000/svg">
<path opacity="0.12" d="M210 360C303.888 360 380 288.366 380 200C380 111.634 303.888 40 210 40C116.112 40 40 111.634 40 200C40 288.366 116.112 360 210 360Z" fill="#397D4F"/>
<path opacity="0.07" d="M210 320C281.797 320 340 266.274 340 200C340 133.726 281.797 80 210 80C138.203 80 80 133.726 80 200C80 266.274 138.203 320 210 320Z" fill="#397D4F"/>
<path opacity="0.45" d="M210 55L310 95V210C310 270 260 315 210 335C160 315 110 270 110 210V95L210 55Z" fill="#397D4F"/>
<path opacity="0.35" d="M210 80L288 113V210C288 258 248 296 210 313C172 296 132 258 132 210V113L210 80Z" fill="#397D4F"/>
<path opacity="0.25" d="M210 105L268 130V208C268 246 238 276 210 290C182 276 152 246 152 208V130L210 105Z" fill="#397D4F"/>
<path opacity="0.8" d="M210 156C214.418 156 218 152.418 218 148C218 143.582 214.418 140 210 140C205.582 140 202 143.582 202 148C202 152.418 205.582 156 210 156Z" fill="#397D4F"/>
<path opacity="0.7" d="M178 192C181.866 192 185 188.866 185 185C185 181.134 181.866 178 178 178C174.134 178 171 181.134 171 185C171 188.866 174.134 192 178 192Z" fill="#397D4F"/>
<path opacity="0.7" d="M242 192C245.866 192 249 188.866 249 185C249 181.134 245.866 178 242 178C238.134 178 235 181.134 235 185C235 188.866 238.134 192 242 192Z" fill="#397D4F"/>
<path opacity="0.65" d="M192 229C195.866 229 199 225.866 199 222C199 218.134 195.866 215 192 215C188.134 215 185 218.134 185 222C185 225.866 188.134 229 192 229Z" fill="#397D4F"/>
<path opacity="0.65" d="M228 229C231.866 229 235 225.866 235 222C235 218.134 231.866 215 228 215C224.134 215 221 218.134 221 222C221 225.866 224.134 229 228 229Z" fill="#397D4F"/>
<path opacity="0.8" d="M210 267C214.971 267 219 262.971 219 258C219 253.029 214.971 249 210 249C205.029 249 201 253.029 201 258C201 262.971 205.029 267 210 267Z" fill="#397D4F"/>
<path d="M205 258L209 262L216 253" stroke="white" stroke-width="1.8" stroke-linecap="round" stroke-linejoin="round"/>
<path opacity="0.4" d="M210 156L178 178" stroke="#397D4F" stroke-width="1.2"/>
<path opacity="0.4" d="M210 156L242 178" stroke="#397D4F" stroke-width="1.2"/>
<path opacity="0.35" d="M178 192L192 215" stroke="#397D4F" stroke-width="1.2"/>
<path opacity="0.3" d="M178 192L228 215" stroke="#397D4F" stroke-width="1.2"/>
<path opacity="0.3" d="M242 192L192 215" stroke="#397D4F" stroke-width="1.2"/>
<path opacity="0.35" d="M242 192L228 215" stroke="#397D4F" stroke-width="1.2"/>
<path opacity="0.4" d="M192 229L210 249" stroke="#397D4F" stroke-width="1.2"/>
<path opacity="0.4" d="M228 229L210 249" stroke="#397D4F" stroke-width="1.2"/>
<path opacity="0.2" d="M226.905 231.252C284.467 204.411 323.562 166.42 314.226 146.399C304.889 126.377 250.658 131.906 193.096 158.748C135.533 185.589 96.4386 223.579 105.775 243.601C115.111 263.623 169.343 258.094 226.905 231.252Z" stroke="#397D4F"/>
<path opacity="0.15" d="M193.096 231.252C250.658 258.094 304.89 263.623 314.226 243.601C323.562 223.579 284.467 185.589 226.905 158.748C169.343 131.906 115.111 126.377 105.775 146.399C96.4387 166.42 135.534 204.411 193.096 231.252Z" stroke="#397D4F"/>
<path opacity="0.28" d="M94 90H24C20.6863 90 18 92.6863 18 96V128C18 131.314 20.6863 134 24 134H94C97.3137 134 100 131.314 100 128V96C100 92.6863 97.3137 90 94 90Z" fill="#397D4F"/>
<path opacity="0.65" d="M34 120C38.4183 120 42 116.418 42 112C42 107.582 38.4183 104 34 104C29.5817 104 26 107.582 26 112C26 116.418 29.5817 120 34 120Z" fill="#397D4F"/>
<path d="M29.5 112L33 115.5L39 109" stroke="white" stroke-width="1.5" stroke-linecap="round" stroke-linejoin="round"/>
<path opacity="0.35" d="M90 106H49C47.8954 106 47 106.895 47 108V110C47 111.105 47.8954 112 49 112H90C91.1046 112 92 111.105 92 110V108C92 106.895 91.1046 106 90 106Z" fill="#397D4F"/>
<path opacity="0.22" d="M80 116H49C47.8954 116 47 116.895 47 118V119C47 120.105 47.8954 121 49 121H80C81.1046 121 82 120.105 82 119V118C82 116.895 81.1046 116 80 116Z" fill="#397D4F"/>
<path opacity="0.28" d="M396 90H326C322.686 90 320 92.6863 320 96V128C320 131.314 322.686 134 326 134H396C399.314 134 402 131.314 402 128V96C402 92.6863 399.314 90 396 90Z" fill="#397D4F"/>
<path opacity="0.65" d="M336 120C340.418 120 344 116.418 344 112C344 107.582 340.418 104 336 104C331.582 104 328 107.582 328 112C328 116.418 331.582 120 336 120Z" fill="#397D4F"/>
<path d="M331.5 112L335 115.5L341 109" stroke="white" stroke-width="1.5" stroke-linecap="round" stroke-linejoin="round"/>
<path opacity="0.35" d="M392 106H351C349.895 106 349 106.895 349 108V110C349 111.105 349.895 112 351 112H392C393.105 112 394 111.105 394 110V108C394 106.895 393.105 106 392 106Z" fill="#397D4F"/>
<path opacity="0.22" d="M377 116H351C349.895 116 349 116.895 349 118V119C349 120.105 349.895 121 351 121H377C378.105 121 379 120.105 379 119V118C379 116.895 378.105 116 377 116Z" fill="#397D4F"/>
<path opacity="0.28" d="M94 290H24C20.6863 290 18 292.686 18 296V328C18 331.314 20.6863 334 24 334H94C97.3137 334 100 331.314 100 328V296C100 292.686 97.3137 290 94 290Z" fill="#397D4F"/>
<path opacity="0.65" d="M34 320C38.4183 320 42 316.418 42 312C42 307.582 38.4183 304 34 304C29.5817 304 26 307.582 26 312C26 316.418 29.5817 320 34 320Z" fill="#397D4F"/>
<path d="M29.5 312L33 315.5L39 309" stroke="white" stroke-width="1.5" stroke-linecap="round" stroke-linejoin="round"/>
<path opacity="0.35" d="M85 306H49C47.8954 306 47 306.895 47 308V310C47 311.105 47.8954 312 49 312H85C86.1046 312 87 311.105 87 310V308C87 306.895 86.1046 306 85 306Z" fill="#397D4F"/>
<path opacity="0.22" d="M95 316H49C47.8954 316 47 316.895 47 318V319C47 320.105 47.8954 321 49 321H95C96.1046 321 97 320.105 97 319V318C97 316.895 96.1046 316 95 316Z" fill="#397D4F"/>
<path opacity="0.28" d="M396 290H326C322.686 290 320 292.686 320 296V328C320 331.314 322.686 334 326 334H396C399.314 334 402 331.314 402 328V296C402 292.686 399.314 290 396 290Z" fill="#397D4F"/>
<path opacity="0.65" d="M336 320C340.418 320 344 316.418 344 312C344 307.582 340.418 304 336 304C331.582 304 328 307.582 328 312C328 316.418 331.582 320 336 320Z" fill="#397D4F"/>
<path d="M331.5 312L335 315.5L341 309" stroke="white" stroke-width="1.5" stroke-linecap="round" stroke-linejoin="round"/>
<path opacity="0.35" d="M392 306H351C349.895 306 349 306.895 349 308V310C349 311.105 349.895 312 351 312H392C393.105 312 394 311.105 394 310V308C394 306.895 393.105 306 392 306Z" fill="#397D4F"/>
<path opacity="0.22" d="M379 316H351C349.895 316 349 316.895 349 318V319C349 320.105 349.895 321 351 321H379C380.105 321 381 320.105 381 319V318C381 316.895 380.105 316 379 316Z" fill="#397D4F"/>
<path opacity="0.3" d="M120 145C100 140 85 130 72 128" stroke="#397D4F" stroke-width="1.5"/>
<path opacity="0.3" d="M300 145C320 140 335 130 330 128" stroke="#397D4F" stroke-width="1.5"/>
<path opacity="0.25" d="M120 270C100 280 85 295 72 308" stroke="#397D4F" stroke-width="1.5"/>
<path opacity="0.25" d="M300 270C320 280 335 295 330 308" stroke="#397D4F" stroke-width="1.5"/>
<path opacity="0.45" d="M105 150C107.209 150 109 148.209 109 146C109 143.791 107.209 142 105 142C102.791 142 101 143.791 101 146C101 148.209 102.791 150 105 150Z" fill="#397D4F"/>
<path opacity="0.45" d="M315 150C317.209 150 319 148.209 319 146C319 143.791 317.209 142 315 142C312.791 142 311 143.791 311 146C311 148.209 312.791 150 315 150Z" fill="#397D4F"/>
<path opacity="0.38" d="M105 272C107.209 272 109 270.209 109 268C109 265.791 107.209 264 105 264C102.791 264 101 265.791 101 268C101 270.209 102.791 272 105 272Z" fill="#397D4F"/>
<path opacity="0.38" d="M315 272C317.209 272 319 270.209 319 268C319 265.791 317.209 264 315 264C312.791 264 311 265.791 311 268C311 270.209 312.791 272 315 272Z" fill="#397D4F"/>
<path opacity="0.35" d="M210 375C212.761 375 215 372.761 215 370C215 367.239 212.761 365 210 365C207.239 365 205 367.239 205 370C205 372.761 207.239 375 210 375Z" fill="#397D4F"/>
<path opacity="0.2" d="M195 383C196.657 383 198 381.657 198 380C198 378.343 196.657 377 195 377C193.343 377 192 378.343 192 380C192 381.657 193.343 383 195 383Z" fill="#397D4F"/>
<path opacity="0.18" d="M225 385.5C226.933 385.5 228.5 383.933 228.5 382C228.5 380.067 226.933 378.5 225 378.5C223.067 378.5 221.5 380.067 221.5 382C221.5 383.933 223.067 385.5 225 385.5Z" fill="#397D4F"/>
</svg>
