<svg width="420" height="400" viewBox="0 0 420 400" fill="none" xmlns="http://www.w3.org/2000/svg">
<path opacity="0.1" d="M210 350C306.65 350 385 280.604 385 195C385 109.396 306.65 40 210 40C113.35 40 35 109.396 35 195C35 280.604 113.35 350 210 350Z" fill="#397D4F"/>
<path opacity="0.18" d="M334 255H86C82.6863 255 80 257.686 80 261V319C80 322.314 82.6863 325 86 325H334C337.314 325 340 322.314 340 319V261C340 257.686 337.314 255 334 255Z" fill="#397D4F"/>
<path opacity="0.28" d="M326 248H78C74.6863 248 72 250.686 72 254V312C72 315.314 74.6863 318 78 318H326C329.314 318 332 315.314 332 312V254C332 250.686 329.314 248 326 248Z" fill="#397D4F"/>
<path opacity="0.38" d="M318 241H70C66.6863 241 64 243.686 64 247V305C64 308.314 66.6863 311 70 311H318C321.314 311 324 308.314 324 305V247C324 243.686 321.314 241 318 241Z" fill="#397D4F"/>
<path opacity="0.5" d="M318 241H70C66.6863 241 64 243.686 64 247V249C64 252.314 66.6863 255 70 255H318C321.314 255 324 252.314 324 249V247C324 243.686 321.314 241 318 241Z" fill="#397D4F"/>
<path opacity="0.3" d="M176 268H80C78.8954 268 78 268.895 78 270V273C78 274.105 78.8954 275 80 275H176C177.105 275 178 274.105 178 273V270C178 268.895 177.105 268 176 268Z" fill="#397D4F"/>
<path opacity="0.2" d="M206 280H80C78.8954 280 78 280.895 78 282V285C78 286.105 78.8954 287 80 287H206C207.105 287 208 286.105 208 285V282C208 280.895 207.105 280 206 280Z" fill="#397D4F"/>
<path opacity="0.3" d="M156 292H80C78.8954 292 78 292.895 78 294V297C78 298.105 78.8954 299 80 299H156C157.105 299 158 298.105 158 297V294C158 292.895 157.105 292 156 292Z" fill="#397D4F"/>
<path opacity="0.7" d="M304 277C307.866 277 311 273.866 311 270C311 266.134 307.866 263 304 263C300.134 263 297 266.134 297 270C297 273.866 300.134 277 304 277Z" fill="#397D4F"/>
<path d="M300 270L303 273L309 266" stroke="white" stroke-width="1.5" stroke-linecap="round" stroke-linejoin="round"/>
<path opacity="0.18" d="M334 165H86C82.6863 165 80 167.686 80 171V229C80 232.314 82.6863 235 86 235H334C337.314 235 340 232.314 340 229V171C340 167.686 337.314 165 334 165Z" fill="#397D4F"/>
<path opacity="0.28" d="M326 158H78C74.6863 158 72 160.686 72 164V222C72 225.314 74.6863 228 78 228H326C329.314 228 332 225.314 332 222V164C332 160.686 329.314 158 326 158Z" fill="#397D4F"/>
<path opacity="0.38" d="M318 151H70C66.6863 151 64 153.686 64 157V215C64 218.314 66.6863 221 70 221H318C321.314 221 324 218.314 324 215V157C324 153.686 321.314 151 318 151Z" fill="#397D4F"/>
<path opacity="0.5" d="M318 151H70C66.6863 151 64 153.686 64 157V159C64 162.314 66.6863 165 70 165H318C321.314 165 324 162.314 324 159V157C324 153.686 321.314 151 318 151Z" fill="#397D4F"/>
<path opacity="0.3" d="M196 178H80C78.8954 178 78 178.895 78 180V183C78 184.105 78.8954 185 80 185H196C197.105 185 198 184.105 198 183V180C198 178.895 197.105 178 196 178Z" fill="#397D4F"/>
<path opacity="0.2" d="M166 190H80C78.8954 190 78 190.895 78 192V195C78 196.105 78.8954 197 80 197H166C167.105 197 168 196.105 168 195V192C168 190.895 167.105 190 166 190Z" fill="#397D4F"/>
<path opacity="0.3" d="M216 202H80C78.8954 202 78 202.895 78 204V207C78 208.105 78.8954 209 80 209H216C217.105 209 218 208.105 218 207V204C218 202.895 217.105 202 216 202Z" fill="#397D4F"/>
<path opacity="0.5" d="M213 175H211C210.448 175 210 175.448 210 176V194C210 194.552 210.448 195 211 195H213C213.552 195 214 194.552 214 194V176C214 175.448 213.552 175 213 175Z" fill="#397D4F"/>
<path opacity="0.65" d="M223 170H221C220.448 170 220 170.448 220 171V199C220 199.552 220.448 200 221 200H223C223.552 200 224 199.552 224 199V171C224 170.448 223.552 170 223 170Z" fill="#397D4F"/>
<path opacity="0.5" d="M233 178H231C230.448 178 230 178.448 230 179V192C230 192.552 230.448 193 231 193H233C233.552 193 234 192.552 234 192V179C234 178.448 233.552 178 233 178Z" fill="#397D4F"/>
<path opacity="0.75" d="M243 166H241C240.448 166 240 166.448 240 167V200C240 200.552 240.448 201 241 201H243C243.552 201 244 200.552 244 200V167C244 166.448 243.552 166 243 166Z" fill="#397D4F"/>
<path opacity="0.55" d="M253 174H251C250.448 174 250 174.448 250 175V191C250 191.552 250.448 192 251 192H253C253.552 192 254 191.552 254 191V175C254 174.448 253.552 174 253 174Z" fill="#397D4F"/>
<path opacity="0.4" d="M263 180H261C260.448 180 260 180.448 260 181V189C260 189.552 260.448 190 261 190H263C263.552 190 264 189.552 264 189V181C264 180.448 263.552 180 263 180Z" fill="#397D4F"/>
<path opacity="0.6" d="M273 171H271C270.448 171 270 171.448 270 172V196C270 196.552 270.448 197 271 197H273C273.552 197 274 196.552 274 196V172C274 171.448 273.552 171 273 171Z" fill="#397D4F"/>
<path opacity="0.45" d="M283 176H281C280.448 176 280 176.448 280 177V191C280 191.552 280.448 192 281 192H283C283.552 192 284 191.552 284 191V177C284 176.448 283.552 176 283 176Z" fill="#397D4F"/>
<path opacity="0.7" d="M304 187C307.866 187 311 183.866 311 180C311 176.134 307.866 173 304 173C300.134 173 297 176.134 297 180C297 183.866 300.134 187 304 187Z" fill="#397D4F"/>
<path d="M300 180L303 183L309 176" stroke="white" stroke-width="1.5" stroke-linecap="round" stroke-linejoin="round"/>
<path opacity="0.18" d="M334 75H86C82.6863 75 80 77.6863 80 81V139C80 142.314 82.6863 145 86 145H334C337.314 145 340 142.314 340 139V81C340 77.6863 337.314 75 334 75Z" fill="#397D4F"/>
<path opacity="0.28" d="M326 68H78C74.6863 68 72 70.6863 72 74V132C72 135.314 74.6863 138 78 138H326C329.314 138 332 135.314 332 132V74C332 70.6863 329.314 68 326 68Z" fill="#397D4F"/>
<path opacity="0.4" d="M318 61H70C66.6863 61 64 63.6863 64 67V125C64 128.314 66.6863 131 70 131H318C321.314 131 324 128.314 324 125V67C324 63.6863 321.314 61 318 61Z" fill="#397D4F"/>
<path opacity="0.55" d="M318 61H70C66.6863 61 64 63.6863 64 67V69C64 72.3137 66.6863 75 70 75H318C321.314 75 324 72.3137 324 69V67C324 63.6863 321.314 61 318 61Z" fill="#397D4F"/>
<path opacity="0.55" d="M90 100C92.7614 100 95 97.7614 95 95C95 92.2386 92.7614 90 90 90C87.2386 90 85 92.2386 85 95C85 97.7614 87.2386 100 90 100Z" fill="#397D4F"/>
<path opacity="0.55" d="M108 100C110.761 100 113 97.7614 113 95C113 92.2386 110.761 90 108 90C105.239 90 103 92.2386 103 95C103 97.7614 105.239 100 108 100Z" fill="#397D4F"/>
<path opacity="0.55" d="M126 100C128.761 100 131 97.7614 131 95C131 92.2386 128.761 90 126 90C123.239 90 121 92.2386 121 95C121 97.7614 123.239 100 126 100Z" fill="#397D4F"/>
<path opacity="0.45" d="M90 118C92.7614 118 95 115.761 95 113C95 110.239 92.7614 108 90 108C87.2386 108 85 110.239 85 113C85 115.761 87.2386 118 90 118Z" fill="#397D4F"/>
<path opacity="0.45" d="M108 118C110.761 118 113 115.761 113 113C113 110.239 110.761 108 108 108C105.239 108 103 110.239 103 113C103 115.761 105.239 118 108 118Z" fill="#397D4F"/>
<path opacity="0.55" d="M126 118C128.761 118 131 115.761 131 113C131 110.239 128.761 108 126 108C123.239 108 121 110.239 121 113C121 115.761 123.239 118 126 118Z" fill="#397D4F"/>
<path opacity="0.3" d="M90 95H108" stroke="#397D4F"/>
<path opacity="0.3" d="M108 95H126" stroke="#397D4F"/>
<path opacity="0.3" d="M90 95V113" stroke="#397D4F"/>
<path opacity="0.3" d="M108 95V113" stroke="#397D4F"/>
<path opacity="0.3" d="M126 95V113" stroke="#397D4F"/>
<path opacity="0.3" d="M90 113H108" stroke="#397D4F"/>
<path opacity="0.3" d="M108 113H126" stroke="#397D4F"/>
<path opacity="0.25" d="M253 84H157C155.895 84 155 84.8954 155 86V89C155 90.1046 155.895 91 157 91H253C254.105 91 255 90.1046 255 89V86C255 84.8954 254.105 84 253 84Z" fill="#397D4F"/>
<path opacity="0.15" d="M233 97H157C155.895 97 155 97.8954 155 99V102C155 103.105 155.895 104 157 104H233C234.105 104 235 103.105 235 102V99C235 97.8954 234.105 97 233 97Z" fill="#397D4F"/>
<path opacity="0.25" d="M273 110H157C155.895 110 155 110.895 155 112V115C155 116.105 155.895 117 157 117H273C274.105 117 275 116.105 275 115V112C275 110.895 274.105 110 273 110Z" fill="#397D4F"/>
<path opacity="0.7" d="M304 97C307.866 97 311 93.866 311 90C311 86.134 307.866 83 304 83C300.134 83 297 86.134 297 90C297 93.866 300.134 97 304 97Z" fill="#397D4F"/>
<path d="M300 90L303 93L309 86" stroke="white" stroke-width="1.5" stroke-linecap="round" stroke-linejoin="round"/>
<path opacity="0.25" d="M304 338H116C112.686 338 110 340.686 110 344V376C110 379.314 112.686 382 116 382H304C307.314 382 310 379.314 310 376V344C310 340.686 307.314 338 304 338Z" fill="#397D4F"/>
<path opacity="0.6" d="M134 350H126C124.895 350 124 350.895 124 352V370C124 371.105 124.895 372 126 372H134C135.105 372 136 371.105 136 370V352C136 350.895 135.105 350 134 350Z" fill="#397D4F"/>
<path opacity="0.6" d="M150 350H142C140.895 350 140 350.895 140 352V370C140 371.105 140.895 372 142 372H150C151.105 372 152 371.105 152 370V352C152 350.895 151.105 350 150 350Z" fill="#397D4F"/>
<path opacity="0.6" d="M166 350H158C156.895 350 156 350.895 156 352V370C156 371.105 156.895 372 158 372H166C167.105 372 168 371.105 168 370V352C168 350.895 167.105 350 166 350Z" fill="#397D4F"/>
<path opacity="0.6" d="M182 350H174C172.895 350 172 350.895 172 352V370C172 371.105 172.895 372 174 372H182C183.105 372 184 371.105 184 370V352C184 350.895 183.105 350 182 350Z" fill="#397D4F"/>
<path opacity="0.6" d="M198 350H190C188.895 350 188 350.895 188 352V370C188 371.105 188.895 372 190 372H198C199.105 372 200 371.105 200 370V352C200 350.895 199.105 350 198 350Z" fill="#397D4F"/>
<path opacity="0.6" d="M214 350H206C204.895 350 204 350.895 204 352V370C204 371.105 204.895 372 206 372H214C215.105 372 216 371.105 216 370V352C216 350.895 215.105 350 214 350Z" fill="#397D4F"/>
<path opacity="0.6" d="M230 350H222C220.895 350 220 350.895 220 352V370C220 371.105 220.895 372 222 372H230C231.105 372 232 371.105 232 370V352C232 350.895 231.105 350 230 350Z" fill="#397D4F"/>
<path opacity="0.6" d="M246 350H238C236.895 350 236 350.895 236 352V370C236 371.105 236.895 372 238 372H246C247.105 372 248 371.105 248 370V352C248 350.895 247.105 350 246 350Z" fill="#397D4F"/>
<path opacity="0.35" d="M262 350H254C252.895 350 252 350.895 252 352V370C252 371.105 252.895 372 254 372H262C263.105 372 264 371.105 264 370V352C264 350.895 263.105 350 262 350Z" fill="#397D4F"/>
<path opacity="0.6" d="M278 350H270C268.895 350 268 350.895 268 352V370C268 371.105 268.895 372 270 372H278C279.105 372 280 371.105 280 370V352C280 350.895 279.105 350 278 350Z" fill="#397D4F"/>
<path opacity="0.6" d="M294 350H286C284.895 350 284 350.895 284 352V370C284 371.105 284.895 372 286 372H294C295.105 372 296 371.105 296 370V352C296 350.895 295.105 350 294 350Z" fill="#397D4F"/>
<path opacity="0.2" d="M48 160H18C14.6863 160 12 162.686 12 166V244C12 247.314 14.6863 250 18 250H48C51.3137 250 54 247.314 54 244V166C54 162.686 51.3137 160 48 160Z" fill="#397D4F"/>
<path opacity="0.25" d="M33 194C37.9706 194 42 189.971 42 185C42 180.029 37.9706 176 33 176C28.0294 176 24 180.029 24 185C24 189.971 28.0294 194 33 194Z" fill="#397D4F"/>
<path opacity="0.35" d="M33 191C36.3137 191 39 188.314 39 185C39 181.686 36.3137 179 33 179C29.6863 179 27 181.686 27 185C27 188.314 29.6863 191 33 191Z" fill="#397D4F"/>
<path opacity="0.7" d="M33 188C34.6569 188 36 186.657 36 185C36 183.343 34.6569 182 33 182C31.3431 182 30 183.343 30 185C30 186.657 31.3431 188 33 188Z" fill="#397D4F"/>
<path opacity="0.15" d="M33 224C37.9706 224 42 219.971 42 215C42 210.029 37.9706 206 33 206C28.0294 206 24 210.029 24 215C24 219.971 28.0294 224 33 224Z" fill="#397D4F"/>
<path opacity="0.22" d="M33 221C36.3137 221 39 218.314 39 215C39 211.686 36.3137 209 33 209C29.6863 209 27 211.686 27 215C27 218.314 29.6863 221 33 221Z" fill="#397D4F"/>
<path opacity="0.45" d="M33 218C34.6569 218 36 216.657 36 215C36 213.343 34.6569 212 33 212C31.3431 212 30 213.343 30 215C30 216.657 31.3431 218 33 218Z" fill="#397D4F"/>
<path opacity="0.3" d="M54 190C60 185 62 175 64 175" stroke="#397D4F" stroke-width="1.5"/>
<path opacity="0.2" d="M402 160H372C368.686 160 366 162.686 366 166V244C366 247.314 368.686 250 372 250H402C405.314 250 408 247.314 408 244V166C408 162.686 405.314 160 402 160Z" fill="#397D4F"/>
<path opacity="0.35" d="M401 175H373C372.448 175 372 175.448 372 176V179C372 179.552 372.448 180 373 180H401C401.552 180 402 179.552 402 179V176C402 175.448 401.552 175 401 175Z" fill="#397D4F"/>
<path opacity="0.25" d="M393 186H373C372.448 186 372 186.448 372 187V190C372 190.552 372.448 191 373 191H393C393.552 191 394 190.552 394 190V187C394 186.448 393.552 186 393 186Z" fill="#397D4F"/>
<path opacity="0.35" d="M399 197H373C372.448 197 372 197.448 372 198V201C372 201.552 372.448 202 373 202H399C399.552 202 400 201.552 400 201V198C400 197.448 399.552 197 399 197Z" fill="#397D4F"/>
<path opacity="0.25" d="M389 208H373C372.448 208 372 208.448 372 209V212C372 212.552 372.448 213 373 213H389C389.552 213 390 212.552 390 212V209C390 208.448 389.552 208 389 208Z" fill="#397D4F"/>
<path opacity="0.3" d="M397 219H373C372.448 219 372 219.448 372 220V223C372 223.552 372.448 224 373 224H397C397.552 224 398 223.552 398 223V220C398 219.448 397.552 219 397 219Z" fill="#397D4F"/>
<path opacity="0.2" d="M391 230H373C372.448 230 372 230.448 372 231V234C372 234.552 372.448 235 373 235H391C391.552 235 392 234.552 392 234V231C392 230.448 391.552 230 391 230Z" fill="#397D4F"/>
<path opacity="0.3" d="M366 195C360 190 328 185 324 185" stroke="#397D4F" stroke-width="1.5"/>
<path opacity="0.3" d="M194 131V151" stroke="#397D4F" stroke-width="1.5"/>
<path opacity="0.35" d="M189 148L194 156L199 148H189Z" fill="#397D4F"/>
<path opacity="0.3" d="M194 221V241" stroke="#397D4F" stroke-width="1.5"/>
<path opacity="0.35" d="M189 238L194 246L199 238H189Z" fill="#397D4F"/>
</svg>
