<svg width="420" height="420" viewBox="0 0 420 420" fill="none" xmlns="http://www.w3.org/2000/svg">
<path opacity="0.08" d="M210 365C309.411 365 390 291.127 390 200C390 108.873 309.411 35 210 35C110.589 35 30 108.873 30 200C30 291.127 110.589 365 210 365Z" fill="#397D4F"/>
<path opacity="0.55" d="M68 102C71.866 102 75 98.866 75 95C75 91.134 71.866 88 68 88C64.134 88 61 91.134 61 95C61 98.866 64.134 102 68 102Z" fill="#397D4F"/>
<path opacity="0.55" d="M95 75C98.866 75 102 71.866 102 68C102 64.134 98.866 61 95 61C91.134 61 88 64.134 88 68C88 71.866 91.134 75 95 75Z" fill="#397D4F"/>
<path opacity="0.5" d="M128 67C131.866 67 135 63.866 135 60C135 56.134 131.866 53 128 53C124.134 53 121 56.134 121 60C121 63.866 124.134 67 128 67Z" fill="#397D4F"/>
<path opacity="0.5" d="M158 77C161.866 77 165 73.866 165 70C165 66.134 161.866 63 158 63C154.134 63 151 66.134 151 70C151 73.866 154.134 77 158 77Z" fill="#397D4F"/>
<path opacity="0.55" d="M178 102C181.866 102 185 98.866 185 95C185 91.134 181.866 88 178 88C174.134 88 171 91.134 171 95C171 98.866 174.134 102 178 102Z" fill="#397D4F"/>
<path opacity="0.5" d="M168 132C171.866 132 175 128.866 175 125C175 121.134 171.866 118 168 118C164.134 118 161 121.134 161 125C161 128.866 164.134 132 168 132Z" fill="#397D4F"/>
<path opacity="0.5" d="M138 149C141.866 149 145 145.866 145 142C145 138.134 141.866 135 138 135C134.134 135 131 138.134 131 142C131 145.866 134.134 149 138 149Z" fill="#397D4F"/>
<path opacity="0.5" d="M102 147C105.866 147 109 143.866 109 140C109 136.134 105.866 133 102 133C98.134 133 95 136.134 95 140C95 143.866 98.134 147 102 147Z" fill="#397D4F"/>
<path opacity="0.55" d="M72 129C75.866 129 79 125.866 79 122C79 118.134 75.866 115 72 115C68.134 115 65 118.134 65 122C65 125.866 68.134 129 72 129Z" fill="#397D4F"/>
<path opacity="0.65" d="M110 94C113.314 94 116 91.3137 116 88C116 84.6863 113.314 82 110 82C106.686 82 104 84.6863 104 88C104 91.3137 106.686 94 110 94Z" fill="#397D4F"/>
<path opacity="0.65" d="M145 91C148.314 91 151 88.3137 151 85C151 81.6863 148.314 79 145 79C141.686 79 139 81.6863 139 85C139 88.3137 141.686 91 145 91Z" fill="#397D4F"/>
<path opacity="0.65" d="M128 118C131.314 118 134 115.314 134 112C134 108.686 131.314 106 128 106C124.686 106 122 108.686 122 112C122 115.314 124.686 118 128 118Z" fill="#397D4F"/>
<path opacity="0.5" d="M105 120C107.761 120 110 117.761 110 115C110 112.239 107.761 110 105 110C102.239 110 100 112.239 100 115C100 117.761 102.239 120 105 120Z" fill="#397D4F"/>
<path opacity="0.5" d="M150 117C152.761 117 155 114.761 155 112C155 109.239 152.761 107 150 107C147.239 107 145 109.239 145 112C145 114.761 147.239 117 150 117Z" fill="#397D4F"/>
<path opacity="0.75" d="M128 109C132.971 109 137 104.971 137 100C137 95.0294 132.971 91 128 91C123.029 91 119 95.0294 119 100C119 104.971 123.029 109 128 109Z" fill="#397D4F"/>
<path opacity="0.25" d="M68 95L110 88" stroke="#397D4F"/>
<path opacity="0.25" d="M95 68L110 88" stroke="#397D4F"/>
<path opacity="0.2" d="M128 60L110 88" stroke="#397D4F"/>
<path opacity="0.2" d="M128 60L145 85" stroke="#397D4F"/>
<path opacity="0.25" d="M158 70L145 85" stroke="#397D4F"/>
<path opacity="0.25" d="M178 95L145 85" stroke="#397D4F"/>
<path opacity="0.35" d="M110 88L128 100" stroke="#397D4F" stroke-width="1.2"/>
<path opacity="0.35" d="M145 85L128 100" stroke="#397D4F" stroke-width="1.2"/>
<path opacity="0.35" d="M128 100V112" stroke="#397D4F" stroke-width="1.2"/>
<path opacity="0.25" d="M128 100L105 115" stroke="#397D4F"/>
<path opacity="0.25" d="M128 100L150 112" stroke="#397D4F"/>
<path opacity="0.2" d="M72 122L105 115" stroke="#397D4F"/>
<path opacity="0.2" d="M168 125L150 112" stroke="#397D4F"/>
<path opacity="0.2" d="M102 140L128 112" stroke="#397D4F"/>
<path opacity="0.2" d="M138 142L128 112" stroke="#397D4F"/>
<path opacity="0.5" d="M192 100H228" stroke="#397D4F" stroke-width="2.5" stroke-linecap="round"/>
<path opacity="0.55" d="M224 94L234 100L224 106V94Z" fill="#397D4F"/>
<path opacity="0.3" d="M200 88H220" stroke="#397D4F" stroke-dasharray="3 2"/>
<path opacity="0.3" d="M200 112H220" stroke="#397D4F" stroke-dasharray="3 2"/>
<path opacity="0.65" d="M270 91C273.314 91 276 88.3137 276 85C276 81.6863 273.314 79 270 79C266.686 79 264 81.6863 264 85C264 88.3137 266.686 91 270 91Z" fill="#397D4F"/>
<path opacity="0.65" d="M295 78C298.314 78 301 75.3137 301 72C301 68.6863 298.314 66 295 66C291.686 66 289 68.6863 289 72C289 75.3137 291.686 78 295 78Z" fill="#397D4F"/>
<path opacity="0.6" d="M320 86C323.314 86 326 83.3137 326 80C326 76.6863 323.314 74 320 74C316.686 74 314 76.6863 314 80C314 83.3137 316.686 86 320 86Z" fill="#397D4F"/>
<path opacity="0.6" d="M330 111C333.314 111 336 108.314 336 105C336 101.686 333.314 99 330 99C326.686 99 324 101.686 324 105C324 108.314 326.686 111 330 111Z" fill="#397D4F"/>
<path opacity="0.65" d="M315 134C318.314 134 321 131.314 321 128C321 124.686 318.314 122 315 122C311.686 122 309 124.686 309 128C309 131.314 311.686 134 315 134Z" fill="#397D4F"/>
<path opacity="0.65" d="M285 138C288.314 138 291 135.314 291 132C291 128.686 288.314 126 285 126C281.686 126 279 128.686 279 132C279 135.314 281.686 138 285 138Z" fill="#397D4F"/>
<path opacity="0.65" d="M262 118C265.314 118 268 115.314 268 112C268 108.686 265.314 106 262 106C258.686 106 256 108.686 256 112C256 115.314 258.686 118 262 118Z" fill="#397D4F"/>
<path opacity="0.8" d="M295 112C300.523 112 305 107.523 305 102C305 96.4772 300.523 92 295 92C289.477 92 285 96.4772 285 102C285 107.523 289.477 112 295 112Z" fill="#397D4F"/>
<path d="M290 102L294 106L301 97" stroke="white" stroke-width="1.8" stroke-linecap="round" stroke-linejoin="round"/>
<path opacity="0.35" d="M270 85L295 102" stroke="#397D4F" stroke-width="1.2"/>
<path opacity="0.35" d="M295 72V102" stroke="#397D4F" stroke-width="1.2"/>
<path opacity="0.35" d="M320 80L295 102" stroke="#397D4F" stroke-width="1.2"/>
<path opacity="0.35" d="M330 105L295 102" stroke="#397D4F" stroke-width="1.2"/>
<path opacity="0.35" d="M315 128L295 102" stroke="#397D4F" stroke-width="1.2"/>
<path opacity="0.35" d="M285 132L295 102" stroke="#397D4F" stroke-width="1.2"/>
<path opacity="0.35" d="M262 112L295 102" stroke="#397D4F" stroke-width="1.2"/>
<path opacity="0.3" d="M404 88H354C351.791 88 350 89.7909 350 92V112C350 114.209 351.791 116 354 116H404C406.209 116 408 114.209 408 112V92C408 89.7909 406.209 88 404 88Z" fill="#397D4F"/>
<path opacity="0.18" d="M403 94H355C354.448 94 354 94.4477 354 95V98C354 98.5523 354.448 99 355 99H403C403.552 99 404 98.5523 404 98V95C404 94.4477 403.552 94 403 94Z" fill="#397D4F"/>
<path opacity="0.13" d="M391 103H355C354.448 103 354 103.448 354 104V107C354 107.552 354.448 108 355 108H391C391.552 108 392 107.552 392 107V104C392 103.448 391.552 103 391 103Z" fill="#397D4F"/>
<path opacity="0.15" d="M384 172H36C32.6863 172 30 174.686 30 178V224C30 227.314 32.6863 230 36 230H384C387.314 230 390 227.314 390 224V178C390 174.686 387.314 172 384 172Z" fill="#397D4F"/>
<path opacity="0.45" d="M98 182H46C43.7909 182 42 183.791 42 186V216C42 218.209 43.7909 220 46 220H98C100.209 220 102 218.209 102 216V186C102 183.791 100.209 182 98 182Z" fill="#397D4F"/>
<path opacity="0.38" d="M174 182H122C119.791 182 118 183.791 118 186V216C118 218.209 119.791 220 122 220H174C176.209 220 178 218.209 178 216V186C178 183.791 176.209 182 174 182Z" fill="#397D4F"/>
<path opacity="0.52" d="M250 182H198C195.791 182 194 183.791 194 186V216C194 218.209 195.791 220 198 220H250C252.209 220 254 218.209 254 216V186C254 183.791 252.209 182 250 182Z" fill="#397D4F"/>
<path opacity="0.38" d="M326 182H274C271.791 182 270 183.791 270 186V216C270 218.209 271.791 220 274 220H326C328.209 220 330 218.209 330 216V186C330 183.791 328.209 182 326 182Z" fill="#397D4F"/>
<path opacity="0.45" d="M376 182H350C347.791 182 346 183.791 346 186V216C346 218.209 347.791 220 350 220H376C378.209 220 380 218.209 380 216V186C380 183.791 378.209 182 376 182Z" fill="#397D4F"/>
<path opacity="0.5" d="M102 197L109 201L102 205V197Z" fill="#397D4F"/>
<path opacity="0.5" d="M178 197L185 201L178 205V197Z" fill="#397D4F"/>
<path opacity="0.5" d="M254 197L261 201L254 205V197Z" fill="#397D4F"/>
<path opacity="0.5" d="M330 197L337 201L330 205V197Z" fill="#397D4F"/>
<path opacity="0.4" d="M72 178V172" stroke="#397D4F" stroke-width="1.5"/>
<path opacity="0.4" d="M148 178V172" stroke="#397D4F" stroke-width="1.5"/>
<path opacity="0.55" d="M224 178V172" stroke="#397D4F" stroke-width="1.5"/>
<path opacity="0.4" d="M300 178V172" stroke="#397D4F" stroke-width="1.5"/>
<path opacity="0.22" d="M176 268H28C24.6863 268 22 270.686 22 274V392C22 395.314 24.6863 398 28 398H176C179.314 398 182 395.314 182 392V274C182 270.686 179.314 268 176 268Z" fill="#397D4F"/>
<path opacity="0.42" d="M176 268H28C24.6863 268 22 270.686 22 274V278C22 281.314 24.6863 284 28 284H176C179.314 284 182 281.314 182 278V274C182 270.686 179.314 268 176 268Z" fill="#397D4F"/>
<path opacity="0.5" d="M66 294H34C32.8954 294 32 294.895 32 296V306C32 307.105 32.8954 308 34 308H66C67.1046 308 68 307.105 68 306V296C68 294.895 67.1046 294 66 294Z" fill="#397D4F"/>
<path opacity="0.45" d="M106 294H74C72.8954 294 72 294.895 72 296V306C72 307.105 72.8954 308 74 308H106C107.105 308 108 307.105 108 306V296C108 294.895 107.105 294 106 294Z" fill="#397D4F"/>
<path opacity="0.5" d="M146 294H114C112.895 294 112 294.895 112 296V306C112 307.105 112.895 308 114 308H146C147.105 308 148 307.105 148 306V296C148 294.895 147.105 294 146 294Z" fill="#397D4F"/>
<path opacity="0.45" d="M172 294H154C152.895 294 152 294.895 152 296V306C152 307.105 152.895 308 154 308H172C173.105 308 174 307.105 174 306V296C174 294.895 173.105 294 172 294Z" fill="#397D4F"/>
<path opacity="0.5" d="M48 313H34C32.8954 313 32 313.895 32 315V321C32 322.105 32.8954 323 34 323H48C49.1046 323 50 322.105 50 321V315C50 313.895 49.1046 313 48 313Z" fill="#397D4F"/>
<path opacity="0.45" d="M70 313H56C54.8954 313 54 313.895 54 315V321C54 322.105 54.8954 323 56 323H70C71.1046 323 72 322.105 72 321V315C72 313.895 71.1046 313 70 313Z" fill="#397D4F"/>
<path opacity="0.5" d="M92 313H78C76.8954 313 76 313.895 76 315V321C76 322.105 76.8954 323 78 323H92C93.1046 323 94 322.105 94 321V315C94 313.895 93.1046 313 92 313Z" fill="#397D4F"/>
<path opacity="0.45" d="M114 313H100C98.8954 313 98 313.895 98 315V321C98 322.105 98.8954 323 100 323H114C115.105 323 116 322.105 116 321V315C116 313.895 115.105 313 114 313Z" fill="#397D4F"/>
<path opacity="0.5" d="M136 313H122C120.895 313 120 313.895 120 315V321C120 322.105 120.895 323 122 323H136C137.105 323 138 322.105 138 321V315C138 313.895 137.105 313 136 313Z" fill="#397D4F"/>
<path opacity="0.45" d="M158 313H144C142.895 313 142 313.895 142 315V321C142 322.105 142.895 323 144 323H158C159.105 323 160 322.105 160 321V315C160 313.895 159.105 313 158 313Z" fill="#397D4F"/>
<path opacity="0.4" d="M172 313H166C164.895 313 164 313.895 164 315V321C164 322.105 164.895 323 166 323H172C173.105 323 174 322.105 174 321V315C174 313.895 173.105 313 172 313Z" fill="#397D4F"/>
<path opacity="0.55" d="M41 328H33C32.4477 328 32 328.448 32 329V335C32 335.552 32.4477 336 33 336H41C41.5523 336 42 335.552 42 335V329C42 328.448 41.5523 328 41 328Z" fill="#397D4F"/>
<path opacity="0.5" d="M54 328H46C45.4477 328 45 328.448 45 329V335C45 335.552 45.4477 336 46 336H54C54.5523 336 55 335.552 55 335V329C55 328.448 54.5523 328 54 328Z" fill="#397D4F"/>
<path opacity="0.55" d="M67 328H59C58.4477 328 58 328.448 58 329V335C58 335.552 58.4477 336 59 336H67C67.5523 336 68 335.552 68 335V329C68 328.448 67.5523 328 67 328Z" fill="#397D4F"/>
<path opacity="0.5" d="M80 328H72C71.4477 328 71 328.448 71 329V335C71 335.552 71.4477 336 72 336H80C80.5523 336 81 335.552 81 335V329C81 328.448 80.5523 328 80 328Z" fill="#397D4F"/>
<path opacity="0.55" d="M93 328H85C84.4477 328 84 328.448 84 329V335C84 335.552 84.4477 336 85 336H93C93.5523 336 94 335.552 94 335V329C94 328.448 93.5523 328 93 328Z" fill="#397D4F"/>
<path opacity="0.5" d="M106 328H98C97.4477 328 97 328.448 97 329V335C97 335.552 97.4477 336 98 336H106C106.552 336 107 335.552 107 335V329C107 328.448 106.552 328 106 328Z" fill="#397D4F"/>
<path opacity="0.55" d="M119 328H111C110.448 328 110 328.448 110 329V335C110 335.552 110.448 336 111 336H119C119.552 336 120 335.552 120 335V329C120 328.448 119.552 328 119 328Z" fill="#397D4F"/>
<path opacity="0.5" d="M132 328H124C123.448 328 123 328.448 123 329V335C123 335.552 123.448 336 124 336H132C132.552 336 133 335.552 133 335V329C133 328.448 132.552 328 132 328Z" fill="#397D4F"/>
<path opacity="0.55" d="M145 328H137C136.448 328 136 328.448 136 329V335C136 335.552 136.448 336 137 336H145C145.552 336 146 335.552 146 335V329C146 328.448 145.552 328 145 328Z" fill="#397D4F"/>
<path opacity="0.5" d="M158 328H150C149.448 328 149 328.448 149 329V335C149 335.552 149.448 336 150 336H158C158.552 336 159 335.552 159 335V329C159 328.448 158.552 328 158 328Z" fill="#397D4F"/>
<path opacity="0.45" d="M171 328H163C162.448 328 162 328.448 162 329V335C162 335.552 162.448 336 163 336H171C171.552 336 172 335.552 172 335V329C172 328.448 171.552 328 171 328Z" fill="#397D4F"/>
<path opacity="0.2" d="M171 346H33C32.4477 346 32 346.448 32 347V350C32 350.552 32.4477 351 33 351H171C171.552 351 172 350.552 172 350V347C172 346.448 171.552 346 171 346Z" fill="#397D4F"/>
<path opacity="0.13" d="M141 357H33C32.4477 357 32 357.448 32 358V361C32 361.552 32.4477 362 33 362H141C141.552 362 142 361.552 142 361V358C142 357.448 141.552 357 141 357Z" fill="#397D4F"/>
<path opacity="0.2" d="M156 368H33C32.4477 368 32 368.448 32 369V372C32 372.552 32.4477 373 33 373H156C156.552 373 157 372.552 157 372V369C157 368.448 156.552 368 156 368Z" fill="#397D4F"/>
<path opacity="0.13" d="M121 379H33C32.4477 379 32 379.448 32 380V383C32 383.552 32.4477 384 33 384H121C121.552 384 122 383.552 122 383V380C122 379.448 121.552 379 121 379Z" fill="#397D4F"/>
<path opacity="0.22" d="M394 268H244C240.686 268 238 270.686 238 274V392C238 395.314 240.686 398 244 398H394C397.314 398 400 395.314 400 392V274C400 270.686 397.314 268 394 268Z" fill="#397D4F"/>
<path opacity="0.42" d="M394 268H244C240.686 268 238 270.686 238 274V278C238 281.314 240.686 284 244 284H394C397.314 284 400 281.314 400 278V274C400 270.686 397.314 268 394 268Z" fill="#397D4F"/>
<path opacity="0.35" d="M255 375V295" stroke="#397D4F" stroke-width="1.5" stroke-linecap="round"/>
<path opacity="0.35" d="M255 375H388" stroke="#397D4F" stroke-width="1.5" stroke-linecap="round"/>
<path opacity="0.55" d="M265 365C280 345 300 328 325 312C350 296 370 292 382 290" stroke="#397D4F" stroke-width="2" stroke-linecap="round"/>
<path opacity="0.35" d="M272 364C275.314 364 278 361.314 278 358C278 354.686 275.314 352 272 352C268.686 352 266 354.686 266 358C266 361.314 268.686 364 272 364Z" fill="#397D4F"/>
<path opacity="0.3" d="M285 355C287.761 355 290 352.761 290 350C290 347.239 287.761 345 285 345C282.239 345 280 347.239 280 350C280 352.761 282.239 355 285 355Z" fill="#397D4F"/>
<path opacity="0.3" d="M298 350C300.761 350 303 347.761 303 345C303 342.239 300.761 340 298 340C295.239 340 293 342.239 293 345C293 347.761 295.239 350 298 350Z" fill="#397D4F"/>
<path opacity="0.6" d="M315 327C318.866 327 322 323.866 322 320C322 316.134 318.866 313 315 313C311.134 313 308 316.134 308 320C308 323.866 311.134 327 315 327Z" fill="#397D4F"/>
<path opacity="0.65" d="M345 309C348.866 309 352 305.866 352 302C352 298.134 348.866 295 345 295C341.134 295 338 298.134 338 302C338 305.866 341.134 309 345 309Z" fill="#397D4F"/>
<path opacity="0.75" d="M375 301C379.418 301 383 297.418 383 293C383 288.582 379.418 285 375 285C370.582 285 367 288.582 367 293C367 297.418 370.582 301 375 301Z" fill="#397D4F"/>
<path d="M370 293L374 297L381 288" stroke="white" stroke-width="1.5" stroke-linecap="round" stroke-linejoin="round"/>
<path opacity="0.3" d="M272 352C290 338 304 326 310 322" stroke="#397D4F" stroke-width="1.2" stroke-dasharray="3 2"/>
<path opacity="0.3" d="M307 316L313 324L318 315L307 316Z" fill="#397D4F"/>
<path opacity="0.2" d="M72 230V268" stroke="#397D4F" stroke-width="1.2" stroke-dasharray="3 3"/>
<path opacity="0.2" d="M320 230V268" stroke="#397D4F" stroke-width="1.2" stroke-dasharray="3 3"/>
<path opacity="0.4" d="M205 160C207.761 160 210 157.761 210 155C210 152.239 207.761 150 205 150C202.239 150 200 152.239 200 155C200 157.761 202.239 160 205 160Z" fill="#397D4F"/>
<path opacity="0.28" d="M218 151.5C219.933 151.5 221.5 149.933 221.5 148C221.5 146.067 219.933 144.5 218 144.5C216.067 144.5 214.5 146.067 214.5 148C214.5 149.933 216.067 151.5 218 151.5Z" fill="#397D4F"/>
<path opacity="0.22" d="M195 165C196.657 165 198 163.657 198 162C198 160.343 196.657 159 195 159C193.343 159 192 160.343 192 162C192 163.657 193.343 165 195 165Z" fill="#397D4F"/>
</svg>
