<svg width="360" height="355" viewBox="0 0 360 355" fill="none" xmlns="http://www.w3.org/2000/svg">
<path opacity="0.06" d="M180 25.3574V329.643" stroke="#397D4F"/>
<path opacity="0.06" d="M25.7139 177.5H334.285" stroke="#397D4F"/>
<path opacity="0.04" d="M64.2861 63.3926L295.715 291.607" stroke="#397D4F"/>
<path opacity="0.04" d="M295.715 63.3926L64.2861 291.607" stroke="#397D4F"/>
<path opacity="0.08" d="M180 312.738C255.742 312.738 317.143 252.19 317.143 177.5C317.143 102.81 255.742 42.2617 180 42.2617C104.258 42.2617 42.8574 102.81 42.8574 177.5C42.8574 252.19 104.258 312.738 180 312.738Z" stroke="#397D4F"/>
<path opacity="0.1" d="M180 278.928C236.806 278.928 282.857 233.517 282.857 177.5C282.857 121.482 236.806 76.0713 180 76.0713C123.193 76.0713 77.1426 121.482 77.1426 177.5C77.1426 233.517 123.193 278.928 180 278.928Z" stroke="#397D4F"/>
<path opacity="0.13" d="M180 245.119C217.871 245.119 248.572 214.845 248.572 177.5C248.572 140.155 217.871 109.881 180 109.881C142.129 109.881 111.429 140.155 111.429 177.5C111.429 214.845 142.129 245.119 180 245.119Z" stroke="#397D4F"/>
<path opacity="0.18" d="M180 213C199.882 213 216 197.106 216 177.5C216 157.894 199.882 142 180 142C160.118 142 144 157.894 144 177.5C144 197.106 160.118 213 180 213Z" stroke="#397D4F" stroke-width="1.5"/>
<path opacity="0.07" d="M180 308.512C253.375 308.512 312.857 249.856 312.857 177.5C312.857 105.144 253.375 46.4883 180 46.4883C106.625 46.4883 47.1426 105.144 47.1426 177.5C47.1426 249.856 106.625 308.512 180 308.512Z" fill="#397D4F"/>
<path opacity="0.15" d="M77.1426 211.309C85.6036 191.285 99.8862 174.178 118.19 162.145C136.494 150.112 158.001 143.69 180 143.69C201.998 143.69 223.505 150.112 241.809 162.145C260.113 174.178 274.396 191.285 282.857 211.309" stroke="#397D4F" stroke-width="10" stroke-linecap="round"/>
<path opacity="0.55" d="M77.1426 211.309C77.23 192.063 82.4424 173.177 92.258 156.542C102.074 139.906 116.148 126.105 133.073 116.519C149.997 106.933 169.178 101.899 188.696 101.921C208.213 101.943 227.383 107.019 244.285 116.643" stroke="#397D4F" stroke-width="10" stroke-linecap="round"/>
<path opacity="0.8" d="M180 177.5L233.143 125.096" stroke="#397D4F" stroke-width="3" stroke-linecap="round"/>
<path opacity="0.75" d="M180 185.953C184.734 185.953 188.572 182.168 188.572 177.5C188.572 172.832 184.734 169.048 180 169.048C175.266 169.048 171.429 172.832 171.429 177.5C171.429 182.168 175.266 185.953 180 185.953Z" fill="#397D4F"/>
<path opacity="0.5" d="M180 181.726C182.367 181.726 184.285 179.834 184.285 177.5C184.285 175.166 182.367 173.273 180 173.273C177.633 173.273 175.714 175.166 175.714 177.5C175.714 179.834 177.633 181.726 180 181.726Z" fill="#397D4F"/>
<path opacity="0.4" d="M77.1426 211.309L85.714 205.393" stroke="#397D4F" stroke-width="1.5"/>
<path opacity="0.4" d="M96 147.917L102.857 154.679" stroke="#397D4F" stroke-width="1.5"/>
<path opacity="0.4" d="M180 101.429V111.572" stroke="#397D4F" stroke-width="1.5"/>
<path opacity="0.4" d="M264 147.917L257.143 154.679" stroke="#397D4F" stroke-width="1.5"/>
<path opacity="0.4" d="M282.858 211.309L274.286 205.393" stroke="#397D4F" stroke-width="1.5"/>
<path opacity="0.2" d="M114.857 27.0479H30.8567C28.0164 27.0479 25.7139 29.3184 25.7139 32.1193V68.4645C25.7139 71.2654 28.0164 73.5359 30.8567 73.5359H114.857C117.697 73.5359 120 71.2654 120 68.4645V32.1193C120 29.3184 117.697 27.0479 114.857 27.0479Z" fill="#397D4F"/>
<path opacity="0.35" d="M114.857 27.0479H30.8567C28.0164 27.0479 25.7139 29.3184 25.7139 32.1193V33.8098C25.7139 36.6106 28.0164 38.8812 30.8567 38.8812H114.857C117.697 38.8812 120 36.6106 120 33.8098V32.1193C120 29.3184 117.697 27.0479 114.857 27.0479Z" fill="#397D4F"/>
<path opacity="0.45" d="M36 54.0953L51.4286 52.4048L66.8571 54.9405L82.2857 51.5596L97.7143 53.25L109.714 52.4048" stroke="#397D4F" stroke-width="2" stroke-dasharray="4 2"/>
<path opacity="0.2" d="M108.857 62.5479H36.8571C36.3838 62.5479 36 62.9263 36 63.3931V65.9288C36 66.3956 36.3838 66.774 36.8571 66.774H108.857C109.331 66.774 109.714 66.3956 109.714 65.9288V63.3931C109.714 62.9263 109.331 62.5479 108.857 62.5479Z" fill="#397D4F"/>
<path opacity="0.32" d="M329.143 27.0479H245.143C242.303 27.0479 240 29.3184 240 32.1193V68.4645C240 71.2654 242.303 73.5359 245.143 73.5359H329.143C331.983 73.5359 334.286 71.2654 334.286 68.4645V32.1193C334.286 29.3184 331.983 27.0479 329.143 27.0479Z" fill="#397D4F"/>
<path opacity="0.52" d="M329.143 27.0479H245.143C242.303 27.0479 240 29.3184 240 32.1193V33.8098C240 36.6106 242.303 38.8812 245.143 38.8812H329.143C331.983 38.8812 334.286 36.6106 334.286 33.8098V32.1193C334.286 29.3184 331.983 27.0479 329.143 27.0479Z" fill="#397D4F"/>
<path opacity="0.7" d="M250.286 60.8571L258.858 46.488L267.429 63.3928L276 37.1904L284.572 59.1666L293.143 43.9523L301.715 57.4761L310.286 40.5714L318.858 54.9404" stroke="#397D4F" stroke-width="2" stroke-linecap="round" stroke-linejoin="round"/>
<path opacity="0.75" d="M276 40.5715C277.893 40.5715 279.428 39.0578 279.428 37.1905C279.428 35.3233 277.893 33.8096 276 33.8096C274.106 33.8096 272.571 35.3233 272.571 37.1905C272.571 39.0578 274.106 40.5715 276 40.5715Z" fill="#397D4F"/>
<path opacity="0.65" d="M310.286 43.9523C312.18 43.9523 313.715 42.4386 313.715 40.5714C313.715 38.7041 312.18 37.1904 310.286 37.1904C308.392 37.1904 306.857 38.7041 306.857 40.5714C306.857 42.4386 308.392 43.9523 310.286 43.9523Z" fill="#397D4F"/>
<path opacity="0.3" d="M180 62.5476C187.575 62.5476 193.715 56.4928 193.715 49.0238C193.715 41.5548 187.575 35.5 180 35.5C172.426 35.5 166.286 41.5548 166.286 49.0238C166.286 56.4928 172.426 62.5476 180 62.5476Z" fill="#397D4F"/>
<path opacity="0.4" d="M180 57.4761C184.734 57.4761 188.572 53.6918 188.572 49.0237C188.572 44.3555 184.734 40.5713 180 40.5713C175.266 40.5713 171.429 44.3555 171.429 49.0237C171.429 53.6918 175.266 57.4761 180 57.4761Z" fill="#397D4F"/>
<path opacity="0.3" d="M120 59.167C141.429 67.6194 154.286 84.5241 164.571 109.881" stroke="#397D4F" stroke-width="1.5" stroke-dasharray="4 3"/>
<path opacity="0.35" d="M161.143 105.654L165.428 114.107L170.571 106.5L161.143 105.654Z" fill="#397D4F"/>
<path opacity="0.3" d="M240 59.167C218.572 67.6194 204 84.5241 195.429 109.881" stroke="#397D4F" stroke-width="1.5" stroke-dasharray="4 3"/>
<path opacity="0.35" d="M189.429 106.5L194.572 114.952L198.857 106.5H189.429Z" fill="#397D4F"/>
<path opacity="0.28" d="M91.7144 135.238H20.5716C17.7312 135.238 15.4287 137.509 15.4287 140.31V210.464C15.4287 213.265 17.7312 215.536 20.5716 215.536H91.7144C94.5547 215.536 96.8573 213.265 96.8573 210.464V140.31C96.8573 137.509 94.5547 135.238 91.7144 135.238Z" fill="#397D4F"/>
<path opacity="0.48" d="M91.7144 135.238H20.5716C17.7312 135.238 15.4287 137.509 15.4287 140.31V143.691C15.4287 146.492 17.7312 148.762 20.5716 148.762H91.7144C94.5547 148.762 96.8573 146.492 96.8573 143.691V140.31C96.8573 137.509 94.5547 135.238 91.7144 135.238Z" fill="#397D4F"/>
<path opacity="0.4" d="M48 157.214H25.7143C24.7675 157.214 24 157.971 24 158.904V163.976C24 164.909 24.7675 165.666 25.7143 165.666H48C48.9468 165.666 49.7143 164.909 49.7143 163.976V158.904C49.7143 157.971 48.9468 157.214 48 157.214Z" fill="#397D4F"/>
<path opacity="0.2" d="M32.5714 157.214H25.7143C24.7675 157.214 24 157.971 24 158.904V163.976C24 164.909 24.7675 165.666 25.7143 165.666H32.5714C33.5182 165.666 34.2857 164.909 34.2857 163.976V158.904C34.2857 157.971 33.5182 157.214 32.5714 157.214Z" fill="#397D4F"/>
<path opacity="0.3" d="M84.0003 157.214H56.5717C55.6249 157.214 54.8574 157.971 54.8574 158.904V163.976C54.8574 164.909 55.6249 165.666 56.5717 165.666H84.0003C84.9471 165.666 85.7146 164.909 85.7146 163.976V158.904C85.7146 157.971 84.9471 157.214 84.0003 157.214Z" fill="#397D4F"/>
<path opacity="0.35" d="M63.4286 170.738H25.7143C24.7675 170.738 24 171.495 24 172.429V177.5C24 178.434 24.7675 179.191 25.7143 179.191H63.4286C64.3753 179.191 65.1429 178.434 65.1429 177.5V172.429C65.1429 171.495 64.3753 170.738 63.4286 170.738Z" fill="#397D4F"/>
<path opacity="0.55" d="M84.0004 170.738H72.0004C71.0536 170.738 70.2861 171.495 70.2861 172.429V177.5C70.2861 178.434 71.0536 179.191 72.0004 179.191H84.0004C84.9472 179.191 85.7147 178.434 85.7147 177.5V172.429C85.7147 171.495 84.9472 170.738 84.0004 170.738Z" fill="#397D4F"/>
<path opacity="0.55" d="M41.1429 184.262H25.7143C24.7675 184.262 24 185.019 24 185.952V191.024C24 191.957 24.7675 192.714 25.7143 192.714H41.1429C42.0896 192.714 42.8571 191.957 42.8571 191.024V185.952C42.8571 185.019 42.0896 184.262 41.1429 184.262Z" fill="#397D4F"/>
<path opacity="0.25" d="M89.1429 184.262H49.7143C48.7675 184.262 48 185.019 48 185.952V191.024C48 191.957 48.7675 192.714 49.7143 192.714H89.1429C90.0896 192.714 90.8571 191.957 90.8571 191.024V185.952C90.8571 185.019 90.0896 184.262 89.1429 184.262Z" fill="#397D4F"/>
<path opacity="0.2" d="M24 156.369L89.1429 207.083" stroke="#397D4F" stroke-width="1.5" stroke-linecap="round"/>
<path opacity="0.2" d="M89.1429 156.369L24 207.083" stroke="#397D4F" stroke-width="1.5" stroke-linecap="round"/>
<path opacity="0.5" d="M89.1433 216.381C92.9304 216.381 96.0004 213.354 96.0004 209.619C96.0004 205.885 92.9304 202.857 89.1433 202.857C85.3562 202.857 82.2861 205.885 82.2861 209.619C82.2861 213.354 85.3562 216.381 89.1433 216.381Z" fill="#397D4F"/>
<path opacity="0.8" d="M89.1426 206.238V210.464" stroke="white" stroke-width="1.5" stroke-linecap="round"/>
<path opacity="0.8" d="M89.1431 214.268C89.8532 214.268 90.4289 213.7 90.4289 213C90.4289 212.3 89.8532 211.732 89.1431 211.732C88.4331 211.732 87.8574 212.3 87.8574 213C87.8574 213.7 88.4331 214.268 89.1431 214.268Z" fill="white"/>
<path opacity="0.28" d="M339.428 135.238H268.285C265.445 135.238 263.143 137.509 263.143 140.31V210.464C263.143 213.265 265.445 215.536 268.285 215.536H339.428C342.269 215.536 344.571 213.265 344.571 210.464V140.31C344.571 137.509 342.269 135.238 339.428 135.238Z" fill="#397D4F"/>
<path opacity="0.48" d="M339.428 135.238H268.285C265.445 135.238 263.143 137.509 263.143 140.31V143.691C263.143 146.492 265.445 148.762 268.285 148.762H339.428C342.269 148.762 344.571 146.492 344.571 143.691V140.31C344.571 137.509 342.269 135.238 339.428 135.238Z" fill="#397D4F"/>
<path opacity="0.55" d="M271.714 184.262C276 173.274 282.857 167.358 291.428 169.048C300 170.738 301.714 181.727 304.285 184.262" stroke="#397D4F" stroke-width="2" stroke-linecap="round"/>
<path opacity="0.4" d="M287.143 184.262C291.428 169.048 301.714 162.286 312 164.822C322.285 167.357 325.714 177.5 328.285 184.262" stroke="#397D4F" stroke-width="2" stroke-linecap="round" stroke-dasharray="4 2"/>
<path opacity="0.5" d="M291.429 175.81C300 172.429 308.572 171.583 315.429 173.274" stroke="#397D4F" stroke-width="1.5"/>
<path opacity="0.5" d="M312.857 169.048L319.715 173.274L312.857 177.5V169.048Z" fill="#397D4F"/>
<path opacity="0.25" d="M335.142 192.714H272.571C272.098 192.714 271.714 193.092 271.714 193.559V196.095C271.714 196.562 272.098 196.94 272.571 196.94H335.142C335.616 196.94 336 196.562 336 196.095V193.559C336 193.092 335.616 192.714 335.142 192.714Z" fill="#397D4F"/>
<path opacity="0.18" d="M318 201.167H272.571C272.098 201.167 271.714 201.545 271.714 202.012V204.548C271.714 205.015 272.098 205.393 272.571 205.393H318C318.473 205.393 318.857 205.015 318.857 204.548V202.012C318.857 201.545 318.473 201.167 318 201.167Z" fill="#397D4F"/>
<path opacity="0.25" d="M303.429 253.571H56.5716C53.7312 253.571 51.4287 255.842 51.4287 258.643V324.571C51.4287 327.372 53.7312 329.643 56.5716 329.643H303.429C306.269 329.643 308.572 327.372 308.572 324.571V258.643C308.572 255.842 306.269 253.571 303.429 253.571Z" fill="#397D4F"/>
<path opacity="0.45" d="M303.429 253.571H56.5716C53.7312 253.571 51.4287 255.842 51.4287 258.643V262.024C51.4287 264.825 53.7312 267.095 56.5716 267.095H303.429C306.269 267.095 308.572 264.825 308.572 262.024V258.643C308.572 255.842 306.269 253.571 303.429 253.571Z" fill="#397D4F"/>
<path opacity="0.6" d="M65.1426 304.285L82.2854 302.595L99.4283 300.904L109.714 287.381L114.857 267.095L120 262.023L125.143 285.69L135.428 299.214L152.571 300.059L169.714 298.369L180 295.833L190.285 294.143L200.571 278.928L205.714 260.333L210.857 280.619L221.143 295.833L238.285 299.214L255.428 300.904L272.571 300.059L289.714 301.75L298.285 300.904" stroke="#397D4F" stroke-width="2" stroke-linecap="round" stroke-linejoin="round"/>
<path opacity="0.7" d="M120 266.25C122.367 266.25 124.285 264.358 124.285 262.024C124.285 259.69 122.367 257.798 120 257.798C117.633 257.798 115.714 259.69 115.714 262.024C115.714 264.358 117.633 266.25 120 266.25Z" fill="#397D4F"/>
<path opacity="0.7" d="M205.714 264.56C208.081 264.56 210 262.668 210 260.334C210 258 208.081 256.107 205.714 256.107C203.347 256.107 201.429 258 201.429 260.334C201.429 262.668 203.347 264.56 205.714 264.56Z" fill="#397D4F"/>
<path opacity="0.25" d="M65.1426 285.69H298.285" stroke="#397D4F" stroke-dasharray="5 3"/>
<path opacity="0.28" d="M96.8574 177.5C115.715 177.5 132.857 177.5 144 177.5" stroke="#397D4F" stroke-width="1.5" stroke-dasharray="3 3"/>
<path opacity="0.28" d="M263.143 177.5C244.286 177.5 227.143 177.5 216 177.5" stroke="#397D4F" stroke-width="1.5" stroke-dasharray="3 3"/>
</svg>
