<svg width="346" height="359" viewBox="0 0 346 359" fill="none" xmlns="http://www.w3.org/2000/svg">
<path opacity="0.09" d="M173 311.988C252.621 311.988 317.166 250.757 317.166 175.226C317.166 99.6943 252.621 38.4639 173 38.4639C93.3786 38.4639 28.833 99.6943 28.833 175.226C28.833 250.757 93.3786 311.988 173 311.988Z" fill="#397D4F"/>
<path opacity="0.18" d="M109.566 37.6094H27.1855C24.9106 37.6094 23.0664 39.5228 23.0664 41.8832V153.002C23.0664 155.363 24.9106 157.276 27.1855 157.276H109.566C111.841 157.276 113.685 155.363 113.685 153.002V41.8832C113.685 39.5228 111.841 37.6094 109.566 37.6094Z" fill="#397D4F"/>
<path opacity="0.25" d="M104.624 32.4805H22.2431C19.9682 32.4805 18.124 34.3939 18.124 36.7543V147.873C18.124 150.234 19.9682 152.147 22.2431 152.147H104.624C106.899 152.147 108.743 150.234 108.743 147.873V36.7543C108.743 34.3939 106.899 32.4805 104.624 32.4805Z" fill="#397D4F"/>
<path opacity="0.35" d="M99.6807 27.3525H17.2997C15.0248 27.3525 13.1807 29.266 13.1807 31.6263V142.745C13.1807 145.106 15.0248 147.019 17.2997 147.019H99.6807C101.956 147.019 103.8 145.106 103.8 142.745V31.6263C103.8 29.266 101.956 27.3525 99.6807 27.3525Z" fill="#397D4F"/>
<path opacity="0.55" d="M99.6807 27.3525H17.2997C15.0248 27.3525 13.1807 29.266 13.1807 31.6263V36.7549C13.1807 39.1153 15.0248 41.0287 17.2997 41.0287H99.6807C101.956 41.0287 103.8 39.1153 103.8 36.7549V31.6263C103.8 29.266 101.956 27.3525 99.6807 27.3525Z" fill="#397D4F"/>
<path opacity="0.35" d="M91.8545 51.2861H24.3021C23.6197 51.2861 23.0664 51.8602 23.0664 52.5683V55.1326C23.0664 55.8407 23.6197 56.4147 24.3021 56.4147H91.8545C92.537 56.4147 93.0902 55.8407 93.0902 55.1326V52.5683C93.0902 51.8602 92.537 51.2861 91.8545 51.2861Z" fill="#397D4F"/>
<path opacity="0.22" d="M100.093 61.543H24.3021C23.6197 61.543 23.0664 62.117 23.0664 62.8251V65.3894C23.0664 66.0975 23.6197 66.6715 24.3021 66.6715H100.093C100.775 66.6715 101.328 66.0975 101.328 65.3894V62.8251C101.328 62.117 100.775 61.543 100.093 61.543Z" fill="#397D4F"/>
<path opacity="0.35" d="M79.4974 71.7998H24.3021C23.6197 71.7998 23.0664 72.3738 23.0664 73.0819V75.6462C23.0664 76.3543 23.6197 76.9284 24.3021 76.9284H79.4974C80.1798 76.9284 80.7331 76.3543 80.7331 75.6462V73.0819C80.7331 72.3738 80.1798 71.7998 79.4974 71.7998Z" fill="#397D4F"/>
<path opacity="0.22" d="M95.9735 82.0576H24.3021C23.6197 82.0576 23.0664 82.6317 23.0664 83.3398V85.904C23.0664 86.6122 23.6197 87.1862 24.3021 87.1862H95.9735C96.656 87.1862 97.2093 86.6122 97.2093 85.904V83.3398C97.2093 82.6317 96.656 82.0576 95.9735 82.0576Z" fill="#397D4F"/>
<path opacity="0.35" d="M87.7355 92.3145H24.3021C23.6197 92.3145 23.0664 92.8885 23.0664 93.5966V96.1609C23.0664 96.869 23.6197 97.443 24.3021 97.443H87.7355C88.4179 97.443 88.9712 96.869 88.9712 96.1609V93.5966C88.9712 92.8885 88.4179 92.3145 87.7355 92.3145Z" fill="#397D4F"/>
<path opacity="0.22" d="M100.093 102.571H24.3021C23.6197 102.571 23.0664 103.145 23.0664 103.853V106.418C23.0664 107.126 23.6197 107.7 24.3021 107.7H100.093C100.775 107.7 101.328 107.126 101.328 106.418V103.853C101.328 103.145 100.775 102.571 100.093 102.571Z" fill="#397D4F"/>
<path opacity="0.35" d="M71.2593 112.828H24.3021C23.6197 112.828 23.0664 113.402 23.0664 114.11V116.675C23.0664 117.383 23.6197 117.957 24.3021 117.957H71.2593C71.9417 117.957 72.495 117.383 72.495 116.675V114.11C72.495 113.402 71.9417 112.828 71.2593 112.828Z" fill="#397D4F"/>
<path opacity="0.22" d="M94.3259 123.086H24.3021C23.6197 123.086 23.0664 123.66 23.0664 124.368V126.932C23.0664 127.64 23.6197 128.215 24.3021 128.215H94.3259C95.0084 128.215 95.5616 127.64 95.5616 126.932V124.368C95.5616 123.66 95.0084 123.086 94.3259 123.086Z" fill="#397D4F"/>
<path opacity="0.55" d="M93.0908 148.728C98.5505 148.728 102.977 144.136 102.977 138.471C102.977 132.806 98.5505 128.214 93.0908 128.214C87.6311 128.214 83.2051 132.806 83.2051 138.471C83.2051 144.136 87.6311 148.728 93.0908 148.728Z" stroke="#397D4F" stroke-width="2.5"/>
<path opacity="0.4" d="M93.0903 143.6C95.8202 143.6 98.0332 141.304 98.0332 138.471C98.0332 135.639 95.8202 133.343 93.0903 133.343C90.3605 133.343 88.1475 135.639 88.1475 138.471C88.1475 141.304 90.3605 143.6 93.0903 143.6Z" stroke="#397D4F" stroke-width="1.5"/>
<path opacity="0.55" d="M99.6807 145.31L105.447 151.293" stroke="#397D4F" stroke-width="2.5" stroke-linecap="round"/>
<path opacity="0.45" d="M160.643 51.2861V94.0242L138.4 135.053C134.281 141.891 138.4 150.439 146.638 150.439H199.362C207.6 150.439 211.719 141.891 207.6 135.053L185.357 94.0242V51.2861H160.643Z" fill="#397D4F"/>
<path opacity="0.6" d="M186.181 46.1572H159.819C157.999 46.1572 156.523 47.688 156.523 49.5763V52.9953C156.523 54.8836 157.999 56.4144 159.819 56.4144H186.181C188 56.4144 189.476 54.8836 189.476 52.9953V49.5763C189.476 47.688 188 46.1572 186.181 46.1572Z" fill="#397D4F"/>
<path opacity="0.4" d="M164.762 130.778C167.037 130.778 168.881 128.865 168.881 126.504C168.881 124.144 167.037 122.23 164.762 122.23C162.487 122.23 160.643 124.144 160.643 126.504C160.643 128.865 162.487 130.778 164.762 130.778Z" fill="#397D4F"/>
<path opacity="0.3" d="M177.119 141.036C180.304 141.036 182.886 138.357 182.886 135.053C182.886 131.748 180.304 129.069 177.119 129.069C173.934 129.069 171.353 131.748 171.353 135.053C171.353 138.357 173.934 141.036 177.119 141.036Z" fill="#397D4F"/>
<path opacity="0.45" d="M187.828 127.36C189.648 127.36 191.124 125.829 191.124 123.941C191.124 122.052 189.648 120.521 187.828 120.521C186.009 120.521 184.533 122.052 184.533 123.941C184.533 125.829 186.009 127.36 187.828 127.36Z" fill="#397D4F"/>
<path opacity="0.35" d="M170.529 143.6C171.894 143.6 173 142.452 173 141.036C173 139.62 171.894 138.472 170.529 138.472C169.164 138.472 168.058 139.62 168.058 141.036C168.058 142.452 169.164 143.6 170.529 143.6Z" fill="#397D4F"/>
<path opacity="0.2" d="M164.762 68.3809V89.7499L154.876 111.119" stroke="white" stroke-width="1.5" stroke-linecap="round"/>
<path opacity="0.45" d="M230.667 42.7383L243.848 56.4145" stroke="#397D4F" stroke-width="2.5" stroke-linecap="round"/>
<path opacity="0.45" d="M243.848 42.7383L230.667 56.4145" stroke="#397D4F" stroke-width="2.5" stroke-linecap="round"/>
<path opacity="0.3" d="M255.381 61.543L265.267 71.8001" stroke="#397D4F" stroke-width="2" stroke-linecap="round"/>
<path opacity="0.3" d="M265.267 61.543L255.381 71.8001" stroke="#397D4F" stroke-width="2" stroke-linecap="round"/>
<path opacity="0.38" d="M108.743 87.1855C131.81 87.1855 135.929 102.571 148.286 111.119" stroke="#397D4F" stroke-width="1.8" stroke-dasharray="5 3"/>
<path opacity="0.4" d="M143.343 105.136L149.933 113.683L154.876 105.991L143.343 105.136Z" fill="#397D4F"/>
<path opacity="0.32" d="M328.7 68.3809H219.133C216.403 68.3809 214.19 70.677 214.19 73.5094V153.002C214.19 155.835 216.403 158.131 219.133 158.131H328.7C331.43 158.131 333.643 155.835 333.643 153.002V73.5094C333.643 70.677 331.43 68.3809 328.7 68.3809Z" fill="#397D4F"/>
<path opacity="0.52" d="M328.7 68.3809H219.133C216.403 68.3809 214.19 70.677 214.19 73.5094V78.638C214.19 81.4704 216.403 83.7666 219.133 83.7666H328.7C331.43 83.7666 333.643 81.4704 333.643 78.638V73.5094C333.643 70.677 331.43 68.3809 328.7 68.3809Z" fill="#397D4F"/>
<path opacity="0.4" d="M263.619 94.0234H225.724C224.814 94.0234 224.076 94.7888 224.076 95.733V102.571C224.076 103.515 224.814 104.281 225.724 104.281H263.619C264.529 104.281 265.267 103.515 265.267 102.571V95.733C265.267 94.7888 264.529 94.0234 263.619 94.0234Z" fill="#397D4F"/>
<path opacity="0.25" d="M263.619 107.7H225.724C224.814 107.7 224.076 108.466 224.076 109.41V116.248C224.076 117.192 224.814 117.957 225.724 117.957H263.619C264.529 117.957 265.267 117.192 265.267 116.248V109.41C265.267 108.466 264.529 107.7 263.619 107.7Z" fill="#397D4F"/>
<path opacity="0.4" d="M263.619 121.376H225.724C224.814 121.376 224.076 122.141 224.076 123.086V129.924C224.076 130.868 224.814 131.633 225.724 131.633H263.619C264.529 131.633 265.267 130.868 265.267 129.924V123.086C265.267 122.141 264.529 121.376 263.619 121.376Z" fill="#397D4F"/>
<path opacity="0.7" d="M271.857 102.571C273.677 102.571 275.152 101.041 275.152 99.1524C275.152 97.2642 273.677 95.7334 271.857 95.7334C270.037 95.7334 268.562 97.2642 268.562 99.1524C268.562 101.041 270.037 102.571 271.857 102.571Z" fill="#397D4F"/>
<path opacity="0.5" d="M280.095 102.571C281.915 102.571 283.39 101.041 283.39 99.1524C283.39 97.2642 281.915 95.7334 280.095 95.7334C278.275 95.7334 276.8 97.2642 276.8 99.1524C276.8 101.041 278.275 102.571 280.095 102.571Z" fill="#397D4F"/>
<path opacity="0.3" d="M288.333 102.571C290.153 102.571 291.629 101.041 291.629 99.1524C291.629 97.2642 290.153 95.7334 288.333 95.7334C286.513 95.7334 285.038 97.2642 285.038 99.1524C285.038 101.041 286.513 102.571 288.333 102.571Z" fill="#397D4F"/>
<path opacity="0.7" d="M271.857 116.247C273.677 116.247 275.152 114.717 275.152 112.828C275.152 110.94 273.677 109.409 271.857 109.409C270.037 109.409 268.562 110.94 268.562 112.828C268.562 114.717 270.037 116.247 271.857 116.247Z" fill="#397D4F"/>
<path opacity="0.7" d="M280.095 116.247C281.915 116.247 283.39 114.717 283.39 112.828C283.39 110.94 281.915 109.409 280.095 109.409C278.275 109.409 276.8 110.94 276.8 112.828C276.8 114.717 278.275 116.247 280.095 116.247Z" fill="#397D4F"/>
<path opacity="0.3" d="M288.333 116.247C290.153 116.247 291.629 114.717 291.629 112.828C291.629 110.94 290.153 109.409 288.333 109.409C286.513 109.409 285.038 110.94 285.038 112.828C285.038 114.717 286.513 116.247 288.333 116.247Z" fill="#397D4F"/>
<path opacity="0.7" d="M271.857 129.924C273.677 129.924 275.152 128.393 275.152 126.505C275.152 124.617 273.677 123.086 271.857 123.086C270.037 123.086 268.562 124.617 268.562 126.505C268.562 128.393 270.037 129.924 271.857 129.924Z" fill="#397D4F"/>
<path opacity="0.5" d="M280.095 129.924C281.915 129.924 283.39 128.393 283.39 126.505C283.39 124.617 281.915 123.086 280.095 123.086C278.275 123.086 276.8 124.617 276.8 126.505C276.8 128.393 278.275 129.924 280.095 129.924Z" fill="#397D4F"/>
<path opacity="0.7" d="M288.333 129.924C290.153 129.924 291.629 128.393 291.629 126.505C291.629 124.617 290.153 123.086 288.333 123.086C286.513 123.086 285.038 124.617 285.038 126.505C285.038 128.393 286.513 129.924 288.333 129.924Z" fill="#397D4F"/>
<path opacity="0.75" d="M319.638 87.1861C324.188 87.1861 327.877 83.3592 327.877 78.6384C327.877 73.9177 324.188 70.0908 319.638 70.0908C315.089 70.0908 311.4 73.9177 311.4 78.6384C311.4 83.3592 315.089 87.1861 319.638 87.1861Z" fill="#397D4F"/>
<path d="M315.52 78.6381L318.815 82.0571L324.581 74.3643" stroke="white" stroke-width="1.8" stroke-linecap="round" stroke-linejoin="round"/>
<path opacity="0.25" d="M32.9521 226.512H313.047" stroke="#397D4F" stroke-width="2"/>
<path opacity="0.6" d="M61.7854 234.205C65.8802 234.205 69.1997 230.761 69.1997 226.512C69.1997 222.264 65.8802 218.819 61.7854 218.819C57.6906 218.819 54.3711 222.264 54.3711 226.512C54.3711 230.761 57.6906 234.205 61.7854 234.205Z" fill="#397D4F"/>
<path d="M58.4902 226.512L61.3736 229.503L65.9045 223.947" stroke="white" stroke-width="1.5" stroke-linecap="round" stroke-linejoin="round"/>
<path opacity="0.22" d="M76.6147 237.624H46.9576C46.5026 237.624 46.1338 238.007 46.1338 238.479V241.043C46.1338 241.515 46.5026 241.898 46.9576 241.898H76.6147C77.0697 241.898 77.4386 241.515 77.4386 241.043V238.479C77.4386 238.007 77.0697 237.624 76.6147 237.624Z" fill="#397D4F"/>
<path opacity="0.6" d="M131.81 234.205C135.905 234.205 139.224 230.761 139.224 226.512C139.224 222.264 135.905 218.819 131.81 218.819C127.715 218.819 124.396 222.264 124.396 226.512C124.396 230.761 127.715 234.205 131.81 234.205Z" fill="#397D4F"/>
<path d="M128.515 226.512L131.398 229.503L135.929 223.947" stroke="white" stroke-width="1.5" stroke-linecap="round" stroke-linejoin="round"/>
<path opacity="0.22" d="M147.462 237.624H116.157C115.702 237.624 115.333 238.007 115.333 238.479V241.043C115.333 241.515 115.702 241.898 116.157 241.898H147.462C147.917 241.898 148.285 241.515 148.285 241.043V238.479C148.285 238.007 147.917 237.624 147.462 237.624Z" fill="#397D4F"/>
<path opacity="0.6" d="M201.833 234.205C205.928 234.205 209.248 230.761 209.248 226.512C209.248 222.264 205.928 218.819 201.833 218.819C197.738 218.819 194.419 222.264 194.419 226.512C194.419 230.761 197.738 234.205 201.833 234.205Z" fill="#397D4F"/>
<path d="M198.538 226.512L201.421 229.503L205.952 223.947" stroke="white" stroke-width="1.5" stroke-linecap="round" stroke-linejoin="round"/>
<path opacity="0.22" d="M216.662 237.624H187.004C186.549 237.624 186.181 238.007 186.181 238.479V241.043C186.181 241.515 186.549 241.898 187.004 241.898H216.662C217.117 241.898 217.485 241.515 217.485 241.043V238.479C217.485 238.007 217.117 237.624 216.662 237.624Z" fill="#397D4F"/>
<path opacity="0.75" d="M284.214 235.914C289.219 235.914 293.276 231.705 293.276 226.512C293.276 221.319 289.219 217.109 284.214 217.109C279.209 217.109 275.152 221.319 275.152 226.512C275.152 231.705 279.209 235.914 284.214 235.914Z" fill="#397D4F"/>
<path d="M280.096 226.512L283.391 229.931L289.158 222.238" stroke="white" stroke-width="2" stroke-linecap="round" stroke-linejoin="round"/>
<path opacity="0.22" d="M302.338 239.333H266.09C265.635 239.333 265.267 239.716 265.267 240.188V242.752C265.267 243.224 265.635 243.607 266.09 243.607H302.338C302.793 243.607 303.162 243.224 303.162 242.752V240.188C303.162 239.716 302.793 239.333 302.338 239.333Z" fill="#397D4F"/>
<path opacity="0.25" d="M108.742 263.267H29.6567C26.9269 263.267 24.7139 265.563 24.7139 268.395V326.519C24.7139 329.351 26.9269 331.648 29.6567 331.648H108.742C111.472 331.648 113.685 329.351 113.685 326.519V268.395C113.685 265.563 111.472 263.267 108.742 263.267Z" fill="#397D4F"/>
<path opacity="0.45" d="M108.742 263.267H29.6567C26.9269 263.267 24.7139 265.563 24.7139 268.395V270.105C24.7139 272.937 26.9269 275.233 29.6567 275.233H108.742C111.472 275.233 113.685 272.937 113.685 270.105V268.395C113.685 265.563 111.472 263.267 108.742 263.267Z" fill="#397D4F"/>
<path opacity="0.65" d="M36.248 314.553L54.3719 299.167L72.4957 306.005L88.9719 283.781" stroke="#397D4F" stroke-width="2.2" stroke-linecap="round" stroke-linejoin="round"/>
<path opacity="0.75" d="M88.971 287.2C90.7909 287.2 92.2663 285.67 92.2663 283.781C92.2663 281.893 90.7909 280.362 88.971 280.362C87.1511 280.362 85.6758 281.893 85.6758 283.781C85.6758 285.67 87.1511 287.2 88.971 287.2Z" fill="#397D4F"/>
<path opacity="0.25" d="M212.543 263.267H133.458C130.728 263.267 128.515 265.563 128.515 268.395V326.519C128.515 329.351 130.728 331.648 133.458 331.648H212.543C215.273 331.648 217.486 329.351 217.486 326.519V268.395C217.486 265.563 215.273 263.267 212.543 263.267Z" fill="#397D4F"/>
<path opacity="0.45" d="M212.543 263.267H133.458C130.728 263.267 128.515 265.563 128.515 268.395V270.105C128.515 272.937 130.728 275.233 133.458 275.233H212.543C215.273 275.233 217.486 272.937 217.486 270.105V268.395C217.486 265.563 215.273 263.267 212.543 263.267Z" fill="#397D4F"/>
<path opacity="0.4" d="M149.934 297.457H140.048C139.138 297.457 138.4 298.222 138.4 299.167V321.39C138.4 322.335 139.138 323.1 140.048 323.1H149.934C150.844 323.1 151.581 322.335 151.581 321.39V299.167C151.581 298.222 150.844 297.457 149.934 297.457Z" fill="#397D4F"/>
<path opacity="0.55" d="M168.057 287.2H158.171C157.261 287.2 156.523 287.966 156.523 288.91V321.391C156.523 322.335 157.261 323.1 158.171 323.1H168.057C168.967 323.1 169.704 322.335 169.704 321.391V288.91C169.704 287.966 168.967 287.2 168.057 287.2Z" fill="#397D4F"/>
<path opacity="0.65" d="M186.181 280.362H176.295C175.385 280.362 174.647 281.128 174.647 282.072V321.391C174.647 322.335 175.385 323.1 176.295 323.1H186.181C187.091 323.1 187.828 322.335 187.828 321.391V282.072C187.828 281.128 187.091 280.362 186.181 280.362Z" fill="#397D4F"/>
<path opacity="0.45" d="M204.305 290.619H194.419C193.509 290.619 192.771 291.385 192.771 292.329V321.391C192.771 322.335 193.509 323.1 194.419 323.1H204.305C205.215 323.1 205.952 322.335 205.952 321.391V292.329C205.952 291.385 205.215 290.619 204.305 290.619Z" fill="#397D4F"/>
<path opacity="0.25" d="M316.343 263.267H237.257C234.527 263.267 232.314 265.563 232.314 268.395V326.519C232.314 329.351 234.527 331.648 237.257 331.648H316.343C319.073 331.648 321.286 329.351 321.286 326.519V268.395C321.286 265.563 319.073 263.267 316.343 263.267Z" fill="#397D4F"/>
<path opacity="0.45" d="M316.343 263.267H237.257C234.527 263.267 232.314 265.563 232.314 268.395V270.105C232.314 272.937 234.527 275.233 237.257 275.233H316.343C319.073 275.233 321.286 272.937 321.286 270.105V268.395C321.286 265.563 319.073 263.267 316.343 263.267Z" fill="#397D4F"/>
<path opacity="0.2" d="M276.8 322.245C286.809 322.245 294.923 313.826 294.923 303.441C294.923 293.055 286.809 284.636 276.8 284.636C266.79 284.636 258.676 293.055 258.676 303.441C258.676 313.826 266.79 322.245 276.8 322.245Z" stroke="#397D4F" stroke-width="3"/>
<path opacity="0.7" d="M276.8 284.636C279.955 284.571 283.072 285.361 285.842 286.93C288.611 288.498 290.939 290.79 292.593 293.578C294.247 296.366 295.171 299.554 295.274 302.826C295.376 306.098 294.654 309.342 293.177 312.235C291.701 315.129 289.522 317.572 286.856 319.324C284.19 321.075 281.13 322.074 277.977 322.222C274.825 322.37 271.69 321.661 268.883 320.166C266.076 318.671 263.693 316.441 261.972 313.697" stroke="#397D4F" stroke-width="3" stroke-linecap="round"/>
<path opacity="0.55" d="M261.971 317.116C263.791 317.116 265.266 315.586 265.266 313.697C265.266 311.809 263.791 310.278 261.971 310.278C260.151 310.278 258.676 311.809 258.676 313.697C258.676 315.586 260.151 317.116 261.971 317.116Z" fill="#397D4F"/>
<path opacity="0.22" d="M61.7861 234.205L69.2004 263.267" stroke="#397D4F" stroke-width="1.2" stroke-dasharray="3 3"/>
<path opacity="0.22" d="M168.881 234.205L173 263.267" stroke="#397D4F" stroke-width="1.2" stroke-dasharray="3 3"/>
<path opacity="0.22" d="M284.214 235.914L276.8 263.266" stroke="#397D4F" stroke-width="1.2" stroke-dasharray="3 3"/>
<path opacity="0.35" d="M123.571 170.952C125.846 170.952 127.69 169.038 127.69 166.678C127.69 164.318 125.846 162.404 123.571 162.404C121.296 162.404 119.452 164.318 119.452 166.678C119.452 169.038 121.296 170.952 123.571 170.952Z" fill="#397D4F"/>
<path opacity="0.22" d="M135.928 182.064C137.293 182.064 138.4 180.916 138.4 179.5C138.4 178.084 137.293 176.936 135.928 176.936C134.564 176.936 133.457 178.084 133.457 179.5C133.457 180.916 134.564 182.064 135.928 182.064Z" fill="#397D4F"/>
<path opacity="0.2" d="M116.981 186.766C118.573 186.766 119.864 185.426 119.864 183.774C119.864 182.122 118.573 180.782 116.981 180.782C115.389 180.782 114.098 182.122 114.098 183.774C114.098 185.426 115.389 186.766 116.981 186.766Z" fill="#397D4F"/>
</svg>
