<svg width="365" height="387" viewBox="0 0 365 387" fill="none" xmlns="http://www.w3.org/2000/svg">
<g clip-path="url(#clip0_1_6836)">
<path opacity="0.08" d="M45.19 182.22C24.3328 206.516 15.6424 237.753 27.809 268.991C39.9757 300.229 66.0471 314.112 97.3328 308.906C128.619 303.7 149.476 282.875 158.166 253.372C166.857 223.87 159.904 190.897 142.523 168.336C125.142 145.776 95.5947 137.099 72.9995 147.511C50.4043 157.924 36.4995 187.426 45.19 182.22Z" fill="#397D4F"/>
<path opacity="0.06" d="M234.643 303.7C309.037 303.7 369.345 249.311 369.345 182.22C369.345 115.129 309.037 60.7402 234.643 60.7402C160.249 60.7402 99.9404 115.129 99.9404 182.22C99.9404 249.311 160.249 303.7 234.643 303.7Z" fill="#397D4F"/>
<path opacity="0.14" d="M95.5953 93.7129H31.2858C29.3659 93.7129 27.8096 95.2668 27.8096 97.1837V180.484C27.8096 182.401 29.3659 183.955 31.2858 183.955H95.5953C97.5151 183.955 99.0715 182.401 99.0715 180.484V97.1837C99.0715 95.2668 97.5151 93.7129 95.5953 93.7129Z" fill="#397D4F"/>
<path opacity="0.18" d="M88.6431 86.7715H24.3336C22.4138 86.7715 20.8574 88.3254 20.8574 90.2423V173.543C20.8574 175.46 22.4138 177.014 24.3336 177.014H88.6431C90.563 177.014 92.1193 175.46 92.1193 173.543V90.2423C92.1193 88.3254 90.563 86.7715 88.6431 86.7715Z" fill="#397D4F"/>
<path opacity="0.28" d="M81.69 79.8301H17.3805C15.4606 79.8301 13.9043 81.384 13.9043 83.3009V166.601C13.9043 168.518 15.4606 170.072 17.3805 170.072H81.69C83.6099 170.072 85.1662 168.518 85.1662 166.601V83.3009C85.1662 81.384 83.6099 79.8301 81.69 79.8301Z" fill="#397D4F"/>
<path opacity="0.48" d="M81.69 79.8301H17.3805C15.4606 79.8301 13.9043 81.384 13.9043 83.3009V93.7135C13.9043 95.6304 15.4606 97.1843 17.3805 97.1843H81.69C83.6099 97.1843 85.1662 95.6304 85.1662 93.7135V83.3009C85.1662 81.384 83.6099 79.8301 81.69 79.8301Z" fill="#397D4F"/>
<path opacity="0.32" d="M77.3455 105.861H21.7265C21.2465 105.861 20.8574 106.25 20.8574 106.729V109.332C20.8574 109.811 21.2465 110.2 21.7265 110.2H77.3455C77.8255 110.2 78.2146 109.811 78.2146 109.332V106.729C78.2146 106.25 77.8255 105.861 77.3455 105.861Z" fill="#397D4F"/>
<path opacity="0.26" d="M66.9169 116.273H21.7265C21.2465 116.273 20.8574 116.662 20.8574 117.141V119.744C20.8574 120.224 21.2465 120.612 21.7265 120.612H66.9169C67.3969 120.612 67.786 120.224 67.786 119.744V117.141C67.786 116.662 67.3969 116.273 66.9169 116.273Z" fill="#397D4F"/>
<path opacity="0.22" d="M72.1312 126.687H21.7265C21.2465 126.687 20.8574 127.075 20.8574 127.554V130.157C20.8574 130.637 21.2465 131.025 21.7265 131.025H72.1312C72.6112 131.025 73.0003 130.637 73.0003 130.157V127.554C73.0003 127.075 72.6112 126.687 72.1312 126.687Z" fill="#397D4F"/>
<path opacity="0.18" d="M59.9646 137.099H21.7265C21.2465 137.099 20.8574 137.487 20.8574 137.966V140.569C20.8574 141.049 21.2465 141.437 21.7265 141.437H59.9646C60.4445 141.437 60.8336 141.049 60.8336 140.569V137.966C60.8336 137.487 60.4445 137.099 59.9646 137.099Z" fill="#397D4F"/>
<path opacity="0.16" d="M68.655 147.511H21.7265C21.2465 147.511 20.8574 147.899 20.8574 148.378V150.982C20.8574 151.461 21.2465 151.849 21.7265 151.849H68.655C69.135 151.849 69.5241 151.461 69.5241 150.982V148.378C69.5241 147.899 69.135 147.511 68.655 147.511Z" fill="#397D4F"/>
<path opacity="0.38" d="M69.5234 79.8301L85.1663 95.4489H69.5234V79.8301Z" fill="#397D4F"/>
<path opacity="0.22" d="M81.69 178.749H17.3805C15.4606 178.749 13.9043 180.303 13.9043 182.22V190.897C13.9043 192.814 15.4606 194.368 17.3805 194.368H81.69C83.6099 194.368 85.1662 192.814 85.1662 190.897V182.22C85.1662 180.303 83.6099 178.749 81.69 178.749Z" fill="#397D4F"/>
<path opacity="0.3" d="M61.7025 182.22H19.9882C19.5082 182.22 19.1191 182.608 19.1191 183.087V185.691C19.1191 186.17 19.5082 186.558 19.9882 186.558H61.7025C62.1824 186.558 62.5715 186.17 62.5715 185.691V183.087C62.5715 182.608 62.1824 182.22 61.7025 182.22Z" fill="#397D4F"/>
<path opacity="0.78" d="M76.4761 189.162C78.8759 189.162 80.8213 187.219 80.8213 184.823C80.8213 182.427 78.8759 180.484 76.4761 180.484C74.0763 180.484 72.1309 182.427 72.1309 184.823C72.1309 187.219 74.0763 189.162 76.4761 189.162Z" fill="#95DE64"/>
<path opacity="0.44" d="M85.167 124.95C102.548 124.95 112.977 137.098 128.619 138.834" stroke="#397D4F" stroke-width="2" stroke-linecap="round"/>
<path opacity="0.55" d="M125.143 133.628L133.833 138.834L125.143 144.04V133.628Z" fill="#397D4F"/>
<path opacity="0.46" d="M97.3337 127.988C99.0135 127.988 100.375 126.628 100.375 124.951C100.375 123.274 99.0135 121.914 97.3337 121.914C95.6538 121.914 94.292 123.274 94.292 124.951C94.292 126.628 95.6538 127.988 97.3337 127.988Z" fill="#397D4F"/>
<path opacity="0.36" d="M111.238 132.76C112.678 132.76 113.845 131.595 113.845 130.157C113.845 128.719 112.678 127.554 111.238 127.554C109.798 127.554 108.631 128.719 108.631 130.157C108.631 131.595 109.798 132.76 111.238 132.76Z" fill="#397D4F"/>
<path opacity="0.24" d="M236.381 95.4482H133.833C130.954 95.4482 128.619 97.7792 128.619 100.655V211.722C128.619 214.597 130.954 216.928 133.833 216.928H236.381C239.261 216.928 241.595 214.597 241.595 211.722V100.655C241.595 97.7792 239.261 95.4482 236.381 95.4482Z" fill="#397D4F"/>
<path opacity="0.46" d="M236.381 95.4482H133.833C130.954 95.4482 128.619 97.7792 128.619 100.655V109.332C128.619 112.207 130.954 114.538 133.833 114.538H236.381C239.261 114.538 241.595 112.207 241.595 109.332V100.655C241.595 97.7792 239.261 95.4482 236.381 95.4482Z" fill="#397D4F"/>
<path opacity="0.65" d="M140.786 108.898C142.946 108.898 144.696 107.15 144.696 104.994C144.696 102.837 142.946 101.089 140.786 101.089C138.626 101.089 136.875 102.837 136.875 104.994C136.875 107.15 138.626 108.898 140.786 108.898Z" fill="#397D4F"/>
<path opacity="0.45" d="M152.084 108.898C154.243 108.898 155.994 107.15 155.994 104.994C155.994 102.837 154.243 101.089 152.084 101.089C149.924 101.089 148.173 102.837 148.173 104.994C148.173 107.15 149.924 108.898 152.084 108.898Z" fill="#397D4F"/>
<path opacity="0.28" d="M163.381 108.898C165.541 108.898 167.292 107.15 167.292 104.994C167.292 102.837 165.541 101.089 163.381 101.089C161.222 101.089 159.471 102.837 159.471 104.994C159.471 107.15 161.222 108.898 163.381 108.898Z" fill="#397D4F"/>
<path opacity="0.52" d="M139.048 130.157C147.738 124.951 154.691 135.363 163.381 130.157C172.072 124.951 179.024 135.363 187.715 130.157C196.405 124.951 203.357 135.363 212.048 130.157C220.738 124.951 227.691 135.363 234.643 130.157" stroke="#397D4F" stroke-width="2" stroke-linecap="round"/>
<path opacity="0.38" d="M139.048 143.173C147.738 137.967 154.691 148.379 163.381 143.173C172.072 137.967 179.024 148.379 187.715 143.173C196.405 137.967 203.357 148.379 212.048 143.173C220.738 137.967 227.691 148.379 234.643 143.173" stroke="#397D4F" stroke-width="1.6" stroke-linecap="round"/>
<path opacity="0.28" d="M139.048 156.188C147.738 150.982 154.691 161.395 163.381 156.188C172.072 150.982 179.024 161.395 187.715 156.188C196.405 150.982 203.357 161.395 212.048 156.188C220.738 150.982 227.691 161.395 234.643 156.188" stroke="#397D4F" stroke-width="1.2" stroke-linecap="round"/>
<path opacity="0.8" d="M187.714 133.628C189.634 133.628 191.191 132.074 191.191 130.157C191.191 128.24 189.634 126.687 187.714 126.687C185.795 126.687 184.238 128.24 184.238 130.157C184.238 132.074 185.795 133.628 187.714 133.628Z" fill="#95DE64"/>
<path opacity="0.6" d="M163.381 146.21C165.06 146.21 166.422 144.85 166.422 143.173C166.422 141.495 165.06 140.136 163.381 140.136C161.701 140.136 160.339 141.495 160.339 143.173C160.339 144.85 161.701 146.21 163.381 146.21Z" fill="#95DE64"/>
<path opacity="0.2" d="M230.298 173.543H139.917C138.477 173.543 137.31 174.708 137.31 176.146V203.913C137.31 205.351 138.477 206.516 139.917 206.516H230.298C231.738 206.516 232.905 205.351 232.905 203.913V176.146C232.905 174.708 231.738 173.543 230.298 173.543Z" fill="#397D4F"/>
<path opacity="0.66" d="M149.476 190.897C152.356 190.897 154.69 188.566 154.69 185.691C154.69 182.815 152.356 180.484 149.476 180.484C146.596 180.484 144.262 182.815 144.262 185.691C144.262 188.566 146.596 190.897 149.476 190.897Z" fill="#397D4F"/>
<path d="M146.869 185.691L149.042 187.86L152.952 183.521" stroke="white" stroke-width="1.4" stroke-linecap="round" stroke-linejoin="round"/>
<path opacity="0.28" d="M225.083 181.352H160.773C160.293 181.352 159.904 181.74 159.904 182.219V184.822C159.904 185.302 160.293 185.69 160.773 185.69H225.083C225.563 185.69 225.952 185.302 225.952 184.822V182.219C225.952 181.74 225.563 181.352 225.083 181.352Z" fill="#397D4F"/>
<path opacity="0.2" d="M209.44 190.896H160.773C160.293 190.896 159.904 191.285 159.904 191.764V194.367C159.904 194.847 160.293 195.235 160.773 195.235H209.44C209.92 195.235 210.309 194.847 210.309 194.367V191.764C210.309 191.285 209.92 190.896 209.44 190.896Z" fill="#397D4F"/>
<path opacity="0.16" d="M226.822 200.441H141.655C141.175 200.441 140.786 200.83 140.786 201.309V203.045C140.786 203.524 141.175 203.912 141.655 203.912H226.822C227.302 203.912 227.691 203.524 227.691 203.045V201.309C227.691 200.83 227.302 200.441 226.822 200.441Z" fill="#397D4F"/>
<path opacity="0.4" d="M241.596 138.834C260.715 138.834 271.143 128.421 283.31 121.479" stroke="#397D4F" stroke-width="1.8" stroke-linecap="round"/>
<path opacity="0.36" d="M241.596 156.188C262.453 156.188 276.358 156.188 290.262 156.188" stroke="#397D4F" stroke-width="1.8" stroke-linecap="round"/>
<path opacity="0.32" d="M241.596 173.543C260.715 173.543 271.143 183.956 283.31 189.162" stroke="#397D4F" stroke-width="1.8" stroke-linecap="round"/>
<path opacity="0.54" d="M243.333 161.395C246.213 161.395 248.548 159.064 248.548 156.189C248.548 153.313 246.213 150.982 243.333 150.982C240.454 150.982 238.119 153.313 238.119 156.189C238.119 159.064 240.454 161.395 243.333 161.395Z" fill="#397D4F"/>
<path opacity="0.28" d="M351.096 100.654H290.262C288.342 100.654 286.786 102.208 286.786 104.125V133.627C286.786 135.544 288.342 137.098 290.262 137.098H351.096C353.016 137.098 354.572 135.544 354.572 133.627V104.125C354.572 102.208 353.016 100.654 351.096 100.654Z" fill="#397D4F"/>
<path opacity="0.48" d="M351.096 100.654H290.262C288.342 100.654 286.786 102.208 286.786 104.125V109.331C286.786 111.248 288.342 112.802 290.262 112.802H351.096C353.016 112.802 354.572 111.248 354.572 109.331V104.125C354.572 102.208 353.016 100.654 351.096 100.654Z" fill="#397D4F"/>
<path opacity="0.28" d="M339.798 119.744H294.607C294.127 119.744 293.738 120.133 293.738 120.612V123.215C293.738 123.694 294.127 124.083 294.607 124.083H339.798C340.278 124.083 340.667 123.694 340.667 123.215V120.612C340.667 120.133 340.278 119.744 339.798 119.744Z" fill="#397D4F"/>
<path opacity="0.18" d="M329.369 129.289H294.607C294.127 129.289 293.738 129.678 293.738 130.157V132.76C293.738 133.239 294.127 133.628 294.607 133.628H329.369C329.849 133.628 330.238 133.239 330.238 132.76V130.157C330.238 129.678 329.849 129.289 329.369 129.289Z" fill="#397D4F"/>
<path opacity="0.7" d="M345.881 111.068C348.281 111.068 350.227 109.125 350.227 106.729C350.227 104.333 348.281 102.391 345.881 102.391C343.482 102.391 341.536 104.333 341.536 106.729C341.536 109.125 343.482 111.068 345.881 111.068Z" fill="#397D4F"/>
<path d="M343.273 106.729L345.446 108.898L349.357 104.56" stroke="white" stroke-width="1.3" stroke-linecap="round" stroke-linejoin="round"/>
<path opacity="0.26" d="M358.048 143.173H297.214C295.295 143.173 293.738 144.727 293.738 146.644V176.146C293.738 178.063 295.295 179.617 297.214 179.617H358.048C359.968 179.617 361.524 178.063 361.524 176.146V146.644C361.524 144.727 359.968 143.173 358.048 143.173Z" fill="#397D4F"/>
<path opacity="0.44" d="M358.048 143.173H297.214C295.295 143.173 293.738 144.727 293.738 146.644V151.85C293.738 153.767 295.295 155.321 297.214 155.321H358.048C359.968 155.321 361.524 153.767 361.524 151.85V146.644C361.524 144.727 359.968 143.173 358.048 143.173Z" fill="#397D4F"/>
<path opacity="0.26" d="M346.75 162.263H301.559C301.08 162.263 300.69 162.651 300.69 163.13V165.734C300.69 166.213 301.08 166.601 301.559 166.601H346.75C347.23 166.601 347.619 166.213 347.619 165.734V163.13C347.619 162.651 347.23 162.263 346.75 162.263Z" fill="#397D4F"/>
<path opacity="0.18" d="M332.845 171.808H301.559C301.08 171.808 300.69 172.196 300.69 172.675V175.278C300.69 175.758 301.08 176.146 301.559 176.146H332.845C333.325 176.146 333.714 175.758 333.714 175.278V172.675C333.714 172.196 333.325 171.808 332.845 171.808Z" fill="#397D4F"/>
<path opacity="0.78" d="M352.834 153.585C355.233 153.585 357.179 151.643 357.179 149.247C357.179 146.851 355.233 144.908 352.834 144.908C350.434 144.908 348.488 146.851 348.488 149.247C348.488 151.643 350.434 153.585 352.834 153.585Z" fill="#95DE64"/>
<path opacity="0.24" d="M351.096 183.955H290.262C288.342 183.955 286.786 185.509 286.786 187.426V216.928C286.786 218.845 288.342 220.399 290.262 220.399H351.096C353.016 220.399 354.572 218.845 354.572 216.928V187.426C354.572 185.509 353.016 183.955 351.096 183.955Z" fill="#397D4F"/>
<path opacity="0.4" d="M351.096 183.955H290.262C288.342 183.955 286.786 185.509 286.786 187.426V192.632C286.786 194.549 288.342 196.103 290.262 196.103H351.096C353.016 196.103 354.572 194.549 354.572 192.632V187.426C354.572 185.509 353.016 183.955 351.096 183.955Z" fill="#397D4F"/>
<path opacity="0.24" d="M339.798 203.045H294.607C294.127 203.045 293.738 203.433 293.738 203.913V206.516C293.738 206.995 294.127 207.383 294.607 207.383H339.798C340.278 207.383 340.667 206.995 340.667 206.516V203.913C340.667 203.433 340.278 203.045 339.798 203.045Z" fill="#397D4F"/>
<path opacity="0.16" d="M331.107 212.59H294.607C294.127 212.59 293.738 212.978 293.738 213.458V216.061C293.738 216.54 294.127 216.928 294.607 216.928H331.107C331.587 216.928 331.976 216.54 331.976 216.061V213.458C331.976 212.978 331.587 212.59 331.107 212.59Z" fill="#397D4F"/>
<path opacity="0.54" d="M345.881 194.368C348.281 194.368 350.227 192.425 350.227 190.029C350.227 187.633 348.281 185.69 345.881 185.69C343.482 185.69 341.536 187.633 341.536 190.029C341.536 192.425 343.482 194.368 345.881 194.368Z" fill="#397D4F"/>
<path d="M343.273 190.029L345.446 192.198L349.357 187.859" stroke="white" stroke-width="1.3" stroke-linecap="round" stroke-linejoin="round"/>
<path opacity="0.18" d="M333.714 242.96H31.2856C28.4058 242.96 26.0713 245.291 26.0713 248.166V341.879C26.0713 344.755 28.4058 347.086 31.2856 347.086H333.714C336.594 347.086 338.928 344.755 338.928 341.879V248.166C338.928 245.291 336.594 242.96 333.714 242.96Z" fill="#397D4F"/>
<path opacity="0.38" d="M333.714 242.96H31.2856C28.4058 242.96 26.0713 245.291 26.0713 248.166V255.108C26.0713 257.983 28.4058 260.314 31.2856 260.314H333.714C336.594 260.314 338.928 257.983 338.928 255.108V248.166C338.928 245.291 336.594 242.96 333.714 242.96Z" fill="#397D4F"/>
<path opacity="0.58" d="M39.9762 255.108C41.896 255.108 43.4524 253.554 43.4524 251.637C43.4524 249.72 41.896 248.166 39.9762 248.166C38.0563 248.166 36.5 249.72 36.5 251.637C36.5 253.554 38.0563 255.108 39.9762 255.108Z" fill="#397D4F"/>
<path opacity="0.4" d="M50.4049 255.108C52.3247 255.108 53.8811 253.554 53.8811 251.637C53.8811 249.72 52.3247 248.166 50.4049 248.166C48.4851 248.166 46.9287 249.72 46.9287 251.637C46.9287 253.554 48.4851 255.108 50.4049 255.108Z" fill="#397D4F"/>
<path opacity="0.24" d="M60.8336 255.108C62.7535 255.108 64.3098 253.554 64.3098 251.637C64.3098 249.72 62.7535 248.166 60.8336 248.166C58.9138 248.166 57.3574 249.72 57.3574 251.637C57.3574 253.554 58.9138 255.108 60.8336 255.108Z" fill="#397D4F"/>
<path opacity="0.18" d="M43.4521 329.73H325.024" stroke="#397D4F"/>
<path opacity="0.55" d="M43.4521 324.525C69.5236 322.789 95.595 319.319 121.666 312.377C147.738 303.7 173.809 288.081 199.881 267.256C225.952 246.431 260.714 273.33 286.785 277.668C304.166 281.139 314.595 282.875 325.024 279.404" stroke="#397D4F" stroke-width="2" stroke-linecap="round"/>
<path opacity="0.08" d="M43.4521 324.525C69.5236 322.789 95.595 319.319 121.666 312.377C147.738 303.7 173.809 288.081 199.881 267.256C225.952 246.431 260.714 273.33 286.785 277.668C304.166 281.139 314.595 282.875 325.024 279.404V329.731H43.4521V324.525Z" fill="#397D4F"/>
<path opacity="0.5" d="M121.667 315.848C123.586 315.848 125.143 314.294 125.143 312.377C125.143 310.46 123.586 308.906 121.667 308.906C119.747 308.906 118.19 310.46 118.19 312.377C118.19 314.294 119.747 315.848 121.667 315.848Z" fill="#397D4F"/>
<path opacity="0.82" d="M199.881 271.594C202.281 271.594 204.227 269.652 204.227 267.256C204.227 264.859 202.281 262.917 199.881 262.917C197.482 262.917 195.536 264.859 195.536 267.256C195.536 269.652 197.482 271.594 199.881 271.594Z" fill="#95DE64"/>
<path opacity="0.46" d="M325.024 282.874C326.944 282.874 328.5 281.32 328.5 279.403C328.5 277.487 326.944 275.933 325.024 275.933C323.104 275.933 321.548 277.487 321.548 279.403C321.548 281.32 323.104 282.874 325.024 282.874Z" fill="#397D4F"/>
<path opacity="0.2" d="M86.0353 333.202H70.3925C69.9125 333.202 69.5234 333.591 69.5234 334.07V334.938C69.5234 335.417 69.9125 335.805 70.3925 335.805H86.0353C86.5153 335.805 86.9044 335.417 86.9044 334.938V334.07C86.9044 333.591 86.5153 333.202 86.0353 333.202Z" fill="#397D4F"/>
<path opacity="0.2" d="M159.035 333.202H143.392C142.913 333.202 142.523 333.591 142.523 334.07V334.938C142.523 335.417 142.913 335.805 143.392 335.805H159.035C159.515 335.805 159.904 335.417 159.904 334.938V334.07C159.904 333.591 159.515 333.202 159.035 333.202Z" fill="#397D4F"/>
<path opacity="0.2" d="M232.035 333.202H216.392C215.913 333.202 215.523 333.591 215.523 334.07V334.938C215.523 335.417 215.913 335.805 216.392 335.805H232.035C232.515 335.805 232.904 335.417 232.904 334.938V334.07C232.904 333.591 232.515 333.202 232.035 333.202Z" fill="#397D4F"/>
<path opacity="0.2" d="M305.035 333.202H289.392C288.913 333.202 288.523 333.591 288.523 334.07V334.938C288.523 335.417 288.913 335.805 289.392 335.805H305.035C305.515 335.805 305.904 335.417 305.904 334.938V334.07C305.904 333.591 305.515 333.202 305.035 333.202Z" fill="#397D4F"/>
<path opacity="0.28" d="M199.881 267.256V329.731" stroke="#397D4F" stroke-dasharray="3 3"/>
<path opacity="0.28" d="M221.607 256.843H176.417C174.977 256.843 173.81 258.008 173.81 259.446V269.858C173.81 271.296 174.977 272.462 176.417 272.462H221.607C223.047 272.462 224.214 271.296 224.214 269.858V259.446C224.214 258.008 223.047 256.843 221.607 256.843Z" fill="#397D4F"/>
<path opacity="0.4" d="M211.178 260.313H179.892C179.413 260.313 179.023 260.702 179.023 261.181V263.784C179.023 264.264 179.413 264.652 179.892 264.652H211.178C211.658 264.652 212.047 264.264 212.047 263.784V261.181C212.047 260.702 211.658 260.313 211.178 260.313Z" fill="#397D4F"/>
<path opacity="0.24" d="M202.488 268.123H179.892C179.413 268.123 179.023 268.512 179.023 268.991V270.726C179.023 271.205 179.413 271.594 179.892 271.594H202.488C202.968 271.594 203.357 271.205 203.357 270.726V268.991C203.357 268.512 202.968 268.123 202.488 268.123Z" fill="#397D4F"/>
<path opacity="0.28" d="M13.9049 59.4383C16.0647 59.4383 17.8156 57.6901 17.8156 55.5336C17.8156 53.3771 16.0647 51.6289 13.9049 51.6289C11.745 51.6289 9.99414 53.3771 9.99414 55.5336C9.99414 57.6901 11.745 59.4383 13.9049 59.4383Z" fill="#397D4F"/>
<path opacity="0.18" d="M24.3337 49.4592C25.7736 49.4592 26.9408 48.2937 26.9408 46.8561C26.9408 45.4184 25.7736 44.2529 24.3337 44.2529C22.8938 44.2529 21.7266 45.4184 21.7266 46.8561C21.7266 48.2937 22.8938 49.4592 24.3337 49.4592Z" fill="#397D4F"/>
<path opacity="0.44" d="M351.095 59.0042C353.015 59.0042 354.572 57.4503 354.572 55.5334C354.572 53.6165 353.015 52.0625 351.095 52.0625C349.175 52.0625 347.619 53.6165 347.619 55.5334C347.619 57.4503 349.175 59.0042 351.095 59.0042Z" fill="#95DE64"/>
<path opacity="0.28" d="M340.667 244.695C342.586 244.695 344.143 243.141 344.143 241.224C344.143 239.307 342.586 237.753 340.667 237.753C338.747 237.753 337.19 239.307 337.19 241.224C337.19 243.141 338.747 244.695 340.667 244.695Z" fill="#397D4F"/>
<path opacity="0.16" d="M351.095 234.716C352.295 234.716 353.268 233.745 353.268 232.547C353.268 231.349 352.295 230.378 351.095 230.378C349.896 230.378 348.923 231.349 348.923 232.547C348.923 233.745 349.896 234.716 351.095 234.716Z" fill="#397D4F"/>
<path opacity="0.24" d="M13.9049 225.172C15.5848 225.172 16.9466 223.812 16.9466 222.135C16.9466 220.457 15.5848 219.098 13.9049 219.098C12.2251 219.098 10.8633 220.457 10.8633 222.135C10.8633 223.812 12.2251 225.172 13.9049 225.172Z" fill="#397D4F"/>
</g>
<defs>
<clipPath id="clip0_1_6836">
<rect width="365" height="387" fill="white"/>
</clipPath>
</defs>
</svg>
