<svg width="323" height="419" viewBox="0 0 323 419" fill="none" xmlns="http://www.w3.org/2000/svg">
<g clip-path="url(#clip0_1_7150)">
<path opacity="0.07" d="M305 170C328 145 338 108 322 72.0002C306 36.0002 276 20.0002 242 27.0002C208 34.0002 184 60.0002 174 96.0002C164 132 170 172 190 200C210 228 248 238 278 226C308 214 320 202 305 170Z" fill="#397D4F"/>
<path opacity="0.06" d="M145 390C219.558 390 280 336.274 280 270C280 203.726 219.558 150 145 150C70.4416 150 10 203.726 10 270C10 336.274 70.4416 390 145 390Z" fill="#397D4F"/>
<path opacity="0.32" d="M231 18H93C90.2386 18 88 20.2386 88 23V37C88 39.7614 90.2386 42 93 42H231C233.761 42 236 39.7614 236 37V23C236 20.2386 233.761 18 231 18Z" fill="#397D4F"/>
<path opacity="0.72" d="M104 35C106.761 35 109 32.7614 109 30C109 27.2386 106.761 25 104 25C101.239 25 99 27.2386 99 30C99 32.7614 101.239 35 104 35Z" fill="#397D4F"/>
<path d="M101 30L103.5 32.5L108 27.5" stroke="white" stroke-width="1.4" stroke-linecap="round" stroke-linejoin="round"/>
<path opacity="0.32" d="M223 25H117C116.448 25 116 25.4477 116 26V29C116 29.5523 116.448 30 117 30H223C223.552 30 224 29.5523 224 29V26C224 25.4477 223.552 25 223 25Z" fill="#397D4F"/>
<path opacity="0.2" d="M195 34H117C116.448 34 116 34.4477 116 35V37C116 37.5523 116.448 38 117 38H195C195.552 38 196 37.5523 196 37V35C196 34.4477 195.552 34 195 34Z" fill="#397D4F"/>
<path opacity="0.2" d="M95 56H17C14.2386 56 12 58.2386 12 61V251C12 253.761 14.2386 256 17 256H95C97.7614 256 100 253.761 100 251V61C100 58.2386 97.7614 56 95 56Z" fill="#397D4F"/>
<path opacity="0.44" d="M95 56H17C14.2386 56 12 58.2386 12 61V71C12 73.7614 14.2386 76 17 76H95C97.7614 76 100 73.7614 100 71V61C100 58.2386 97.7614 56 95 56Z" fill="#397D4F"/>
<path opacity="0.82" d="M86 72C89.3137 72 92 69.3137 92 66C92 62.6863 89.3137 60 86 60C82.6863 60 80 62.6863 80 66C80 69.3137 82.6863 72 86 72Z" fill="#95DE64"/>
<path opacity="0.13" d="M56 148C71.464 148 84 135.464 84 120C84 104.536 71.464 92 56 92C40.536 92 28 104.536 28 120C28 135.464 40.536 148 56 148Z" stroke="#397D4F" stroke-width="2.5"/>
<path opacity="0.22" d="M31 138C33.3342 133.372 36.9073 129.483 41.3212 126.765C45.7351 124.048 50.8167 122.609 56 122.609C61.1833 122.609 66.2649 124.048 70.6788 126.765C75.0927 129.483 78.6658 133.372 81 138" stroke="#397D4F" stroke-width="2.5" stroke-linecap="round"/>
<path opacity="0.65" d="M31.0003 138C28.002 132.425 26.9813 125.998 28.1046 119.769C29.2279 113.539 32.429 107.874 37.1858 103.697C41.9425 99.5204 47.9741 97.0788 54.2967 96.7705C60.6194 96.4623 66.8599 98.3056 72.0003 102" stroke="#397D4F" stroke-width="2.5" stroke-linecap="round"/>
<path opacity="0.58" d="M56 120L70 104" stroke="#397D4F" stroke-width="2" stroke-linecap="round"/>
<path opacity="0.62" d="M56 124C58.2091 124 60 122.209 60 120C60 117.791 58.2091 116 56 116C53.7909 116 52 117.791 52 120C52 122.209 53.7909 124 56 124Z" fill="#397D4F"/>
<path opacity="0.28" d="M89 162H23C22.4477 162 22 162.448 22 163V166C22 166.552 22.4477 167 23 167H89C89.5523 167 90 166.552 90 166V163C90 162.448 89.5523 162 89 162Z" fill="#397D4F"/>
<path opacity="0.22" d="M73 174H23C22.4477 174 22 174.448 22 175V178C22 178.552 22.4477 179 23 179H73C73.5523 179 74 178.552 74 178V175C74 174.448 73.5523 174 73 174Z" fill="#397D4F"/>
<path opacity="0.18" d="M81 186H23C22.4477 186 22 186.448 22 187V190C22 190.552 22.4477 191 23 191H81C81.5523 191 82 190.552 82 190V187C82 186.448 81.5523 186 81 186Z" fill="#397D4F"/>
<path opacity="0.14" d="M88 208H24C22.8954 208 22 208.895 22 210V211C22 212.105 22.8954 213 24 213H88C89.1046 213 90 212.105 90 211V210C90 208.895 89.1046 208 88 208Z" fill="#397D4F"/>
<path opacity="0.4" d="M76 208H24C22.8954 208 22 208.895 22 210V211C22 212.105 22.8954 213 24 213H76C77.1046 213 78 212.105 78 211V210C78 208.895 77.1046 208 76 208Z" fill="#397D4F"/>
<path opacity="0.14" d="M88 220H24C22.8954 220 22 220.895 22 222V223C22 224.105 22.8954 225 24 225H88C89.1046 225 90 224.105 90 223V222C90 220.895 89.1046 220 88 220Z" fill="#397D4F"/>
<path opacity="0.32" d="M64 220H24C22.8954 220 22 220.895 22 222V223C22 224.105 22.8954 225 24 225H64C65.1046 225 66 224.105 66 223V222C66 220.895 65.1046 220 64 220Z" fill="#397D4F"/>
<path opacity="0.14" d="M88 232H24C22.8954 232 22 232.895 22 234V235C22 236.105 22.8954 237 24 237H88C89.1046 237 90 236.105 90 235V234C90 232.895 89.1046 232 88 232Z" fill="#397D4F"/>
<path opacity="0.48" d="M82 232H24C22.8954 232 22 232.895 22 234V235C22 236.105 22.8954 237 24 237H82C83.1046 237 84 236.105 84 235V234C84 232.895 83.1046 232 82 232Z" fill="#397D4F"/>
<path opacity="0.22" d="M201 56H123C120.239 56 118 58.2386 118 61V251C118 253.761 120.239 256 123 256H201C203.761 256 206 253.761 206 251V61C206 58.2386 203.761 56 201 56Z" fill="#397D4F"/>
<path opacity="0.46" d="M201 56H123C120.239 56 118 58.2386 118 61V71C118 73.7614 120.239 76 123 76H201C203.761 76 206 73.7614 206 71V61C206 58.2386 203.761 56 201 56Z" fill="#397D4F"/>
<path opacity="0.8" d="M192 72C195.314 72 198 69.3137 198 66C198 62.6863 195.314 60 192 60C188.686 60 186 62.6863 186 66C186 69.3137 188.686 72 192 72Z" fill="#397D4F"/>
<path d="M189 66L191.5 68.5L196 63.5" stroke="white" stroke-width="1.4" stroke-linecap="round" stroke-linejoin="round"/>
<path opacity="0.18" d="M162 96L194 108V148C194 168 180 180 162 186C144 180 130 168 130 148V108L162 96Z" fill="#397D4F"/>
<path opacity="0.26" d="M162 108L184 117V146C184 160 174 170 162 175C150 170 140 160 140 146V117L162 108Z" fill="#397D4F"/>
<path opacity="0.52" d="M167 148H157C155.343 148 154 149.343 154 151V158C154 159.657 155.343 161 157 161H167C168.657 161 170 159.657 170 158V151C170 149.343 168.657 148 167 148Z" fill="#397D4F"/>
<path opacity="0.55" d="M157 148V143C157 139.5 167 139.5 167 143V148" stroke="#397D4F" stroke-width="2" stroke-linecap="round"/>
<path opacity="0.7" d="M162 158C163.657 158 165 156.657 165 155C165 153.343 163.657 152 162 152C160.343 152 159 153.343 159 155C159 156.657 160.343 158 162 158Z" fill="#397D4F"/>
<path opacity="0.26" d="M195 205H129C128.448 205 128 205.448 128 206V209C128 209.552 128.448 210 129 210H195C195.552 210 196 209.552 196 209V206C196 205.448 195.552 205 195 205Z" fill="#397D4F"/>
<path opacity="0.2" d="M179 217H129C128.448 217 128 217.448 128 218V221C128 221.552 128.448 222 129 222H179C179.552 222 180 221.552 180 221V218C180 217.448 179.552 217 179 217Z" fill="#397D4F"/>
<path opacity="0.18" d="M187 229H129C128.448 229 128 229.448 128 230V233C128 233.552 128.448 234 129 234H187C187.552 234 188 233.552 188 233V230C188 229.448 187.552 229 187 229Z" fill="#397D4F"/>
<path opacity="0.14" d="M171 241H129C128.448 241 128 241.448 128 242V245C128 245.552 128.448 246 129 246H171C171.552 246 172 245.552 172 245V242C172 241.448 171.552 241 171 241Z" fill="#397D4F"/>
<path opacity="0.2" d="M307 56H229C226.239 56 224 58.2386 224 61V251C224 253.761 226.239 256 229 256H307C309.761 256 312 253.761 312 251V61C312 58.2386 309.761 56 307 56Z" fill="#397D4F"/>
<path opacity="0.42" d="M307 56H229C226.239 56 224 58.2386 224 61V71C224 73.7614 226.239 76 229 76H307C309.761 76 312 73.7614 312 71V61C312 58.2386 309.761 56 307 56Z" fill="#397D4F"/>
<path opacity="0.64" d="M298 72C301.314 72 304 69.3137 304 66C304 62.6863 301.314 60 298 60C294.686 60 292 62.6863 292 66C292 69.3137 294.686 72 298 72Z" fill="#397D4F"/>
<path d="M295 66L297.5 68.5L302 63.5" stroke="white" stroke-width="1.4" stroke-linecap="round" stroke-linejoin="round"/>
<path opacity="0.44" d="M268 209C285.673 209 300 204.971 300 200C300 195.029 285.673 191 268 191C250.327 191 236 195.029 236 200C236 204.971 250.327 209 268 209Z" fill="#397D4F"/>
<path opacity="0.36" d="M268 194C285.673 194 300 189.971 300 185C300 180.029 285.673 176 268 176C250.327 176 236 180.029 236 185C236 189.971 250.327 194 268 194Z" fill="#397D4F"/>
<path opacity="0.28" d="M268 179C285.673 179 300 174.971 300 170C300 165.029 285.673 161 268 161C250.327 161 236 165.029 236 170C236 174.971 250.327 179 268 179Z" fill="#397D4F"/>
<path opacity="0.22" d="M268 164C285.673 164 300 159.971 300 155C300 150.029 285.673 146 268 146C250.327 146 236 150.029 236 155C236 159.971 250.327 164 268 164Z" fill="#397D4F"/>
<path opacity="0.16" d="M268 149C285.673 149 300 144.971 300 140C300 135.029 285.673 131 268 131C250.327 131 236 135.029 236 140C236 144.971 250.327 149 268 149Z" fill="#397D4F"/>
<path opacity="0.1" d="M268 134C285.673 134 300 129.971 300 125C300 120.029 285.673 116 268 116C250.327 116 236 120.029 236 125C236 129.971 250.327 134 268 134Z" fill="#397D4F"/>
<path opacity="0.24" d="M236 125V200" stroke="#397D4F" stroke-width="1.2"/>
<path opacity="0.24" d="M300 125V200" stroke="#397D4F" stroke-width="1.2"/>
<path opacity="0.38" d="M268 190V118" stroke="#397D4F" stroke-width="2" stroke-linecap="round"/>
<path opacity="0.52" d="M262 124L268 112L274 124H262Z" fill="#397D4F"/>
<path opacity="0.76" d="M268 115C270.761 115 273 112.761 273 110C273 107.239 270.761 105 268 105C265.239 105 263 107.239 263 110C263 112.761 265.239 115 268 115Z" fill="#95DE64"/>
<path opacity="0.24" d="M301 215H235C234.448 215 234 215.448 234 216V219C234 219.552 234.448 220 235 220H301C301.552 220 302 219.552 302 219V216C302 215.448 301.552 215 301 215Z" fill="#397D4F"/>
<path opacity="0.18" d="M283 227H235C234.448 227 234 227.448 234 228V231C234 231.552 234.448 232 235 232H283C283.552 232 284 231.552 284 231V228C284 227.448 283.552 227 283 227Z" fill="#397D4F"/>
<path opacity="0.14" d="M291 239H235C234.448 239 234 239.448 234 240V243C234 243.552 234.448 244 235 244H291C291.552 244 292 243.552 292 243V240C292 239.448 291.552 239 291 239Z" fill="#397D4F"/>
<path opacity="0.22" d="M309 262H15C13.3431 262 12 263.343 12 265C12 266.657 13.3431 268 15 268H309C310.657 268 312 266.657 312 265C312 263.343 310.657 262 309 262Z" fill="#397D4F"/>
<path opacity="0.52" d="M56 270C58.7614 270 61 267.761 61 265C61 262.239 58.7614 260 56 260C53.2386 260 51 262.239 51 265C51 267.761 53.2386 270 56 270Z" fill="#397D4F"/>
<path opacity="0.52" d="M162 270C164.761 270 167 267.761 167 265C167 262.239 164.761 260 162 260C159.239 260 157 262.239 157 265C157 267.761 159.239 270 162 270Z" fill="#397D4F"/>
<path opacity="0.52" d="M268 270C270.761 270 273 267.761 273 265C273 262.239 270.761 260 268 260C265.239 260 263 262.239 263 265C263 267.761 265.239 270 268 270Z" fill="#397D4F"/>
<path opacity="0.22" d="M280 282H44C40.6863 282 38 284.686 38 288V372C38 375.314 40.6863 378 44 378H280C283.314 378 286 375.314 286 372V288C286 284.686 283.314 282 280 282Z" fill="#397D4F"/>
<path opacity="0.42" d="M280 282H44C40.6863 282 38 284.686 38 288V296C38 299.314 40.6863 302 44 302H280C283.314 302 286 299.314 286 296V288C286 284.686 283.314 282 280 282Z" fill="#397D4F"/>
<path opacity="0.68" d="M52 296.5C54.4853 296.5 56.5 294.485 56.5 292C56.5 289.515 54.4853 287.5 52 287.5C49.5147 287.5 47.5 289.515 47.5 292C47.5 294.485 49.5147 296.5 52 296.5Z" fill="#397D4F"/>
<path opacity="0.48" d="M65 296.5C67.4853 296.5 69.5 294.485 69.5 292C69.5 289.515 67.4853 287.5 65 287.5C62.5147 287.5 60.5 289.515 60.5 292C60.5 294.485 62.5147 296.5 65 296.5Z" fill="#397D4F"/>
<path opacity="0.28" d="M78 296.5C80.4853 296.5 82.5 294.485 82.5 292C82.5 289.515 80.4853 287.5 78 287.5C75.5147 287.5 73.5 289.515 73.5 292C73.5 294.485 75.5147 296.5 78 296.5Z" fill="#397D4F"/>
<path opacity="0.16" d="M110 312H52C50.8954 312 50 312.895 50 314V317C50 318.105 50.8954 319 52 319H110C111.105 319 112 318.105 112 317V314C112 312.895 111.105 312 110 312Z" fill="#397D4F"/>
<path opacity="0.45" d="M104 312H52C50.8954 312 50 312.895 50 314V317C50 318.105 50.8954 319 52 319H104C105.105 319 106 318.105 106 317V314C106 312.895 105.105 312 104 312Z" fill="#397D4F"/>
<path opacity="0.14" d="M110 326H52C50.8954 326 50 326.895 50 328V331C50 332.105 50.8954 333 52 333H110C111.105 333 112 332.105 112 331V328C112 326.895 111.105 326 110 326Z" fill="#397D4F"/>
<path opacity="0.38" d="M88 326H52C50.8954 326 50 326.895 50 328V331C50 332.105 50.8954 333 52 333H88C89.1046 333 90 332.105 90 331V328C90 326.895 89.1046 326 88 326Z" fill="#397D4F"/>
<path opacity="0.12" d="M110 340H52C50.8954 340 50 340.895 50 342V345C50 346.105 50.8954 347 52 347H110C111.105 347 112 346.105 112 345V342C112 340.895 111.105 340 110 340Z" fill="#397D4F"/>
<path opacity="0.3" d="M98 340H52C50.8954 340 50 340.895 50 342V345C50 346.105 50.8954 347 52 347H98C99.1046 347 100 346.105 100 345V342C100 340.895 99.1046 340 98 340Z" fill="#397D4F"/>
<path opacity="0.18" d="M124 308V372" stroke="#397D4F"/>
<path opacity="0.14" d="M192 312H134C132.895 312 132 312.895 132 314V317C132 318.105 132.895 319 134 319H192C193.105 319 194 318.105 194 317V314C194 312.895 193.105 312 192 312Z" fill="#397D4F"/>
<path opacity="0.4" d="M178 312H134C132.895 312 132 312.895 132 314V317C132 318.105 132.895 319 134 319H178C179.105 319 180 318.105 180 317V314C180 312.895 179.105 312 178 312Z" fill="#397D4F"/>
<path opacity="0.12" d="M192 326H134C132.895 326 132 326.895 132 328V331C132 332.105 132.895 333 134 333H192C193.105 333 194 332.105 194 331V328C194 326.895 193.105 326 192 326Z" fill="#397D4F"/>
<path opacity="0.46" d="M190 326H134C132.895 326 132 326.895 132 328V331C132 332.105 132.895 333 134 333H190C191.105 333 192 332.105 192 331V328C192 326.895 191.105 326 190 326Z" fill="#397D4F"/>
<path opacity="0.1" d="M192 340H134C132.895 340 132 340.895 132 342V345C132 346.105 132.895 347 134 347H192C193.105 347 194 346.105 194 345V342C194 340.895 193.105 340 192 340Z" fill="#397D4F"/>
<path opacity="0.32" d="M166 340H134C132.895 340 132 340.895 132 342V345C132 346.105 132.895 347 134 347H166C167.105 347 168 346.105 168 345V342C168 340.895 167.105 340 166 340Z" fill="#397D4F"/>
<path opacity="0.18" d="M206 308V372" stroke="#397D4F"/>
<path opacity="0.14" d="M274 312H216C214.895 312 214 312.895 214 314V317C214 318.105 214.895 319 216 319H274C275.105 319 276 318.105 276 317V314C276 312.895 275.105 312 274 312Z" fill="#397D4F"/>
<path opacity="0.42" d="M264 312H216C214.895 312 214 312.895 214 314V317C214 318.105 214.895 319 216 319H264C265.105 319 266 318.105 266 317V314C266 312.895 265.105 312 264 312Z" fill="#397D4F"/>
<path opacity="0.12" d="M274 326H216C214.895 326 214 326.895 214 328V331C214 332.105 214.895 333 216 333H274C275.105 333 276 332.105 276 331V328C276 326.895 275.105 326 274 326Z" fill="#397D4F"/>
<path opacity="0.35" d="M254 326H216C214.895 326 214 326.895 214 328V331C214 332.105 214.895 333 216 333H254C255.105 333 256 332.105 256 331V328C256 326.895 255.105 326 254 326Z" fill="#397D4F"/>
<path opacity="0.1" d="M274 340H216C214.895 340 214 340.895 214 342V345C214 346.105 214.895 347 216 347H274C275.105 347 276 346.105 276 345V342C276 340.895 275.105 340 274 340Z" fill="#397D4F"/>
<path opacity="0.5" d="M270 340H216C214.895 340 214 340.895 214 342V345C214 346.105 214.895 347 216 347H270C271.105 347 272 346.105 272 345V342C272 340.895 271.105 340 270 340Z" fill="#397D4F"/>
<path opacity="0.78" d="M52 373C54.7614 373 57 370.761 57 368C57 365.239 54.7614 363 52 363C49.2386 363 47 365.239 47 368C47 370.761 49.2386 373 52 373Z" fill="#95DE64"/>
<path opacity="0.22" d="M273 364H65C64.4477 364 64 364.448 64 365V369C64 369.552 64.4477 370 65 370H273C273.552 370 274 369.552 274 369V365C274 364.448 273.552 364 273 364Z" fill="#397D4F"/>
<path opacity="0.28" d="M56 270V282" stroke="#397D4F" stroke-width="1.5"/>
<path opacity="0.28" d="M162 270V282" stroke="#397D4F" stroke-width="1.5"/>
<path opacity="0.28" d="M268 270V282" stroke="#397D4F" stroke-width="1.5"/>
<path opacity="0.28" d="M10 44C12.2091 44 14 42.2091 14 40C14 37.7909 12.2091 36 10 36C7.79086 36 6 37.7909 6 40C6 42.2091 7.79086 44 10 44Z" fill="#397D4F"/>
<path opacity="0.18" d="M22 32.5C23.3807 32.5 24.5 31.3807 24.5 30C24.5 28.6193 23.3807 27.5 22 27.5C20.6193 27.5 19.5 28.6193 19.5 30C19.5 31.3807 20.6193 32.5 22 32.5Z" fill="#397D4F"/>
<path opacity="0.45" d="M312 44.5C314.485 44.5 316.5 42.4853 316.5 40C316.5 37.5147 314.485 35.5 312 35.5C309.515 35.5 307.5 37.5147 307.5 40C307.5 42.4853 309.515 44.5 312 44.5Z" fill="#95DE64"/>
<path opacity="0.2" d="M300 32.5C301.381 32.5 302.5 31.3807 302.5 30C302.5 28.6193 301.381 27.5 300 27.5C298.619 27.5 297.5 28.6193 297.5 30C297.5 31.3807 298.619 32.5 300 32.5Z" fill="#397D4F"/>
<path opacity="0.24" d="M8 298.5C9.933 298.5 11.5 296.933 11.5 295C11.5 293.067 9.933 291.5 8 291.5C6.067 291.5 4.5 293.067 4.5 295C4.5 296.933 6.067 298.5 8 298.5Z" fill="#397D4F"/>
<path opacity="0.22" d="M315 298.5C316.933 298.5 318.5 296.933 318.5 295C318.5 293.067 316.933 291.5 315 291.5C313.067 291.5 311.5 293.067 311.5 295C311.5 296.933 313.067 298.5 315 298.5Z" fill="#397D4F"/>
<path opacity="0.26" d="M162 413C164.761 413 167 410.761 167 408C167 405.239 164.761 403 162 403C159.239 403 157 405.239 157 408C157 410.761 159.239 413 162 413Z" fill="#397D4F"/>
<path opacity="0.14" d="M150 418.5C151.381 418.5 152.5 417.381 152.5 416C152.5 414.619 151.381 413.5 150 413.5C148.619 413.5 147.5 414.619 147.5 416C147.5 417.381 148.619 418.5 150 418.5Z" fill="#397D4F"/>
</g>
<defs>
<clipPath id="clip0_1_7150">
<rect width="323" height="419" fill="white"/>
</clipPath>
</defs>
</svg>
