<svg width="323" height="419" viewBox="0 0 323 419" fill="none" xmlns="http://www.w3.org/2000/svg">
<path opacity="0.08" d="M162 340C244.843 340 312 277.32 312 200C312 122.68 244.843 60 162 60C79.1573 60 12 122.68 12 200C12 277.32 79.1573 340 162 340Z" fill="#397D4F"/>
<path opacity="0.06" d="M290 160C315 132 325 94.9997 310 61.9997C295 28.9997 265 13.9997 232 19.9997C199 25.9997 176 51.9997 166 87.9997C156 124 160 165 180 192C200 219 236 230 262 218C288 206 302 192 290 160Z" fill="#397D4F"/>
<path opacity="0.16" d="M162 48L252 116L220 220H104L72 116L162 48Z" stroke="#397D4F" stroke-width="1.2"/>
<path opacity="0.18" d="M162 76L228 128L205 204H119L96 128L162 76Z" stroke="#397D4F" stroke-width="1.2"/>
<path opacity="0.22" d="M162 104L204 140L190 188H134L120 140L162 104Z" stroke="#397D4F" stroke-width="1.2"/>
<path opacity="0.28" d="M162 132L180 152L175 172H149L144 152L162 132Z" stroke="#397D4F" stroke-width="1.2"/>
<path opacity="0.14" d="M162 48V220" stroke="#397D4F"/>
<path opacity="0.14" d="M252 116H72" stroke="#397D4F"/>
<path opacity="0.1" d="M220 220L104 48" stroke="#397D4F"/>
<path opacity="0.1" d="M104 220L220 48" stroke="#397D4F"/>
<path opacity="0.12" d="M162 68L238 130L200 210H124L86 130L162 68Z" fill="#397D4F"/>
<path opacity="0.42" d="M162 68L238 130L200 210H124L86 130L162 68Z" stroke="#397D4F" stroke-width="2"/>
<path opacity="0.82" d="M162 74C165.314 74 168 71.3137 168 68C168 64.6863 165.314 62 162 62C158.686 62 156 64.6863 156 68C156 71.3137 158.686 74 162 74Z" fill="#95DE64"/>
<path opacity="0.7" d="M238 136C241.314 136 244 133.314 244 130C244 126.686 241.314 124 238 124C234.686 124 232 126.686 232 130C232 133.314 234.686 136 238 136Z" fill="#397D4F"/>
<path opacity="0.65" d="M200 216C203.314 216 206 213.314 206 210C206 206.686 203.314 204 200 204C196.686 204 194 206.686 194 210C194 213.314 196.686 216 200 216Z" fill="#397D4F"/>
<path opacity="0.6" d="M124 216C127.314 216 130 213.314 130 210C130 206.686 127.314 204 124 204C120.686 204 118 206.686 118 210C118 213.314 120.686 216 124 216Z" fill="#397D4F"/>
<path opacity="0.72" d="M86 136C89.3137 136 92 133.314 92 130C92 126.686 89.3137 124 86 124C82.6863 124 80 126.686 80 130C80 133.314 82.6863 136 86 136Z" fill="#397D4F"/>
<path opacity="0.36" d="M162 144C167.523 144 172 139.523 172 134C172 128.477 167.523 124 162 124C156.477 124 152 128.477 152 134C152 139.523 156.477 144 162 144Z" fill="#397D4F"/>
<path opacity="0.62" d="M162 139C164.761 139 167 136.761 167 134C167 131.239 164.761 129 162 129C159.239 129 157 131.239 157 134C157 136.761 159.239 139 162 139Z" fill="#397D4F"/>
<path opacity="0.24" d="M103 14H13C10.2386 14 8 16.2386 8 19V81C8 83.7614 10.2386 86 13 86H103C105.761 86 108 83.7614 108 81V19C108 16.2386 105.761 14 103 14Z" fill="#397D4F"/>
<path opacity="0.44" d="M103 14H13C10.2386 14 8 16.2386 8 19V27C8 29.7614 10.2386 32 13 32H103C105.761 32 108 29.7614 108 27V19C108 16.2386 105.761 14 103 14Z" fill="#397D4F"/>
<path opacity="0.62" d="M22 27C24.2091 27 26 25.2091 26 23C26 20.7909 24.2091 19 22 19C19.7909 19 18 20.7909 18 23C18 25.2091 19.7909 27 22 27Z" fill="#397D4F"/>
<path opacity="0.44" d="M34 27C36.2091 27 38 25.2091 38 23C38 20.7909 36.2091 19 34 19C31.7909 19 30 20.7909 30 23C30 25.2091 31.7909 27 34 27Z" fill="#397D4F"/>
<path opacity="0.28" d="M46 27C48.2091 27 50 25.2091 50 23C50 20.7909 48.2091 19 46 19C43.7909 19 42 20.7909 42 23C42 25.2091 43.7909 27 46 27Z" fill="#397D4F"/>
<path opacity="0.6" d="M16 54H28L34 40L40 68L46 40L52 68L58 54H70L76 42L82 54H100" stroke="#397D4F" stroke-width="1.8" stroke-linecap="round" stroke-linejoin="round"/>
<path opacity="0.82" d="M76 45.5C77.933 45.5 79.5 43.933 79.5 42C79.5 40.067 77.933 38.5 76 38.5C74.067 38.5 72.5 40.067 72.5 42C72.5 43.933 74.067 45.5 76 45.5Z" fill="#95DE64"/>
<path opacity="0.24" d="M83 74H15C14.4477 74 14 74.4477 14 75V77C14 77.5523 14.4477 78 15 78H83C83.5523 78 84 77.5523 84 77V75C84 74.4477 83.5523 74 83 74Z" fill="#397D4F"/>
<path opacity="0.16" d="M67 82H15C14.4477 82 14 82.4477 14 83V85C14 85.5523 14.4477 86 15 86H67C67.5523 86 68 85.5523 68 85V83C68 82.4477 67.5523 82 67 82Z" fill="#397D4F"/>
<path opacity="0.32" d="M108 52C124 52 134 58 140 70" stroke="#397D4F" stroke-width="1.5" stroke-dasharray="4 3"/>
<path opacity="0.38" d="M116 55C117.657 55 119 53.6569 119 52C119 50.3431 117.657 49 116 49C114.343 49 113 50.3431 113 52C113 53.6569 114.343 55 116 55Z" fill="#397D4F"/>
<path opacity="0.24" d="M310 14H220C217.239 14 215 16.2386 215 19V81C215 83.7614 217.239 86 220 86H310C312.761 86 315 83.7614 315 81V19C315 16.2386 312.761 14 310 14Z" fill="#397D4F"/>
<path opacity="0.42" d="M310 14H220C217.239 14 215 16.2386 215 19V27C215 29.7614 217.239 32 220 32H310C312.761 32 315 29.7614 315 27V19C315 16.2386 312.761 14 310 14Z" fill="#397D4F"/>
<path opacity="0.38" d="M254 38H226C224.343 38 223 39.3431 223 41V55C223 56.6569 224.343 58 226 58H254C255.657 58 257 56.6569 257 55V41C257 39.3431 255.657 38 254 38Z" fill="#397D4F"/>
<path opacity="0.28" d="M253 41H227C225.895 41 225 41.8954 225 43V53C225 54.1046 225.895 55 227 55H253C254.105 55 255 54.1046 255 53V43C255 41.8954 254.105 41 253 41Z" fill="#397D4F"/>
<path opacity="0.22" d="M305 38H265C263.895 38 263 38.8954 263 40V44C263 45.1046 263.895 46 265 46H305C306.105 46 307 45.1046 307 44V40C307 38.8954 306.105 38 305 38Z" fill="#397D4F"/>
<path opacity="0.18" d="M297 52H265C263.895 52 263 52.8954 263 54V58C263 59.1046 263.895 60 265 60H297C298.105 60 299 59.1046 299 58V54C299 52.8954 298.105 52 297 52Z" fill="#397D4F"/>
<path opacity="0.8" d="M225 76C227.209 76 229 74.2091 229 72C229 69.7909 227.209 68 225 68C222.791 68 221 69.7909 221 72C221 74.2091 222.791 76 225 76Z" fill="#95DE64"/>
<path opacity="0.52" d="M237 76C239.209 76 241 74.2091 241 72C241 69.7909 239.209 68 237 68C234.791 68 233 69.7909 233 72C233 74.2091 234.791 76 237 76Z" fill="#397D4F"/>
<path opacity="0.35" d="M249 76C251.209 76 253 74.2091 253 72C253 69.7909 251.209 68 249 68C246.791 68 245 69.7909 245 72C245 74.2091 246.791 76 249 76Z" fill="#397D4F"/>
<path opacity="0.24" d="M305 69H259C258.448 69 258 69.4477 258 70V73C258 73.5523 258.448 74 259 74H305C305.552 74 306 73.5523 306 73V70C306 69.4477 305.552 69 305 69Z" fill="#397D4F"/>
<path opacity="0.3" d="M215 52C203 52 194 56 186 68" stroke="#397D4F" stroke-width="1.5" stroke-dasharray="4 3"/>
<path opacity="0.36" d="M207 55C208.657 55 210 53.6569 210 52C210 50.3431 208.657 49 207 49C205.343 49 204 50.3431 204 52C204 53.6569 205.343 55 207 55Z" fill="#397D4F"/>
<path opacity="0.22" d="M111 232H13C10.2386 232 8 234.239 8 237V337C8 339.761 10.2386 342 13 342H111C113.761 342 116 339.761 116 337V237C116 234.239 113.761 232 111 232Z" fill="#397D4F"/>
<path opacity="0.42" d="M111 232H13C10.2386 232 8 234.239 8 237V245C8 247.761 10.2386 250 13 250H111C113.761 250 116 247.761 116 245V237C116 234.239 113.761 232 111 232Z" fill="#397D4F"/>
<path opacity="0.18" d="M62 320C75.2548 320 86 309.255 86 296C86 282.745 75.2548 272 62 272C48.7452 272 38 282.745 38 296C38 309.255 48.7452 320 62 320Z" stroke="#397D4F" stroke-width="2.5"/>
<path opacity="0.58" d="M62 272C66.1535 272.214 70.1802 273.503 73.6852 275.742C77.1903 277.981 80.0534 281.092 81.9939 284.771C83.9343 288.449 84.8856 292.569 84.7543 296.726C84.623 300.883 83.4137 304.934 81.245 308.483C79.0763 312.032 76.0226 314.956 72.3833 316.969C68.7439 318.982 64.6439 320.015 60.4852 319.967C56.3265 319.918 52.2518 318.789 48.6606 316.691C45.0694 314.594 42.085 311.599 40 308" stroke="#397D4F" stroke-width="2.5" stroke-linecap="round"/>
<path opacity="0.58" d="M36 310L40 322L48 312L36 310Z" fill="#397D4F"/>
<path opacity="0.4" d="M72 290H52C50.8954 290 50 290.895 50 292V296C50 297.105 50.8954 298 52 298H72C73.1046 298 74 297.105 74 296V292C74 290.895 73.1046 290 72 290Z" fill="#397D4F"/>
<path opacity="0.28" d="M116 286C130 260 140 242 144 210" stroke="#397D4F" stroke-width="1.5" stroke-dasharray="4 3"/>
<path opacity="0.22" d="M107 328H17C16.4477 328 16 328.448 16 329V332C16 332.552 16.4477 333 17 333H107C107.552 333 108 332.552 108 332V329C108 328.448 107.552 328 107 328Z" fill="#397D4F"/>
<path opacity="0.16" d="M89 338H17C16.4477 338 16 338.448 16 339V342C16 342.552 16.4477 343 17 343H89C89.5523 343 90 342.552 90 342V339C90 338.448 89.5523 338 89 338Z" fill="#397D4F"/>
<path opacity="0.22" d="M310 232H212C209.239 232 207 234.239 207 237V337C207 339.761 209.239 342 212 342H310C312.761 342 315 339.761 315 337V237C315 234.239 312.761 232 310 232Z" fill="#397D4F"/>
<path opacity="0.4" d="M310 232H212C209.239 232 207 234.239 207 237V245C207 247.761 209.239 250 212 250H310C312.761 250 315 247.761 315 245V237C315 234.239 312.761 232 310 232Z" fill="#397D4F"/>
<path opacity="0.36" d="M253 260H221C219.343 260 218 261.343 218 263V309C218 310.657 219.343 312 221 312H253C254.657 312 256 310.657 256 309V263C256 261.343 254.657 260 253 260Z" fill="#397D4F"/>
<path opacity="0.54" d="M253 260H221C219.343 260 218 261.343 218 263V267C218 268.657 219.343 270 221 270H253C254.657 270 256 268.657 256 267V263C256 261.343 254.657 260 253 260Z" fill="#397D4F"/>
<path opacity="0.78" d="M252 268.5C253.933 268.5 255.5 266.933 255.5 265C255.5 263.067 253.933 261.5 252 261.5C250.067 261.5 248.5 263.067 248.5 265C248.5 266.933 250.067 268.5 252 268.5Z" fill="#95DE64"/>
<path opacity="0.28" d="M249 278H225C224.448 278 224 278.448 224 279V280C224 280.552 224.448 281 225 281H249C249.552 281 250 280.552 250 280V279C250 278.448 249.552 278 249 278Z" fill="#397D4F"/>
<path opacity="0.22" d="M243 286H225C224.448 286 224 286.448 224 287V288C224 288.552 224.448 289 225 289H243C243.552 289 244 288.552 244 288V287C244 286.448 243.552 286 243 286Z" fill="#397D4F"/>
<path opacity="0.18" d="M247 294H225C224.448 294 224 294.448 224 295V296C224 296.552 224.448 297 225 297H247C247.552 297 248 296.552 248 296V295C248 294.448 247.552 294 247 294Z" fill="#397D4F"/>
<path opacity="0.5" d="M258 284C262 280 266 280 270 284" stroke="#397D4F" stroke-width="1.8" stroke-linecap="round"/>
<path opacity="0.5" d="M258 288C262 292 266 292 270 288" stroke="#397D4F" stroke-width="1.8" stroke-linecap="round"/>
<path opacity="0.28" d="M305 260H273C271.343 260 270 261.343 270 263V309C270 310.657 271.343 312 273 312H305C306.657 312 308 310.657 308 309V263C308 261.343 306.657 260 305 260Z" fill="#397D4F"/>
<path opacity="0.44" d="M305 260H273C271.343 260 270 261.343 270 263V267C270 268.657 271.343 270 273 270H305C306.657 270 308 268.657 308 267V263C308 261.343 306.657 260 305 260Z" fill="#397D4F"/>
<path opacity="0.52" d="M304 268.5C305.933 268.5 307.5 266.933 307.5 265C307.5 263.067 305.933 261.5 304 261.5C302.067 261.5 300.5 263.067 300.5 265C300.5 266.933 302.067 268.5 304 268.5Z" fill="#397D4F"/>
<path opacity="0.22" d="M301 278H277C276.448 278 276 278.448 276 279V280C276 280.552 276.448 281 277 281H301C301.552 281 302 280.552 302 280V279C302 278.448 301.552 278 301 278Z" fill="#397D4F"/>
<path opacity="0.18" d="M295 286H277C276.448 286 276 286.448 276 287V288C276 288.552 276.448 289 277 289H295C295.552 289 296 288.552 296 288V287C296 286.448 295.552 286 295 286Z" fill="#397D4F"/>
<path opacity="0.14" d="M299 294H277C276.448 294 276 294.448 276 295V296C276 296.552 276.448 297 277 297H299C299.552 297 300 296.552 300 296V295C300 294.448 299.552 294 299 294Z" fill="#397D4F"/>
<path opacity="0.22" d="M305 328H215C214.448 328 214 328.448 214 329V332C214 332.552 214.448 333 215 333H305C305.552 333 306 332.552 306 332V329C306 328.448 305.552 328 305 328Z" fill="#397D4F"/>
<path opacity="0.16" d="M283 338H215C214.448 338 214 338.448 214 339V342C214 342.552 214.448 343 215 343H283C283.552 343 284 342.552 284 342V339C284 338.448 283.552 338 283 338Z" fill="#397D4F"/>
<path opacity="0.26" d="M207 286C193 260 182 242 178 210" stroke="#397D4F" stroke-width="1.5" stroke-dasharray="4 3"/>
<path opacity="0.22" d="M258 358H66C62.6863 358 60 360.686 60 364V398C60 401.314 62.6863 404 66 404H258C261.314 404 264 401.314 264 398V364C264 360.686 261.314 358 258 358Z" fill="#397D4F"/>
<path opacity="0.4" d="M258 358H66C62.6863 358 60 360.686 60 364V368C60 371.314 62.6863 374 66 374H258C261.314 374 264 371.314 264 368V364C264 360.686 261.314 358 258 358Z" fill="#397D4F"/>
<path opacity="0.65" d="M82 370.5C84.4853 370.5 86.5 368.485 86.5 366C86.5 363.515 84.4853 361.5 82 361.5C79.5147 361.5 77.5 363.515 77.5 366C77.5 368.485 79.5147 370.5 82 370.5Z" fill="#397D4F"/>
<path d="M79 366L81.5 368.5L86 363.5" stroke="white" stroke-width="1.2" stroke-linecap="round" stroke-linejoin="round"/>
<path opacity="0.52" d="M100 370.5C102.485 370.5 104.5 368.485 104.5 366C104.5 363.515 102.485 361.5 100 361.5C97.5147 361.5 95.5 363.515 95.5 366C95.5 368.485 97.5147 370.5 100 370.5Z" fill="#397D4F"/>
<path d="M97 366L99.5 368.5L104 363.5" stroke="white" stroke-width="1.2" stroke-linecap="round" stroke-linejoin="round"/>
<path opacity="0.72" d="M118 370.5C120.485 370.5 122.5 368.485 122.5 366C122.5 363.515 120.485 361.5 118 361.5C115.515 361.5 113.5 363.515 113.5 366C113.5 368.485 115.515 370.5 118 370.5Z" fill="#95DE64"/>
<path opacity="0.24" d="M249 363H131C130.448 363 130 363.448 130 364V367C130 367.552 130.448 368 131 368H249C249.552 368 250 367.552 250 367V364C250 363.448 249.552 363 249 363Z" fill="#397D4F"/>
<path opacity="0.2" d="M247 384H69C68.4477 384 68 384.448 68 385V388C68 388.552 68.4477 389 69 389H247C247.552 389 248 388.552 248 388V385C248 384.448 247.552 384 247 384Z" fill="#397D4F"/>
<path opacity="0.14" d="M203 394H69C68.4477 394 68 394.448 68 395V398C68 398.552 68.4477 399 69 399H203C203.552 399 204 398.552 204 398V395C204 394.448 203.552 394 203 394Z" fill="#397D4F"/>
<path opacity="0.26" d="M62 342C62 350 80 352 92 358" stroke="#397D4F" stroke-width="1.4"/>
<path opacity="0.24" d="M261 342C261 350 244 352 232 358" stroke="#397D4F" stroke-width="1.4"/>
<path opacity="0.22" d="M162 220V358" stroke="#397D4F" stroke-width="1.4" stroke-dasharray="4 3"/>
<path opacity="0.26" d="M6 182C8.20914 182 10 180.209 10 178C10 175.791 8.20914 174 6 174C3.79086 174 2 175.791 2 178C2 180.209 3.79086 182 6 182Z" fill="#397D4F"/>
<path opacity="0.16" d="M16 170.5C17.3807 170.5 18.5 169.381 18.5 168C18.5 166.619 17.3807 165.5 16 165.5C14.6193 165.5 13.5 166.619 13.5 168C13.5 169.381 14.6193 170.5 16 170.5Z" fill="#397D4F"/>
<path opacity="0.4" d="M316 182C318.209 182 320 180.209 320 178C320 175.791 318.209 174 316 174C313.791 174 312 175.791 312 178C312 180.209 313.791 182 316 182Z" fill="#95DE64"/>
<path opacity="0.18" d="M306 170.5C307.381 170.5 308.5 169.381 308.5 168C308.5 166.619 307.381 165.5 306 165.5C304.619 165.5 303.5 166.619 303.5 168C303.5 169.381 304.619 170.5 306 170.5Z" fill="#397D4F"/>
<path opacity="0.22" d="M162 13.5C163.933 13.5 165.5 11.933 165.5 10C165.5 8.067 163.933 6.5 162 6.5C160.067 6.5 158.5 8.067 158.5 10C158.5 11.933 160.067 13.5 162 13.5Z" fill="#397D4F"/>
</svg>
