<svg width="360" height="385" viewBox="0 0 360 385" fill="none" xmlns="http://www.w3.org/2000/svg">
<path opacity="0.08" d="M180 323.711C267.577 323.711 338.572 259.942 338.572 181.278C338.572 102.615 267.577 38.8457 180 38.8457C92.4236 38.8457 21.4287 102.615 21.4287 181.278C21.4287 259.942 92.4236 323.711 180 323.711Z" fill="#397D4F"/>
<path opacity="0.12" d="M25.7139 112.22H334.285" stroke="#397D4F" stroke-width="0.8"/>
<path opacity="0.12" d="M25.7139 155.381H334.285" stroke="#397D4F" stroke-width="0.8"/>
<path opacity="0.12" d="M25.7139 198.543H334.285" stroke="#397D4F" stroke-width="0.8"/>
<path opacity="0.12" d="M25.7139 241.704H334.285" stroke="#397D4F" stroke-width="0.8"/>
<path opacity="0.1" d="M68.5713 77.6904V276.233" stroke="#397D4F" stroke-width="0.8"/>
<path opacity="0.1" d="M128.571 77.6904V276.233" stroke="#397D4F" stroke-width="0.8"/>
<path opacity="0.1" d="M188.571 77.6904V276.233" stroke="#397D4F" stroke-width="0.8"/>
<path opacity="0.1" d="M248.571 77.6904V276.233" stroke="#397D4F" stroke-width="0.8"/>
<path opacity="0.1" d="M308.571 77.6904V276.233" stroke="#397D4F" stroke-width="0.8"/>
<path opacity="0.22" d="M60.0003 129.916C61.1837 129.916 62.1431 128.95 62.1431 127.758C62.1431 126.566 61.1837 125.6 60.0003 125.6C58.8168 125.6 57.8574 126.566 57.8574 127.758C57.8574 128.95 58.8168 129.916 60.0003 129.916Z" fill="#397D4F"/>
<path opacity="0.18" d="M75.4282 135.527C76.3749 135.527 77.1424 134.754 77.1424 133.801C77.1424 132.847 76.3749 132.074 75.4282 132.074C74.4814 132.074 73.7139 132.847 73.7139 133.801C73.7139 134.754 74.4814 135.527 75.4282 135.527Z" fill="#397D4F"/>
<path opacity="0.2" d="M89.1429 125.599C90.3263 125.599 91.2857 124.633 91.2857 123.441C91.2857 122.249 90.3263 121.283 89.1429 121.283C87.9594 121.283 87 122.249 87 123.441C87 124.633 87.9594 125.599 89.1429 125.599Z" fill="#397D4F"/>
<path opacity="0.16" d="M102.857 131.211C103.804 131.211 104.571 130.438 104.571 129.484C104.571 128.531 103.804 127.758 102.857 127.758C101.91 127.758 101.143 128.531 101.143 129.484C101.143 130.438 101.91 131.211 102.857 131.211Z" fill="#397D4F"/>
<path opacity="0.18" d="M116.572 137.685C117.755 137.685 118.714 136.719 118.714 135.527C118.714 134.335 117.755 133.369 116.572 133.369C115.388 133.369 114.429 134.335 114.429 135.527C114.429 136.719 115.388 137.685 116.572 137.685Z" fill="#397D4F"/>
<path opacity="0.2" d="M132.857 126.894C133.804 126.894 134.571 126.121 134.571 125.168C134.571 124.214 133.804 123.441 132.857 123.441C131.91 123.441 131.143 124.214 131.143 125.168C131.143 126.121 131.91 126.894 132.857 126.894Z" fill="#397D4F"/>
<path opacity="0.16" d="M144 121.284C145.184 121.284 146.143 120.318 146.143 119.126C146.143 117.934 145.184 116.968 144 116.968C142.817 116.968 141.857 117.934 141.857 119.126C141.857 120.318 142.817 121.284 144 121.284Z" fill="#397D4F"/>
<path opacity="0.18" d="M156 139.844C156.947 139.844 157.715 139.071 157.715 138.117C157.715 137.164 156.947 136.391 156 136.391C155.054 136.391 154.286 137.164 154.286 138.117C154.286 139.071 155.054 139.844 156 139.844Z" fill="#397D4F"/>
<path opacity="0.22" d="M169.714 129.916C170.898 129.916 171.857 128.95 171.857 127.758C171.857 126.566 170.898 125.6 169.714 125.6C168.531 125.6 167.571 126.566 167.571 127.758C167.571 128.95 168.531 129.916 169.714 129.916Z" fill="#397D4F"/>
<path opacity="0.16" d="M183.428 135.527C184.375 135.527 185.142 134.754 185.142 133.801C185.142 132.847 184.375 132.074 183.428 132.074C182.481 132.074 181.714 132.847 181.714 133.801C181.714 134.754 182.481 135.527 183.428 135.527Z" fill="#397D4F"/>
<path opacity="0.18" d="M209.143 133.369C210.326 133.369 211.286 132.403 211.286 131.211C211.286 130.019 210.326 129.053 209.143 129.053C207.959 129.053 207 130.019 207 131.211C207 132.403 207.959 133.369 209.143 133.369Z" fill="#397D4F"/>
<path opacity="0.2" d="M222.857 126.894C223.804 126.894 224.571 126.121 224.571 125.168C224.571 124.214 223.804 123.441 222.857 123.441C221.91 123.441 221.143 124.214 221.143 125.168C221.143 126.121 221.91 126.894 222.857 126.894Z" fill="#397D4F"/>
<path opacity="0.16" d="M236.572 138.549C237.755 138.549 238.714 137.582 238.714 136.39C238.714 135.199 237.755 134.232 236.572 134.232C235.388 134.232 234.429 135.199 234.429 136.39C234.429 137.582 235.388 138.549 236.572 138.549Z" fill="#397D4F"/>
<path opacity="0.18" d="M252.857 129.484C253.804 129.484 254.571 128.711 254.571 127.758C254.571 126.804 253.804 126.031 252.857 126.031C251.91 126.031 251.143 126.804 251.143 127.758C251.143 128.711 251.91 129.484 252.857 129.484Z" fill="#397D4F"/>
<path opacity="0.2" d="M267.429 135.959C268.612 135.959 269.572 134.993 269.572 133.801C269.572 132.609 268.612 131.643 267.429 131.643C266.246 131.643 265.286 132.609 265.286 133.801C265.286 134.993 266.246 135.959 267.429 135.959Z" fill="#397D4F"/>
<path opacity="0.16" d="M282.857 125.168C283.804 125.168 284.571 124.395 284.571 123.441C284.571 122.488 283.804 121.715 282.857 121.715C281.91 121.715 281.143 122.488 281.143 123.441C281.143 124.395 281.91 125.168 282.857 125.168Z" fill="#397D4F"/>
<path opacity="0.18" d="M296.572 131.642C297.755 131.642 298.714 130.676 298.714 129.484C298.714 128.292 297.755 127.326 296.572 127.326C295.388 127.326 294.429 128.292 294.429 129.484C294.429 130.676 295.388 131.642 296.572 131.642Z" fill="#397D4F"/>
<path opacity="0.14" d="M310.286 138.117C311.232 138.117 312 137.344 312 136.391C312 135.437 311.232 134.664 310.286 134.664C309.339 134.664 308.571 135.437 308.571 136.391C308.571 137.344 309.339 138.117 310.286 138.117Z" fill="#397D4F"/>
<path opacity="0.16" d="M64.2854 170.488C65.4689 170.488 66.4283 169.522 66.4283 168.33C66.4283 167.138 65.4689 166.172 64.2854 166.172C63.102 166.172 62.1426 167.138 62.1426 168.33C62.1426 169.522 63.102 170.488 64.2854 170.488Z" fill="#397D4F"/>
<path opacity="0.14" d="M78.8569 178.688C79.8036 178.688 80.5711 177.915 80.5711 176.962C80.5711 176.008 79.8036 175.235 78.8569 175.235C77.9101 175.235 77.1426 176.008 77.1426 176.962C77.1426 177.915 77.9101 178.688 78.8569 178.688Z" fill="#397D4F"/>
<path opacity="0.16" d="M92.5716 168.761C93.755 168.761 94.7144 167.795 94.7144 166.603C94.7144 165.412 93.755 164.445 92.5716 164.445C91.3881 164.445 90.4287 165.412 90.4287 166.603C90.4287 167.795 91.3881 168.761 92.5716 168.761Z" fill="#397D4F"/>
<path opacity="0.16" d="M300 174.803C301.184 174.803 302.143 173.837 302.143 172.645C302.143 171.454 301.184 170.487 300 170.487C298.817 170.487 297.857 171.454 297.857 172.645C297.857 173.837 298.817 174.803 300 174.803Z" fill="#397D4F"/>
<path opacity="0.14" d="M315.428 167.467C316.375 167.467 317.142 166.694 317.142 165.74C317.142 164.787 316.375 164.014 315.428 164.014C314.481 164.014 313.714 164.787 313.714 165.74C313.714 166.694 314.481 167.467 315.428 167.467Z" fill="#397D4F"/>
<path opacity="0.16" d="M198.857 217.966C200.04 217.966 201 216.999 201 215.807C201 214.616 200.04 213.649 198.857 213.649C197.673 213.649 196.714 214.616 196.714 215.807C196.714 216.999 197.673 217.966 198.857 217.966Z" fill="#397D4F"/>
<path opacity="0.14" d="M212.572 224.439C213.518 224.439 214.286 223.666 214.286 222.713C214.286 221.759 213.518 220.986 212.572 220.986C211.625 220.986 210.857 221.759 210.857 222.713C210.857 223.666 211.625 224.439 212.572 224.439Z" fill="#397D4F"/>
<path opacity="0.16" d="M227.143 213.649C228.326 213.649 229.286 212.683 229.286 211.491C229.286 210.299 228.326 209.333 227.143 209.333C225.959 209.333 225 210.299 225 211.491C225 212.683 225.959 213.649 227.143 213.649Z" fill="#397D4F"/>
<path opacity="0.14" d="M241.714 219.261C242.661 219.261 243.429 218.488 243.429 217.534C243.429 216.581 242.661 215.808 241.714 215.808C240.768 215.808 240 216.581 240 217.534C240 218.488 240.768 219.261 241.714 219.261Z" fill="#397D4F"/>
<path opacity="0.18" d="M255.429 216.239C256.612 216.239 257.572 215.273 257.572 214.081C257.572 212.889 256.612 211.923 255.429 211.923C254.246 211.923 253.286 212.889 253.286 214.081C253.286 215.273 254.246 216.239 255.429 216.239Z" fill="#397D4F"/>
<path opacity="0.16" d="M152.571 143.296C161.092 143.296 168 136.339 168 127.758C168 119.176 161.092 112.22 152.571 112.22C144.05 112.22 137.143 119.176 137.143 127.758C137.143 136.339 144.05 143.296 152.571 143.296Z" fill="#397D4F"/>
<path opacity="0.42" d="M152.571 136.391C157.305 136.391 161.143 132.526 161.143 127.758C161.143 122.991 157.305 119.126 152.571 119.126C147.838 119.126 144 122.991 144 127.758C144 132.526 147.838 136.391 152.571 136.391Z" fill="#397D4F"/>
<path opacity="0.72" d="M152.572 132.074C154.939 132.074 156.858 130.141 156.858 127.758C156.858 125.374 154.939 123.441 152.572 123.441C150.205 123.441 148.286 125.374 148.286 127.758C148.286 130.141 150.205 132.074 152.572 132.074Z" fill="#397D4F"/>
<path opacity="0.14" d="M195.428 147.613C203.002 147.613 209.142 141.429 209.142 133.801C209.142 126.173 203.002 119.989 195.428 119.989C187.854 119.989 181.714 126.173 181.714 133.801C181.714 141.429 187.854 147.613 195.428 147.613Z" fill="#397D4F"/>
<path opacity="0.38" d="M195.428 141.569C199.689 141.569 203.142 138.091 203.142 133.8C203.142 129.51 199.689 126.031 195.428 126.031C191.168 126.031 187.714 129.51 187.714 133.8C187.714 138.091 191.168 141.569 195.428 141.569Z" fill="#397D4F"/>
<path opacity="0.65" d="M195.428 137.685C197.559 137.685 199.286 135.946 199.286 133.801C199.286 131.655 197.559 129.916 195.428 129.916C193.298 129.916 191.571 131.655 191.571 133.801C191.571 135.946 193.298 137.685 195.428 137.685Z" fill="#397D4F"/>
<path opacity="0.14" d="M255.429 183.867C263.95 183.867 270.857 176.911 270.857 168.329C270.857 159.748 263.95 152.791 255.429 152.791C246.908 152.791 240 159.748 240 168.329C240 176.911 246.908 183.867 255.429 183.867Z" fill="#397D4F"/>
<path opacity="0.4" d="M255.429 176.962C260.163 176.962 264 173.097 264 168.33C264 163.562 260.163 159.697 255.429 159.697C250.695 159.697 246.857 163.562 246.857 168.33C246.857 173.097 250.695 176.962 255.429 176.962Z" fill="#397D4F"/>
<path opacity="0.82" d="M255.428 172.646C257.795 172.646 259.714 170.714 259.714 168.33C259.714 165.946 257.795 164.014 255.428 164.014C253.061 164.014 251.143 165.946 251.143 168.33C251.143 170.714 253.061 172.646 255.428 172.646Z" fill="#95DE64"/>
<path opacity="0.14" d="M244.286 219.26C251.86 219.26 258 213.076 258 205.448C258 197.82 251.86 191.637 244.286 191.637C236.711 191.637 230.571 197.82 230.571 205.448C230.571 213.076 236.711 219.26 244.286 219.26Z" fill="#397D4F"/>
<path opacity="0.36" d="M244.286 213.218C248.546 213.218 252 209.739 252 205.449C252 201.158 248.546 197.68 244.286 197.68C240.025 197.68 236.571 201.158 236.571 205.449C236.571 209.739 240.025 213.218 244.286 213.218Z" fill="#397D4F"/>
<path opacity="0.72" d="M244.286 209.333C246.416 209.333 248.143 207.593 248.143 205.448C248.143 203.303 246.416 201.563 244.286 201.563C242.156 201.563 240.429 203.303 240.429 205.448C240.429 207.593 242.156 209.333 244.286 209.333Z" fill="#95DE64"/>
<path opacity="0.45" d="M152.571 127.758C171.428 127.758 183.428 131.211 195.428 133.8" stroke="#397D4F" stroke-width="1.8"/>
<path opacity="0.4" d="M195.429 133.801C219.429 145.023 238.286 157.108 255.429 168.33" stroke="#397D4F" stroke-width="1.8"/>
<path opacity="0.42" d="M255.429 168.33C252 181.279 248.572 191.637 244.286 205.449" stroke="#397D4F" stroke-width="1.8"/>
<path opacity="0.18" d="M152.571 127.758C188.571 145.022 219.428 172.646 244.286 205.448" stroke="#397D4F" stroke-width="1.2" stroke-dasharray="5 4"/>
<path opacity="0.52" d="M174.857 132.505C176.514 132.505 177.857 131.153 177.857 129.484C177.857 127.816 176.514 126.463 174.857 126.463C173.201 126.463 171.857 127.816 171.857 129.484C171.857 131.153 173.201 132.505 174.857 132.505Z" fill="#397D4F"/>
<path opacity="0.46" d="M222.857 154.087C224.514 154.087 225.857 152.734 225.857 151.065C225.857 149.397 224.514 148.044 222.857 148.044C221.201 148.044 219.857 149.397 219.857 151.065C219.857 152.734 221.201 154.087 222.857 154.087Z" fill="#397D4F"/>
<path opacity="0.5" d="M250.286 189.479C251.943 189.479 253.286 188.126 253.286 186.458C253.286 184.789 251.943 183.437 250.286 183.437C248.629 183.437 247.286 184.789 247.286 186.458C247.286 188.126 248.629 189.479 250.286 189.479Z" fill="#397D4F"/>
<path opacity="0.26" d="M104.572 79.417H42.8573C40.9637 79.417 39.4287 80.9629 39.4287 82.8699V107.04C39.4287 108.947 40.9637 110.493 42.8573 110.493H104.572C106.465 110.493 108 108.947 108 107.04V82.8699C108 80.9629 106.465 79.417 104.572 79.417Z" fill="#397D4F"/>
<path opacity="0.55" d="M42.8573 81.1434C42.8573 80.19 42.0898 79.417 41.143 79.417C40.1962 79.417 39.4287 80.19 39.4287 81.1434V108.767C39.4287 109.72 40.1962 110.493 41.143 110.493C42.0898 110.493 42.8573 109.72 42.8573 108.767V81.1434Z" fill="#397D4F"/>
<path opacity="0.38" d="M96.8571 85.46H48.8571C48.3838 85.46 48 85.8464 48 86.3232V88.9129C48 89.3896 48.3838 89.7761 48.8571 89.7761H96.8571C97.3305 89.7761 97.7143 89.3896 97.7143 88.9129V86.3232C97.7143 85.8464 97.3305 85.46 96.8571 85.46Z" fill="#397D4F"/>
<path opacity="0.24" d="M84.8571 94.9551H48.8571C48.3838 94.9551 48 95.3416 48 95.8183V97.5448C48 98.0215 48.3838 98.408 48.8571 98.408H84.8571C85.3305 98.408 85.7143 98.0215 85.7143 97.5448V95.8183C85.7143 95.3416 85.3305 94.9551 84.8571 94.9551Z" fill="#397D4F"/>
<path opacity="0.18" d="M90 103.588H48.8571C48.3838 103.588 48 103.974 48 104.451V106.178C48 106.654 48.3838 107.041 48.8571 107.041H90C90.4734 107.041 90.8571 106.654 90.8571 106.178V104.451C90.8571 103.974 90.4734 103.588 90 103.588Z" fill="#397D4F"/>
<path opacity="0.28" d="M108 94.9551C126.857 103.587 138.857 115.673 144 123.442" stroke="#397D4F" stroke-width="1.3" stroke-dasharray="3 3"/>
<path opacity="0.26" d="M267.429 77.6904H205.715C203.821 77.6904 202.286 79.2364 202.286 81.1433V105.314C202.286 107.221 203.821 108.767 205.715 108.767H267.429C269.323 108.767 270.858 107.221 270.858 105.314V81.1433C270.858 79.2364 269.323 77.6904 267.429 77.6904Z" fill="#397D4F"/>
<path opacity="0.52" d="M205.715 79.4169C205.715 78.4634 204.947 77.6904 204 77.6904C203.054 77.6904 202.286 78.4634 202.286 79.4169V107.04C202.286 107.994 203.054 108.767 204 108.767C204.947 108.767 205.715 107.994 205.715 107.04V79.4169Z" fill="#397D4F"/>
<path opacity="0.36" d="M259.715 83.7334H211.715C211.241 83.7334 210.857 84.1199 210.857 84.5966V87.1863C210.857 87.6631 211.241 88.0495 211.715 88.0495H259.715C260.188 88.0495 260.572 87.6631 260.572 87.1863V84.5966C260.572 84.1199 260.188 83.7334 259.715 83.7334Z" fill="#397D4F"/>
<path opacity="0.22" d="M247.715 93.2285H211.715C211.241 93.2285 210.857 93.615 210.857 94.0917V95.8182C210.857 96.2949 211.241 96.6814 211.715 96.6814H247.715C248.188 96.6814 248.572 96.2949 248.572 95.8182V94.0917C248.572 93.615 248.188 93.2285 247.715 93.2285Z" fill="#397D4F"/>
<path opacity="0.16" d="M240.857 101.861H211.715C211.241 101.861 210.857 102.248 210.857 102.725V104.451C210.857 104.928 211.241 105.314 211.715 105.314H240.857C241.331 105.314 241.715 104.928 241.715 104.451V102.725C241.715 102.248 241.331 101.861 240.857 101.861Z" fill="#397D4F"/>
<path opacity="0.26" d="M202.286 93.2285C198.857 103.587 197.143 116.536 195.429 127.758" stroke="#397D4F" stroke-width="1.3" stroke-dasharray="3 3"/>
<path opacity="0.24" d="M344.572 129.484H282.857C280.964 129.484 279.429 131.03 279.429 132.937V157.108C279.429 159.015 280.964 160.561 282.857 160.561H344.572C346.465 160.561 348 159.015 348 157.108V132.937C348 131.03 346.465 129.484 344.572 129.484Z" fill="#397D4F"/>
<path opacity="0.62" d="M282.857 131.211C282.857 130.257 282.09 129.484 281.143 129.484C280.196 129.484 279.429 130.257 279.429 131.211V158.834C279.429 159.788 280.196 160.561 281.143 160.561C282.09 160.561 282.857 159.788 282.857 158.834V131.211Z" fill="#95DE64"/>
<path opacity="0.34" d="M340.286 135.527H288.857C288.384 135.527 288 135.914 288 136.391V138.98C288 139.457 288.384 139.843 288.857 139.843H340.286C340.759 139.843 341.143 139.457 341.143 138.98V136.391C341.143 135.914 340.759 135.527 340.286 135.527Z" fill="#397D4F"/>
<path opacity="0.22" d="M328.286 145.022H288.857C288.384 145.022 288 145.409 288 145.886V147.612C288 148.089 288.384 148.475 288.857 148.475H328.286C328.759 148.475 329.143 148.089 329.143 147.612V145.886C329.143 145.409 328.759 145.022 328.286 145.022Z" fill="#397D4F"/>
<path opacity="0.16" d="M333.429 153.654H288.857C288.384 153.654 288 154.041 288 154.518V156.244C288 156.721 288.384 157.107 288.857 157.107H333.429C333.902 157.107 334.286 156.721 334.286 156.244V154.518C334.286 154.041 333.902 153.654 333.429 153.654Z" fill="#397D4F"/>
<path opacity="0.26" d="M279.428 145.022C270.857 151.928 264 158.834 257.143 164.877" stroke="#397D4F" stroke-width="1.3" stroke-dasharray="3 3"/>
<path opacity="0.24" d="M339.429 205.448H274.286C272.392 205.448 270.857 206.994 270.857 208.901V233.072C270.857 234.979 272.392 236.524 274.286 236.524H339.429C341.322 236.524 342.857 234.979 342.857 233.072V208.901C342.857 206.994 341.322 205.448 339.429 205.448Z" fill="#397D4F"/>
<path opacity="0.58" d="M274.286 207.175C274.286 206.221 273.518 205.448 272.572 205.448C271.625 205.448 270.857 206.221 270.857 207.175V234.798C270.857 235.752 271.625 236.524 272.572 236.524C273.518 236.524 274.286 235.752 274.286 234.798V207.175Z" fill="#95DE64"/>
<path opacity="0.32" d="M335.143 211.491H280.286C279.812 211.491 279.429 211.878 279.429 212.354V214.944C279.429 215.421 279.812 215.807 280.286 215.807H335.143C335.616 215.807 336 215.421 336 214.944V212.354C336 211.878 335.616 211.491 335.143 211.491Z" fill="#397D4F"/>
<path opacity="0.2" d="M321.429 220.986H280.286C279.812 220.986 279.429 221.373 279.429 221.85V223.576C279.429 224.053 279.812 224.439 280.286 224.439H321.429C321.902 224.439 322.286 224.053 322.286 223.576V221.85C322.286 221.373 321.902 220.986 321.429 220.986Z" fill="#397D4F"/>
<path opacity="0.14" d="M328.286 229.619H280.286C279.812 229.619 279.429 230.006 279.429 230.482V232.209C279.429 232.686 279.812 233.072 280.286 233.072H328.286C328.759 233.072 329.143 232.686 329.143 232.209V230.482C329.143 230.006 328.759 229.619 328.286 229.619Z" fill="#397D4F"/>
<path opacity="0.24" d="M270.857 220.987C262.285 217.534 253.714 212.354 247.714 208.901" stroke="#397D4F" stroke-width="1.3" stroke-dasharray="3 3"/>
<path opacity="0.18" d="M334.286 272.78H25.7141C22.8738 272.78 20.5713 275.099 20.5713 277.96V350.471C20.5713 353.331 22.8738 355.65 25.7141 355.65H334.286C337.126 355.65 339.428 353.331 339.428 350.471V277.96C339.428 275.099 337.126 272.78 334.286 272.78Z" fill="#397D4F"/>
<path opacity="0.36" d="M334.286 272.78H25.7141C22.8738 272.78 20.5713 275.099 20.5713 277.96V283.139C20.5713 286 22.8738 288.318 25.7141 288.318H334.286C337.126 288.318 339.428 286 339.428 283.139V277.96C339.428 275.099 337.126 272.78 334.286 272.78Z" fill="#397D4F"/>
<path opacity="0.58" d="M34.2859 284.434C36.4161 284.434 38.143 282.695 38.143 280.55C38.143 278.404 36.4161 276.665 34.2859 276.665C32.1556 276.665 30.4287 278.404 30.4287 280.55C30.4287 282.695 32.1556 284.434 34.2859 284.434Z" fill="#397D4F"/>
<path opacity="0.4" d="M45.4284 284.434C47.5587 284.434 49.2856 282.695 49.2856 280.55C49.2856 278.404 47.5587 276.665 45.4284 276.665C43.2982 276.665 41.5713 278.404 41.5713 280.55C41.5713 282.695 43.2982 284.434 45.4284 284.434Z" fill="#397D4F"/>
<path opacity="0.24" d="M56.571 284.434C58.7013 284.434 60.4282 282.695 60.4282 280.55C60.4282 278.404 58.7013 276.665 56.571 276.665C54.4408 276.665 52.7139 278.404 52.7139 280.55C52.7139 282.695 54.4408 284.434 56.571 284.434Z" fill="#397D4F"/>
<path opacity="0.34" d="M48.0004 328.89C55.5746 328.89 61.7147 322.706 61.7147 315.078C61.7147 307.45 55.5746 301.267 48.0004 301.267C40.4262 301.267 34.2861 307.45 34.2861 315.078C34.2861 322.706 40.4262 328.89 48.0004 328.89Z" fill="#397D4F"/>
<path opacity="0.42" d="M47.9997 317.668C51.7868 317.668 54.8569 314.576 54.8569 310.762C54.8569 306.948 51.7868 303.856 47.9997 303.856C44.2126 303.856 41.1426 306.948 41.1426 310.762C41.1426 314.576 44.2126 317.668 47.9997 317.668Z" fill="#397D4F"/>
<path opacity="0.26" d="M32.5713 329.753C32.5713 319.395 63.4284 319.395 63.4284 329.753H32.5713Z" fill="#397D4F"/>
<path opacity="0.3" d="M48.0003 332.343C57.468 332.343 65.1431 324.613 65.1431 315.078C65.1431 305.543 57.468 297.813 48.0003 297.813C38.5325 297.813 30.8574 305.543 30.8574 315.078C30.8574 324.613 38.5325 332.343 48.0003 332.343Z" stroke="#397D4F" stroke-width="1.8"/>
<path opacity="0.62" d="M47.9999 297.813C50.8259 298.111 53.5341 299.112 55.8809 300.726C58.2276 302.339 60.1394 304.515 61.4441 307.057C62.7488 309.599 63.4056 312.428 63.3554 315.289C63.3052 318.15 62.5496 320.954 61.1565 323.448C59.7634 325.943 57.7766 328.049 55.3747 329.578C52.9728 331.107 50.2312 332.011 47.3965 332.208C44.5617 332.405 41.7228 331.889 39.135 330.707C36.5471 329.526 34.2916 327.714 32.5713 325.437" stroke="#397D4F" stroke-width="1.8" stroke-linecap="round"/>
<path opacity="0.16" d="M82.2861 288.318V347.018" stroke="#397D4F"/>
<path opacity="0.12" d="M154.285 290.045H90.8569C89.9101 290.045 89.1426 290.818 89.1426 291.771V293.498C89.1426 294.451 89.9101 295.224 90.8569 295.224H154.285C155.232 295.224 156 294.451 156 293.498V291.771C156 290.818 155.232 290.045 154.285 290.045Z" fill="#397D4F"/>
<path opacity="0.36" d="M145.714 290.045H90.8569C89.9101 290.045 89.1426 290.818 89.1426 291.771V293.498C89.1426 294.451 89.9101 295.224 90.8569 295.224H145.714C146.661 295.224 147.428 294.451 147.428 293.498V291.771C147.428 290.818 146.661 290.045 145.714 290.045Z" fill="#397D4F"/>
<path opacity="0.1" d="M154.285 300.403H90.8569C89.9101 300.403 89.1426 301.176 89.1426 302.13V303.856C89.1426 304.81 89.9101 305.583 90.8569 305.583H154.285C155.232 305.583 156 304.81 156 303.856V302.13C156 301.176 155.232 300.403 154.285 300.403Z" fill="#397D4F"/>
<path opacity="0.28" d="M132 300.403H90.8569C89.9101 300.403 89.1426 301.176 89.1426 302.13V303.856C89.1426 304.81 89.9101 305.583 90.8569 305.583H132C132.946 305.583 133.714 304.81 133.714 303.856V302.13C133.714 301.176 132.946 300.403 132 300.403Z" fill="#397D4F"/>
<path opacity="0.1" d="M154.285 310.763H90.8569C89.9101 310.763 89.1426 311.536 89.1426 312.489V314.216C89.1426 315.169 89.9101 315.942 90.8569 315.942H154.285C155.232 315.942 156 315.169 156 314.216V312.489C156 311.536 155.232 310.763 154.285 310.763Z" fill="#397D4F"/>
<path opacity="0.32" d="M138.857 310.763H90.8569C89.9101 310.763 89.1426 311.536 89.1426 312.489V314.216C89.1426 315.169 89.9101 315.942 90.8569 315.942H138.857C139.804 315.942 140.571 315.169 140.571 314.216V312.489C140.571 311.536 139.804 310.763 138.857 310.763Z" fill="#397D4F"/>
<path opacity="0.1" d="M154.285 321.121H90.8569C89.9101 321.121 89.1426 321.894 89.1426 322.848V324.574C89.1426 325.528 89.9101 326.3 90.8569 326.3H154.285C155.232 326.3 156 325.528 156 324.574V322.848C156 321.894 155.232 321.121 154.285 321.121Z" fill="#397D4F"/>
<path opacity="0.24" d="M125.143 321.121H90.8569C89.9101 321.121 89.1426 321.894 89.1426 322.848V324.574C89.1426 325.528 89.9101 326.3 90.8569 326.3H125.143C126.089 326.3 126.857 325.528 126.857 324.574V322.848C126.857 321.894 126.089 321.121 125.143 321.121Z" fill="#397D4F"/>
<path opacity="0.16" d="M168 288.318V347.018" stroke="#397D4F"/>
<path opacity="0.12" d="M240 290.045H176.572C175.625 290.045 174.857 290.818 174.857 291.771V293.498C174.857 294.451 175.625 295.224 176.572 295.224H240C240.947 295.224 241.715 294.451 241.715 293.498V291.771C241.715 290.818 240.947 290.045 240 290.045Z" fill="#397D4F"/>
<path opacity="0.4" d="M234.857 290.045H176.572C175.625 290.045 174.857 290.818 174.857 291.771V293.498C174.857 294.451 175.625 295.224 176.572 295.224H234.857C235.804 295.224 236.572 294.451 236.572 293.498V291.771C236.572 290.818 235.804 290.045 234.857 290.045Z" fill="#397D4F"/>
<path opacity="0.1" d="M240 300.403H176.572C175.625 300.403 174.857 301.176 174.857 302.13V303.856C174.857 304.81 175.625 305.583 176.572 305.583H240C240.947 305.583 241.715 304.81 241.715 303.856V302.13C241.715 301.176 240.947 300.403 240 300.403Z" fill="#397D4F"/>
<path opacity="0.3" d="M222.857 300.403H176.572C175.625 300.403 174.857 301.176 174.857 302.13V303.856C174.857 304.81 175.625 305.583 176.572 305.583H222.857C223.804 305.583 224.572 304.81 224.572 303.856V302.13C224.572 301.176 223.804 300.403 222.857 300.403Z" fill="#397D4F"/>
<path opacity="0.1" d="M240 310.763H176.572C175.625 310.763 174.857 311.536 174.857 312.489V314.216C174.857 315.169 175.625 315.942 176.572 315.942H240C240.947 315.942 241.715 315.169 241.715 314.216V312.489C241.715 311.536 240.947 310.763 240 310.763Z" fill="#397D4F"/>
<path opacity="0.34" d="M228 310.763H176.572C175.625 310.763 174.857 311.536 174.857 312.489V314.216C174.857 315.169 175.625 315.942 176.572 315.942H228C228.947 315.942 229.715 315.169 229.715 314.216V312.489C229.715 311.536 228.947 310.763 228 310.763Z" fill="#397D4F"/>
<path opacity="0.1" d="M240 321.121H176.572C175.625 321.121 174.857 321.894 174.857 322.848V324.574C174.857 325.528 175.625 326.3 176.572 326.3H240C240.947 326.3 241.715 325.528 241.715 324.574V322.848C241.715 321.894 240.947 321.121 240 321.121Z" fill="#397D4F"/>
<path opacity="0.26" d="M216 321.121H176.572C175.625 321.121 174.857 321.894 174.857 322.848V324.574C174.857 325.528 175.625 326.3 176.572 326.3H216C216.947 326.3 217.715 325.528 217.715 324.574V322.848C217.715 321.894 216.947 321.121 216 321.121Z" fill="#397D4F"/>
<path opacity="0.16" d="M253.714 288.318V347.018" stroke="#397D4F"/>
<path opacity="0.12" d="M329.143 290.045H262.286C261.339 290.045 260.571 290.818 260.571 291.771V293.498C260.571 294.451 261.339 295.224 262.286 295.224H329.143C330.089 295.224 330.857 294.451 330.857 293.498V291.771C330.857 290.818 330.089 290.045 329.143 290.045Z" fill="#397D4F"/>
<path opacity="0.44" d="M324 290.045H262.286C261.339 290.045 260.571 290.818 260.571 291.771V293.498C260.571 294.451 261.339 295.224 262.286 295.224H324C324.947 295.224 325.714 294.451 325.714 293.498V291.771C325.714 290.818 324.947 290.045 324 290.045Z" fill="#397D4F"/>
<path opacity="0.1" d="M329.143 300.403H262.286C261.339 300.403 260.571 301.176 260.571 302.13V303.856C260.571 304.81 261.339 305.583 262.286 305.583H329.143C330.089 305.583 330.857 304.81 330.857 303.856V302.13C330.857 301.176 330.089 300.403 329.143 300.403Z" fill="#397D4F"/>
<path opacity="0.32" d="M306.857 300.403H262.286C261.339 300.403 260.571 301.176 260.571 302.13V303.856C260.571 304.81 261.339 305.583 262.286 305.583H306.857C307.804 305.583 308.571 304.81 308.571 303.856V302.13C308.571 301.176 307.804 300.403 306.857 300.403Z" fill="#397D4F"/>
<path opacity="0.1" d="M329.143 310.763H262.286C261.339 310.763 260.571 311.536 260.571 312.489V314.216C260.571 315.169 261.339 315.942 262.286 315.942H329.143C330.089 315.942 330.857 315.169 330.857 314.216V312.489C330.857 311.536 330.089 310.763 329.143 310.763Z" fill="#397D4F"/>
<path opacity="0.38" d="M318.857 310.763H262.286C261.339 310.763 260.571 311.536 260.571 312.489V314.216C260.571 315.169 261.339 315.942 262.286 315.942H318.857C319.804 315.942 320.571 315.169 320.571 314.216V312.489C320.571 311.536 319.804 310.763 318.857 310.763Z" fill="#397D4F"/>
<path opacity="0.72" d="M322.285 340.112C327.019 340.112 330.857 336.247 330.857 331.48C330.857 326.712 327.019 322.848 322.285 322.848C317.551 322.848 313.714 326.712 313.714 331.48C313.714 336.247 317.551 340.112 322.285 340.112Z" fill="#95DE64"/>
<path d="M318 331.48L321 334.502L327.429 327.164" stroke="white" stroke-width="1.8" stroke-linecap="round" stroke-linejoin="round"/>
<path opacity="0.24" d="M18.8573 89.7759C20.7508 89.7759 22.2859 88.23 22.2859 86.323C22.2859 84.416 20.7508 82.8701 18.8573 82.8701C16.9637 82.8701 15.4287 84.416 15.4287 86.323C15.4287 88.23 16.9637 89.7759 18.8573 89.7759Z" fill="#397D4F"/>
<path opacity="0.14" d="M8.57157 97.113C9.75504 97.113 10.7144 96.1468 10.7144 94.9549C10.7144 93.7631 9.75504 92.7969 8.57157 92.7969C7.3881 92.7969 6.42871 93.7631 6.42871 94.9549C6.42871 96.1468 7.3881 97.113 8.57157 97.113Z" fill="#397D4F"/>
<path opacity="0.38" d="M341.143 90.2075C343.274 90.2075 345 88.4684 345 86.323C345 84.1776 343.274 82.4385 341.143 82.4385C339.013 82.4385 337.286 84.1776 337.286 86.323C337.286 88.4684 339.013 90.2075 341.143 90.2075Z" fill="#95DE64"/>
<path opacity="0.16" d="M349.714 98.8396C350.898 98.8396 351.857 97.8734 351.857 96.6815C351.857 95.4896 350.898 94.5234 349.714 94.5234C348.531 94.5234 347.571 95.4896 347.571 96.6815C347.571 97.8734 348.531 98.8396 349.714 98.8396Z" fill="#397D4F"/>
<path opacity="0.2" d="M18.8574 257.673C20.5143 257.673 21.8574 256.321 21.8574 254.652C21.8574 252.984 20.5143 251.631 18.8574 251.631C17.2006 251.631 15.8574 252.984 15.8574 254.652C15.8574 256.321 17.2006 257.673 18.8574 257.673Z" fill="#397D4F"/>
<path opacity="0.18" d="M341.143 257.673C342.799 257.673 344.143 256.321 344.143 254.652C344.143 252.984 342.799 251.631 341.143 251.631C339.486 251.631 338.143 252.984 338.143 254.652C338.143 256.321 339.486 257.673 341.143 257.673Z" fill="#397D4F"/>
</svg>
