<svg width="375" height="400" viewBox="0 0 375 400" fill="none" xmlns="http://www.w3.org/2000/svg">
<path opacity="0.07" d="M205.357 327.354C291.652 327.354 361.607 265.116 361.607 188.341C361.607 111.566 291.652 49.3271 205.357 49.3271C119.063 49.3271 49.1074 111.566 49.1074 188.341C49.1074 265.116 119.063 327.354 205.357 327.354Z" fill="#397D4F"/>
<path opacity="0.06" d="M53.5715 251.121C32.1429 276.233 23.2143 308.52 35.7143 340.807C48.2143 373.094 75 385.65 105.357 378.475C135.714 371.3 155.357 349.776 162.5 319.282C169.643 288.789 162.5 254.708 144.643 231.39C126.786 208.071 96.4286 199.103 73.2143 209.865C50 220.628 35.7143 249.327 53.5715 251.121Z" fill="#397D4F"/>
<path opacity="0.14" d="M53.5713 43.0498H321.428L250 116.592H125L53.5713 43.0498Z" fill="#397D4F"/>
<path opacity="0.3" d="M53.5713 43.0498H321.428L250 116.592H125L53.5713 43.0498Z" stroke="#397D4F" stroke-width="1.5"/>
<path opacity="0.18" d="M125 116.592H250L227.679 163.229H147.321L125 116.592Z" fill="#397D4F"/>
<path opacity="0.28" d="M125 116.592H250L227.679 163.229H147.321L125 116.592Z" stroke="#397D4F" stroke-width="1.5"/>
<path opacity="0.24" d="M147.321 163.229H227.678L214.286 204.484H160.714L147.321 163.229Z" fill="#397D4F"/>
<path opacity="0.3" d="M147.321 163.229H227.678L214.286 204.484H160.714L147.321 163.229Z" stroke="#397D4F" stroke-width="1.5"/>
<path opacity="0.32" d="M197.321 204.484H177.678C176.692 204.484 175.893 205.287 175.893 206.278V227.803C175.893 228.793 176.692 229.596 177.678 229.596H197.321C198.307 229.596 199.107 228.793 199.107 227.803V206.278C199.107 205.287 198.307 204.484 197.321 204.484Z" fill="#397D4F"/>
<path opacity="0.38" d="M89.2861 63.6771C92.7379 63.6771 95.5361 60.8664 95.5361 57.3991C95.5361 53.9319 92.7379 51.1211 89.2861 51.1211C85.8344 51.1211 83.0361 53.9319 83.0361 57.3991C83.0361 60.8664 85.8344 63.6771 89.2861 63.6771Z" fill="#397D4F"/>
<path opacity="0.34" d="M135.714 60.0893C139.166 60.0893 141.964 57.2785 141.964 53.8112C141.964 50.344 139.166 47.5332 135.714 47.5332C132.262 47.5332 129.464 50.344 129.464 53.8112C129.464 57.2785 132.262 60.0893 135.714 60.0893Z" fill="#397D4F"/>
<path opacity="0.4" d="M187.5 57.3988C190.952 57.3988 193.75 54.5881 193.75 51.1208C193.75 47.6535 190.952 44.8428 187.5 44.8428C184.048 44.8428 181.25 47.6535 181.25 51.1208C181.25 54.5881 184.048 57.3988 187.5 57.3988Z" fill="#397D4F"/>
<path opacity="0.32" d="M239.286 60.0893C242.738 60.0893 245.536 57.2785 245.536 53.8112C245.536 50.344 242.738 47.5332 239.286 47.5332C235.834 47.5332 233.036 50.344 233.036 53.8112C233.036 57.2785 235.834 60.0893 239.286 60.0893Z" fill="#397D4F"/>
<path opacity="0.28" d="M283.929 63.6771C287.38 63.6771 290.179 60.8664 290.179 57.3991C290.179 53.9319 287.38 51.1211 283.929 51.1211C280.477 51.1211 277.679 53.9319 277.679 57.3991C277.679 60.8664 280.477 63.6771 283.929 63.6771Z" fill="#397D4F"/>
<path opacity="0.36" d="M153.571 95.067C156.53 95.067 158.928 92.6578 158.928 89.6859C158.928 86.7139 156.53 84.3047 153.571 84.3047C150.612 84.3047 148.214 86.7139 148.214 89.6859C148.214 92.6578 150.612 95.067 153.571 95.067Z" fill="#397D4F"/>
<path opacity="0.42" d="M187.5 91.4801C190.458 91.4801 192.857 89.0709 192.857 86.0989C192.857 83.127 190.458 80.7178 187.5 80.7178C184.541 80.7178 182.143 83.127 182.143 86.0989C182.143 89.0709 184.541 91.4801 187.5 91.4801Z" fill="#397D4F"/>
<path opacity="0.3" d="M221.428 95.067C224.387 95.067 226.786 92.6578 226.786 89.6859C226.786 86.7139 224.387 84.3047 221.428 84.3047C218.47 84.3047 216.071 86.7139 216.071 89.6859C216.071 92.6578 218.47 95.067 221.428 95.067Z" fill="#397D4F"/>
<path opacity="0.38" d="M176.786 143.498C179.745 143.498 182.143 141.088 182.143 138.117C182.143 135.145 179.745 132.735 176.786 132.735C173.827 132.735 171.429 135.145 171.429 138.117C171.429 141.088 173.827 143.498 176.786 143.498Z" fill="#397D4F"/>
<path opacity="0.32" d="M198.215 139.911C201.173 139.911 203.572 137.502 203.572 134.53C203.572 131.558 201.173 129.148 198.215 129.148C195.256 129.148 192.857 131.558 192.857 134.53C192.857 137.502 195.256 139.911 198.215 139.911Z" fill="#397D4F"/>
<path opacity="0.44" d="M187.5 256.503C194.404 256.503 200 250.881 200 243.947C200 237.012 194.404 231.391 187.5 231.391C180.596 231.391 175 237.012 175 243.947C175 250.881 180.596 256.503 187.5 256.503Z" fill="#397D4F"/>
<path opacity="0.36" d="M187.5 251.121C191.445 251.121 194.643 247.909 194.643 243.946C194.643 239.984 191.445 236.771 187.5 236.771C183.555 236.771 180.357 239.984 180.357 243.946C180.357 247.909 183.555 251.121 187.5 251.121Z" fill="#397D4F"/>
<path opacity="0.8" d="M200 240.359C203.945 240.359 207.143 237.146 207.143 233.184C207.143 229.221 203.945 226.009 200 226.009C196.055 226.009 192.857 229.221 192.857 233.184C192.857 237.146 196.055 240.359 200 240.359Z" fill="#397D4F"/>
<path d="M196.429 233.184L199.107 236.323L204.464 230.493" stroke="white" stroke-width="1.6" stroke-linecap="round" stroke-linejoin="round"/>
<path opacity="0.26" d="M118.75 229.597H38.393C35.9274 229.597 33.9287 231.604 33.9287 234.081V252.018C33.9287 254.495 35.9274 256.503 38.393 256.503H118.75C121.216 256.503 123.214 254.495 123.214 252.018V234.081C123.214 231.604 121.216 229.597 118.75 229.597Z" fill="#397D4F"/>
<path opacity="0.72" d="M37.5001 231.39C37.5001 230.4 36.7006 229.597 35.7144 229.597C34.7282 229.597 33.9287 230.4 33.9287 231.39V254.709C33.9287 255.699 34.7282 256.503 35.7144 256.503C36.7006 256.503 37.5001 255.699 37.5001 254.709V231.39Z" fill="#95DE64"/>
<path opacity="0.4" d="M91.9646 234.978H43.7503C43.2572 234.978 42.8574 235.379 42.8574 235.874V238.565C42.8574 239.06 43.2572 239.462 43.7503 239.462H91.9646C92.4577 239.462 92.8574 239.06 92.8574 238.565V235.874C92.8574 235.379 92.4577 234.978 91.9646 234.978Z" fill="#397D4F"/>
<path opacity="0.24" d="M77.6789 244.843H43.7503C43.2572 244.843 42.8574 245.244 42.8574 245.74V247.533C42.8574 248.029 43.2572 248.43 43.7503 248.43H77.6789C78.172 248.43 78.5717 248.029 78.5717 247.533V245.74C78.5717 245.244 78.172 244.843 77.6789 244.843Z" fill="#397D4F"/>
<path opacity="0.34" d="M123.214 242.152C141.071 242.152 153.571 242.152 175 242.152" stroke="#397D4F" stroke-width="1.4" stroke-dasharray="3 3"/>
<path opacity="0.26" d="M347.322 222.422H256.25C253.785 222.422 251.786 224.43 251.786 226.906V244.843C251.786 247.32 253.785 249.328 256.25 249.328H347.322C349.787 249.328 351.786 247.32 351.786 244.843V226.906C351.786 224.43 349.787 222.422 347.322 222.422Z" fill="#397D4F"/>
<path opacity="0.65" d="M255.358 224.216C255.358 223.225 254.558 222.422 253.572 222.422C252.586 222.422 251.786 223.225 251.786 224.216V247.534C251.786 248.525 252.586 249.328 253.572 249.328C254.558 249.328 255.358 248.525 255.358 247.534V224.216Z" fill="#95DE64"/>
<path opacity="0.38" d="M322.321 227.803H261.607C261.114 227.803 260.714 228.204 260.714 228.7V231.39C260.714 231.886 261.114 232.287 261.607 232.287H322.321C322.814 232.287 323.214 231.886 323.214 231.39V228.7C323.214 228.204 322.814 227.803 322.321 227.803Z" fill="#397D4F"/>
<path opacity="0.22" d="M306.25 237.668H261.607C261.114 237.668 260.714 238.07 260.714 238.565V240.359C260.714 240.854 261.114 241.255 261.607 241.255H306.25C306.743 241.255 307.142 240.854 307.142 240.359V238.565C307.142 238.07 306.743 237.668 306.25 237.668Z" fill="#397D4F"/>
<path opacity="0.32" d="M251.786 234.978C232.143 236.771 214.286 240.359 200 242.152" stroke="#397D4F" stroke-width="1.4" stroke-dasharray="3 3"/>
<path opacity="0.24" d="M134.821 267.265H54.4643C51.9987 267.265 50 269.272 50 271.749V289.686C50 292.163 51.9987 294.17 54.4643 294.17H134.821C137.287 294.17 139.286 292.163 139.286 289.686V271.749C139.286 269.272 137.287 267.265 134.821 267.265Z" fill="#397D4F"/>
<path opacity="0.55" d="M53.5714 269.058C53.5714 268.068 52.7719 267.265 51.7857 267.265C50.7995 267.265 50 268.068 50 269.058V292.377C50 293.367 50.7995 294.17 51.7857 294.17C52.7719 294.17 53.5714 293.367 53.5714 292.377V269.058Z" fill="#397D4F"/>
<path opacity="0.34" d="M111.607 272.646H59.8216C59.3285 272.646 58.9287 273.047 58.9287 273.542V276.233C58.9287 276.728 59.3285 277.13 59.8216 277.13H111.607C112.1 277.13 112.5 276.728 112.5 276.233V273.542C112.5 273.047 112.1 272.646 111.607 272.646Z" fill="#397D4F"/>
<path opacity="0.2" d="M97.3216 282.511H59.8216C59.3285 282.511 58.9287 282.912 58.9287 283.408V285.201C58.9287 285.697 59.3285 286.098 59.8216 286.098H97.3216C97.8147 286.098 98.2144 285.697 98.2144 285.201V283.408C98.2144 282.912 97.8147 282.511 97.3216 282.511Z" fill="#397D4F"/>
<path opacity="0.28" d="M139.286 280.718C155.358 272.646 169.643 260.09 178.572 254.709" stroke="#397D4F" stroke-width="1.4" stroke-dasharray="3 3"/>
<path opacity="0.24" d="M336.607 260.09H240.178C237.713 260.09 235.714 262.098 235.714 264.574V282.511C235.714 284.988 237.713 286.996 240.178 286.996H336.607C339.072 286.996 341.071 284.988 341.071 282.511V264.574C341.071 262.098 339.072 260.09 336.607 260.09Z" fill="#397D4F"/>
<path opacity="0.52" d="M239.285 261.884C239.285 260.893 238.486 260.09 237.5 260.09C236.513 260.09 235.714 260.893 235.714 261.884V285.202C235.714 286.193 236.513 286.996 237.5 286.996C238.486 286.996 239.285 286.193 239.285 285.202V261.884Z" fill="#397D4F"/>
<path opacity="0.32" d="M309.821 265.471H245.535C245.042 265.471 244.643 265.872 244.643 266.368V269.058C244.643 269.553 245.042 269.955 245.535 269.955H309.821C310.314 269.955 310.714 269.553 310.714 269.058V266.368C310.714 265.872 310.314 265.471 309.821 265.471Z" fill="#397D4F"/>
<path opacity="0.2" d="M293.75 275.336H245.535C245.042 275.336 244.643 275.737 244.643 276.233V278.027C244.643 278.522 245.042 278.923 245.535 278.923H293.75C294.243 278.923 294.643 278.522 294.643 278.027V276.233C294.643 275.737 294.243 275.336 293.75 275.336Z" fill="#397D4F"/>
<path opacity="0.26" d="M235.714 273.542C221.429 265.471 207.143 258.296 196.429 253.812" stroke="#397D4F" stroke-width="1.4" stroke-dasharray="3 3"/>
<path opacity="0.2" d="M316.071 315.695H58.9284C55.9698 315.695 53.5713 318.105 53.5713 321.076V374.888C53.5713 377.86 55.9698 380.269 58.9284 380.269H316.071C319.03 380.269 321.428 377.86 321.428 374.888V321.076C321.428 318.105 319.03 315.695 316.071 315.695Z" fill="#397D4F"/>
<path opacity="0.4" d="M316.071 315.695H58.9284C55.9698 315.695 53.5713 318.105 53.5713 321.076V326.458C53.5713 329.43 55.9698 331.839 58.9284 331.839H316.071C319.03 331.839 321.428 329.43 321.428 326.458V321.076C321.428 318.105 319.03 315.695 316.071 315.695Z" fill="#397D4F"/>
<path opacity="0.62" d="M67.8567 327.802C70.0757 327.802 71.8746 325.995 71.8746 323.766C71.8746 321.537 70.0757 319.73 67.8567 319.73C65.6377 319.73 63.8389 321.537 63.8389 323.766C63.8389 325.995 65.6377 327.802 67.8567 327.802Z" fill="#397D4F"/>
<path opacity="0.44" d="M79.4641 327.802C81.6831 327.802 83.482 325.995 83.482 323.766C83.482 321.537 81.6831 319.73 79.4641 319.73C77.2451 319.73 75.4463 321.537 75.4463 323.766C75.4463 325.995 77.2451 327.802 79.4641 327.802Z" fill="#397D4F"/>
<path opacity="0.28" d="M91.0716 327.802C93.2906 327.802 95.0894 325.995 95.0894 323.766C95.0894 321.537 93.2906 319.73 91.0716 319.73C88.8526 319.73 87.0537 321.537 87.0537 323.766C87.0537 325.995 88.8526 327.802 91.0716 327.802Z" fill="#397D4F"/>
<path opacity="0.14" d="M116.965 340.808H65.179C64.6859 340.808 64.2861 341.209 64.2861 341.704V345.292C64.2861 345.787 64.6859 346.189 65.179 346.189H116.965C117.458 346.189 117.858 345.787 117.858 345.292V341.704C117.858 341.209 117.458 340.808 116.965 340.808Z" fill="#397D4F"/>
<path opacity="0.42" d="M111.608 340.808H65.179C64.6859 340.808 64.2861 341.209 64.2861 341.704V345.292C64.2861 345.787 64.6859 346.189 65.179 346.189H111.608C112.101 346.189 112.5 345.787 112.5 345.292V341.704C112.5 341.209 112.101 340.808 111.608 340.808Z" fill="#397D4F"/>
<path opacity="0.12" d="M116.965 351.569H65.179C64.6859 351.569 64.2861 351.971 64.2861 352.466V356.054C64.2861 356.549 64.6859 356.951 65.179 356.951H116.965C117.458 356.951 117.858 356.549 117.858 356.054V352.466C117.858 351.971 117.458 351.569 116.965 351.569Z" fill="#397D4F"/>
<path opacity="0.32" d="M100.893 351.569H65.179C64.6859 351.569 64.2861 351.971 64.2861 352.466V356.054C64.2861 356.549 64.6859 356.951 65.179 356.951H100.893C101.386 356.951 101.786 356.549 101.786 356.054V352.466C101.786 351.971 101.386 351.569 100.893 351.569Z" fill="#397D4F"/>
<path opacity="0.18" d="M132.143 337.22V365.919" stroke="#397D4F"/>
<path opacity="0.14" d="M195.536 340.808H143.75C143.257 340.808 142.857 341.209 142.857 341.704V345.292C142.857 345.787 143.257 346.189 143.75 346.189H195.536C196.029 346.189 196.429 345.787 196.429 345.292V341.704C196.429 341.209 196.029 340.808 195.536 340.808Z" fill="#397D4F"/>
<path opacity="0.38" d="M184.822 340.808H143.75C143.257 340.808 142.857 341.209 142.857 341.704V345.292C142.857 345.787 143.257 346.189 143.75 346.189H184.822C185.315 346.189 185.715 345.787 185.715 345.292V341.704C185.715 341.209 185.315 340.808 184.822 340.808Z" fill="#397D4F"/>
<path opacity="0.12" d="M195.536 351.569H143.75C143.257 351.569 142.857 351.971 142.857 352.466V356.054C142.857 356.549 143.257 356.951 143.75 356.951H195.536C196.029 356.951 196.429 356.549 196.429 356.054V352.466C196.429 351.971 196.029 351.569 195.536 351.569Z" fill="#397D4F"/>
<path opacity="0.28" d="M175.893 351.569H143.75C143.257 351.569 142.857 351.971 142.857 352.466V356.054C142.857 356.549 143.257 356.951 143.75 356.951H175.893C176.386 356.951 176.786 356.549 176.786 356.054V352.466C176.786 351.971 176.386 351.569 175.893 351.569Z" fill="#397D4F"/>
<path opacity="0.18" d="M210.714 337.22V365.919" stroke="#397D4F"/>
<path opacity="0.14" d="M274.107 340.808H222.322C221.828 340.808 221.429 341.209 221.429 341.704V345.292C221.429 345.787 221.828 346.189 222.322 346.189H274.107C274.6 346.189 275 345.787 275 345.292V341.704C275 341.209 274.6 340.808 274.107 340.808Z" fill="#397D4F"/>
<path opacity="0.46" d="M266.964 340.808H222.322C221.828 340.808 221.429 341.209 221.429 341.704V345.292C221.429 345.787 221.828 346.189 222.322 346.189H266.964C267.458 346.189 267.857 345.787 267.857 345.292V341.704C267.857 341.209 267.458 340.808 266.964 340.808Z" fill="#397D4F"/>
<path opacity="0.12" d="M274.107 351.569H222.322C221.828 351.569 221.429 351.971 221.429 352.466V356.054C221.429 356.549 221.828 356.951 222.322 356.951H274.107C274.6 356.951 275 356.549 275 356.054V352.466C275 351.971 274.6 351.569 274.107 351.569Z" fill="#397D4F"/>
<path opacity="0.3" d="M252.679 351.569H222.322C221.828 351.569 221.429 351.971 221.429 352.466V356.054C221.429 356.549 221.828 356.951 222.322 356.951H252.679C253.172 356.951 253.572 356.549 253.572 356.054V352.466C253.572 351.971 253.172 351.569 252.679 351.569Z" fill="#397D4F"/>
<path opacity="0.7" d="M301.785 358.744C305.73 358.744 308.928 355.532 308.928 351.569C308.928 347.607 305.73 344.395 301.785 344.395C297.841 344.395 294.643 347.607 294.643 351.569C294.643 355.532 297.841 358.744 301.785 358.744Z" fill="#95DE64"/>
<path d="M298.214 351.57L300.892 354.709L306.25 348.431" stroke="white" stroke-width="1.5" stroke-linecap="round" stroke-linejoin="round"/>
<path opacity="0.26" d="M187.5 256.502V315.695" stroke="#397D4F" stroke-width="1.5" stroke-dasharray="4 3"/>
<path opacity="0.28" d="M25.0004 139.014C27.466 139.014 29.4647 137.006 29.4647 134.529C29.4647 132.053 27.466 130.045 25.0004 130.045C22.5349 130.045 20.5361 132.053 20.5361 134.529C20.5361 137.006 22.5349 139.014 25.0004 139.014Z" fill="#397D4F"/>
<path opacity="0.18" d="M14.286 126.457C15.7653 126.457 16.9646 125.253 16.9646 123.767C16.9646 122.281 15.7653 121.076 14.286 121.076C12.8067 121.076 11.6074 122.281 11.6074 123.767C11.6074 125.253 12.8067 126.457 14.286 126.457Z" fill="#397D4F"/>
<path opacity="0.42" d="M350 138.565C352.219 138.565 354.018 136.758 354.018 134.529C354.018 132.3 352.219 130.493 350 130.493C347.781 130.493 345.982 132.3 345.982 134.529C345.982 136.758 347.781 138.565 350 138.565Z" fill="#95DE64"/>
<path opacity="0.18" d="M360.715 127.803C361.947 127.803 362.947 126.799 362.947 125.561C362.947 124.322 361.947 123.318 360.715 123.318C359.482 123.318 358.482 124.322 358.482 125.561C358.482 126.799 359.482 127.803 360.715 127.803Z" fill="#397D4F"/>
<path opacity="0.22" d="M19.6427 326.457C21.6152 326.457 23.2141 324.851 23.2141 322.87C23.2141 320.888 21.6152 319.282 19.6427 319.282C17.6703 319.282 16.0713 320.888 16.0713 322.87C16.0713 324.851 17.6703 326.457 19.6427 326.457Z" fill="#397D4F"/>
<path opacity="0.22" d="M355.358 326.457C357.33 326.457 358.929 324.851 358.929 322.87C358.929 320.888 357.33 319.282 355.358 319.282C353.385 319.282 351.786 320.888 351.786 322.87C351.786 324.851 353.385 326.457 355.358 326.457Z" fill="#397D4F"/>
</svg>
