<svg width="323" height="419" viewBox="0 0 323 419" fill="none" xmlns="http://www.w3.org/2000/svg">
<path opacity="0.07" d="M296 172C320 146 330 110 315 76.0003C300 42.0003 270 26.0003 236 32.0003C202 38.0003 178 64.0003 168 100C158 136 164 176 184 204C204 232 242 242 270 230C298 218 312 204 296 172Z" fill="#397D4F"/>
<path opacity="0.05" d="M130 395C196.274 395 250 347.99 250 290C250 232.01 196.274 185 130 185C63.7258 185 10 232.01 10 290C10 347.99 63.7258 395 130 395Z" fill="#397D4F"/>
<path opacity="0.22" d="M102 80H18C14.6863 80 12 82.6863 12 86V254C12 257.314 14.6863 260 18 260H102C105.314 260 108 257.314 108 254V86C108 82.6863 105.314 80 102 80Z" fill="#397D4F"/>
<path opacity="0.42" d="M102 80H18C14.6863 80 12 82.6863 12 86V94C12 97.3137 14.6863 100 18 100H102C105.314 100 108 97.3137 108 94V86C108 82.6863 105.314 80 102 80Z" fill="#397D4F"/>
<path opacity="0.36" d="M79 88H21C20.4477 88 20 88.4477 20 89V92C20 92.5523 20.4477 93 21 93H79C79.5523 93 80 92.5523 80 92V89C80 88.4477 79.5523 88 79 88Z" fill="#397D4F"/>
<path opacity="0.4" d="M36 130C40.4183 130 44 126.418 44 122C44 117.582 40.4183 114 36 114C31.5817 114 28 117.582 28 122C28 126.418 31.5817 130 36 130Z" fill="#397D4F"/>
<path opacity="0.28" d="M24 145C24 132 48 132 48 145H24Z" fill="#397D4F"/>
<path opacity="0.3" d="M99 119H57C56.4477 119 56 119.448 56 120V122C56 122.552 56.4477 123 57 123H99C99.5523 123 100 122.552 100 122V120C100 119.448 99.5523 119 99 119Z" fill="#397D4F"/>
<path opacity="0.2" d="M89 129H57C56.4477 129 56 129.448 56 130V132C56 132.552 56.4477 133 57 133H89C89.5523 133 90 132.552 90 132V130C90 129.448 89.5523 129 89 129Z" fill="#397D4F"/>
<path opacity="0.36" d="M36 176C40.4183 176 44 172.418 44 168C44 163.582 40.4183 160 36 160C31.5817 160 28 163.582 28 168C28 172.418 31.5817 176 36 176Z" fill="#397D4F"/>
<path opacity="0.24" d="M24 191C24 178 48 178 48 191H24Z" fill="#397D4F"/>
<path opacity="0.28" d="M99 165H57C56.4477 165 56 165.448 56 166V168C56 168.552 56.4477 169 57 169H99C99.5523 169 100 168.552 100 168V166C100 165.448 99.5523 165 99 165Z" fill="#397D4F"/>
<path opacity="0.18" d="M85 175H57C56.4477 175 56 175.448 56 176V178C56 178.552 56.4477 179 57 179H85C85.5523 179 86 178.552 86 178V176C86 175.448 85.5523 175 85 175Z" fill="#397D4F"/>
<path opacity="0.3" d="M36 222C40.4183 222 44 218.418 44 214C44 209.582 40.4183 206 36 206C31.5817 206 28 209.582 28 214C28 218.418 31.5817 222 36 222Z" fill="#397D4F"/>
<path opacity="0.2" d="M24 237C24 224 48 224 48 237H24Z" fill="#397D4F"/>
<path opacity="0.24" d="M99 211H57C56.4477 211 56 211.448 56 212V214C56 214.552 56.4477 215 57 215H99C99.5523 215 100 214.552 100 214V212C100 211.448 99.5523 211 99 211Z" fill="#397D4F"/>
<path opacity="0.16" d="M93 221H57C56.4477 221 56 221.448 56 222V224C56 224.552 56.4477 225 57 225H93C93.5523 225 94 224.552 94 224V222C94 221.448 93.5523 221 93 221Z" fill="#397D4F"/>
<path opacity="0.28" d="M156 155H112C109.791 155 108 156.791 108 159V165C108 167.209 109.791 169 112 169H156C158.209 169 160 167.209 160 165V159C160 156.791 158.209 155 156 155Z" fill="#397D4F"/>
<path opacity="0.5" d="M112 162L120 156V168L112 162Z" fill="#397D4F"/>
<path opacity="0.5" d="M156 162L148 156V168L156 162Z" fill="#397D4F"/>
<path opacity="0.4" d="M126 165C127.657 165 129 163.657 129 162C129 160.343 127.657 159 126 159C124.343 159 123 160.343 123 162C123 163.657 124.343 165 126 165Z" fill="#397D4F"/>
<path opacity="0.38" d="M134 165C135.657 165 137 163.657 137 162C137 160.343 135.657 159 134 159C132.343 159 131 160.343 131 162C131 163.657 132.343 165 134 165Z" fill="#397D4F"/>
<path opacity="0.36" d="M142 165C143.657 165 145 163.657 145 162C145 160.343 143.657 159 142 159C140.343 159 139 160.343 139 162C139 163.657 140.343 165 142 165Z" fill="#397D4F"/>
<path opacity="0.2" d="M306 56H166C162.686 56 160 58.6863 160 62V278C160 281.314 162.686 284 166 284H306C309.314 284 312 281.314 312 278V62C312 58.6863 309.314 56 306 56Z" fill="#397D4F"/>
<path opacity="0.42" d="M306 56H166C162.686 56 160 58.6863 160 62V70C160 73.3137 162.686 76 166 76H306C309.314 76 312 73.3137 312 70V62C312 58.6863 309.314 56 306 56Z" fill="#397D4F"/>
<path opacity="0.34" d="M249 64H171C170.448 64 170 64.4477 170 65V68C170 68.5523 170.448 69 171 69H249C249.552 69 250 68.5523 250 68V65C250 64.4477 249.552 64 249 64Z" fill="#397D4F"/>
<path opacity="0.34" d="M308 76C316 90 318 120 318 170C318 220 316 250 308 260" stroke="#397D4F" stroke-width="2" stroke-linecap="round"/>
<path opacity="0.28" d="M312 86L318 76" stroke="#397D4F" stroke-width="1.5" stroke-linecap="round"/>
<path opacity="0.28" d="M312 250L318 260" stroke="#397D4F" stroke-width="1.5" stroke-linecap="round"/>
<path opacity="0.3" d="M230 84H174C171.791 84 170 85.7909 170 88V132C170 134.209 171.791 136 174 136H230C232.209 136 234 134.209 234 132V88C234 85.7909 232.209 84 230 84Z" fill="#397D4F"/>
<path opacity="0.44" d="M202 110C207.523 110 212 105.523 212 100C212 94.4772 207.523 90 202 90C196.477 90 192 94.4772 192 100C192 105.523 196.477 110 202 110Z" fill="#397D4F"/>
<path opacity="0.28" d="M188 118C188 108 216 108 216 118H188Z" fill="#397D4F"/>
<path opacity="0.22" d="M229 124H175C174.448 124 174 124.448 174 125V127C174 127.552 174.448 128 175 128H229C229.552 128 230 127.552 230 127V125C230 124.448 229.552 124 229 124Z" fill="#397D4F"/>
<path opacity="0.16" d="M217 131H175C174.448 131 174 131.448 174 132V134C174 134.552 174.448 135 175 135H217C217.552 135 218 134.552 218 134V132C218 131.448 217.552 131 217 131Z" fill="#397D4F"/>
<path opacity="0.78" d="M224 93.5C227.038 93.5 229.5 91.0376 229.5 88C229.5 84.9624 227.038 82.5 224 82.5C220.962 82.5 218.5 84.9624 218.5 88C218.5 91.0376 220.962 93.5 224 93.5Z" fill="#95DE64"/>
<path d="M221 88L223.5 90.5L228 85.5" stroke="white" stroke-width="1.3" stroke-linecap="round" stroke-linejoin="round"/>
<path opacity="0.28" d="M302 84H246C243.791 84 242 85.7909 242 88V132C242 134.209 243.791 136 246 136H302C304.209 136 306 134.209 306 132V88C306 85.7909 304.209 84 302 84Z" fill="#397D4F"/>
<path opacity="0.4" d="M274 110C279.523 110 284 105.523 284 100C284 94.4772 279.523 90 274 90C268.477 90 264 94.4772 264 100C264 105.523 268.477 110 274 110Z" fill="#397D4F"/>
<path opacity="0.24" d="M260 118C260 108 288 108 288 118H260Z" fill="#397D4F"/>
<path opacity="0.2" d="M301 124H247C246.448 124 246 124.448 246 125V127C246 127.552 246.448 128 247 128H301C301.552 128 302 127.552 302 127V125C302 124.448 301.552 124 301 124Z" fill="#397D4F"/>
<path opacity="0.14" d="M285 131H247C246.448 131 246 131.448 246 132V134C246 134.552 246.448 135 247 135H285C285.552 135 286 134.552 286 134V132C286 131.448 285.552 131 285 131Z" fill="#397D4F"/>
<path opacity="0.68" d="M296 93.5C299.038 93.5 301.5 91.0376 301.5 88C301.5 84.9624 299.038 82.5 296 82.5C292.962 82.5 290.5 84.9624 290.5 88C290.5 91.0376 292.962 93.5 296 93.5Z" fill="#95DE64"/>
<path d="M293 88L295.5 90.5L300 85.5" stroke="white" stroke-width="1.3" stroke-linecap="round" stroke-linejoin="round"/>
<path opacity="0.26" d="M230 146H174C171.791 146 170 147.791 170 150V194C170 196.209 171.791 198 174 198H230C232.209 198 234 196.209 234 194V150C234 147.791 232.209 146 230 146Z" fill="#397D4F"/>
<path opacity="0.38" d="M202 172C207.523 172 212 167.523 212 162C212 156.477 207.523 152 202 152C196.477 152 192 156.477 192 162C192 167.523 196.477 172 202 172Z" fill="#397D4F"/>
<path opacity="0.22" d="M188 180C188 170 216 170 216 180H188Z" fill="#397D4F"/>
<path opacity="0.18" d="M229 186H175C174.448 186 174 186.448 174 187V189C174 189.552 174.448 190 175 190H229C229.552 190 230 189.552 230 189V187C230 186.448 229.552 186 229 186Z" fill="#397D4F"/>
<path opacity="0.14" d="M211 193H175C174.448 193 174 193.448 174 194V196C174 196.552 174.448 197 175 197H211C211.552 197 212 196.552 212 196V194C212 193.448 211.552 193 211 193Z" fill="#397D4F"/>
<path opacity="0.55" d="M224 155.5C227.038 155.5 229.5 153.038 229.5 150C229.5 146.962 227.038 144.5 224 144.5C220.962 144.5 218.5 146.962 218.5 150C218.5 153.038 220.962 155.5 224 155.5Z" fill="#397D4F"/>
<path d="M221 150L223.5 152.5L228 147.5" stroke="white" stroke-width="1.3" stroke-linecap="round" stroke-linejoin="round"/>
<path opacity="0.18" d="M302 146H246C243.791 146 242 147.791 242 150V194C242 196.209 243.791 198 246 198H302C304.209 198 306 196.209 306 194V150C306 147.791 304.209 146 302 146Z" fill="#397D4F" stroke="#397D4F" stroke-width="1.2" stroke-dasharray="4 3"/>
<path opacity="0.22" d="M274 172C279.523 172 284 167.523 284 162C284 156.477 279.523 152 274 152C268.477 152 264 156.477 264 162C264 167.523 268.477 172 274 172Z" fill="#397D4F"/>
<path opacity="0.14" d="M260 180C260 170 288 170 288 180H260Z" fill="#397D4F"/>
<path opacity="0.38" d="M274 156V168" stroke="#397D4F" stroke-width="2" stroke-linecap="round"/>
<path opacity="0.38" d="M268 162H280" stroke="#397D4F" stroke-width="2" stroke-linecap="round"/>
<path opacity="0.22" d="M230 208H174C171.791 208 170 209.791 170 212V256C170 258.209 171.791 260 174 260H230C232.209 260 234 258.209 234 256V212C234 209.791 232.209 208 230 208Z" fill="#397D4F"/>
<path opacity="0.32" d="M202 234C207.523 234 212 229.523 212 224C212 218.477 207.523 214 202 214C196.477 214 192 218.477 192 224C192 229.523 196.477 234 202 234Z" fill="#397D4F"/>
<path opacity="0.18" d="M188 242C188 232 216 232 216 242H188Z" fill="#397D4F"/>
<path opacity="0.16" d="M229 248H175C174.448 248 174 248.448 174 249V251C174 251.552 174.448 252 175 252H229C229.552 252 230 251.552 230 251V249C230 248.448 229.552 248 229 248Z" fill="#397D4F"/>
<path opacity="0.12" d="M207 255H175C174.448 255 174 255.448 174 256V258C174 258.552 174.448 259 175 259H207C207.552 259 208 258.552 208 258V256C208 255.448 207.552 255 207 255Z" fill="#397D4F"/>
<path opacity="0.18" d="M306 298H18C14.6863 298 12 300.686 12 304V382C12 385.314 14.6863 388 18 388H306C309.314 388 312 385.314 312 382V304C312 300.686 309.314 298 306 298Z" fill="#397D4F"/>
<path opacity="0.38" d="M306 298H18C14.6863 298 12 300.686 12 304V310C12 313.314 14.6863 316 18 316H306C309.314 316 312 313.314 312 310V304C312 300.686 309.314 298 306 298Z" fill="#397D4F"/>
<path opacity="0.58" d="M26 311C28.2091 311 30 309.209 30 307C30 304.791 28.2091 303 26 303C23.7909 303 22 304.791 22 307C22 309.209 23.7909 311 26 311Z" fill="#397D4F"/>
<path opacity="0.4" d="M38 311C40.2091 311 42 309.209 42 307C42 304.791 40.2091 303 38 303C35.7909 303 34 304.791 34 307C34 309.209 35.7909 311 38 311Z" fill="#397D4F"/>
<path opacity="0.24" d="M50 311C52.2091 311 54 309.209 54 307C54 304.791 52.2091 303 50 303C47.7909 303 46 304.791 46 307C46 309.209 47.7909 311 50 311Z" fill="#397D4F"/>
<path opacity="0.14" d="M102 324H24C22.8954 324 22 324.895 22 326V328C22 329.105 22.8954 330 24 330H102C103.105 330 104 329.105 104 328V326C104 324.895 103.105 324 102 324Z" fill="#397D4F"/>
<path opacity="0.38" d="M90 324H24C22.8954 324 22 324.895 22 326V328C22 329.105 22.8954 330 24 330H90C91.1046 330 92 329.105 92 328V326C92 324.895 91.1046 324 90 324Z" fill="#397D4F"/>
<path opacity="0.12" d="M102 336H24C22.8954 336 22 336.895 22 338V340C22 341.105 22.8954 342 24 342H102C103.105 342 104 341.105 104 340V338C104 336.895 103.105 336 102 336Z" fill="#397D4F"/>
<path opacity="0.3" d="M75 336H24C22.8954 336 22 336.895 22 338V340C22 341.105 22.8954 342 24 342H75C76.1046 342 77 341.105 77 340V338C77 336.895 76.1046 336 75 336Z" fill="#397D4F"/>
<path opacity="0.1" d="M102 348H24C22.8954 348 22 348.895 22 350V352C22 353.105 22.8954 354 24 354H102C103.105 354 104 353.105 104 352V350C104 348.895 103.105 348 102 348Z" fill="#397D4F"/>
<path opacity="0.24" d="M88 348H24C22.8954 348 22 348.895 22 350V352C22 353.105 22.8954 354 24 354H88C89.1046 354 90 353.105 90 352V350C90 348.895 89.1046 348 88 348Z" fill="#397D4F"/>
<path opacity="0.1" d="M102 360H24C22.8954 360 22 360.895 22 362V364C22 365.105 22.8954 366 24 366H102C103.105 366 104 365.105 104 364V362C104 360.895 103.105 360 102 360Z" fill="#397D4F"/>
<path opacity="0.36" d="M64 360H24C22.8954 360 22 360.895 22 362V364C22 365.105 22.8954 366 24 366H64C65.1046 366 66 365.105 66 364V362C66 360.895 65.1046 360 64 360Z" fill="#397D4F"/>
<path opacity="0.16" d="M116 320V378" stroke="#397D4F"/>
<path opacity="0.12" d="M204 324H126C124.895 324 124 324.895 124 326V328C124 329.105 124.895 330 126 330H204C205.105 330 206 329.105 206 328V326C206 324.895 205.105 324 204 324Z" fill="#397D4F"/>
<path opacity="0.35" d="M186 324H126C124.895 324 124 324.895 124 326V328C124 329.105 124.895 330 126 330H186C187.105 330 188 329.105 188 328V326C188 324.895 187.105 324 186 324Z" fill="#397D4F"/>
<path opacity="0.1" d="M204 336H126C124.895 336 124 336.895 124 338V340C124 341.105 124.895 342 126 342H204C205.105 342 206 341.105 206 340V338C206 336.895 205.105 336 204 336Z" fill="#397D4F"/>
<path opacity="0.42" d="M200 336H126C124.895 336 124 336.895 124 338V340C124 341.105 124.895 342 126 342H200C201.105 342 202 341.105 202 340V338C202 336.895 201.105 336 200 336Z" fill="#397D4F"/>
<path opacity="0.1" d="M204 348H126C124.895 348 124 348.895 124 350V352C124 353.105 124.895 354 126 354H204C205.105 354 206 353.105 206 352V350C206 348.895 205.105 348 204 348Z" fill="#397D4F"/>
<path opacity="0.28" d="M172 348H126C124.895 348 124 348.895 124 350V352C124 353.105 124.895 354 126 354H172C173.105 354 174 353.105 174 352V350C174 348.895 173.105 348 172 348Z" fill="#397D4F"/>
<path opacity="0.1" d="M204 360H126C124.895 360 124 360.895 124 362V364C124 365.105 124.895 366 126 366H204C205.105 366 206 365.105 206 364V362C206 360.895 205.105 360 204 360Z" fill="#397D4F"/>
<path opacity="0.32" d="M182 360H126C124.895 360 124 360.895 124 362V364C124 365.105 124.895 366 126 366H182C183.105 366 184 365.105 184 364V362C184 360.895 183.105 360 182 360Z" fill="#397D4F"/>
<path opacity="0.16" d="M218 320V378" stroke="#397D4F"/>
<path opacity="0.12" d="M302 324H228C226.895 324 226 324.895 226 326V328C226 329.105 226.895 330 228 330H302C303.105 330 304 329.105 304 328V326C304 324.895 303.105 324 302 324Z" fill="#397D4F"/>
<path opacity="0.32" d="M282 324H228C226.895 324 226 324.895 226 326V328C226 329.105 226.895 330 228 330H282C283.105 330 284 329.105 284 328V326C284 324.895 283.105 324 282 324Z" fill="#397D4F"/>
<path opacity="0.1" d="M302 336H228C226.895 336 226 336.895 226 338V340C226 341.105 226.895 342 228 342H302C303.105 342 304 341.105 304 340V338C304 336.895 303.105 336 302 336Z" fill="#397D4F"/>
<path opacity="0.26" d="M270 336H228C226.895 336 226 336.895 226 338V340C226 341.105 226.895 342 228 342H270C271.105 342 272 341.105 272 340V338C272 336.895 271.105 336 270 336Z" fill="#397D4F"/>
<path opacity="0.1" d="M302 348H228C226.895 348 226 348.895 226 350V352C226 353.105 226.895 354 228 354H302C303.105 354 304 353.105 304 352V350C304 348.895 303.105 348 302 348Z" fill="#397D4F"/>
<path opacity="0.4" d="M294 348H228C226.895 348 226 348.895 226 350V352C226 353.105 226.895 354 228 354H294C295.105 354 296 353.105 296 352V350C296 348.895 295.105 348 294 348Z" fill="#397D4F"/>
<path opacity="0.72" d="M294 369C297.314 369 300 366.314 300 363C300 359.686 297.314 357 294 357C290.686 357 288 359.686 288 363C288 366.314 290.686 369 294 369Z" fill="#95DE64"/>
<path d="M291 363L293.5 365.5L298 360.5" stroke="white" stroke-width="1.3" stroke-linecap="round" stroke-linejoin="round"/>
<path opacity="0.28" d="M236 284V298" stroke="#397D4F" stroke-width="1.5"/>
<path opacity="0.22" d="M60 260V298" stroke="#397D4F" stroke-width="1.5"/>
<path opacity="0.26" d="M8 56C10.2091 56 12 54.2091 12 52C12 49.7909 10.2091 48 8 48C5.79086 48 4 49.7909 4 52C4 54.2091 5.79086 56 8 56Z" fill="#397D4F"/>
<path opacity="0.16" d="M20 44.5C21.3807 44.5 22.5 43.3807 22.5 42C22.5 40.6193 21.3807 39.5 20 39.5C18.6193 39.5 17.5 40.6193 17.5 42C17.5 43.3807 18.6193 44.5 20 44.5Z" fill="#397D4F"/>
<path opacity="0.44" d="M314 56.5C316.485 56.5 318.5 54.4853 318.5 52C318.5 49.5147 316.485 47.5 314 47.5C311.515 47.5 309.5 49.5147 309.5 52C309.5 54.4853 311.515 56.5 314 56.5Z" fill="#95DE64"/>
<path opacity="0.18" d="M302 44.5C303.381 44.5 304.5 43.3807 304.5 42C304.5 40.6193 303.381 39.5 302 39.5C300.619 39.5 299.5 40.6193 299.5 42C299.5 43.3807 300.619 44.5 302 44.5Z" fill="#397D4F"/>
<path opacity="0.24" d="M162 413C164.761 413 167 410.761 167 408C167 405.239 164.761 403 162 403C159.239 403 157 405.239 157 408C157 410.761 159.239 413 162 413Z" fill="#397D4F"/>
<path opacity="0.2" d="M10 208.5C11.933 208.5 13.5 206.933 13.5 205C13.5 203.067 11.933 201.5 10 201.5C8.067 201.5 6.5 203.067 6.5 205C6.5 206.933 8.067 208.5 10 208.5Z" fill="#397D4F"/>
</svg>
