<svg width="407" height="360" viewBox="0 0 407 360" fill="none" xmlns="http://www.w3.org/2000/svg">
<g clip-path="url(#clip0_1_8927)">
<path opacity="0.09" d="M272 286C354.843 286 422 230.483 422 162C422 93.5167 354.843 38 272 38C189.157 38 122 93.5167 122 162C122 230.483 189.157 286 272 286Z" fill="#397D4F"/>
<path opacity="0.05" d="M294 332C358.065 332 410 264.843 410 182C410 99.1573 358.065 32 294 32C229.935 32 178 99.1573 178 182C178 264.843 229.935 332 294 332Z" fill="#397D4F"/>
<path opacity="0.3" d="M80 52H28C22.4772 52 18 56.4772 18 62V170C18 175.523 22.4772 180 28 180H80C85.5229 180 90 175.523 90 170V62C90 56.4772 85.5229 52 80 52Z" fill="#397D4F"/>
<path opacity="0.44" d="M80 52H28C22.4772 52 18 56.4772 18 62V170C18 175.523 22.4772 180 28 180H80C85.5229 180 90 175.523 90 170V62C90 56.4772 85.5229 52 80 52Z" stroke="#397D4F" stroke-width="2"/>
<path opacity="0.5" d="M64 52H44C41.7909 52 40 53.7909 40 56C40 58.2091 41.7909 60 44 60H64C66.2091 60 68 58.2091 68 56C68 53.7909 66.2091 52 64 52Z" fill="#397D4F"/>
<path opacity="0.22" d="M80 68H28C26.8954 68 26 68.8954 26 70V76C26 77.1046 26.8954 78 28 78H80C81.1046 78 82 77.1046 82 76V70C82 68.8954 81.1046 68 80 68Z" fill="#397D4F"/>
<path opacity="0.16" d="M80 84H28C26.8954 84 26 84.8954 26 86V118C26 119.105 26.8954 120 28 120H80C81.1046 120 82 119.105 82 118V86C82 84.8954 81.1046 84 80 84Z" fill="#397D4F"/>
<path opacity="0.22" d="M80 84H28C26.8954 84 26 84.8954 26 86V94C26 95.1046 26.8954 96 28 96H80C81.1046 96 82 95.1046 82 94V86C82 84.8954 81.1046 84 80 84Z" fill="#397D4F"/>
<path opacity="0.18" d="M81 126H27C26.4477 126 26 126.448 26 127V131C26 131.552 26.4477 132 27 132H81C81.5523 132 82 131.552 82 131V127C82 126.448 81.5523 126 81 126Z" fill="#397D4F"/>
<path opacity="0.14" d="M65 136H27C26.4477 136 26 136.448 26 137V141C26 141.552 26.4477 142 27 142H65C65.5523 142 66 141.552 66 141V137C66 136.448 65.5523 136 65 136Z" fill="#397D4F"/>
<path opacity="0.36" d="M52 148H28C26.8954 148 26 148.895 26 150V156C26 157.105 26.8954 158 28 158H52C53.1046 158 54 157.105 54 156V150C54 148.895 53.1046 148 52 148Z" fill="#397D4F"/>
<path opacity="0.4" d="M66 168H42C40.8954 168 40 168.895 40 170C40 171.105 40.8954 172 42 172H66C67.1046 172 68 171.105 68 170C68 168.895 67.1046 168 66 168Z" fill="#397D4F"/>
<path opacity="0.82" d="M80 71C84.9706 71 89 66.9706 89 62C89 57.0294 84.9706 53 80 53C75.0294 53 71 57.0294 71 62C71 66.9706 75.0294 71 80 71Z" fill="#95DE64"/>
<path d="M76 62L79 65L85 58" stroke="white" stroke-width="1.5" stroke-linecap="round" stroke-linejoin="round"/>
<path opacity="0.26" d="M208 30H116C111.582 30 108 33.5817 108 38V172C108 176.418 111.582 180 116 180H208C212.418 180 216 176.418 216 172V38C216 33.5817 212.418 30 208 30Z" fill="#397D4F"/>
<path opacity="0.4" d="M208 30H116C111.582 30 108 33.5817 108 38V172C108 176.418 111.582 180 116 180H208C212.418 180 216 176.418 216 172V38C216 33.5817 212.418 30 208 30Z" stroke="#397D4F" stroke-width="2"/>
<path opacity="0.45" d="M162 42C164.209 42 166 40.2091 166 38C166 35.7909 164.209 34 162 34C159.791 34 158 35.7909 158 38C158 40.2091 159.791 42 162 42Z" fill="#397D4F"/>
<path opacity="0.24" d="M206 48H118C116.895 48 116 48.8954 116 50V64C116 65.1046 116.895 66 118 66H206C207.105 66 208 65.1046 208 64V50C208 48.8954 207.105 48 206 48Z" fill="#397D4F"/>
<path opacity="0.14" d="M206 72H118C116.895 72 116 72.8954 116 74V120C116 121.105 116.895 122 118 122H206C207.105 122 208 121.105 208 120V74C208 72.8954 207.105 72 206 72Z" fill="#397D4F"/>
<path opacity="0.2" d="M206 72H118C116.895 72 116 72.8954 116 74V84C116 85.1046 116.895 86 118 86H206C207.105 86 208 85.1046 208 84V74C208 72.8954 207.105 72 206 72Z" fill="#397D4F"/>
<path opacity="0.16" d="M159 92H117C116.448 92 116 92.4477 116 93V97C116 97.5523 116.448 98 117 98H159C159.552 98 160 97.5523 160 97V93C160 92.4477 159.552 92 159 92Z" fill="#397D4F"/>
<path opacity="0.14" d="M175 102H117C116.448 102 116 102.448 116 103V107C116 107.552 116.448 108 117 108H175C175.552 108 176 107.552 176 107V103C176 102.448 175.552 102 175 102Z" fill="#397D4F"/>
<path opacity="0.18" d="M156 130H118C116.895 130 116 130.895 116 132V160C116 161.105 116.895 162 118 162H156C157.105 162 158 161.105 158 160V132C158 130.895 157.105 130 156 130Z" fill="#397D4F"/>
<path opacity="0.16" d="M206 130H166C164.895 130 164 130.895 164 132V160C164 161.105 164.895 162 166 162H206C207.105 162 208 161.105 208 160V132C208 130.895 207.105 130 206 130Z" fill="#397D4F"/>
<path opacity="0.18" d="M207 168H117C116.448 168 116 168.448 116 169V173C116 173.552 116.448 174 117 174H207C207.552 174 208 173.552 208 173V169C208 168.448 207.552 168 207 168Z" fill="#397D4F"/>
<path opacity="0.38" d="M162 177C164.761 177 167 174.761 167 172C167 169.239 164.761 167 162 167C159.239 167 157 169.239 157 172C157 174.761 159.239 177 162 177Z" fill="#397D4F"/>
<path opacity="0.78" d="M206 51C210.971 51 215 46.9706 215 42C215 37.0294 210.971 33 206 33C201.029 33 197 37.0294 197 42C197 46.9706 201.029 51 206 51Z" fill="#95DE64"/>
<path d="M202 42L205 45L211 38" stroke="white" stroke-width="1.5" stroke-linecap="round" stroke-linejoin="round"/>
<path opacity="0.24" d="M392 22H238C234.686 22 232 24.6863 232 28V136C232 139.314 234.686 142 238 142H392C395.314 142 398 139.314 398 136V28C398 24.6863 395.314 22 392 22Z" fill="#397D4F"/>
<path opacity="0.38" d="M392 22H238C234.686 22 232 24.6863 232 28V136C232 139.314 234.686 142 238 142H392C395.314 142 398 139.314 398 136V28C398 24.6863 395.314 22 392 22Z" stroke="#397D4F" stroke-width="2"/>
<path opacity="0.36" d="M392 22H238C234.686 22 232 24.6863 232 28V36C232 39.3137 234.686 42 238 42H392C395.314 42 398 39.3137 398 36V28C398 24.6863 395.314 22 392 22Z" fill="#397D4F"/>
<path opacity="0.6" d="M248 36C250.209 36 252 34.2091 252 32C252 29.7909 250.209 28 248 28C245.791 28 244 29.7909 244 32C244 34.2091 245.791 36 248 36Z" fill="#397D4F"/>
<path opacity="0.42" d="M261 36C263.209 36 265 34.2091 265 32C265 29.7909 263.209 28 261 28C258.791 28 257 29.7909 257 32C257 34.2091 258.791 36 261 36Z" fill="#397D4F"/>
<path opacity="0.26" d="M274 36C276.209 36 278 34.2091 278 32C278 29.7909 276.209 28 274 28C271.791 28 270 29.7909 270 32C270 34.2091 271.791 36 274 36Z" fill="#397D4F"/>
<path opacity="0.2" d="M386 50H242C240.895 50 240 50.8954 240 52V58C240 59.1046 240.895 60 242 60H386C387.105 60 388 59.1046 388 58V52C388 50.8954 387.105 50 386 50Z" fill="#397D4F"/>
<path opacity="0.14" d="M282 66H242C240.895 66 240 66.8954 240 68V124C240 125.105 240.895 126 242 126H282C283.105 126 284 125.105 284 124V68C284 66.8954 283.105 66 282 66Z" fill="#397D4F"/>
<path opacity="0.12" d="M334 66H292C290.895 66 290 66.8954 290 68V124C290 125.105 290.895 126 292 126H334C335.105 126 336 125.105 336 124V68C336 66.8954 335.105 66 334 66Z" fill="#397D4F"/>
<path opacity="0.14" d="M386 66H344C342.895 66 342 66.8954 342 68V124C342 125.105 342.895 126 344 126H386C387.105 126 388 125.105 388 124V68C388 66.8954 387.105 66 386 66Z" fill="#397D4F"/>
<path opacity="0.2" d="M283 70H241C240.448 70 240 70.4477 240 71V81C240 81.5523 240.448 82 241 82H283C283.552 82 284 81.5523 284 81V71C284 70.4477 283.552 70 283 70Z" fill="#397D4F"/>
<path opacity="0.18" d="M335 70H291C290.448 70 290 70.4477 290 71V81C290 81.5523 290.448 82 291 82H335C335.552 82 336 81.5523 336 81V71C336 70.4477 335.552 70 335 70Z" fill="#397D4F"/>
<path opacity="0.2" d="M387 70H343C342.448 70 342 70.4477 342 71V81C342 81.5523 342.448 82 343 82H387C387.552 82 388 81.5523 388 81V71C388 70.4477 387.552 70 387 70Z" fill="#397D4F"/>
<path opacity="0.28" d="M324 142H306C304.895 142 304 142.895 304 144V158C304 159.105 304.895 160 306 160H324C325.105 160 326 159.105 326 158V144C326 142.895 325.105 142 324 142Z" fill="#397D4F"/>
<path opacity="0.32" d="M336 158H294C292.895 158 292 158.895 292 160V162C292 163.105 292.895 164 294 164H336C337.105 164 338 163.105 338 162V160C338 158.895 337.105 158 336 158Z" fill="#397D4F"/>
<path opacity="0.75" d="M386 43C390.971 43 395 38.9706 395 34C395 29.0294 390.971 25 386 25C381.029 25 377 29.0294 377 34C377 38.9706 381.029 43 386 43Z" fill="#95DE64"/>
<path d="M382 34L385 37L391 30" stroke="white" stroke-width="1.5" stroke-linecap="round" stroke-linejoin="round"/>
<path opacity="0.22" d="M283 208H23C20.2386 208 18 210.239 18 213V333C18 335.761 20.2386 338 23 338H283C285.761 338 288 335.761 288 333V213C288 210.239 285.761 208 283 208Z" fill="#397D4F"/>
<path opacity="0.38" d="M283 208H23C20.2386 208 18 210.239 18 213V225C18 227.761 20.2386 230 23 230H283C285.761 230 288 227.761 288 225V213C288 210.239 285.761 208 283 208Z" fill="#397D4F"/>
<path opacity="0.6" d="M31 223C33.2091 223 35 221.209 35 219C35 216.791 33.2091 215 31 215C28.7909 215 27 216.791 27 219C27 221.209 28.7909 223 31 223Z" fill="#397D4F"/>
<path opacity="0.42" d="M44 223C46.2091 223 48 221.209 48 219C48 216.791 46.2091 215 44 215C41.7909 215 40 216.791 40 219C40 221.209 41.7909 223 44 223Z" fill="#397D4F"/>
<path opacity="0.26" d="M57 223C59.2091 223 61 221.209 61 219C61 216.791 59.2091 215 57 215C54.7909 215 53 216.791 53 219C53 221.209 54.7909 223 57 223Z" fill="#397D4F"/>
<path opacity="0.3" d="M121 238H91C90.4477 238 90 238.448 90 239V244C90 244.552 90.4477 245 91 245H121C121.552 245 122 244.552 122 244V239C122 238.448 121.552 238 121 238Z" fill="#397D4F"/>
<path opacity="0.28" d="M161 238H131C130.448 238 130 238.448 130 239V244C130 244.552 130.448 245 131 245H161C161.552 245 162 244.552 162 244V239C162 238.448 161.552 238 161 238Z" fill="#397D4F"/>
<path opacity="0.26" d="M201 238H171C170.448 238 170 238.448 170 239V244C170 244.552 170.448 245 171 245H201C201.552 245 202 244.552 202 244V239C202 238.448 201.552 238 201 238Z" fill="#397D4F"/>
<path opacity="0.24" d="M241 238H211C210.448 238 210 238.448 210 239V244C210 244.552 210.448 245 211 245H241C241.552 245 242 244.552 242 244V239C242 238.448 241.552 238 241 238Z" fill="#397D4F"/>
<path opacity="0.22" d="M277 238H251C250.448 238 250 238.448 250 239V244C250 244.552 250.448 245 251 245H277C277.552 245 278 244.552 278 244V239C278 238.448 277.552 238 277 238Z" fill="#397D4F"/>
<path opacity="0.28" d="M80 254H27C26.4477 254 26 254.448 26 255V259C26 259.552 26.4477 260 27 260H80C80.5523 260 81 259.552 81 259V255C81 254.448 80.5523 254 80 254Z" fill="#397D4F"/>
<path opacity="0.8" d="M106 262.5C109.038 262.5 111.5 260.038 111.5 257C111.5 253.962 109.038 251.5 106 251.5C102.962 251.5 100.5 253.962 100.5 257C100.5 260.038 102.962 262.5 106 262.5Z" fill="#95DE64"/>
<path d="M103 257L105.5 259.5L110 254.5" stroke="white" stroke-width="1.2" stroke-linecap="round" stroke-linejoin="round"/>
<path opacity="0.75" d="M146 262.5C149.038 262.5 151.5 260.038 151.5 257C151.5 253.962 149.038 251.5 146 251.5C142.962 251.5 140.5 253.962 140.5 257C140.5 260.038 142.962 262.5 146 262.5Z" fill="#95DE64"/>
<path d="M143 257L145.5 259.5L150 254.5" stroke="white" stroke-width="1.2" stroke-linecap="round" stroke-linejoin="round"/>
<path opacity="0.7" d="M186 262.5C189.038 262.5 191.5 260.038 191.5 257C191.5 253.962 189.038 251.5 186 251.5C182.962 251.5 180.5 253.962 180.5 257C180.5 260.038 182.962 262.5 186 262.5Z" fill="#95DE64"/>
<path d="M183 257L185.5 259.5L190 254.5" stroke="white" stroke-width="1.2" stroke-linecap="round" stroke-linejoin="round"/>
<path opacity="0.5" d="M226 262.5C229.038 262.5 231.5 260.038 231.5 257C231.5 253.962 229.038 251.5 226 251.5C222.962 251.5 220.5 253.962 220.5 257C220.5 260.038 222.962 262.5 226 262.5Z" fill="#397D4F"/>
<path d="M223 257L225.5 259.5L230 254.5" stroke="white" stroke-width="1.2" stroke-linecap="round" stroke-linejoin="round"/>
<path opacity="0.38" d="M264 262.5C267.038 262.5 269.5 260.038 269.5 257C269.5 253.962 267.038 251.5 264 251.5C260.962 251.5 258.5 253.962 258.5 257C258.5 260.038 260.962 262.5 264 262.5Z" fill="#397D4F"/>
<path opacity="0.24" d="M80 274H27C26.4477 274 26 274.448 26 275V279C26 279.552 26.4477 280 27 280H80C80.5523 280 81 279.552 81 279V275C81 274.448 80.5523 274 80 274Z" fill="#397D4F"/>
<path opacity="0.75" d="M106 282.5C109.038 282.5 111.5 280.038 111.5 277C111.5 273.962 109.038 271.5 106 271.5C102.962 271.5 100.5 273.962 100.5 277C100.5 280.038 102.962 282.5 106 282.5Z" fill="#95DE64"/>
<path d="M103 277L105.5 279.5L110 274.5" stroke="white" stroke-width="1.2" stroke-linecap="round" stroke-linejoin="round"/>
<path opacity="0.7" d="M146 282.5C149.038 282.5 151.5 280.038 151.5 277C151.5 273.962 149.038 271.5 146 271.5C142.962 271.5 140.5 273.962 140.5 277C140.5 280.038 142.962 282.5 146 282.5Z" fill="#95DE64"/>
<path d="M143 277L145.5 279.5L150 274.5" stroke="white" stroke-width="1.2" stroke-linecap="round" stroke-linejoin="round"/>
<path opacity="0.55" d="M186 282.5C189.038 282.5 191.5 280.038 191.5 277C191.5 273.962 189.038 271.5 186 271.5C182.962 271.5 180.5 273.962 180.5 277C180.5 280.038 182.962 282.5 186 282.5Z" fill="#397D4F"/>
<path d="M183 277L185.5 279.5L190 274.5" stroke="white" stroke-width="1.2" stroke-linecap="round" stroke-linejoin="round"/>
<path opacity="0.65" d="M226 282.5C229.038 282.5 231.5 280.038 231.5 277C231.5 273.962 229.038 271.5 226 271.5C222.962 271.5 220.5 273.962 220.5 277C220.5 280.038 222.962 282.5 226 282.5Z" fill="#95DE64"/>
<path d="M223 277L225.5 279.5L230 274.5" stroke="white" stroke-width="1.2" stroke-linecap="round" stroke-linejoin="round"/>
<path opacity="0.42" d="M264 282.5C267.038 282.5 269.5 280.038 269.5 277C269.5 273.962 267.038 271.5 264 271.5C260.962 271.5 258.5 273.962 258.5 277C258.5 280.038 260.962 282.5 264 282.5Z" fill="#397D4F"/>
<path opacity="0.22" d="M80 294H27C26.4477 294 26 294.448 26 295V299C26 299.552 26.4477 300 27 300H80C80.5523 300 81 299.552 81 299V295C81 294.448 80.5523 294 80 294Z" fill="#397D4F"/>
<path opacity="0.72" d="M106 302.5C109.038 302.5 111.5 300.038 111.5 297C111.5 293.962 109.038 291.5 106 291.5C102.962 291.5 100.5 293.962 100.5 297C100.5 300.038 102.962 302.5 106 302.5Z" fill="#95DE64"/>
<path d="M103 297L105.5 299.5L110 294.5" stroke="white" stroke-width="1.2" stroke-linecap="round" stroke-linejoin="round"/>
<path opacity="0.68" d="M146 302.5C149.038 302.5 151.5 300.038 151.5 297C151.5 293.962 149.038 291.5 146 291.5C142.962 291.5 140.5 293.962 140.5 297C140.5 300.038 142.962 302.5 146 302.5Z" fill="#95DE64"/>
<path d="M143 297L145.5 299.5L150 294.5" stroke="white" stroke-width="1.2" stroke-linecap="round" stroke-linejoin="round"/>
<path opacity="0.64" d="M186 302.5C189.038 302.5 191.5 300.038 191.5 297C191.5 293.962 189.038 291.5 186 291.5C182.962 291.5 180.5 293.962 180.5 297C180.5 300.038 182.962 302.5 186 302.5Z" fill="#95DE64"/>
<path d="M183 297L185.5 299.5L190 294.5" stroke="white" stroke-width="1.2" stroke-linecap="round" stroke-linejoin="round"/>
<path opacity="0.6" d="M226 302.5C229.038 302.5 231.5 300.038 231.5 297C231.5 293.962 229.038 291.5 226 291.5C222.962 291.5 220.5 293.962 220.5 297C220.5 300.038 222.962 302.5 226 302.5Z" fill="#95DE64"/>
<path d="M223 297L225.5 299.5L230 294.5" stroke="white" stroke-width="1.2" stroke-linecap="round" stroke-linejoin="round"/>
<path opacity="0.45" d="M264 302.5C267.038 302.5 269.5 300.038 269.5 297C269.5 293.962 267.038 291.5 264 291.5C260.962 291.5 258.5 293.962 258.5 297C258.5 300.038 260.962 302.5 264 302.5Z" fill="#397D4F"/>
<path d="M261 297L263.5 299.5L268 294.5" stroke="white" stroke-width="1.2" stroke-linecap="round" stroke-linejoin="round"/>
<path opacity="0.2" d="M80 314H27C26.4477 314 26 314.448 26 315V319C26 319.552 26.4477 320 27 320H80C80.5523 320 81 319.552 81 319V315C81 314.448 80.5523 314 80 314Z" fill="#397D4F"/>
<path opacity="0.55" d="M106 322.5C109.038 322.5 111.5 320.038 111.5 317C111.5 313.962 109.038 311.5 106 311.5C102.962 311.5 100.5 313.962 100.5 317C100.5 320.038 102.962 322.5 106 322.5Z" fill="#397D4F"/>
<path d="M103 317L105.5 319.5L110 314.5" stroke="white" stroke-width="1.2" stroke-linecap="round" stroke-linejoin="round"/>
<path opacity="0.65" d="M146 322.5C149.038 322.5 151.5 320.038 151.5 317C151.5 313.962 149.038 311.5 146 311.5C142.962 311.5 140.5 313.962 140.5 317C140.5 320.038 142.962 322.5 146 322.5Z" fill="#95DE64"/>
<path d="M143 317L145.5 319.5L150 314.5" stroke="white" stroke-width="1.2" stroke-linecap="round" stroke-linejoin="round"/>
<path opacity="0.42" d="M186 322.5C189.038 322.5 191.5 320.038 191.5 317C191.5 313.962 189.038 311.5 186 311.5C182.962 311.5 180.5 313.962 180.5 317C180.5 320.038 182.962 322.5 186 322.5Z" fill="#397D4F"/>
<path opacity="0.6" d="M226 322.5C229.038 322.5 231.5 320.038 231.5 317C231.5 313.962 229.038 311.5 226 311.5C222.962 311.5 220.5 313.962 220.5 317C220.5 320.038 222.962 322.5 226 322.5Z" fill="#95DE64"/>
<path d="M223 317L225.5 319.5L230 314.5" stroke="white" stroke-width="1.2" stroke-linecap="round" stroke-linejoin="round"/>
<path opacity="0.35" d="M264 322.5C267.038 322.5 269.5 320.038 269.5 317C269.5 313.962 267.038 311.5 264 311.5C260.962 311.5 258.5 313.962 258.5 317C258.5 320.038 260.962 322.5 264 322.5Z" fill="#397D4F"/>
<path opacity="0.15" d="M278 330H28C26.8954 330 26 330.895 26 332V334C26 335.105 26.8954 336 28 336H278C279.105 336 280 335.105 280 334V332C280 330.895 279.105 330 278 330Z" fill="#397D4F"/>
<path opacity="0.36" d="M219 330H28C26.8954 330 26 330.895 26 332V334C26 335.105 26.8954 336 28 336H219C220.105 336 221 335.105 221 334V332C221 330.895 220.105 330 219 330Z" fill="#397D4F"/>
<path opacity="0.2" d="M393 208H307C304.239 208 302 210.239 302 213V333C302 335.761 304.239 338 307 338H393C395.761 338 398 335.761 398 333V213C398 210.239 395.761 208 393 208Z" fill="#397D4F"/>
<path opacity="0.36" d="M393 208H307C304.239 208 302 210.239 302 213V223C302 225.761 304.239 228 307 228H393C395.761 228 398 225.761 398 223V213C398 210.239 395.761 208 393 208Z" fill="#397D4F"/>
<path opacity="0.15" d="M350 298C366.569 298 380 284.569 380 268C380 251.431 366.569 238 350 238C333.431 238 320 251.431 320 268C320 284.569 333.431 298 350 298Z" stroke="#397D4F" stroke-width="4"/>
<path opacity="0.68" d="M350 238C355.243 238.26 360.326 239.892 364.742 242.731C369.157 245.571 372.75 249.52 375.161 254.183C377.573 258.846 378.718 264.06 378.483 269.305C378.249 274.549 376.642 279.64 373.823 284.069C371.005 288.498 367.074 292.11 362.422 294.544C357.771 296.978 352.562 298.149 347.317 297.939C342.071 297.73 336.972 296.148 332.53 293.35C328.087 290.553 324.456 286.64 322 282" stroke="#397D4F" stroke-width="4" stroke-linecap="round"/>
<path opacity="0.6" d="M322 282C319.697 276.648 319.002 270.741 320 265" stroke="#95DE64" stroke-width="4" stroke-linecap="round"/>
<path opacity="0.38" d="M365 261H335C334.448 261 334 261.448 334 262V265C334 265.552 334.448 266 335 266H365C365.552 266 366 265.552 366 265V262C366 261.448 365.552 261 365 261Z" fill="#397D4F"/>
<path opacity="0.48" d="M362 270H338C336.895 270 336 270.895 336 272V277C336 278.105 336.895 279 338 279H362C363.105 279 364 278.105 364 277V272C364 270.895 363.105 270 362 270Z" fill="#397D4F"/>
<path opacity="0.22" d="M383 308H313C312.448 308 312 308.448 312 309V312C312 312.552 312.448 313 313 313H383C383.552 313 384 312.552 384 312V309C384 308.448 383.552 308 383 308Z" fill="#397D4F"/>
<path opacity="0.18" d="M379 318H317C316.448 318 316 318.448 316 319V322C316 322.552 316.448 323 317 323H379C379.552 323 380 322.552 380 322V319C380 318.448 379.552 318 379 318Z" fill="#397D4F"/>
<path opacity="0.2" d="M383 328H313C312.448 328 312 328.448 312 329V332C312 332.552 312.448 333 313 333H383C383.552 333 384 332.552 384 332V329C384 328.448 383.552 328 383 328Z" fill="#397D4F"/>
<path opacity="0.28" d="M54 180C54 194 100 200 100 208" stroke="#397D4F" stroke-width="1.6"/>
<path opacity="0.26" d="M162 180V208" stroke="#397D4F" stroke-width="1.6"/>
<path opacity="0.24" d="M315 142C315 172 260 190 240 208" stroke="#397D4F" stroke-width="1.6"/>
<path opacity="0.22" d="M8 52C8 70 24 76 24 92" stroke="#397D4F" stroke-width="1.8"/>
<path opacity="0.38" d="M8 57C10.7614 57 13 54.7614 13 52C13 49.2386 10.7614 47 8 47C5.23858 47 3 49.2386 3 52C3 54.7614 5.23858 57 8 57Z" fill="#397D4F"/>
<path opacity="0.28" d="M24 96C26.2091 96 28 94.2091 28 92C28 89.7909 26.2091 88 24 88C21.7909 88 20 89.7909 20 92C20 94.2091 21.7909 96 24 96Z" fill="#397D4F"/>
<path opacity="0.32" d="M226 15C228.761 15 231 12.7614 231 10C231 7.23858 228.761 5 226 5C223.239 5 221 7.23858 221 10C221 12.7614 223.239 15 226 15Z" fill="#397D4F"/>
<path opacity="0.2" d="M240 5.5C241.933 5.5 243.5 3.933 243.5 2C243.5 0.0670034 241.933 -1.5 240 -1.5C238.067 -1.5 236.5 0.0670034 236.5 2C236.5 3.933 238.067 5.5 240 5.5Z" fill="#397D4F"/>
<path opacity="0.26" d="M388 176C390.209 176 392 174.209 392 172C392 169.791 390.209 168 388 168C385.791 168 384 169.791 384 172C384 174.209 385.791 176 388 176Z" fill="#397D4F"/>
</g>
<defs>
<clipPath id="clip0_1_8927">
<rect width="407" height="360" fill="white"/>
</clipPath>
</defs>
</svg>
