<svg width="1201" height="1120" viewBox="0 0 1201 1120" fill="none" xmlns="http://www.w3.org/2000/svg">
<mask id="mask0_1_6101" style="mask-type:alpha" maskUnits="userSpaceOnUse" x="0" y="0" width="1201" height="1120">
<rect width="1201" height="1120" fill="#D9D9D9"/>
</mask>
<g mask="url(#mask0_1_6101)">
<g filter="url(#filter0_f_1_6101)">
<ellipse cx="602.001" cy="665.751" rx="412.844" ry="396.567" fill="#55FFAD"/>
</g>
<g opacity="0.3">
<path opacity="0.1" d="M600.5 187.968C885.459 187.968 1116.43 409.86 1116.43 683.536C1116.43 957.212 885.459 1179.11 600.5 1179.11C315.54 1179.11 84.5698 957.212 84.5698 683.536C84.57 409.86 315.54 187.968 600.5 187.968Z" stroke="white"/>
<path opacity="0.15" d="M996.808 629.674C997 630.991 997.184 632.31 997.363 633.632L996.87 633.699C997.048 635.019 997.218 636.341 997.382 637.665L997.876 637.604C998.041 638.929 998.199 640.257 998.349 641.587L997.854 641.643C998.004 642.967 998.146 644.293 998.282 645.621L998.777 645.57C998.912 646.892 999.04 648.216 999.161 649.542L998.665 649.587C998.785 650.911 998.9 652.237 999.006 653.564L999.503 653.524C999.61 654.854 999.708 656.186 999.801 657.52L999.305 657.554C999.398 658.885 999.484 660.219 999.562 661.554L1000.06 661.524C1000.14 662.855 1000.21 664.188 1000.27 665.522L999.775 665.547C999.839 666.872 999.895 668.198 999.945 669.526L1000.44 669.508C1000.49 670.838 1000.54 672.17 1000.57 673.503H1000.57L1000.07 673.517C1000.11 674.848 1000.14 676.182 1000.16 677.518L1000.66 677.509C1000.68 678.846 1000.69 680.184 1000.7 681.524L1000.2 681.527C1000.2 682.197 1000.21 682.866 1000.21 683.536C1000.21 684.206 1000.2 684.877 1000.2 685.546L1000.7 685.547C1000.69 686.887 1000.68 688.226 1000.66 689.563L1000.16 689.556C1000.14 690.891 1000.11 692.225 1000.07 693.557L1000.57 693.568C1000.54 694.902 1000.49 696.234 1000.44 697.564L999.945 697.547C999.895 698.875 999.839 700.202 999.775 701.526L1000.27 701.55C1000.21 702.884 1000.14 704.217 1000.06 705.548L999.562 705.52C999.484 706.855 999.398 708.188 999.305 709.52L999.801 709.553C999.708 710.886 999.61 712.218 999.503 713.548L999.006 713.509C998.9 714.836 998.785 716.163 998.665 717.486L999.161 717.53C999.04 718.856 998.912 720.18 998.777 721.502L998.282 721.452C998.146 722.78 998.004 724.106 997.854 725.43L998.349 725.485C998.199 726.815 998.041 728.143 997.876 729.469L997.382 729.408C997.218 730.732 997.048 732.054 996.87 733.374L997.362 733.44C997.184 734.762 997 736.081 996.808 737.398L996.314 737.327C996.122 738.643 995.923 739.956 995.717 741.268L996.209 741.344C996.002 742.665 995.786 743.985 995.565 745.302L995.075 745.22C994.853 746.537 994.625 747.852 994.389 749.164L994.881 749.253C994.646 750.567 994.4 751.879 994.151 753.188L993.663 753.096C993.413 754.404 993.157 755.709 992.894 757.013L993.382 757.11C993.119 758.416 992.851 759.719 992.574 761.02L992.084 760.915C991.806 762.222 991.52 763.528 991.228 764.83L991.714 764.938C991.422 766.242 991.122 767.544 990.816 768.843L990.331 768.729C990.025 770.027 989.712 771.322 989.392 772.614L989.877 772.734C989.557 774.028 989.229 775.319 988.895 776.608L988.413 776.483C988.079 777.772 987.739 779.059 987.392 780.343L987.873 780.472C987.523 781.763 987.169 783.051 986.806 784.337L986.326 784.202C985.963 785.486 985.594 786.767 985.218 788.046L985.697 788.186C985.321 789.466 984.937 790.744 984.547 792.019L984.072 791.873C983.683 793.146 983.287 794.416 982.884 795.684L983.359 795.834C982.955 797.106 982.545 798.375 982.127 799.642L981.655 799.486C981.237 800.754 980.812 802.018 980.381 803.28L980.853 803.44C980.422 804.704 979.983 805.965 979.539 807.223L979.069 807.057C978.625 808.313 978.174 809.566 977.717 810.816L978.186 810.987C977.728 812.239 977.262 813.488 976.792 814.733L976.326 814.558C975.854 815.805 975.377 817.05 974.892 818.291L975.357 818.472C974.871 819.716 974.379 820.957 973.88 822.195L973.417 822.01C972.92 823.246 972.416 824.48 971.905 825.71L972.364 825.9C971.852 827.132 971.335 828.361 970.81 829.587L970.353 829.391C969.829 830.614 969.299 831.835 968.762 833.053L969.219 833.254C968.681 834.476 968.134 835.695 967.583 836.911L967.129 836.706C966.579 837.92 966.022 839.131 965.458 840.339L965.91 840.549C965.346 841.758 964.776 842.964 964.2 844.167L963.75 843.951C963.174 845.152 962.592 846.351 962.003 847.545L962.451 847.765C961.861 848.961 961.265 850.154 960.663 851.344L960.219 851.12C959.617 852.31 959.009 853.496 958.395 854.679L958.836 854.908C958.221 856.093 957.601 857.274 956.973 858.451L956.534 858.217C955.907 859.393 955.274 860.565 954.635 861.733L955.072 861.973C954.432 863.143 953.787 864.31 953.135 865.473L952.701 865.229C952.049 866.392 951.391 867.551 950.728 868.706L951.161 868.954C950.496 870.111 949.826 871.265 949.149 872.415L948.719 872.163C948.043 873.312 947.361 874.457 946.673 875.598L947.1 875.854C946.411 876.996 945.718 878.136 945.017 879.271L944.593 879.01C943.894 880.143 943.187 881.273 942.476 882.399L942.899 882.666C942.186 883.794 941.466 884.918 940.742 886.038L940.324 885.768C939.6 886.887 938.871 888.002 938.136 889.113L938.551 889.389C937.815 890.501 937.075 891.611 936.328 892.716L935.914 892.437C935.167 893.54 934.416 894.64 933.658 895.735L934.067 896.019C933.308 897.115 932.543 898.208 931.773 899.297L931.367 899.011C930.597 900.098 929.822 901.182 929.042 902.262L929.446 902.554C928.664 903.635 927.876 904.712 927.083 905.785L926.683 905.489C925.891 906.561 925.093 907.628 924.291 908.691L924.687 908.991C923.883 910.056 923.074 911.117 922.259 912.174L921.866 911.869C921.052 912.924 920.232 913.975 919.408 915.021L919.799 915.33C918.974 916.378 918.143 917.421 917.306 918.46L916.918 918.147C916.083 919.185 915.242 920.22 914.396 921.249L914.781 921.565C913.934 922.596 913.081 923.622 912.223 924.645L911.841 924.324C910.985 925.345 910.123 926.362 909.255 927.374L909.633 927.698C908.766 928.711 907.892 929.718 907.014 930.722L906.639 930.395C905.762 931.397 904.88 932.395 903.993 933.389L904.365 933.721C903.476 934.716 902.582 935.706 901.683 936.692L901.315 936.356C900.417 937.341 899.514 938.321 898.606 939.297L898.969 939.636C898.06 940.613 897.147 941.586 896.228 942.554L895.867 942.211C894.95 943.176 894.028 944.137 893.101 945.094L893.458 945.44C892.53 946.398 891.596 947.35 890.658 948.299L890.304 947.949C889.367 948.896 888.426 949.839 887.479 950.776L887.829 951.13C886.88 952.069 885.928 953.005 884.97 953.935L884.623 953.577C883.667 954.505 882.706 955.428 881.741 956.347L882.083 956.707C881.118 957.626 880.147 958.54 879.171 959.449L878.833 959.085C877.858 959.993 876.879 960.896 875.895 961.795L876.231 962.163C875.246 963.063 874.256 963.958 873.261 964.849L872.929 964.477C871.936 965.366 870.937 966.25 869.934 967.13L870.262 967.504C869.26 968.383 868.254 969.258 867.243 970.127L866.917 969.749C865.908 970.617 864.893 971.48 863.875 972.338L864.196 972.719C863.176 973.578 862.151 974.431 861.122 975.28L860.804 974.897C859.776 975.746 858.744 976.589 857.707 977.427L858.019 977.813C856.981 978.653 855.938 979.488 854.891 980.317L854.582 979.926C853.538 980.752 852.491 981.574 851.439 982.39L851.745 982.782C850.691 983.599 849.633 984.412 848.571 985.219L848.27 984.822C847.209 985.628 846.144 986.429 845.075 987.225L845.372 987.625C844.301 988.422 843.226 989.214 842.147 990L841.853 989.597C840.776 990.381 839.694 991.161 838.609 991.936L838.898 992.341C837.813 993.115 836.725 993.884 835.632 994.647L835.347 994.239C834.256 995.002 833.16 995.759 832.06 996.511L832.341 996.923C831.24 997.676 830.134 998.423 829.025 999.165L828.749 998.752C827.64 999.494 826.528 1000.23 825.412 1000.96L825.684 1001.38C824.569 1002.11 823.45 1002.83 822.327 1003.55L822.057 1003.13C820.937 1003.85 819.813 1004.57 818.685 1005.27L818.95 1005.69C817.82 1006.4 816.686 1007.11 815.548 1007.8L815.288 1007.38C814.152 1008.07 813.012 1008.77 811.868 1009.45L812.125 1009.88C810.979 1010.57 809.829 1011.25 808.676 1011.92L808.424 1011.49C807.276 1012.17 806.125 1012.83 804.969 1013.5L805.217 1013.93C804.061 1014.59 802.902 1015.25 801.738 1015.9L801.495 1015.46C800.333 1016.11 799.167 1016.76 797.998 1017.4L798.236 1017.84C797.065 1018.48 795.89 1019.11 794.711 1019.74L794.478 1019.3C793.301 1019.93 792.121 1020.55 790.937 1021.17L791.167 1021.61C789.987 1022.23 788.802 1022.84 787.615 1023.44L787.389 1023C786.203 1023.6 785.014 1024.2 783.821 1024.79L784.042 1025.24C782.848 1025.83 781.65 1026.42 780.449 1027L780.231 1026.55C779.031 1027.13 777.828 1027.71 776.622 1028.28L776.833 1028.73C775.627 1029.3 774.416 1029.86 773.203 1030.42L772.995 1029.97C771.787 1030.53 770.575 1031.08 769.361 1031.62L769.566 1032.08C768.35 1032.62 767.13 1033.16 765.908 1033.69L765.708 1033.24C764.488 1033.77 763.263 1034.3 762.036 1034.82L762.23 1035.28C761.001 1035.8 759.77 1036.32 758.535 1036.83L758.343 1036.37C757.112 1036.88 755.878 1037.38 754.64 1037.88L754.826 1038.34C753.591 1038.83 752.352 1039.32 751.111 1039.81L750.93 1039.35C749.69 1039.83 748.448 1040.31 747.202 1040.78L747.378 1041.25C746.131 1041.72 744.88 1042.19 743.626 1042.65L743.455 1042.18C742.203 1042.64 740.948 1043.1 739.69 1043.54L739.857 1044.01C738.601 1044.46 737.343 1044.9 736.082 1045.34L735.919 1044.87C734.663 1045.3 733.404 1045.73 732.142 1046.15L732.299 1046.63C731.036 1047.05 729.77 1047.47 728.5 1047.88L728.347 1047.41C727.079 1047.82 725.808 1048.22 724.535 1048.62L724.683 1049.09C723.408 1049.49 722.131 1049.89 720.85 1050.27L720.707 1049.8C719.433 1050.18 718.156 1050.56 716.877 1050.94L717.017 1051.42C715.74 1051.79 714.459 1052.15 713.176 1052.51L713.042 1052.04C711.761 1052.4 710.477 1052.75 709.191 1053.1L709.32 1053.58C708.032 1053.93 706.741 1054.27 705.448 1054.61L705.323 1054.12C704.031 1054.46 702.737 1054.79 701.44 1055.12L701.56 1055.6C700.269 1055.92 698.975 1056.24 697.678 1056.55L697.563 1056.07C696.271 1056.38 694.975 1056.68 693.678 1056.98L693.789 1057.46C692.49 1057.76 691.189 1058.05 689.885 1058.34L689.779 1057.85C688.477 1058.14 687.172 1058.41 685.866 1058.69L685.966 1059.18C684.658 1059.45 683.347 1059.72 682.034 1059.98L681.937 1059.49C680.634 1059.75 679.328 1060 678.02 1060.25L678.112 1060.74C676.805 1060.98 675.496 1061.23 674.184 1061.46L674.096 1060.97C672.786 1061.2 671.474 1061.43 670.16 1061.65L670.242 1062.14C668.925 1062.37 667.607 1062.58 666.287 1062.79L666.209 1062.3C664.891 1062.51 663.569 1062.71 662.246 1062.91L662.319 1063.4C661.003 1063.6 659.686 1063.79 658.366 1063.97L658.297 1063.48C656.982 1063.66 655.664 1063.84 654.344 1064.01L654.408 1064.5C653.087 1064.67 651.763 1064.84 650.438 1065L650.379 1064.5C649.056 1064.66 647.73 1064.81 646.402 1064.96L646.456 1065.46C645.126 1065.6 643.795 1065.74 642.461 1065.87L642.413 1065.38C641.091 1065.51 639.767 1065.64 638.441 1065.76L638.486 1066.25C637.162 1066.37 635.836 1066.49 634.508 1066.59L634.469 1066.1C633.143 1066.2 631.815 1066.3 630.485 1066.4L630.52 1066.9C629.188 1066.99 627.855 1067.08 626.52 1067.16L626.491 1066.67C625.158 1066.75 623.823 1066.82 622.486 1066.89L622.51 1067.39C621.182 1067.46 619.851 1067.52 618.519 1067.58L618.498 1067.08C617.172 1067.14 615.844 1067.19 614.515 1067.23L614.531 1067.73C613.2 1067.77 611.868 1067.81 610.534 1067.84L610.523 1067.34C609.191 1067.38 607.857 1067.4 606.521 1067.42L606.527 1067.92C605.19 1067.94 603.851 1067.95 602.511 1067.96L602.509 1067.46C601.84 1067.46 601.17 1067.46 600.5 1067.46C599.83 1067.46 599.16 1067.46 598.491 1067.46L598.488 1067.96C597.148 1067.95 595.809 1067.94 594.472 1067.92L594.479 1067.42C593.143 1067.4 591.809 1067.38 590.477 1067.34L590.465 1067.84C589.131 1067.81 587.799 1067.77 586.468 1067.73L586.485 1067.23C585.156 1067.19 583.828 1067.14 582.502 1067.08L582.481 1067.58C581.148 1067.52 579.818 1067.46 578.489 1067.39L578.514 1066.89C577.177 1066.82 575.842 1066.75 574.509 1066.66L574.479 1067.16C573.144 1067.08 571.811 1066.99 570.479 1066.9L570.515 1066.4C569.185 1066.3 567.857 1066.2 566.531 1066.1L566.491 1066.59C565.163 1066.49 563.837 1066.37 562.513 1066.25L562.558 1065.76C561.233 1065.64 559.909 1065.51 558.587 1065.38L558.538 1065.87C557.204 1065.74 555.873 1065.6 554.543 1065.46L554.598 1064.96C553.27 1064.81 551.944 1064.66 550.621 1064.5L550.561 1065C549.236 1064.84 547.912 1064.67 546.591 1064.5L546.656 1064.01C545.336 1063.84 544.018 1063.66 542.703 1063.48L542.633 1063.97C541.313 1063.79 539.996 1063.6 538.68 1063.4L538.754 1062.91C537.431 1062.71 536.109 1062.51 534.791 1062.3L534.712 1062.79C533.392 1062.58 532.074 1062.37 530.757 1062.14L530.84 1061.65C529.526 1061.43 528.213 1061.2 526.903 1060.97L526.815 1061.46C525.503 1061.23 524.194 1060.98 522.887 1060.74L522.98 1060.25C521.672 1060 520.366 1059.75 519.063 1059.49L518.965 1059.98C517.652 1059.72 516.341 1059.45 515.032 1059.18L515.134 1058.69C513.827 1058.41 512.523 1058.13 511.221 1057.85L511.114 1058.34C509.81 1058.05 508.508 1057.76 507.209 1057.46L507.322 1056.98C506.024 1056.68 504.729 1056.37 503.437 1056.06L503.321 1056.55C502.024 1056.24 500.73 1055.92 499.439 1055.6L499.56 1055.12C498.263 1054.79 496.968 1054.46 495.676 1054.12L495.55 1054.61C494.257 1054.27 492.966 1053.93 491.678 1053.58L491.809 1053.1C490.523 1052.75 489.239 1052.4 487.958 1052.04L487.822 1052.51C486.539 1052.15 485.259 1051.79 483.982 1051.41L484.122 1050.94C482.843 1050.56 481.567 1050.18 480.293 1049.8L480.149 1050.27C478.868 1049.89 477.59 1049.49 476.315 1049.09L476.464 1048.62C475.191 1048.22 473.921 1047.82 472.653 1047.4L472.499 1047.88C471.229 1047.47 469.963 1047.05 468.7 1046.63L468.858 1046.15C467.596 1045.73 466.337 1045.3 465.081 1044.87L464.917 1045.34C463.655 1044.9 462.397 1044.46 461.142 1044.01L461.31 1043.54C460.052 1043.1 458.797 1042.64 457.545 1042.18L457.373 1042.65C456.119 1042.19 454.868 1041.72 453.621 1041.25L453.798 1040.78C452.552 1040.31 451.31 1039.83 450.07 1039.34L449.888 1039.81C448.647 1039.32 447.409 1038.83 446.173 1038.34L446.36 1037.88C445.122 1037.38 443.888 1036.88 442.657 1036.37L442.465 1036.83H442.464C441.229 1036.32 439.998 1035.8 438.769 1035.28L438.964 1034.82C437.737 1034.3 436.512 1033.77 435.292 1033.24L435.091 1033.69C433.869 1033.16 432.649 1032.62 431.433 1032.08L431.639 1031.62C430.425 1031.08 429.213 1030.53 428.005 1029.97L427.796 1030.42C426.583 1029.86 425.372 1029.3 424.166 1028.73L424.378 1028.28C423.172 1027.71 421.968 1027.13 420.768 1026.55L420.55 1027C419.349 1026.42 418.151 1025.83 416.957 1025.24L417.179 1024.79C415.986 1024.2 414.797 1023.6 413.611 1023L413.384 1023.44C412.197 1022.84 411.013 1022.23 409.833 1021.61L410.063 1021.17C408.879 1020.55 407.699 1019.93 406.522 1019.3L406.287 1019.74C405.109 1019.11 403.934 1018.48 402.763 1017.84L403.002 1017.4C401.833 1016.76 400.667 1016.11 399.505 1015.46L399.261 1015.9C398.098 1015.25 396.938 1014.59 395.782 1013.93L396.031 1013.5C394.875 1012.83 393.724 1012.17 392.576 1011.49L392.323 1011.92C391.17 1011.25 390.021 1010.57 388.875 1009.88L389.132 1009.45C387.989 1008.77 386.848 1008.07 385.712 1007.38L385.451 1007.8C384.313 1007.1 383.18 1006.4 382.05 1005.69L382.316 1005.27C381.188 1004.56 380.063 1003.85 378.943 1003.13L378.673 1003.55C377.55 1002.83 376.431 1002.11 375.315 1001.38L375.588 1000.96C374.472 1000.23 373.36 999.494 372.252 998.752L371.974 999.165C370.865 998.423 369.759 997.676 368.658 996.923L368.94 996.511C367.84 995.759 366.744 995.002 365.653 994.239L365.367 994.647C364.274 993.884 363.186 993.115 362.101 992.341L362.391 991.936C361.306 991.161 360.224 990.381 359.147 989.597L358.853 990C357.774 989.213 356.698 988.422 355.627 987.625L355.926 987.225C354.857 986.429 353.791 985.628 352.73 984.822L352.429 985.219C351.367 984.411 350.308 983.6 349.254 982.782L349.561 982.389C348.509 981.573 347.462 980.752 346.418 979.926L346.108 980.317C345.061 979.488 344.018 978.653 342.98 977.813L343.294 977.427C342.257 976.588 341.224 975.745 340.196 974.896L339.878 975.28C338.849 974.431 337.823 973.578 336.803 972.719L337.125 972.338C336.107 971.48 335.092 970.617 334.083 969.749L333.757 970.126C332.746 969.257 331.739 968.383 330.737 967.504L331.066 967.13C330.063 966.25 329.065 965.366 328.072 964.477L327.738 964.849C326.743 963.958 325.754 963.062 324.769 962.162L325.106 961.795C324.122 960.896 323.143 959.993 322.168 959.085L321.829 959.448C320.853 958.539 319.881 957.626 318.916 956.707L319.259 956.346C318.294 955.427 317.333 954.504 316.377 953.576L316.03 953.934C315.072 953.004 314.119 952.069 313.17 951.13L313.522 950.776C312.575 949.838 311.633 948.895 310.696 947.948L310.341 948.298C309.403 947.35 308.469 946.398 307.541 945.44L307.9 945.093C306.973 944.136 306.05 943.175 305.133 942.21L304.771 942.554C303.852 941.586 302.939 940.613 302.03 939.636L302.395 939.297C301.487 938.321 300.584 937.341 299.686 936.356L299.316 936.692C298.417 935.706 297.524 934.716 296.635 933.721L297.007 933.389C296.12 932.395 295.238 931.397 294.361 930.395L293.986 930.722C293.108 929.718 292.234 928.71 291.367 927.697L291.746 927.373C290.878 926.361 290.015 925.345 289.159 924.324L288.776 924.645C287.918 923.622 287.066 922.595 286.219 921.564L286.604 921.248C285.758 920.219 284.918 919.185 284.083 918.147L283.694 918.46C282.857 917.421 282.025 916.378 281.2 915.33L281.592 915.021C280.768 913.975 279.949 912.924 279.135 911.869L278.74 912.173C277.925 911.117 277.116 910.056 276.312 908.991L276.709 908.691C275.907 907.628 275.11 906.56 274.318 905.488L273.916 905.785C273.123 904.712 272.336 903.635 271.554 902.554L271.958 902.262C271.178 901.182 270.404 900.098 269.634 899.01L269.227 899.298C268.457 898.209 267.691 897.116 266.932 896.019L267.343 895.735C266.585 894.64 265.833 893.539 265.086 892.436L264.671 892.716C263.924 891.611 263.184 890.501 262.448 889.388L262.864 889.113C262.129 888.002 261.4 886.887 260.676 885.768L260.257 886.038C259.533 884.917 258.814 883.793 258.101 882.665L258.524 882.398C257.813 881.272 257.107 880.142 256.408 879.009L255.982 879.271C255.281 878.135 254.588 876.996 253.899 875.854L254.327 875.597C253.639 874.456 252.957 873.311 252.282 872.162L251.851 872.415C251.174 871.265 250.503 870.112 249.838 868.954L250.272 868.706C249.609 867.551 248.951 866.392 248.299 865.229L247.865 865.473C247.213 864.309 246.567 863.142 245.927 861.972L246.365 861.733C245.726 860.565 245.094 859.392 244.467 858.216L244.026 858.45C243.398 857.273 242.778 856.092 242.163 854.907L242.606 854.678C241.992 853.495 241.384 852.309 240.782 851.119L240.336 851.344C239.734 850.154 239.138 848.961 238.548 847.764L238.997 847.544C238.408 846.35 237.826 845.152 237.25 843.951L236.799 844.166C236.223 842.963 235.653 841.757 235.089 840.548L235.542 840.338C234.978 839.13 234.421 837.919 233.871 836.705L233.417 836.91C232.865 835.694 232.318 834.476 231.78 833.254L232.238 833.053C231.701 831.835 231.172 830.614 230.648 829.39L230.189 829.586C229.665 828.36 229.147 827.131 228.635 825.899L229.096 825.709C228.585 824.479 228.08 823.245 227.583 822.009L227.119 822.195C226.62 820.957 226.129 819.716 225.643 818.472L226.108 818.291C225.623 817.05 225.146 815.805 224.674 814.558L224.208 814.733C223.737 813.487 223.272 812.238 222.814 810.986L223.283 810.815C222.826 809.565 222.375 808.312 221.931 807.057L221.459 807.222C221.015 805.964 220.578 804.704 220.147 803.44L220.619 803.279C220.188 802.018 219.764 800.753 219.346 799.485L218.872 799.641C218.454 798.374 218.043 797.105 217.639 795.833L218.116 795.683C217.713 794.415 217.318 793.145 216.929 791.872L216.452 792.018C216.062 790.743 215.679 789.465 215.302 788.185L215.782 788.045C215.406 786.766 215.037 785.485 214.675 784.201L214.194 784.336C213.831 783.05 213.477 781.762 213.127 780.471L213.609 780.342C213.262 779.058 212.921 777.771 212.587 776.482L212.105 776.607C211.771 775.318 211.443 774.027 211.123 772.732L211.608 772.613C211.288 771.321 210.975 770.026 210.669 768.729L210.184 768.843C209.878 767.544 209.578 766.242 209.286 764.938L209.772 764.829C209.48 763.527 209.194 762.222 208.916 760.915L208.426 761.018C208.149 759.717 207.881 758.414 207.618 757.109L208.106 757.012C207.843 755.708 207.588 754.403 207.338 753.095L206.848 753.188C206.599 751.878 206.354 750.566 206.119 749.251L206.611 749.164C206.375 747.851 206.148 746.536 205.926 745.219L205.433 745.301C205.212 743.984 204.998 742.665 204.791 741.344L205.284 741.267C205.078 739.955 204.878 738.642 204.686 737.326L204.192 737.397C204 736.08 203.816 734.761 203.637 733.439L204.131 733.373C203.953 732.053 203.782 730.731 203.618 729.407L203.123 729.468C202.958 728.142 202.8 726.814 202.65 725.484L203.147 725.43C202.997 724.106 202.855 722.779 202.719 721.451L202.223 721.501C202.088 720.179 201.959 718.856 201.838 717.53L202.335 717.485C202.215 716.161 202.101 714.836 201.995 713.508L201.497 713.547C201.39 712.217 201.291 710.886 201.198 709.553L201.695 709.519C201.602 708.187 201.517 706.854 201.439 705.519L200.94 705.547C200.862 704.216 200.791 702.883 200.727 701.549L201.225 701.526C201.161 700.201 201.105 698.874 201.055 697.546L200.557 697.563C200.507 696.233 200.464 694.902 200.428 693.568L200.928 693.556C200.893 692.224 200.864 690.891 200.842 689.556L200.344 689.562C200.323 688.226 200.307 686.887 200.3 685.547L200.799 685.545C200.796 684.876 200.794 684.206 200.794 683.536C200.794 682.866 200.796 682.197 200.799 681.527L200.3 681.524C200.307 680.184 200.323 678.846 200.344 677.509L200.842 677.517C200.864 676.182 200.893 674.848 200.928 673.517L200.428 673.503C200.464 672.169 200.508 670.837 200.558 669.507L201.055 669.525C201.105 668.197 201.161 666.871 201.225 665.546L200.727 665.521C200.755 664.932 200.784 664.343 200.815 663.754L200.94 661.524L201.439 661.554C201.517 660.218 201.603 658.884 201.696 657.553L201.198 657.519C201.291 656.185 201.39 654.854 201.497 653.524L201.995 653.564C202.101 652.237 202.215 650.911 202.335 649.587L201.838 649.541C201.959 648.215 202.088 646.891 202.223 645.569L202.719 645.62C202.855 644.292 202.997 642.966 203.147 641.643L202.65 641.586C202.8 640.256 202.958 638.928 203.123 637.603L203.618 637.664C203.782 636.34 203.953 635.018 204.131 633.698L203.637 633.632C203.811 632.344 203.99 631.057 204.177 629.773L204.192 629.673L204.687 629.745C204.879 628.43 205.078 627.116 205.284 625.805L204.791 625.728C204.998 624.406 205.213 623.087 205.434 621.77L205.926 621.853C206.148 620.536 206.375 619.221 206.611 617.908L206.119 617.82C206.354 616.506 206.599 615.194 206.848 613.884L207.338 613.978C207.588 612.67 207.843 611.364 208.106 610.061L207.618 609.961C207.881 608.656 208.149 607.352 208.426 606.052L208.427 606.053L208.916 606.157C209.194 604.85 209.48 603.545 209.772 602.243L209.286 602.134C209.578 600.83 209.878 599.528 210.184 598.229L210.669 598.343C210.975 597.045 211.288 595.75 211.608 594.458L211.123 594.339C211.443 593.045 211.771 591.753 212.105 590.464L212.587 590.589C212.921 589.3 213.262 588.014 213.609 586.73L213.127 586.6C213.477 585.309 213.831 584.02 214.194 582.734L214.675 582.87C215.037 581.587 215.406 580.306 215.782 579.027L215.303 578.886C215.679 577.606 216.062 576.328 216.452 575.054L216.929 575.199C217.318 573.926 217.714 572.656 218.117 571.389L217.64 571.237C218.044 569.965 218.455 568.696 218.873 567.43L219.346 567.587C219.764 566.319 220.188 565.054 220.619 563.792L220.147 563.631C220.578 562.367 221.016 561.106 221.46 559.849L221.931 560.016C222.375 558.76 222.826 557.506 223.284 556.256L222.815 556.084C223.273 554.832 223.737 553.584 224.208 552.338L224.674 552.515C225.146 551.267 225.624 550.023 226.109 548.781L225.643 548.6C226.129 547.355 226.62 546.114 227.119 544.876L227.583 545.062C228.08 543.826 228.585 542.593 229.096 541.363L228.635 541.171C229.147 539.939 229.665 538.711 230.189 537.485L230.648 537.682C231.172 536.458 231.701 535.237 232.238 534.02L231.781 533.818C232.319 532.596 232.865 531.376 233.417 530.16L233.871 530.367C234.421 529.153 234.978 527.942 235.542 526.734L235.089 526.522C235.653 525.313 236.224 524.107 236.8 522.904L237.25 523.121C237.826 521.92 238.408 520.722 238.997 519.528L238.548 519.307C239.138 518.11 239.735 516.917 240.336 515.728L240.782 515.953C241.384 514.763 241.992 513.576 242.606 512.394L242.163 512.163C242.433 511.642 242.705 511.121 242.978 510.601L244.026 508.621L244.467 508.855C245.094 507.68 245.726 506.507 246.365 505.339L245.927 505.1C246.567 503.929 247.213 502.762 247.865 501.599L248.3 501.843C248.952 500.68 249.609 499.521 250.272 498.366L249.838 498.117C250.503 496.96 251.174 495.806 251.851 494.656L252.282 494.909C252.957 493.761 253.639 492.616 254.327 491.476L253.9 491.217C254.588 490.074 255.283 488.936 255.983 487.801L256.408 488.062C257.107 486.929 257.813 485.799 258.524 484.673L258.102 484.406C258.815 483.278 259.533 482.154 260.257 481.034L260.676 481.305C261.4 480.186 262.129 479.07 262.864 477.959L262.448 477.684C263.177 476.582 263.911 475.483 264.651 474.389L264.672 474.356L265.086 474.637C265.833 473.533 266.585 472.433 267.343 471.337L266.932 471.053C267.691 469.956 268.457 468.863 269.227 467.773L269.634 468.062C270.404 466.975 271.179 465.89 271.959 464.811L271.554 464.518C272.336 463.436 273.123 462.359 273.916 461.286L274.318 461.584C275.11 460.512 275.907 459.444 276.709 458.381L276.312 458.08C277.116 457.015 277.926 455.954 278.741 454.897L279.135 455.203C279.949 454.148 280.769 453.097 281.593 452.051L281.2 451.741C282.025 450.694 282.858 449.651 283.694 448.612L284.083 448.925C284.918 447.887 285.759 446.854 286.605 445.824L286.219 445.507C287.066 444.476 287.918 443.449 288.776 442.427L289.159 442.748C290.015 441.727 290.878 440.711 291.746 439.699L291.366 439.374C292.234 438.361 293.107 437.354 293.986 436.35L294.361 436.678C295.238 435.675 296.121 434.677 297.008 433.684L296.636 433.351C297.052 432.885 297.467 432.42 297.885 431.957L299.317 430.38L299.686 430.716C300.584 429.731 301.487 428.751 302.395 427.775L302.03 427.436C302.939 426.459 303.853 425.486 304.772 424.519L305.134 424.862C306.051 423.897 306.973 422.936 307.9 421.979L307.541 421.631C308.469 420.673 309.403 419.722 310.341 418.773L310.696 419.124C311.633 418.177 312.575 417.234 313.522 416.296L313.171 415.941C314.12 415.002 315.072 414.067 316.03 413.137L316.377 413.496C317.333 412.568 318.295 411.645 319.26 410.727L318.916 410.364C319.881 409.445 320.853 408.532 321.829 407.623L322.168 407.987C323.143 407.079 324.122 406.176 325.106 405.277L324.769 404.908C325.754 404.008 326.743 403.112 327.738 402.222L327.739 402.223L328.072 402.596C329.065 401.707 330.063 400.822 331.066 399.942L330.738 399.567C331.74 398.688 332.747 397.815 333.758 396.945L334.083 397.323C335.092 396.455 336.108 395.592 337.126 394.734L336.804 394.353L336.803 394.352C337.823 393.493 338.849 392.64 339.878 391.791L340.197 392.176C341.225 391.328 342.257 390.484 343.294 389.646L342.981 389.258C344.019 388.419 345.061 387.583 346.108 386.754L346.418 387.146C347.462 386.321 348.509 385.5 349.561 384.684L349.255 384.288C350.308 383.471 351.366 382.66 352.428 381.854L352.731 382.25C353.792 381.444 354.857 380.643 355.926 379.848L355.627 379.446C356.698 378.649 357.774 377.858 358.853 377.071L359.148 377.476C360.225 376.691 361.306 375.911 362.391 375.137L362.101 374.73C363.185 373.957 364.274 373.188 365.367 372.425L365.654 372.834C366.745 372.071 367.841 371.314 368.941 370.562L368.659 370.148C369.76 369.395 370.866 368.649 371.975 367.906L372.252 368.321C373.361 367.58 374.473 366.842 375.589 366.111L375.315 365.694C375.79 365.383 376.265 365.073 376.742 364.764L378.673 363.518L378.943 363.938C380.063 363.221 381.188 362.508 382.316 361.801L382.05 361.378C383.18 360.67 384.313 359.967 385.451 359.27L385.712 359.694C386.848 358.998 387.989 358.307 389.132 357.621L388.875 357.191C390.021 356.505 391.17 355.824 392.323 355.148L392.576 355.579C393.723 354.906 394.875 354.239 396.031 353.577L395.783 353.144C396.939 352.481 398.098 351.823 399.262 351.172L399.506 351.608C400.668 350.958 401.834 350.312 403.003 349.673L402.764 349.235C403.935 348.595 405.109 347.96 406.288 347.331L406.523 347.771C407.7 347.142 408.88 346.519 410.064 345.901L409.833 345.458C411.013 344.843 412.197 344.234 413.384 343.63L413.611 344.074C414.797 343.471 415.986 342.873 417.179 342.28L416.958 341.833C418.152 341.24 419.35 340.651 420.551 340.069L420.769 340.52C421.969 339.938 423.173 339.363 424.379 338.793L424.166 338.342C425.373 337.772 426.583 337.207 427.797 336.648L428.006 337.102C429.214 336.546 430.425 335.996 431.639 335.451L431.435 334.995C432.651 334.45 433.87 333.912 435.092 333.378L435.292 333.835C436.513 333.302 437.738 332.774 438.965 332.253L438.769 331.795C439.998 331.273 441.23 330.754 442.465 330.243L442.466 330.244L442.657 330.706C443.888 330.197 445.123 329.695 446.361 329.197L446.174 328.733C447.409 328.237 448.647 327.747 449.888 327.263L450.071 327.728C451.31 327.244 452.553 326.765 453.799 326.293L453.622 325.825C454.869 325.352 456.12 324.886 457.374 324.425L457.545 324.893C458.797 324.432 460.053 323.977 461.311 323.528L461.143 323.058C462.398 322.61 463.656 322.168 464.917 321.731L465.082 322.204C466.338 321.77 467.597 321.341 468.859 320.918L468.7 320.445C469.964 320.022 471.23 319.604 472.5 319.192L472.654 319.668C473.922 319.257 475.192 318.852 476.465 318.453L476.316 317.977C477.591 317.577 478.869 317.185 480.149 316.798L480.294 317.274C481.568 316.889 482.844 316.51 484.123 316.137L483.983 315.656C485.26 315.284 486.54 314.918 487.823 314.558L487.958 315.037C489.24 314.677 490.524 314.323 491.81 313.975L491.679 313.492C492.967 313.143 494.258 312.8 495.551 312.463L495.677 312.947C496.969 312.611 498.264 312.28 499.561 311.956L499.44 311.473C500.731 311.15 502.025 310.833 503.322 310.522L503.438 311.008C504.73 310.698 506.025 310.394 507.323 310.097L507.21 309.61C508.509 309.312 509.811 309.021 511.115 308.735L511.221 309.223C512.523 308.937 513.828 308.658 515.135 308.385L515.033 307.896C516.341 307.622 517.653 307.356 518.966 307.095L519.063 307.584C520.366 307.325 521.672 307.071 522.98 306.824L522.887 306.334C524.194 306.087 525.504 305.847 526.816 305.612L526.904 306.104C528.214 305.869 529.527 305.641 530.841 305.419L530.757 304.928C532.074 304.706 533.392 304.488 534.712 304.278L534.792 304.772C536.11 304.563 537.431 304.359 538.754 304.162L538.681 303.669C539.997 303.473 541.314 303.283 542.634 303.1L542.703 303.594C544.018 303.411 545.336 303.234 546.656 303.063L546.592 302.567C547.913 302.397 549.237 302.233 550.562 302.074L550.622 302.569C551.945 302.411 553.271 302.259 554.598 302.113L554.543 301.616C555.873 301.47 557.204 301.332 558.538 301.198L558.587 301.694C559.909 301.562 561.233 301.436 562.559 301.316L562.514 300.819C563.838 300.7 565.164 300.586 566.492 300.479L566.532 300.977C567.858 300.869 569.186 300.769 570.515 300.674L570.48 300.176C571.811 300.081 573.144 299.991 574.479 299.909L574.51 300.408C575.843 300.326 577.178 300.25 578.515 300.181L578.489 299.683C579.818 299.613 581.148 299.549 582.481 299.492L582.502 299.991C583.828 299.935 585.156 299.885 586.485 299.841L586.468 299.343C587.799 299.299 589.131 299.26 590.465 299.229L590.477 299.728C591.809 299.696 593.144 299.671 594.479 299.652L594.472 299.153C595.809 299.134 597.148 299.122 598.489 299.115L598.491 299.614C599.16 299.611 599.83 299.609 600.5 299.609C601.171 299.609 601.841 299.611 602.51 299.614L602.511 299.115C603.852 299.122 605.191 299.134 606.528 299.153L606.522 299.652C607.857 299.671 609.192 299.696 610.524 299.728L610.535 299.229C611.869 299.26 613.201 299.299 614.532 299.343L614.516 299.841C615.845 299.885 617.173 299.935 618.499 299.991L618.519 299.492C619.852 299.549 621.182 299.613 622.511 299.683L622.486 300.181C623.823 300.25 625.158 300.326 626.492 300.408L626.521 299.909C627.856 299.991 629.189 300.081 630.52 300.176L630.486 300.674C631.815 300.769 633.143 300.869 634.469 300.977L634.508 300.479C635.836 300.587 637.162 300.7 638.486 300.819L638.442 301.316C639.768 301.436 641.092 301.563 642.414 301.695L642.462 301.198C643.796 301.332 645.127 301.47 646.457 301.616L646.403 302.113C647.731 302.259 649.057 302.411 650.38 302.569L650.438 302.074C651.764 302.233 653.087 302.396 654.409 302.567L654.345 303.063C655.665 303.234 656.983 303.411 658.298 303.594L658.366 303.1C659.686 303.283 661.003 303.473 662.319 303.669L662.247 304.162C663.57 304.359 664.891 304.563 666.21 304.772L666.288 304.278C667.608 304.488 668.926 304.706 670.243 304.928L670.161 305.42C671.475 305.642 672.787 305.869 674.097 306.104L674.184 305.612C675.496 305.847 676.806 306.087 678.113 306.334L678.021 306.825C679.329 307.072 680.635 307.325 681.938 307.584L682.035 307.095C683.348 307.356 684.659 307.622 685.967 307.896H685.968L685.866 308.385C687.173 308.658 688.478 308.937 689.78 309.223L689.886 308.735C691.19 309.021 692.491 309.313 693.79 309.61L693.679 310.097C694.976 310.394 696.271 310.698 697.563 311.008L697.679 310.522C698.976 310.833 700.27 311.15 701.561 311.473L701.441 311.957C702.738 312.281 704.032 312.611 705.324 312.947L705.45 312.464V312.463C706.743 312.8 708.033 313.143 709.321 313.492L709.191 313.975C710.477 314.323 711.762 314.678 713.043 315.038L713.177 314.558C714.46 314.918 715.741 315.284 717.018 315.657L716.878 316.137C718.157 316.51 719.434 316.889 720.708 317.274L720.851 316.798C722.131 317.185 723.409 317.577 724.684 317.977L724.536 318.453C725.809 318.852 727.08 319.257 728.348 319.668L728.5 319.192C729.77 319.604 731.036 320.022 732.3 320.445L732.142 320.918C733.404 321.341 734.664 321.77 735.92 322.204L736.083 321.732C737.344 322.169 738.602 322.611 739.858 323.059L739.691 323.528C740.949 323.977 742.204 324.433 743.456 324.894L743.627 324.425C744.881 324.886 746.131 325.352 747.378 325.825L747.203 326.293C748.448 326.765 749.692 327.244 750.931 327.728L751.112 327.263C752.353 327.747 753.591 328.238 754.826 328.734L754.641 329.197C755.879 329.695 757.113 330.197 758.344 330.706L758.535 330.244V330.243C759.77 330.754 761.002 331.273 762.231 331.795L762.037 332.254C763.264 332.775 764.488 333.303 765.708 333.836L765.908 333.378C767.13 333.912 768.349 334.45 769.565 334.995L769.362 335.452C770.576 335.997 771.787 336.546 772.995 337.102L773.203 336.648C774.417 337.207 775.627 337.772 776.834 338.342L776.622 338.793C777.828 339.363 779.032 339.938 780.232 340.52L780.449 340.069C781.65 340.651 782.848 341.24 784.042 341.833L783.822 342.28C785.015 342.873 786.204 343.471 787.39 344.074L787.616 343.63C788.803 344.234 789.987 344.844 791.167 345.459L790.937 345.902C792.121 346.52 793.301 347.142 794.478 347.771L794.712 347.331C795.891 347.96 797.065 348.595 798.236 349.235L797.998 349.674C799.167 350.313 800.333 350.958 801.495 351.608L801.739 351.173C802.902 351.824 804.061 352.482 805.217 353.145L804.97 353.577C806.126 354.239 807.277 354.906 808.425 355.579L808.677 355.148C809.83 355.824 810.979 356.506 812.125 357.192H812.125L811.869 357.621C813.012 358.307 814.153 358.998 815.289 359.694L815.548 359.27C816.686 359.967 817.82 360.67 818.95 361.378L818.685 361.801C819.813 362.508 820.938 363.221 822.058 363.938L822.327 363.518C823.45 364.238 824.569 364.964 825.684 365.694L825.412 366.112C826.528 366.843 827.64 367.58 828.749 368.321L829.025 367.907C830.134 368.65 831.24 369.396 832.341 370.149H832.342L832.06 370.562C833.16 371.314 834.256 372.071 835.347 372.834L835.632 372.425C836.725 373.188 837.814 373.957 838.898 374.73L838.61 375.137C839.695 375.911 840.776 376.691 841.853 377.476L842.147 377.071C843.227 377.858 844.302 378.65 845.373 379.447L845.075 379.848C846.144 380.643 847.209 381.444 848.27 382.25L848.571 381.854C849.633 382.661 850.691 383.472 851.745 384.289L851.439 384.684C852.491 385.5 853.539 386.32 854.583 387.146L854.892 386.755C855.939 387.584 856.981 388.419 858.019 389.258L857.707 389.646C858.744 390.485 859.776 391.328 860.804 392.176L861.122 391.791C862.151 392.64 863.176 393.494 864.196 394.353H864.197L863.875 394.735C864.893 395.593 865.908 396.456 866.917 397.324L867.242 396.945C868.253 397.815 869.261 398.689 870.263 399.568L869.935 399.943C870.938 400.823 871.936 401.707 872.929 402.596L873.262 402.224V402.223C874.257 403.113 875.246 404.008 876.231 404.908L875.895 405.277C876.879 406.176 877.858 407.08 878.833 407.988L879.171 407.623C880.147 408.533 881.118 409.446 882.084 410.365L881.741 410.727C882.706 411.645 883.668 412.568 884.624 413.496L884.97 413.138C885.928 414.068 886.88 415.003 887.829 415.942L887.479 416.296C888.426 417.234 889.368 418.177 890.305 419.124L890.659 418.773C891.597 419.722 892.531 420.673 893.459 421.631V421.632L893.101 421.979C894.028 422.936 894.95 423.897 895.867 424.862L896.227 424.519C897.146 425.487 898.061 426.459 898.97 427.436L898.606 427.775C899.514 428.751 900.417 429.732 901.315 430.717L901.683 430.38C902.582 431.366 903.476 432.357 904.365 433.352L903.993 433.685C904.88 434.678 905.762 435.676 906.639 436.679L907.014 436.35C907.893 437.354 908.766 438.361 909.634 439.374L909.255 439.699C910.123 440.711 910.985 441.728 911.841 442.749L912.224 442.428C913.082 443.45 913.934 444.477 914.781 445.508L914.396 445.824C915.242 446.854 916.083 447.887 916.918 448.925L917.306 448.612C918.142 449.651 918.975 450.694 919.8 451.741V451.742L919.408 452.051C920.232 453.097 921.052 454.148 921.866 455.203L922.26 454.898C923.075 455.955 923.884 457.016 924.688 458.081L924.291 458.382C925.093 459.445 925.891 460.512 926.683 461.584L927.084 461.287C927.877 462.36 928.664 463.437 929.446 464.519H929.447L929.042 464.812C929.822 465.891 930.597 466.975 931.367 468.062L931.773 467.774C932.543 468.864 933.309 469.957 934.068 471.054L933.658 471.338C934.416 472.434 935.168 473.533 935.915 474.637L936.328 474.356C937.075 475.461 937.815 476.571 938.551 477.684L938.136 477.959C938.871 479.07 939.601 480.186 940.325 481.305L940.742 481.034C941.466 482.155 942.185 483.278 942.898 484.406L942.477 484.674C943.188 485.8 943.894 486.93 944.593 488.063L945.017 487.801C945.718 488.936 946.411 490.076 947.1 491.219L946.674 491.476C947.362 492.617 948.043 493.762 948.719 494.91L949.149 494.656C949.826 495.807 950.497 496.96 951.162 498.118L950.729 498.366C951.392 499.522 952.049 500.681 952.701 501.844L953.135 501.599C953.787 502.762 954.433 503.929 955.073 505.1L954.635 505.339C955.274 506.508 955.907 507.681 956.534 508.856L956.974 508.621C957.601 509.798 958.221 510.98 958.836 512.164L958.395 512.395C959.009 513.577 959.617 514.763 960.219 515.953L960.664 515.728C961.266 516.917 961.861 518.111 962.451 519.308L962.004 519.528C962.593 520.723 963.175 521.92 963.75 523.121L964.2 522.905C964.776 524.108 965.346 525.315 965.91 526.524L965.458 526.734C966.022 527.942 966.579 529.154 967.129 530.368L967.583 530.161C968.135 531.377 968.681 532.596 969.219 533.818H969.22L968.762 534.021C969.299 535.238 969.829 536.459 970.353 537.683L970.811 537.485C971.335 538.711 971.853 539.94 972.365 541.172L971.905 541.363C972.416 542.593 972.92 543.827 973.418 545.063L973.881 544.877V544.876C974.38 546.114 974.871 547.356 975.357 548.601L974.892 548.782C975.377 550.024 975.855 551.268 976.327 552.516L976.792 552.339C977.262 553.585 977.728 554.833 978.186 556.085L977.717 556.257C978.174 557.507 978.626 558.761 979.07 560.017L979.54 559.85C979.984 561.107 980.422 562.368 980.853 563.632L980.382 563.793C980.813 565.055 981.237 566.319 981.655 567.587L982.127 567.431C982.545 568.697 982.956 569.966 983.36 571.238L982.884 571.39C983.287 572.657 983.683 573.927 984.072 575.2L984.547 575.055C984.937 576.329 985.321 577.607 985.697 578.887L985.219 579.027C985.595 580.306 985.963 581.587 986.326 582.871L986.806 582.735C987.169 584.021 987.523 585.31 987.873 586.601L987.392 586.731C987.739 588.015 988.08 589.301 988.414 590.59L988.895 590.465C989.229 591.754 989.557 593.045 989.877 594.339L989.393 594.459C989.713 595.751 990.026 597.046 990.332 598.344L990.816 598.229C991.122 599.528 991.422 600.83 991.714 602.134L991.229 602.243C991.521 603.546 991.806 604.851 992.084 606.158L992.574 606.054V606.053C992.851 607.353 993.119 608.657 993.382 609.962L992.894 610.061C993.157 611.364 993.413 612.67 993.663 613.978L994.152 613.885C994.401 615.194 994.646 616.505 994.881 617.819V617.82L994.389 617.909C994.625 619.222 994.853 620.536 995.075 621.854L995.565 621.771C995.786 623.088 996.002 624.407 996.209 625.729L995.717 625.806C995.923 627.117 996.122 628.431 996.314 629.746L996.808 629.674Z" stroke="white" stroke-dasharray="4 4"/>
<path opacity="0.2" d="M600.5 412.305C756.476 412.305 882.885 533.758 882.885 683.536C882.885 833.315 756.476 954.769 600.5 954.769C444.524 954.768 318.115 833.314 318.115 683.536C318.115 533.758 444.524 412.305 600.5 412.305Z" stroke="white"/>
<path d="M261.696 299.609C267.495 299.61 272.16 304.12 272.16 309.642C272.16 315.163 267.495 319.674 261.696 319.674C255.898 319.674 251.231 315.163 251.231 309.642C251.231 304.12 255.898 299.609 261.696 299.609Z" stroke="#623391"/>
<path d="M261.696 305.929C263.861 305.929 265.582 307.61 265.582 309.642C265.582 311.673 263.861 313.354 261.696 313.354C259.531 313.354 257.81 311.673 257.81 309.642C257.81 307.61 259.531 305.929 261.696 305.929Z" fill="#95DE64" stroke="#623391"/>
</g>
</g>
<defs>
<filter id="filter0_f_1_6101" x="-344.842" y="-264.815" width="1893.69" height="1861.13" filterUnits="userSpaceOnUse" color-interpolation-filters="sRGB">
<feFlood flood-opacity="0" result="BackgroundImageFix"/>
<feBlend mode="normal" in="SourceGraphic" in2="BackgroundImageFix" result="shape"/>
<feGaussianBlur stdDeviation="267" result="effect1_foregroundBlur_1_6101"/>
</filter>
</defs>
</svg>
