<svg width="190" height="30" viewBox="0 0 190 30" fill="none" xmlns="http://www.w3.org/2000/svg">
<path d="M13.0577 0H15.8018L17.6942 0.188745L19.7758 0.755076L20.7221 1.13257V4.05826L20.4382 6.41772L20.0597 8.11652L19.3974 10.0041L18.5458 11.7972L17.6942 13.1185L16.8426 14.2511L15.6125 15.6667L14.2878 16.988L13.247 17.8374L12.0169 18.7811L10.5976 19.6305L9.17823 20.2912L7.19123 20.9519L5.20414 21.4238L2.93325 21.7068H1.98699L1.60853 21.5181L0.662268 19.5362L0.283802 18.2149L0 16.3274V13.0241L0.378466 10.9478L1.04073 9.06025L1.79776 7.36144L2.93335 5.66264L3.78494 4.62449L4.54188 3.96393L5.67737 2.92569L7.38056 1.79322L8.89452 1.03815L10.3138 0.566236L12.1116 0.0944202L13.0577 0Z" fill="#95DE64"/>
<path d="M47.4055 5.85142L49.3925 5.94584L51.4743 6.41775L53.0828 7.07841L54.3129 7.83339L55.5429 8.87153L56.4892 10.0041L57.3408 11.5142L57.8139 12.741L55.7322 12.8354H53.0828L51.7581 11.3253L50.9065 10.7591L50.1496 10.3816L48.6356 10.0984H47.3109L46.1755 10.2872L45.04 10.7591L44.0937 11.4197L43.2421 12.3636L42.4852 13.8735L42.2013 15.1005V17.2711L42.5799 18.6869L43.1475 19.8193L43.9045 20.7631L44.7561 21.4238L45.9861 21.99L47.3109 22.2732H48.7302L50.0549 21.99L51.3796 21.4238L52.042 20.8575H52.2312L52.4204 20.48L53.0828 19.5363L53.5559 18.4037H47.1216V14.9117H58.2869V16.8936L58.0031 18.6869L57.53 20.2912L56.7731 21.8013L56.1107 22.8394L54.6913 24.2551L53.272 25.1989L52.042 25.7651L50.4334 26.237L49.1087 26.4258H46.8377L44.7561 26.0483L43.2421 25.482L41.9175 24.727L40.8767 23.8776L40.4035 23.5001L39.5519 22.4619L38.7003 21.1406L38.1326 19.725L37.7541 18.1205L37.5648 16.6105L37.6595 14.8173L38.038 12.9298L38.6057 11.4197L39.268 10.2872L40.3089 8.96596L41.4444 7.92771L42.7691 7.07841L43.9991 6.51208L45.7969 6.04017L47.4055 5.85142Z" fill="#F0F0F0"/>
<path d="M25.1691 4.34172L25.6421 4.62489L26.4937 5.56871L27.44 6.98435L28.1969 8.39998L28.8593 10.1932L29.2378 11.7976L29.427 13.1189V16.9884L29.1431 18.4984L28.5754 20.1972L27.8184 21.7072L26.9668 23.2173L26.1152 24.2554L24.7906 25.6712C24.4751 25.9543 24.1597 26.2374 23.8443 26.5206L22.0465 27.653L19.9648 28.5969L18.5455 29.0687L17.5993 29.2575L15.5176 29.3518H13.3414L11.922 29.2575L9.84034 28.6912L8.04258 27.9362L6.24472 26.8981L5.2039 26.143L5.01466 25.8599L7.00175 25.388L9.84034 24.5386L12.2059 23.5005L13.8144 22.6511L14.9499 21.896L16.4639 20.7635L17.41 19.9141L18.1671 19.2535L19.5864 17.8378L20.5326 16.6108L21.3842 15.3839L22.5196 13.4964L23.2766 11.9863L24.1282 9.62687L24.6013 7.83375L24.8852 6.32369L25.1691 4.34172Z" fill="#95DE64"/>
<path d="M130.767 10.9475H131.997L133.605 11.2307C133.953 11.3879 134.3 11.5452 134.646 11.7026C134.931 11.8913 135.214 12.0801 135.498 12.2688C135.782 12.552 136.066 12.8351 136.35 13.1182C136.602 13.5586 136.855 13.999 137.107 14.4395C137.233 14.8484 137.36 15.2574 137.485 15.6664L137.674 17.1765V26.1423H133.416L133.322 17.554L133.133 16.5158C132.943 16.1697 132.754 15.8237 132.565 15.4777C132.312 15.2889 132.06 15.1002 131.808 14.9113C131.587 14.8484 131.367 14.7855 131.145 14.7226H129.632C129.316 14.8484 129.001 14.9744 128.685 15.1002C128.465 15.2889 128.244 15.4777 128.023 15.6664C127.802 16.1068 127.581 16.5472 127.361 16.9877L127.266 17.4595L127.172 24.5379L127.077 26.1423H122.914V11.325H126.036L126.319 12.1744C126.351 12.4261 126.383 12.6778 126.415 12.9295L126.887 12.6463C127.14 12.4262 127.392 12.2059 127.645 11.9856C128.086 11.7655 128.528 11.5452 128.97 11.325C129.347 11.2307 129.726 11.1362 130.105 11.0419L130.767 10.9475Z" fill="#F0F0F0"/>
<path d="M156.883 11.3252H161.613C161.708 11.4196 161.803 11.514 161.897 11.6083C162.402 12.3948 162.906 13.1813 163.411 13.9678C163.758 14.4711 164.105 14.9745 164.452 15.4779H164.735C165.083 14.9115 165.43 14.3453 165.777 13.7791L167.48 11.3252H172.211C172.148 11.4825 172.085 11.6398 172.021 11.7971C171.549 12.4892 171.076 13.1813 170.602 13.8734C170.161 14.5026 169.72 15.1318 169.278 15.7609C168.962 16.2328 168.647 16.7047 168.331 17.1767C168.016 17.6171 167.7 18.0575 167.385 18.4979L167.574 18.9698C168.584 20.4169 169.593 21.8641 170.602 23.3112C171.013 23.9089 171.422 24.5066 171.832 25.1043C172.053 25.4189 172.274 25.7336 172.495 26.0482V26.1425H167.574C167.354 25.7965 167.133 25.4504 166.912 25.1043C166.597 24.6639 166.281 24.2235 165.966 23.783C165.525 23.1225 165.083 22.4618 164.641 21.8011L164.547 21.7067C164.326 22.0528 164.105 22.3989 163.884 22.7449C163.474 23.3426 163.065 23.9404 162.654 24.5381C162.307 25.0414 161.96 25.5448 161.613 26.0482L161.519 26.1425H156.598C156.787 25.8594 156.977 25.5762 157.166 25.2931C157.608 24.6639 158.05 24.0348 158.491 23.4055C158.807 22.9651 159.121 22.5247 159.437 22.0843L161.519 19.0642C161.582 19.0013 161.645 18.9384 161.708 18.8755C161.676 18.6552 161.645 18.435 161.613 18.2148C161.267 17.7429 160.919 17.271 160.573 16.7992C160.163 16.2014 159.752 15.6037 159.343 15.0059L157.828 12.8352C157.513 12.3948 157.198 11.9544 156.883 11.514V11.3252Z" fill="#F0F0F0"/>
<path d="M60.6522 5.28541H64.9102V26.1428H60.6522V5.28541Z" fill="#F0F0F0"/>
<path fill-rule="evenodd" clip-rule="evenodd" d="M86.2 5.28541H90.3633L90.4579 10.7593V12.2694H90.7418L91.688 11.7031L92.823 11.2312L94.4319 10.948H95.7565L97.3654 11.2312C97.7757 11.3885 98.1851 11.5458 98.5955 11.7031C98.8789 11.8604 99.1632 12.0177 99.4467 12.1749C99.794 12.4581 100.14 12.7413 100.488 13.0243C100.708 13.2761 100.93 13.5278 101.15 13.7794C101.403 14.2198 101.655 14.6602 101.907 15.1007C102.034 15.4153 102.16 15.7299 102.286 16.0445L102.569 17.0826C102.601 17.3972 102.633 17.7118 102.664 18.0264V19.4421L102.475 20.669L102.002 22.179C101.812 22.5251 101.623 22.8711 101.434 23.2172C101.182 23.5317 100.93 23.8464 100.677 24.161C100.362 24.444 100.046 24.7272 99.731 25.0104C99.4152 25.1991 99.1003 25.3879 98.7844 25.5766C98.438 25.7339 98.0906 25.8912 97.7442 26.0485L96.5132 26.3316L95.7565 26.426H94.4319L92.823 26.1428L91.5934 25.671L90.4579 25.0104L89.9848 24.5385H89.7956C89.6379 25.0418 89.4801 25.5452 89.3225 26.0485L89.2278 26.1428H86.1053L86.2 5.28541ZM93.4863 14.6288H95.1887L96.1353 14.9119L97.081 15.4782C97.3339 15.7613 97.5858 16.0445 97.8387 16.3276L98.3111 17.3658C98.375 17.7748 98.438 18.1837 98.501 18.5927L98.4065 19.7252C98.2796 20.0398 98.1536 20.3544 98.0277 20.669C97.8387 20.9521 97.6488 21.2353 97.4599 21.5184C97.2079 21.7386 96.9551 21.9588 96.7031 22.179L95.5675 22.6509L94.9997 22.7452H93.5807L92.7286 22.5565L91.8773 22.0847L91.1202 21.424L90.5525 20.4802L90.2686 19.5365V17.8377L90.5525 16.8939L91.2149 15.8557L91.9718 15.1951L93.0129 14.7231L93.4863 14.6288ZM74.8453 10.948H76.0754L78.0625 11.2312L79.198 11.6087L80.6173 12.3638L81.6581 13.2131L82.415 14.0625L83.1721 15.3838L83.6452 16.7995L83.8344 18.0264V19.3476L83.5505 20.9521L83.1721 22.0847L82.415 23.3116L81.6581 24.2553L80.3334 25.1991L79.0088 25.8598L77.684 26.2373L76.0754 26.426H74.7508L73.4261 26.2373L71.9121 25.7654L70.3981 25.0104L69.1681 23.9722L68.4111 22.934L67.6541 21.424L67.2756 19.7252V17.6488L67.5595 16.2332L68.0326 15.1007L68.8842 13.7794L69.925 12.7413L71.2497 11.8919L72.4798 11.42L73.9937 11.0425L74.8453 10.948ZM74.7508 14.6288H76.3593L77.3056 14.9119L78.2517 15.4782L79.1033 16.4219L79.5765 17.6488L79.671 18.2152V19.1589L79.3872 20.3859L78.8194 21.3296L78.0625 22.0847L77.1162 22.5565L76.2646 22.7452H74.6561L73.7099 22.4622L72.669 21.8015L72.0068 20.9521L71.5336 19.914L71.439 19.4421V17.932L71.7229 16.9883L72.196 16.1389L72.669 15.5725L73.7099 14.9119L74.7508 14.6288ZM181.011 10.948H182.241L183.944 11.1368C184.417 11.2941 184.891 11.4514 185.363 11.6087L186.688 12.2694C187.003 12.521 187.319 12.7727 187.634 13.0243C187.886 13.2761 188.139 13.5278 188.391 13.7794C188.612 14.1255 188.833 14.4715 189.053 14.8176C189.212 15.1321 189.369 15.4467 189.527 15.7613C189.652 16.2332 189.779 16.7051 189.905 17.177L190 17.932V19.4421L189.811 20.669C189.652 21.1409 189.495 21.6128 189.338 22.0847C189.053 22.5565 188.77 23.0284 188.485 23.5003C188.107 23.8778 187.729 24.2553 187.351 24.6328L186.025 25.4822C185.647 25.6395 185.269 25.7969 184.891 25.9541L183.282 26.3316L182.241 26.426H181.011L179.213 26.1428L178.077 25.7654C177.573 25.5137 177.068 25.262 176.564 25.0104C176.185 24.6643 175.807 24.3182 175.428 23.9722L174.671 23.1228C174.418 22.6194 174.166 22.1161 173.915 21.6128C173.788 21.2038 173.662 20.7948 173.536 20.3859L173.441 19.5365V17.932L173.63 16.6107C173.819 16.1074 174.009 15.604 174.198 15.1007C174.418 14.7546 174.64 14.4086 174.86 14.0625L175.711 13.1188C176.059 12.8356 176.406 12.5525 176.753 12.2694L178.267 11.5144C178.708 11.3885 179.15 11.2626 179.592 11.1368L181.011 10.948ZM180.822 14.6288H182.525C182.934 14.7546 183.345 14.8805 183.755 15.0063C184.07 15.2266 184.386 15.4467 184.701 15.667C184.922 15.9815 185.143 16.2961 185.363 16.6107C185.49 16.9568 185.616 17.3029 185.742 17.6488L185.836 18.2152V19.1589L185.553 20.3859C185.363 20.7005 185.174 21.015 184.985 21.3296C184.732 21.5813 184.48 21.8329 184.227 22.0847C183.912 22.2419 183.597 22.3993 183.282 22.5565C182.997 22.6194 182.714 22.6823 182.43 22.7452H181.011L180.065 22.5565C179.749 22.3678 179.434 22.179 179.118 21.9903C178.866 21.7386 178.613 21.4869 178.361 21.2353C178.173 20.8577 177.983 20.4802 177.794 20.1027L177.605 19.2533V18.0264L177.983 16.7995C178.173 16.5164 178.361 16.2332 178.55 15.9501C178.772 15.7299 178.992 15.5096 179.213 15.2895C179.529 15.1321 179.843 14.9749 180.159 14.8176L180.822 14.6288ZM111.558 10.948H112.883L114.681 11.2312L116.101 11.7031C116.447 11.8919 116.794 12.0806 117.141 12.2694C117.551 12.5839 117.962 12.8985 118.371 13.2131C118.718 13.6536 119.066 14.094 119.412 14.5344C119.601 14.9119 119.791 15.2895 119.98 15.667C120.106 16.1074 120.232 16.5478 120.359 16.9883L120.453 17.5545V20.0083C120.296 20.5746 120.137 21.1409 119.98 21.7071C119.696 22.2419 119.412 22.7767 119.129 23.3116C118.813 23.6576 118.498 24.0036 118.182 24.3497C117.74 24.6643 117.299 24.9789 116.857 25.2934C116.384 25.5137 115.911 25.7339 115.438 25.9541L113.83 26.3316L112.883 26.426H111.558L110.045 26.2373L108.53 25.7654C108.089 25.5451 107.648 25.325 107.206 25.1047C106.859 24.8216 106.512 24.5385 106.165 24.2553C105.85 23.9092 105.534 23.5632 105.219 23.2172C104.966 22.7452 104.714 22.2734 104.462 21.8015C104.304 21.2353 104.146 20.6689 103.989 20.1027L103.895 18.4039L104.083 16.7995C104.241 16.3276 104.398 15.8557 104.557 15.3838C104.809 14.9434 105.062 14.503 105.314 14.0625C105.661 13.685 106.007 13.3075 106.355 12.93C106.764 12.6469 107.174 12.3638 107.585 12.0806C107.963 11.8919 108.341 11.7031 108.72 11.5144C109.161 11.3885 109.603 11.2626 110.045 11.1368L111.558 10.948ZM111.369 14.6288H113.073L114.018 14.9119L114.965 15.4782C115.186 15.7299 115.407 15.9815 115.627 16.2332C115.785 16.5478 115.942 16.8624 116.101 17.177L116.29 17.932V19.3476C116.195 19.7252 116.101 20.1027 116.005 20.4802C115.785 20.8263 115.564 21.1723 115.343 21.5184C115.091 21.7386 114.839 21.9588 114.586 22.179C114.208 22.3363 113.83 22.4936 113.451 22.6509C113.262 22.6823 113.073 22.7138 112.883 22.7452H111.464L110.613 22.5565C110.265 22.3678 109.918 22.179 109.572 21.9903L108.909 21.3296C108.72 20.9835 108.53 20.6375 108.341 20.2915L108.153 19.6308V17.8377L108.436 16.8939C108.625 16.5793 108.815 16.2647 109.004 15.9501L109.855 15.1951C110.202 15.0377 110.55 14.8805 110.896 14.7231L111.369 14.6288ZM147.041 10.948H148.556L150.165 11.2312C150.668 11.42 151.173 11.6087 151.678 11.7974C152.025 12.0177 152.372 12.2379 152.719 12.4581C153.034 12.7413 153.35 13.0243 153.665 13.3075C153.918 13.6221 154.17 13.9367 154.422 14.2513C154.674 14.7546 154.926 15.258 155.179 15.7613L155.557 17.0826C155.621 17.4287 155.684 17.7748 155.747 18.1207V19.8195H143.824C144.046 20.3229 144.266 20.8263 144.487 21.3296L144.96 21.8958V22.0847L146.474 22.8397L147.041 22.934H148.271L149.218 22.7452L150.069 22.3678L150.827 21.8015L151.016 21.5184L151.299 21.424H155.368L155.463 21.6128C155.242 22.0217 155.022 22.4307 154.8 22.8397C154.517 23.1857 154.233 23.5317 153.949 23.8778C153.728 24.0981 153.507 24.3182 153.287 24.5385C152.971 24.7586 152.656 24.9789 152.34 25.1991C151.898 25.4193 151.458 25.6395 151.016 25.8598L149.786 26.2373L148.556 26.426H146.947L145.243 26.1428C144.865 26.017 144.487 25.8912 144.109 25.7654L142.689 25.0104C142.279 24.6328 141.869 24.2553 141.459 23.8778C141.207 23.5317 140.954 23.1857 140.702 22.8397C140.481 22.3678 140.26 21.8958 140.04 21.424C139.945 21.0779 139.851 20.7319 139.755 20.3859L139.661 19.7252V17.6488C139.755 17.177 139.851 16.7051 139.945 16.2332C140.166 15.7299 140.387 15.2266 140.607 14.7231C140.828 14.4086 141.049 14.094 141.27 13.7794C141.553 13.4648 141.838 13.1502 142.121 12.8356C142.531 12.5525 142.942 12.2694 143.351 11.9862C143.698 11.829 144.046 11.6716 144.392 11.5144C144.802 11.3885 145.212 11.2626 145.622 11.1368L147.041 10.948ZM147.137 14.3457H148.367L149.312 14.5344C149.565 14.6602 149.817 14.7861 150.069 14.9119L150.921 15.667C151.11 15.9501 151.299 16.2332 151.489 16.5164L151.584 17.0826L151.395 17.177H144.203C144.077 17.1141 143.95 17.0512 143.824 16.9883C144.046 16.6107 144.266 16.2332 144.487 15.8557C144.771 15.5725 145.054 15.2895 145.339 15.0063C145.717 14.8176 146.095 14.6288 146.474 14.4401L147.137 14.3457Z" fill="#F0F0F0"/>
</svg>
