<svg width="97" height="95" viewBox="0 0 97 95" fill="none" xmlns="http://www.w3.org/2000/svg">
<path d="M79.8498 55.0996H17.1498C15.5758 55.0996 14.2998 56.3756 14.2998 57.9496V61.7496C14.2998 63.3236 15.5758 64.5996 17.1498 64.5996H79.8498C81.4238 64.5996 82.6998 63.3236 82.6998 61.7496V57.9496C82.6998 56.3756 81.4238 55.0996 79.8498 55.0996Z" fill="url(#paint0_linear_1_351)" stroke="#3A7A50" stroke-width="0.76"/>
<path d="M58.0001 53.2002H39.0001C37.9508 53.2002 37.1001 54.0509 37.1001 55.1002C37.1001 56.1495 37.9508 57.0002 39.0001 57.0002H58.0001C59.0494 57.0002 59.9001 56.1495 59.9001 55.1002C59.9001 54.0509 59.0494 53.2002 58.0001 53.2002Z" fill="#1A4A2E"/>
<path d="M75.1001 20.9004H21.9001C19.8014 20.9004 18.1001 22.6017 18.1001 24.7004V53.2004C18.1001 55.2991 19.8014 57.0004 21.9001 57.0004H75.1001C77.1988 57.0004 78.9001 55.2991 78.9001 53.2004V24.7004C78.9001 22.6017 77.1988 20.9004 75.1001 20.9004Z" fill="url(#paint1_linear_1_351)" stroke="#3A7A50" stroke-width="0.76"/>
<path d="M73.1999 24.7002H23.7999C22.7506 24.7002 21.8999 25.5509 21.8999 26.6002V51.3002C21.8999 52.3495 22.7506 53.2002 23.7999 53.2002H73.1999C74.2492 53.2002 75.0999 52.3495 75.0999 51.3002V26.6002C75.0999 25.5509 74.2492 24.7002 73.1999 24.7002Z" fill="url(#paint2_linear_1_351)"/>
<path opacity="0.7" d="M34.25 43.7002H30.45C29.9253 43.7002 29.5 44.1255 29.5 44.6502V48.4502C29.5 48.9749 29.9253 49.4002 30.45 49.4002H34.25C34.7747 49.4002 35.2 48.9749 35.2 48.4502V44.6502C35.2 44.1255 34.7747 43.7002 34.25 43.7002Z" fill="#22C55E"/>
<path opacity="0.85" d="M41.8501 38.9502H38.0501C37.5254 38.9502 37.1001 39.3755 37.1001 39.9002V48.4502C37.1001 48.9749 37.5254 49.4002 38.0501 49.4002H41.8501C42.3748 49.4002 42.8001 48.9749 42.8001 48.4502V39.9002C42.8001 39.3755 42.3748 38.9502 41.8501 38.9502Z" fill="#4ADE80"/>
<path opacity="0.9" d="M49.4502 35.1504H45.6502C45.1255 35.1504 44.7002 35.5757 44.7002 36.1004V48.4504C44.7002 48.9751 45.1255 49.4004 45.6502 49.4004H49.4502C49.9749 49.4004 50.4002 48.9751 50.4002 48.4504V36.1004C50.4002 35.5757 49.9749 35.1504 49.4502 35.1504Z" fill="#86EFAC"/>
<path opacity="0.9" d="M57.0498 32.2998H53.2498C52.7251 32.2998 52.2998 32.7251 52.2998 33.2498V48.4498C52.2998 48.9745 52.7251 49.3998 53.2498 49.3998H57.0498C57.5745 49.3998 57.9998 48.9745 57.9998 48.4498V33.2498C57.9998 32.7251 57.5745 32.2998 57.0498 32.2998Z" fill="#A3E635"/>
<path opacity="0.95" d="M64.6499 29.4502H60.8499C60.3252 29.4502 59.8999 29.8755 59.8999 30.4002V48.4502C59.8999 48.9749 60.3252 49.4002 60.8499 49.4002H64.6499C65.1746 49.4002 65.5999 48.9749 65.5999 48.4502V30.4002C65.5999 29.8755 65.1746 29.4502 64.6499 29.4502Z" fill="#D9F99D"/>
<path opacity="0.6" d="M27.6001 47.5L67.5001 28.5" stroke="url(#paint3_linear_1_351)" stroke-width="1.14" stroke-dasharray="1.9 1.42"/>
<g filter="url(#filter0_f_1_351)">
<path d="M27.5998 48.9252C28.3868 48.9252 29.0248 48.2872 29.0248 47.5002C29.0248 46.7132 28.3868 46.0752 27.5998 46.0752C26.8128 46.0752 26.1748 46.7132 26.1748 47.5002C26.1748 48.2872 26.8128 48.9252 27.5998 48.9252Z" fill="#4ADE80"/>
</g>
<g filter="url(#filter1_f_1_351)">
<path d="M67.5002 29.9252C68.2872 29.9252 68.9252 29.2872 68.9252 28.5002C68.9252 27.7132 68.2872 27.0752 67.5002 27.0752C66.7132 27.0752 66.0752 27.7132 66.0752 28.5002C66.0752 29.2872 66.7132 29.9252 67.5002 29.9252Z" fill="#A3E635"/>
</g>
<path opacity="0.5" d="M74.1499 57.9502H22.8499C22.3252 57.9502 21.8999 58.3755 21.8999 58.9002C21.8999 59.4249 22.3252 59.8502 22.8499 59.8502H74.1499C74.6746 59.8502 75.0999 59.4249 75.0999 58.9002C75.0999 58.3755 74.6746 57.9502 74.1499 57.9502Z" fill="#2A5C3A"/>
<path opacity="0.5" d="M55.3874 62.7002H41.6124C41.2189 62.7002 40.8999 63.0192 40.8999 63.4127C40.8999 63.8062 41.2189 64.1252 41.6124 64.1252H55.3874C55.7809 64.1252 56.0999 63.8062 56.0999 63.4127C56.0999 63.0192 55.7809 62.7002 55.3874 62.7002Z" fill="#3A7A50"/>
<defs>
<filter id="filter0_f_1_351" x="23.3248" y="43.2252" width="8.5501" height="8.54961" filterUnits="userSpaceOnUse" color-interpolation-filters="sRGB">
<feFlood flood-opacity="0" result="BackgroundImageFix"/>
<feBlend mode="normal" in="SourceGraphic" in2="BackgroundImageFix" result="shape"/>
<feGaussianBlur stdDeviation="1.425" result="effect1_foregroundBlur_1_351"/>
</filter>
<filter id="filter1_f_1_351" x="63.2252" y="24.2252" width="8.5501" height="8.54961" filterUnits="userSpaceOnUse" color-interpolation-filters="sRGB">
<feFlood flood-opacity="0" result="BackgroundImageFix"/>
<feBlend mode="normal" in="SourceGraphic" in2="BackgroundImageFix" result="shape"/>
<feGaussianBlur stdDeviation="1.425" result="effect1_foregroundBlur_1_351"/>
</filter>
<linearGradient id="paint0_linear_1_351" x1="14.2998" y1="55.0996" x2="14.2998" y2="64.5996" gradientUnits="userSpaceOnUse">
<stop stop-color="#2D6E42"/>
<stop offset="1" stop-color="#1A4A2E"/>
</linearGradient>
<linearGradient id="paint1_linear_1_351" x1="18.1001" y1="20.9004" x2="18.1001" y2="57.0004" gradientUnits="userSpaceOnUse">
<stop stop-color="#2D6E42"/>
<stop offset="1" stop-color="#1A4A2E"/>
</linearGradient>
<linearGradient id="paint2_linear_1_351" x1="21.8999" y1="24.7002" x2="21.8999" y2="53.2002" gradientUnits="userSpaceOnUse">
<stop stop-color="#2A5C3A"/>
<stop offset="1" stop-color="#1A3A2A"/>
</linearGradient>
<linearGradient id="paint3_linear_1_351" x1="27.6001" y1="47.5" x2="42.3506" y2="16.524" gradientUnits="userSpaceOnUse">
<stop stop-color="#4ADE80"/>
<stop offset="1" stop-color="#A3E635"/>
</linearGradient>
</defs>
</svg>
