<svg width="97" height="95" viewBox="0 0 97 95" fill="none" xmlns="http://www.w3.org/2000/svg">
<g opacity="0.08" filter="url(#filter0_f_1_6237)">
<path d="M48.4998 11.4004L73.1998 20.9004V47.5004C73.1998 61.4337 64.9665 73.4671 48.4998 83.6004C32.0331 73.4671 23.7998 61.4337 23.7998 47.5004V20.9004L48.4998 11.4004Z" fill="#4ADE80"/>
</g>
<path d="M48.5001 15.2002L69.4001 23.7502V47.5002C69.4001 59.5335 62.4334 69.9835 48.5001 78.8502C34.5668 69.9835 27.6001 59.5335 27.6001 47.5002V23.7502L48.5001 15.2002Z" fill="url(#paint0_linear_1_6237)" stroke="#3A7A50" stroke-width="0.95"/>
<path d="M48.4998 20.9004L63.6998 28.5004V47.5004C63.6998 56.3671 58.6331 64.6004 48.4998 72.2004C38.3665 64.6004 33.2998 56.3671 33.2998 47.5004V28.5004L48.4998 20.9004Z" fill="url(#paint1_linear_1_6237)" stroke="#2A5C3A" stroke-width="0.57"/>
<path opacity="0.8" d="M40.8999 36.0996H56.0999" stroke="#2A5C3A" stroke-width="0.57"/>
<path opacity="0.8" d="M40.8999 47.5H56.0999" stroke="#2A5C3A" stroke-width="0.57"/>
<path opacity="0.8" d="M40.8999 58.9004H56.0999" stroke="#2A5C3A" stroke-width="0.57"/>
<path opacity="0.8" d="M40.8999 33.25V61.75" stroke="#2A5C3A" stroke-width="0.57"/>
<path opacity="0.8" d="M48.5 30.4004V64.6004" stroke="#2A5C3A" stroke-width="0.57"/>
<path opacity="0.8" d="M56.1001 33.25V61.75" stroke="#2A5C3A" stroke-width="0.57"/>
<g filter="url(#filter1_f_1_6237)">
<path d="M52.7751 45.5996H44.2251C42.9134 45.5996 41.8501 46.6629 41.8501 47.9746V54.6246C41.8501 55.9363 42.9134 56.9996 44.2251 56.9996H52.7751C54.0868 56.9996 55.1501 55.9363 55.1501 54.6246V47.9746C55.1501 46.6629 54.0868 45.5996 52.7751 45.5996Z" fill="url(#paint2_linear_1_6237)"/>
</g>
<g filter="url(#filter2_f_1_6237)">
<path d="M44.7002 45.5998V41.7998C44.7002 38.6331 45.9669 37.0498 48.5002 37.0498C51.0335 37.0498 52.3002 38.6331 52.3002 41.7998V45.5998" stroke="url(#paint3_linear_1_6237)" stroke-width="1.9" stroke-linecap="round"/>
</g>
<path d="M48.5001 53.2004C49.5494 53.2004 50.4001 52.3497 50.4001 51.3004C50.4001 50.251 49.5494 49.4004 48.5001 49.4004C47.4508 49.4004 46.6001 50.251 46.6001 51.3004C46.6001 52.3497 47.4508 53.2004 48.5001 53.2004Z" fill="#0D2218"/>
<g opacity="0.7" filter="url(#filter3_f_1_6237)">
<path d="M35.1999 29.9252C35.9869 29.9252 36.6249 29.2872 36.6249 28.5002C36.6249 27.7132 35.9869 27.0752 35.1999 27.0752C34.4129 27.0752 33.7749 27.7132 33.7749 28.5002C33.7749 29.2872 34.4129 29.9252 35.1999 29.9252Z" fill="#4ADE80"/>
</g>
<g opacity="0.7" filter="url(#filter4_f_1_6237)">
<path d="M61.8 29.9252C62.587 29.9252 63.225 29.2872 63.225 28.5002C63.225 27.7132 62.587 27.0752 61.8 27.0752C61.013 27.0752 60.375 27.7132 60.375 28.5002C60.375 29.2872 61.013 29.9252 61.8 29.9252Z" fill="#4ADE80"/>
</g>
<defs>
<filter id="filter0_f_1_6237" x="18.0998" y="5.70039" width="60.7999" height="83.6002" filterUnits="userSpaceOnUse" color-interpolation-filters="sRGB">
<feFlood flood-opacity="0" result="BackgroundImageFix"/>
<feBlend mode="normal" in="SourceGraphic" in2="BackgroundImageFix" result="shape"/>
<feGaussianBlur stdDeviation="2.85" result="effect1_foregroundBlur_1_6237"/>
</filter>
<filter id="filter1_f_1_6237" x="38.0501" y="41.7996" width="20.8998" height="19.0004" filterUnits="userSpaceOnUse" color-interpolation-filters="sRGB">
<feFlood flood-opacity="0" result="BackgroundImageFix"/>
<feBlend mode="normal" in="SourceGraphic" in2="BackgroundImageFix" result="shape"/>
<feGaussianBlur stdDeviation="1.9" result="effect1_foregroundBlur_1_6237"/>
</filter>
<filter id="filter2_f_1_6237" x="39.95" y="32.2996" width="17.1" height="18.0502" filterUnits="userSpaceOnUse" color-interpolation-filters="sRGB">
<feFlood flood-opacity="0" result="BackgroundImageFix"/>
<feBlend mode="normal" in="SourceGraphic" in2="BackgroundImageFix" result="shape"/>
<feGaussianBlur stdDeviation="1.9" result="effect1_foregroundBlur_1_6237"/>
</filter>
<filter id="filter3_f_1_6237" x="29.9749" y="23.2752" width="10.4501" height="10.4496" filterUnits="userSpaceOnUse" color-interpolation-filters="sRGB">
<feFlood flood-opacity="0" result="BackgroundImageFix"/>
<feBlend mode="normal" in="SourceGraphic" in2="BackgroundImageFix" result="shape"/>
<feGaussianBlur stdDeviation="1.9" result="effect1_foregroundBlur_1_6237"/>
</filter>
<filter id="filter4_f_1_6237" x="56.575" y="23.2752" width="10.4501" height="10.4496" filterUnits="userSpaceOnUse" color-interpolation-filters="sRGB">
<feFlood flood-opacity="0" result="BackgroundImageFix"/>
<feBlend mode="normal" in="SourceGraphic" in2="BackgroundImageFix" result="shape"/>
<feGaussianBlur stdDeviation="1.9" result="effect1_foregroundBlur_1_6237"/>
</filter>
<linearGradient id="paint0_linear_1_6237" x1="27.6001" y1="15.2002" x2="27.6001" y2="78.8502" gradientUnits="userSpaceOnUse">
<stop stop-color="#2A5C3A"/>
<stop offset="1" stop-color="#1A3A2A"/>
</linearGradient>
<linearGradient id="paint1_linear_1_6237" x1="33.2998" y1="20.9004" x2="33.2998" y2="72.2004" gradientUnits="userSpaceOnUse">
<stop stop-color="#1A4A2E"/>
<stop offset="1" stop-color="#0D2218"/>
</linearGradient>
<linearGradient id="paint2_linear_1_6237" x1="41.8501" y1="45.5996" x2="53.116" y2="58.7431" gradientUnits="userSpaceOnUse">
<stop stop-color="#4ADE80"/>
<stop offset="1" stop-color="#A3E635"/>
</linearGradient>
<linearGradient id="paint3_linear_1_6237" x1="44.7002" y1="37.0498" x2="53.1912" y2="44.5974" gradientUnits="userSpaceOnUse">
<stop stop-color="#4ADE80"/>
<stop offset="1" stop-color="#A3E635"/>
</linearGradient>
</defs>
</svg>
